<?xml version="1.0" encoding="UTF-8" standalone="no"?>
<!-- Created with Inkscape (http://www.inkscape.org/) -->

<svg
   xmlns:dc="http://purl.org/dc/elements/1.1/"
   xmlns:cc="http://creativecommons.org/ns#"
   xmlns:rdf="http://www.w3.org/1999/02/22-rdf-syntax-ns#"
   xmlns:svg="http://www.w3.org/2000/svg"
   xmlns="http://www.w3.org/2000/svg"
   xmlns:sodipodi="http://sodipodi.sourceforge.net/DTD/sodipodi-0.dtd"
   xmlns:inkscape="http://www.inkscape.org/namespaces/inkscape"
   width="144.26331mm"
   height="255.34244mm"
   viewBox="0 0 545.24717 965.07378"
   version="1.1"
   id="SVGRoot"
   inkscape:version="0.92.4 (5da689c313, 2019-01-14)"
   sodipodi:docname="goa_blu.svg"
   inkscape:export-filename="C:\Users\Phil2\goa_blu.svg.png"
   inkscape:export-xdpi="96"
   inkscape:export-ydpi="96">
  <defs
     id="defs3838" />
  <sodipodi:namedview
     id="base"
     pagecolor="#ffffff"
     bordercolor="#666666"
     borderopacity="1.0"
     inkscape:pageopacity="0.0"
     inkscape:pageshadow="2"
     inkscape:zoom="1.8101934"
     inkscape:cx="197.58088"
     inkscape:cy="454.61366"
     inkscape:document-units="px"
     inkscape:current-layer="layer1"
     showgrid="false"
     inkscape:window-width="1366"
     inkscape:window-height="706"
     inkscape:window-x="-8"
     inkscape:window-y="-8"
     inkscape:window-maximized="1"
     fit-margin-top="0"
     fit-margin-left="0"
     fit-margin-right="0"
     fit-margin-bottom="5"
     units="mm" />
  <metadata
     id="metadata3841">
    <rdf:RDF>
      <cc:Work
         rdf:about="">
        <dc:format>image/svg+xml</dc:format>
        <dc:type
           rdf:resource="http://purl.org/dc/dcmitype/StillImage" />
        <dc:title />
      </cc:Work>
    </rdf:RDF>
  </metadata>
  <g
     inkscape:label="Calque 1"
     inkscape:groupmode="layer"
     id="layer1"
     transform="translate(-96.914556,91.203396)">
    <path
       id="path3853"
       style="fill:#000000"
       d="m 391.05273,-91.203125 c -1.5124,0.0016 -3.02252,0.0511 -4.52148,0.275391 l -1.30273,0.259765 -6.80079,5.152344 c -1.1128,0.400292 -2.2195,0.816656 -3.31445,1.277344 -1.95808,0.831478 -3.85791,1.771201 -5.73047,2.763672 -0.11022,0.06945 -0.14582,0.09446 -0.30664,0.193359 -0.49961,0.307238 -6.86789,4.003263 -12.01172,6.994141 -1.12225,0.669869 -2.24687,1.333251 -3.38281,1.980468 -1.47623,0.857071 -4.93935,2.867592 12.76367,-7.402343 -6.98475,4.109347 -13.97522,8.208532 -20.95508,12.326172 -0.14658,0.08647 -0.28898,0.179784 -0.43359,0.269531 -0.9992,0.588619 -2.00527,1.16492 -3.00195,1.757812 -0.77374,0.460271 -1.39877,1.142348 -2.15625,1.628907 -2.47736,1.553088 -4.7389,3.426195 -7.32422,4.816406 -2.3204,1.870938 -4.95151,3.340808 -7.19922,5.298828 -2.95526,2.596871 -6.00332,5.089477 -8.91406,7.746094 -2.91705,2.130141 -5.29425,4.881139 -8.12305,7.109375 -2.05867,1.868266 -3.79537,4.032435 -5.66406,6.101562 -2.01523,2.537258 -4.34947,4.816208 -6.33985,7.365235 -2.04805,2.508811 -4.00218,5.12321 -5.71875,7.873046 -2.04504,3.095672 -4.24617,6.095373 -6.1875,9.2578129 -2.14705,2.93824 -3.52153,6.2791207 -5.04296,9.5488281 -1.7422,3.0709842 -3.1994,6.2850315 -5.14063,9.240234 -1.65177,3.109685 -3.2136,6.283089 -4.625,9.511719 -1.54329,3.040074 -2.87329,6.224869 -3.85937,9.492188 -1.24253,2.620162 -2.38207,5.317297 -3.20118,8.103515 -1.11361,3.001715 -2.23877,6.018017 -3.09375,9.107422 -0.72295,3.167566 -1.73163,6.260664 -2.72265,9.353516 -0.82808,3.132465 -1.5152,6.325521 -2.61719,9.376953 -0.86671,3.145759 -1.82431,6.27003 -2.58594,9.445312 -1.37014,2.979763 -1.59502,6.271108 -2.46484,9.382813 -0.90522,3.575453 -2.02527,7.062788 -2.6211,10.716797 -0.19353,3.281633 -1.05908,6.447396 -1.54492,9.689456 -0.49144,3.14935 -1.32381,6.218 -1.7207,9.39453 -0.40257,3.14605 -1.19901,6.21472 -1.57422,9.37695 -0.77899,3.07991 -1.38016,6.17385 -2.2168,9.23633 -0.54478,3.1726 -1.33103,6.27555 -1.99414,9.42383 -0.18803,3.33242 -1.26657,6.48013 -1.84179,9.74804 -0.33889,3.04927 -0.48521,6.05679 -1.08594,9.06641 -0.72473,3.12829 -1.67915,6.16854 -2.15625,9.36133 -0.10506,3.17807 -0.69312,6.24622 -1.24414,9.36523 -0.28594,3.18247 -1.22398,6.23083 -1.74414,9.37696 -0.35748,3.52159 -0.54262,7.01437 -1.04492,10.51953 -0.37641,4.06972 -1.0593,8.06749 -1.76172,12.08984 -0.59746,3.42 -0.77499,6.88758 -0.86719,10.35156 0.18673,3.14286 -0.61973,6.17997 -1.05469,9.26953 -0.0725,3.3209 -0.68527,6.50033 -1.32617,9.74219 -0.32743,3.05754 -1.25394,5.98061 -1.76172,9.00977 -0.58618,3.09644 -0.24535,6.28284 -0.81836,9.36719 -0.68252,3.11145 -0.99989,6.27671 -1.18359,9.45117 -0.26793,3.10182 0.13971,6.2502 -0.39063,9.32031 -0.65637,3.10832 -0.98002,6.26306 -1.16601,9.42969 -0.14715,3.14519 -0.14444,6.29551 -0.14844,9.44336 0.3101,2.92186 -0.2462,5.64545 -0.82226,8.47461 -0.53096,2.88096 -0.62652,5.81536 -0.69922,8.73632 0.0286,2.9596 0.0696,5.82408 -0.60547,8.70704 -0.64884,2.79141 -0.80819,5.65832 -0.91992,8.51171 -0.0892,3.1031 -0.0791,6.2065 -0.0781,9.31055 -0.11863,3.08446 0.28442,6.2109 -0.23828,9.26172 -0.77008,3.05655 -0.71026,6.25176 -1.41797,9.30664 -0.79999,3.10991 -1.13377,6.29989 -1.32812,9.49609 -0.14833,3.14657 -0.14354,6.29607 -0.14454,9.44532 0.28075,3.13401 -0.26252,6.13711 -0.77929,9.20508 -0.51615,3.14596 -0.64982,6.33436 -0.73242,9.51562 -0.12942,3.11723 -0.89545,6.17216 -1.24024,9.28125 -0.30351,3.1536 -0.33543,6.32481 -0.36133,9.49023 -0.0136,3.12915 -0.006,6.25755 -0.002,9.38672 0.009,3.18422 -0.009,6.36863 0.0215,9.55274 0.0149,3.52601 0.001,7.05211 -0.006,10.57812 -0.006,3.18858 -0.009,6.37783 -0.01,9.56641 -6.6e-4,3.12276 -5e-5,6.24443 0,9.36719 6e-5,3.12386 -2e-5,6.24723 0,9.37109 1e-5,3.12496 0,6.25004 0,9.375 v 9.375 9.375 c -0.28623,2.94277 0.52719,5.75554 1.01562,8.62305 0.42881,2.84849 0.48421,5.73276 0.53321,8.60742 0.0344,3.10738 0.0255,6.21475 0.0215,9.32226 -0.004,3.12777 -0.007,6.257 -0.008,9.38477 -0.25369,3.03386 0.19553,5.92871 0.79492,8.88281 0.54303,2.76438 0.64902,5.58458 0.72852,8.39258 0.0614,3.09182 0.0518,6.18507 0.0488,9.27734 -0.005,3.12792 -0.008,6.2549 -0.01,9.38282 -9.3e-4,3.12569 5e-5,6.25126 0,9.37695 -0.25913,3.24002 0.2625,6.36876 0.79883,9.54492 0.43552,2.80611 1.46578,5.44879 1.92187,8.25977 0.60952,2.87965 1.64896,5.60462 2.55469,8.39258 0.64105,2.46157 1.63833,4.81983 2.72461,7.11523 1.30759,2.33433 2.67737,4.61417 3.94922,6.96875 1.61792,2.33826 3.04528,4.76746 4.70703,7.07617 1.36226,2.56155 2.93335,4.94801 4.58789,7.32422 1.59788,1.98155 3.1611,4.05525 4.2793,6.35156 1.37495,2.24975 2.97246,4.37642 4.72461,6.34766 1.89239,2.14022 3.5566,4.45934 5.48242,6.56836 1.9873,2.42306 4.01037,4.83244 6.2207,7.05664 2.06139,2.15592 4.10574,4.3345 6.27149,6.38672 2.09122,2.07394 4.11129,4.22299 6.25195,6.24609 2.24147,1.87941 4.60237,3.61235 6.88672,5.44141 2.12362,1.64459 4.34329,3.14211 6.63086,4.54492 1.94414,1.29949 3.90455,2.56094 5.88281,3.81055 2.08935,1.22568 4.23581,2.24761 6.50586,3.08398 2.29746,0.84702 4.47265,1.98121 6.78711,2.77734 2.44573,0.89366 4.85666,1.8799 7.31836,2.73243 2.69969,0.73504 5.28234,1.77496 8.02148,2.36523 2.99715,0.53941 6.05003,0.58295 9.08594,0.62695 2.87817,-0.0833 5.69634,-0.0174 8.52148,0.53907 2.86206,0.62293 5.78467,0.81725 8.70313,0.93945 3.11228,0.0974 6.2264,0.09 9.33984,0.0898 2.8301,-0.24695 5.55,0.25876 8.3086,0.78125 2.93403,0.53778 5.91798,0.65233 8.89257,0.73243 3.12053,0.0593 6.24235,0.0499 9.36329,0.0469 3.12732,-0.004 6.25353,-0.007 9.38086,-0.008 3.1252,-9.3e-4 6.25174,5e-5 9.37695,0 3.21395,-0.16947 6.42901,-0.71748 9.55273,-1.49219 3.01192,-0.87588 6.11366,-1.26945 9.23242,-1.48828 3.24984,-0.20332 6.39895,-1.04253 9.51954,-1.91406 3.02795,-0.8955 6.18091,-1.0604 9.30273,-1.35742 3.11058,-0.62497 6.25238,-1.01418 9.39648,-1.41602 2.93887,-0.55027 5.85825,-1.09453 8.71485,-1.98047 2.74511,-0.77032 5.53577,-1.433 8.19726,-2.46484 2.85139,-1.01379 5.62132,-2.22651 8.37696,-3.47266 11.57641,-6.67022 15.92891,-9.17305 19.80468,-11.40039 3.41192,-1.99795 1.89739,-1.12117 7.51563,-4.40625 0.44366,-0.25942 0.88137,-0.52695 1.32227,-0.79102 2.78278,-1.89874 5.46306,-3.96822 8.33789,-5.72851 3.10183,-2.04232 6.08633,-4.27787 9.26171,-6.20508 3.06322,-2.20267 6.41887,-3.95537 9.13868,-6.5957 2.63946,-2.0925 5.12361,-4.3984 7.2539,-7.00391 2.05972,-1.5865 2.88469,-4.13736 4.67969,-5.94922 1.71233,-2.17441 2.79224,-4.70425 3.8125,-7.25781 0.69796,-2.85779 1.92561,-5.49987 2.5293,-8.38477 1.26285,-2.37106 1.65573,-5.00097 1.91601,-7.63671 0.81232,-2.51489 1.36255,-5.07741 2.09766,-7.61329 0.69915,-3.04033 1.36543,-6.11759 2.42187,-9.05859 1.0214,-3.09259 1.51604,-6.30173 2.32032,-9.45117 0.4892,-3.17573 1.25819,-6.27273 1.91015,-9.41602 0.60566,-3.15274 0.7299,-6.36381 0.8086,-9.56445 0.0514,-3.13576 0.0362,-6.27216 0.0312,-9.4082 0.59902,-3.07186 1.05711,-6.1586 1.3164,-9.27735 0.21842,-3.15011 0.23124,-6.3087 0.24414,-9.46484 0.005,-3.12741 -0.007,-6.2554 -0.01,-9.38281 -0.003,-3.12468 -0.003,-6.25032 -0.004,-9.375 -2.8e-4,-3.12494 -3e-5,-6.25006 0,-9.375 3e-5,-3.12501 0,-6.25 0,-9.375 1e-5,-3.125 0,-6.25 0,-9.375 v -9.375 -9.375 -9.375 -9.375 c -0.0787,-3.16924 0.21836,-6.35456 -0.25,-9.4961 -0.38594,-3.22571 -1.2406,-6.33608 -1.97266,-9.49023 -0.7522,-3.05339 -0.58617,-6.21765 -1.13085,-9.29297 -0.78067,-3.09139 -0.8153,-6.30166 -1.45899,-9.4082 -0.67812,-3.13922 -1.09867,-6.29862 -1.8457,-9.42188 -0.83848,-3.04706 -0.7564,-6.22983 -1.34375,-9.31054 -0.4078,-3.00725 -1.24276,-5.87705 -2.05078,-8.78907 -0.68404,-2.71812 -0.77887,-5.52913 -0.85938,-8.3164 -0.69601,-3.1358 -0.89839,-6.36464 -1.61914,-9.48829 -0.82849,-3.02386 -1.2006,-6.12848 -1.40234,-9.24804 -0.15313,-3.09812 -0.14379,-6.19979 -0.14453,-9.30078 -0.11839,-3.2101 -0.63118,-6.49573 -1.4375,-9.61328 -0.93455,-3.42447 -1.32229,-6.95276 -1.54493,-10.48438 -0.33995,-3.58062 -0.81218,-7.2174 -1.59765,-10.73633 -0.86172,-3.22722 -1.30017,-6.52631 -1.52344,-9.85156 -0.19744,-3.17673 -0.98113,-6.28061 -1.3457,-9.44727 -0.89213,-2.7337 -1.25678,-5.58701 -1.93555,-8.36718 -0.89536,-3.79782 -1.22596,-7.68682 -1.44141,-11.57227 -0.35926,-3.83274 -1.35476,-7.52186 -2.24023,-11.25 -0.62627,-3.04184 -0.7523,-6.11169 -1.49219,-9.12891 -0.52718,-3.15474 -1.17509,-6.2761 -1.78906,-9.41796 -0.38889,-3.47943 -1.033,-6.90504 -1.60742,-10.35743 -0.18159,-3.18244 -1.17439,-6.20233 -1.77539,-9.31054 -0.22389,-2.98205 -0.81154,-5.8793 -1.36524,-8.8125 -0.55971,-3.08553 -0.65625,-6.22354 -0.75195,-9.34961 -0.68606,-3.50707 -0.79265,-7.12556 -1.60352,-10.60156 -0.83641,-2.6755 -1.20344,-5.4356 -1.39843,-8.22071 -0.2318,-3.07568 0.0589,-6.16738 -0.40039,-9.21875 -0.62354,-3.07816 -0.97259,-6.19249 -1.16016,-9.32422 -0.64693,-2.69427 -1.20344,-5.38672 -1.4707,-8.14648 -0.0362,-2.85801 -0.5896,-5.66139 -1.52149,-8.35742 -1.06725,-2.73726 -1.45839,-5.63128 -1.68554,-8.53906 -0.10233,-3.04751 -0.0708,-6.03382 -0.69532,-9.0254 -0.5212,-2.80247 -0.83751,-5.6007 -1.47461,-8.38086 -0.79331,-3.01894 -0.7103,-6.16137 -1.28906,-9.20703 -0.71605,-3.05223 -1.06047,-6.15983 -1.24805,-9.2832 -0.43771,-3.26913 -1.44853,-6.39123 -2.26953,-9.57031 -0.81947,-3.03562 -0.66114,-6.20194 -1.21093,-9.27149 -0.78407,-3.08991 -0.81818,-6.29844 -1.46094,-9.404293 -0.67729,-3.139395 -1.09686,-6.298586 -1.84375,-9.421875 -0.77377,-3.114193 -1.78643,-6.131721 -2.29102,-9.3125 -0.3565,-3.115116 -1.13528,-6.168699 -2.18554,-9.117188 -0.85154,-2.693619 -1.17942,-5.491353 -1.83399,-8.236328 -0.50186,-3.11863 -1.47757,-6.118929 -2.05664,-9.222656 -0.6759,-3.022087 -1.77581,-5.889899 -2.74023,-8.820312 -0.68993,-2.953953 -2.02256,-5.691711 -2.96875,-8.5625 -0.7432,-2.805553 -1.84848,-5.504389 -2.86524,-8.220704 -0.96296,-2.878023 -1.93443,-5.747402 -3.09375,-8.552734 -1.07991,-2.294578 -1.86085,-4.714936 -2.85351,-7.0429688 -0.88662,-2.2342376 -1.77665,-4.4851699 -2.90821,-6.609375 -1.05429,-2.18577919 -1.74848,-4.4894402 -2.87304,-6.6523437 -1.16826,-2.8930245 -2.56872,-5.6666445 -4.09571,-8.3886715 -1.67559,-3.03279 -3.11003,-6.200964 -4.86914,-9.185547 -1.42369,-2.338639 -2.13694,-4.98507 -3.55469,-7.328125 -1.05486,-2.064018 -2.30068,-3.984431 -3.64843,-5.867188 -1.30804,-2.430112 -2.85187,-4.716832 -4.36328,-7.021484 -1.10662,-2.27092 -2.27273,-4.535646 -2.91993,-6.990235 -1.0762,-2.138384 -2.29178,-4.207464 -3.44336,-6.320312 -1.3226,-1.957675 -2.27197,-4.022021 -3.1914,-6.1875 -1.43755,-2.663687 -2.45508,-5.509482 -4.0918,-8.064453 -1.20802,-2.157923 -2.60229,-4.212271 -3.81836,-6.367188 -1.30196,-2.359425 -3.11322,-4.181284 -5.19726,-5.845703 -1.97083,-1.354466 -4.12945,-2.368822 -6.22266,-3.507812 -2.14873,-1.100792 -4.30573,-2.102943 -6.57617,-2.923828 -2.48086,-1.215492 -5.15416,-1.718008 -7.875,-2.013672 -3.08064,-0.253117 -6.17499,-0.245653 -9.26367,-0.251953 -1.51099,0.03342 -3.02667,-0.01129 -4.53907,-0.0098 z M 487.14648,678.25 c -2.14373,1.25533 -3.32599,1.94819 -4.72265,2.76758 -3.69086,2.13492 -3.06515,1.76087 -11.99024,6.93945 -0.2934,0.17024 6.37823,-3.69038 11.48047,-6.64062 -16.41783,9.63482 12.75955,-7.34197 10.99414,-6.36524 1.21072,-0.70649 -1.81525,1.03087 -5.76172,3.29883 z M 353.68164,-72.306641 c -0.1078,0.06142 -0.2182,0.118551 -0.32617,0.179688 -3.86686,2.246741 1.26301,-0.723596 0.32617,-0.179688 z m -0.32617,0.179688 c 1.53643,-0.892703 2.12057,-1.236577 3.70898,-2.160156 4.08903,-2.440736 8.12506,-4.965019 12.31836,-7.1875 4.04156,-2.546583 -24.89592,14.106561 -18.77929,10.865234 0.92591,-0.490658 1.84074,-1.001639 2.75195,-1.517578 z m 21.23437,-5.507813 c 0.73497,0.0028 1.49353,0.0203 2.29102,0.03906 3.04363,-0.0044 6.08728,-0.0233 9.12891,0.105469 2.52721,0.152286 5.09335,0.337118 7.41796,1.4375 1.10632,0.531246 2.21998,0.734991 3.33594,1.220703 2.35414,1.024619 -0.39072,-0.04375 2.08789,1.166015 0.33181,0.16195 0.69407,0.252598 1.04102,0.378907 2.03565,1.0356 4.02426,2.114963 6.02734,3.201171 1.95391,1.347927 3.54232,2.916173 4.72656,4.996094 1.22819,2.214113 2.62579,4.328279 3.89454,6.515625 1.62454,2.383174 2.54897,5.123501 3.875,7.671875 0.89993,2.274635 1.94435,4.388902 3.2871,6.429688 1.07464,1.956255 2.16685,3.902687 3.2129,5.849609 0.78769,2.656197 2.02898,5.143597 3.29296,7.599609 1.53554,2.323334 3.07737,4.637448 4.34961,7.123047 1.30557,1.851756 2.57151,3.699284 3.58789,5.734375 1.46246,2.293456 2.08084,4.996669 3.60938,7.259766 1.80071,2.9274536 3.17108,6.1054216 4.85156,9.1035156 1.49119,2.71272816 2.81741,5.4875121 3.97852,8.3554688 1.08075,2.1958553 1.76505,4.5311356 2.87304,6.7089846 1.10404,2.057893 1.93228,4.25882 2.8125,6.417969 0.96987,2.337226 1.81649,4.721754 2.88282,7.019531 1.16951,2.769068 2.10806,5.620394 3.0625,8.470703 1.0059,2.692812 2.05621,5.377835 2.84961,8.140625 0.98295,2.860604 2.21034,5.638772 2.93359,8.585937 0.97645,2.818165 2.03351,5.594384 2.62891,8.53125 0.64058,3.11439 1.547,6.166232 2.08593,9.302735 0.64703,2.829751 0.92428,5.742806 1.93555,8.480469 1.01377,2.827308 1.66193,5.760784 2.0293,8.74414 0.58913,3.203105 1.61765,6.272959 2.36133,9.4375 0.71678,3.08877 1.09049,6.234125 1.78906,9.328125 0.50843,3.10873 0.73051,6.26258 1.42773,9.34375 0.41219,3.16296 0.44171,6.3874 1.33008,9.47852 0.81699,3.03294 1.73611,6.04652 2.05469,9.1875 0.24403,3.19058 0.67936,6.3528 1.35742,9.48242 0.44341,3.10592 0.53836,6.26669 1.33398,9.32031 0.5952,2.76786 0.81155,5.58478 1.41797,8.35157 0.54696,2.90597 0.36359,5.84782 0.61524,8.78711 0.30482,3.07033 0.82102,6.10787 1.90625,9.01171 0.77736,2.58904 1.23688,5.2241 1.30078,7.93164 0.3145,2.72079 0.91425,5.37201 1.45312,8.05274 0.23769,3.16693 0.667,6.30374 1.2168,9.43164 0.26593,3.03961 0.0661,6.10193 0.33789,9.14453 0.25463,2.88297 0.71526,5.72896 1.5625,8.50391 0.71312,3.34632 0.98857,6.79656 1.43359,10.18554 0.075,3.24875 0.27495,6.49999 0.89258,9.69727 0.56602,2.94135 0.96592,5.8855 1.35352,8.85352 0.65489,3.06173 1.56904,6.0599 1.8164,9.19921 0.59716,3.47133 1.0654,6.95365 1.61133,10.43164 0.64572,3.17278 1.16424,6.35705 1.77149,9.53321 0.71257,3.00419 0.78518,6.10144 1.56054,9.09765 0.89821,3.58062 1.8191,7.15403 2.08985,10.85352 0.23842,4.00826 0.74144,7.99186 1.54883,11.92773 0.52638,2.75012 1.06548,5.48814 1.82617,8.18555 0.41179,3.12224 1.15726,6.19975 1.30078,9.35156 0.29872,3.40932 0.84321,6.7797 1.70508,10.09571 0.67891,3.45245 1.17261,6.96491 1.43164,10.47265 0.30305,3.6473 0.81462,7.27046 1.70312,10.82617 0.66089,2.99145 1.20164,6.06681 1.17774,9.13672 0.008,3.15107 0.009,6.30565 0.2207,9.45118 0.26667,3.21298 0.7389,6.39484 1.55273,9.51953 0.57768,3.02457 0.96785,6.09387 1.41797,9.13867 0.11797,2.96663 0.29505,5.9524 1.09571,8.82812 0.81856,2.81937 1.56732,5.6265 1.96875,8.54492 0.45489,3.14833 0.56499,6.35343 1.41797,9.43946 0.71699,3.08887 1.09155,6.23416 1.79101,9.32812 0.50908,3.10753 0.73252,6.26071 1.42383,9.3418 0.40075,3.15166 0.41253,6.3599 1.22266,9.45508 0.74012,3.06508 1.48193,6.12092 1.84179,9.26172 0.26192,3.07534 0.0598,6.16827 0.12305,9.25195 v 9.375 9.375 9.375 9.375 c 0,3.125 10e-6,6.25 0,9.375 -10e-6,3.125 2e-5,6.25001 0,9.375 -2e-5,3.12506 -4.3e-4,6.25189 0,9.37695 10e-4,3.12532 0.002,6.24968 0.006,9.375 0.004,3.12258 0.0118,6.24462 -0.002,9.36719 -0.0242,3.09676 -0.0545,6.19862 -0.33399,9.28516 -0.33068,3.17078 -0.98215,6.29416 -1.21875,9.47265 0.004,3.11393 0.0159,6.22866 -0.0664,9.3418 -0.11418,3.08048 -0.30356,6.16962 -0.98828,9.18555 -0.70124,3.10699 -1.25137,6.23586 -1.9414,9.34375 -0.77653,3.11052 -1.25702,6.29485 -2.38086,9.3125 -0.87686,3.02638 -1.65203,6.07728 -2.42383,9.13086 -0.76854,2.61558 -1.41412,5.28062 -1.94922,7.95117 -0.39566,2.55944 -1.21724,4.95123 -2.03711,7.39844 -0.76757,2.70699 -1.73854,5.36617 -2.66992,8.01757 -1.13141,2.39812 -2.33507,4.72891 -4.13477,6.71094 -1.39344,2.07401 -2.84042,4.0871 -4.65625,5.82031 -2.31904,2.36943 -4.71612,4.63575 -7.3125,6.70508 -2.96315,2.26645 -6.16935,4.196 -9.2539,6.29102 -3.07703,2.0947 -6.17645,4.15299 -9.26758,6.22656 -1.02188,0.71138 -2.04805,1.41734 -3.07422,2.12305 -0.84638,0.33755 -1.69668,0.66205 -2.55469,0.95703 -2.62015,1.07618 -5.26474,2.08601 -8.05468,2.65039 -2.88152,0.7616 -5.62931,1.82618 -8.61914,2.18164 -3.06139,0.7667 -6.2966,0.5988 -9.35547,1.4707 -3.09975,0.69159 -6.35154,0.34565 -9.44727,1.17578 -3.08732,0.7541 -6.07267,1.81018 -9.23047,2.28125 -3.19662,0.12068 -6.40667,0.31881 -9.51758,1.12305 -3.03946,0.82241 -6.08882,1.41048 -9.19531,1.95703 -3.12541,-1e-5 -6.25155,-6.9e-4 -9.37695,0 -3.1277,10e-4 -6.25512,0.004 -9.38281,0.008 -3.10962,0.004 -6.21857,0.0136 -9.32813,-0.0117 -2.89001,-0.0384 -5.7913,-0.0765 -8.66016,-0.46485 -2.86365,-0.45907 -5.63806,-1.39515 -8.57617,-1.08398 -3.09582,0.004 -6.19155,0.0145 -9.28711,-0.0332 -2.82571,-0.0643 -5.66518,-0.14114 -8.45312,-0.65039 -2.93716,-0.59347 -5.77814,-1.1773 -8.80664,-0.86718 -2.94635,-0.0125 -5.90113,-0.008 -8.83399,-0.32618 -2.73467,-0.39068 -5.22784,-1.35866 -7.85937,-2.11132 -2.51005,-0.7258 -4.92656,-1.75545 -7.31836,-2.79493 -2.34183,-0.56156 -4.35624,-1.77704 -6.61914,-2.55664 -1.09315,-0.52904 -2.20079,-0.73232 -3.29883,-1.22656 -1.85364,-0.83435 -0.11335,-0.18442 -2.0293,-1.19336 -0.31619,-0.16651 -0.66263,-0.26698 -0.99414,-0.40039 -2.01669,-1.16345 -3.91732,-2.46693 -5.85937,-3.73828 -2.16447,-1.47804 -4.52661,-2.66315 -6.53711,-4.38086 -2.30543,-1.70632 -4.5366,-3.52005 -6.81641,-5.25781 -2.21033,-1.94269 -4.15176,-4.18417 -6.25195,-6.24414 -2.22193,-1.95529 -4.17558,-4.21061 -6.24414,-6.32422 -2.25935,-2.10797 -4.19461,-4.55994 -6.1543,-6.94141 -1.94067,-2.10095 -3.58592,-4.42646 -5.43555,-6.60742 -1.68675,-1.7357 -3.07647,-3.74555 -4.38476,-5.77539 -1.19602,-2.3806 -2.76409,-4.59507 -4.49024,-6.61914 -1.65089,-2.39632 -3.24167,-4.78591 -4.5957,-7.37109 -1.6031,-2.22329 -2.97025,-4.56129 -4.55078,-6.80079 -1.22313,-2.34567 -2.61686,-4.56579 -3.85937,-6.89843 -1.04947,-2.21055 -1.97598,-4.48993 -2.61719,-6.85547 -0.90831,-2.66901 -1.89423,-5.29597 -2.39649,-8.08594 -0.52194,-2.78302 -1.53274,-5.42927 -1.94921,-8.22851 -0.51205,-3.05914 -0.79413,-6.09405 -0.61719,-9.20313 0,-3.12532 -1.5e-4,-6.25163 0.002,-9.37695 0.002,-3.12785 0.007,-6.25497 0.01,-9.38282 0.001,-3.11665 0.008,-6.23384 -0.0762,-9.3496 -0.10838,-2.93201 -0.27327,-5.87208 -0.875,-8.75196 -0.56478,-2.8062 -0.79342,-5.58309 -0.62109,-8.45312 0.001,-3.12726 0.004,-6.2536 0.008,-9.38086 0.003,-3.12307 0.0132,-6.24635 -0.0371,-9.36914 -0.0695,-2.98847 -0.16692,-5.98783 -0.66796,-8.94141 -0.49583,-2.73884 -1.12973,-5.43436 -0.86524,-8.24609 v -9.375 -9.375 c 0,-3.12497 -1e-5,-6.25003 0,-9.375 2e-5,-3.1239 -6e-5,-6.2472 0,-9.3711 5e-5,-3.1226 -9e-4,-6.24458 -0.002,-9.36718 -0.001,-3.18553 -0.002,-6.37111 -0.008,-9.55664 -0.008,-3.52385 -0.0217,-7.04844 -0.008,-10.57227 0.029,-3.19031 0.009,-6.37989 0.01,-9.57031 -0.004,-3.12081 -0.0135,-6.24254 0.0137,-9.36328 0.0424,-3.09096 0.10246,-6.18727 0.47461,-9.25977 0.4189,-3.15162 1.16394,-6.27512 1.14844,-9.46875 0.11523,-3.09241 0.31416,-6.18421 0.86718,-9.23438 0.52555,-3.17038 0.77599,-6.3287 0.61524,-9.54687 0.008,-3.10172 0.0103,-6.2063 0.21484,-9.30273 0.25591,-3.12015 0.73455,-6.20253 1.44336,-9.25391 0.47174,-3.1459 0.78398,-6.31613 1.35156,-9.44922 0.23406,-3.16284 0.0767,-6.33619 0.11719,-9.50586 0.004,-3.07253 3e-5,-6.14683 0.14258,-9.2168 0.16722,-2.76673 0.46445,-5.51795 1.0957,-8.22265 0.48682,-2.99039 0.29299,-6.01036 0.40821,-9.0293 0.11401,-2.8194 0.29132,-5.64441 0.90039,-8.4082 0.58289,-2.93626 0.69604,-5.86706 0.58008,-8.85938 0.011,-3.10323 0.0194,-6.21034 0.21679,-9.30859 0.24157,-3.12947 0.69957,-6.22375 1.21875,-9.31836 0.24455,-3.13825 0.0985,-6.29265 0.33594,-9.43359 0.23953,-3.12651 0.69202,-6.21839 1.25586,-9.30274 0.30112,-3.09104 0.25484,-6.21823 0.86523,-9.27734 0.60125,-2.99576 1.38031,-5.95377 1.78125,-8.98828 0.6359,-3.25935 0.90493,-6.53695 1.26953,-9.83399 0.49373,-3.15589 1.07782,-6.2945 0.93165,-9.50781 0.1194,-3.35914 0.34614,-6.71827 0.94531,-10.03125 0.69235,-4.03466 1.22771,-8.08 1.72656,-12.14258 0.51114,-3.48722 0.57398,-7.00822 1.15234,-10.48633 0.60516,-3.12246 1.37846,-6.20921 1.74414,-9.375 0.5692,-3.1176 0.88668,-6.24177 1.23438,-9.38867 0.59374,-3.14538 1.63485,-6.1726 2.17578,-9.32812 0.52005,-3.00771 0.54554,-6.05939 1.10156,-9.0625 0.66483,-3.22078 1.40303,-6.4192 1.85547,-9.67969 0.71564,-3.10385 1.29061,-6.23097 2.03711,-9.32617 0.83204,-3.1383 1.44296,-6.33181 2.08985,-9.51172 0.46021,-3.13507 1.26389,-6.20752 1.58398,-9.36328 0.48877,-3.13735 1.33954,-6.199253 1.73633,-9.351568 0.55246,-3.209475 1.21723,-6.395341 1.53711,-9.640625 0.69738,-3.587533 1.85594,-7.044032 2.71093,-10.59375 0.68047,-3.164995 1.39474,-6.303807 2.47071,-9.365234 0.84405,-3.112213 1.65173,-6.236479 2.64453,-9.304688 0.91547,-3.116281 1.7287,-6.261379 2.61523,-9.384766 1.00528,-3.102212 1.85912,-6.24961 2.70508,-9.398437 0.97977,-3.043506 2.05593,-6.057816 3.14258,-9.064453 0.99234,-2.722046 2.1739,-5.370115 3.17578,-8.087891 1.13301,-3.160651 2.44887,-6.253474 3.95313,-9.255859 1.48234,-3.1229089 2.89749,-6.2956643 4.72265,-9.2382814 1.80831,-3.1009794 3.43154,-6.3088466 5.04297,-9.515625 1.44177,-3.2296476 3.15322,-6.3134626 5.15234,-9.2363276 2.06798,-3.081325 4.1296,-6.164816 6.22071,-9.230469 1.86606,-2.629446 3.74894,-5.248421 5.88867,-7.666016 2.15491,-2.383462 4.11745,-4.93505 6.32812,-7.269531 1.84074,-2.041688 3.69513,-4.063504 5.80079,-5.839844 2.60241,-2.429821 5.2478,-4.813823 7.9746,-7.103516 2.97173,-2.621509 6.03321,-5.13609 9.09376,-7.652343 2.42495,-1.696908 4.80084,-3.468344 7.31054,-5.039063 1.94022,-1.30338 3.86741,-2.626324 5.79492,-3.947265 2.5513,-1.070091 5.12329,-2.071464 7.875,-2.564453 l 4.93946,-3.837891 c 0.59712,-0.02506 1.19397,-0.04138 1.81054,-0.03906 z m -17.4414,7.626954 c -0.0213,0.01229 -0.0392,0.02089 -0.0605,0.0332 -0.0129,0.0015 -10e-4,-0.0083 -0.0937,0.03125 0.0515,-0.02139 0.10281,-0.04299 0.1543,-0.06445 z m -0.33399,0.191406 c -7.65516,4.410741 -16.62763,9.602503 -11.91992,6.83789 3.7898,-2.225569 7.60376,-4.409615 11.41992,-6.589843 0.16076,-0.08057 0.38178,-0.187104 0.5,-0.248047 z m -1.99804,0.982422 c -2.12106,1.225154 -4.24199,2.45056 -6.36524,3.671875 2.09163,-1.209785 4.18376,-2.419122 6.27539,-3.628907 0.0312,-0.0149 0.0577,-0.02768 0.0899,-0.04297 z M 491.51172,671.69531 c -2.06313,1.19122 -4.1261,2.3814 -6.18945,3.57227 -0.10099,0.0535 -0.20528,0.10139 -0.30665,0.1543 2.33133,-1.34178 8.65809,-4.97487 6.4961,-3.72657 z m -7.28125,4.20117 c -4.67024,2.69405 -9.34367,5.38228 -14.03516,8.03907 -0.61646,0.3491 1.78726,-1.02607 1.8418,-1.06055 -2.36088,1.36313 -2.75566,1.59636 12.19336,-6.97852 z"
       inkscape:connector-curvature="0" />
    <path
       style="fill:#000000"
       id="path3855"
       d="m 333.84399,180.55355 c -3.07153,-0.0671 -6.14431,-0.0405 -9.21633,-0.0293 -2.45662,-0.0771 -4.84303,-0.0269 -7.25154,0.43674 -2.25097,0.2067 -4.40163,0.80257 -6.60602,1.25474 -1.92135,0.27273 -3.67944,1.11334 -5.41908,1.91323 -1.5557,0.58953 -2.97478,1.47047 -4.46265,2.21784 32.41133,-18.62743 1.81523,-1.03763 -1.60132,0.90146 -4.42779,2.51304 8.81963,-5.08905 13.24558,-7.60531 0.2676,-0.15214 -0.5113,0.34291 -0.76861,0.51186 -1.02984,0.67619 -0.42574,0.23113 -1.39805,1.00663 -1.16128,1.11331 -2.62036,1.87219 -3.72621,3.03452 -1.27791,0.93095 -2.21317,2.22554 -3.43793,3.20878 -0.92239,1.12644 -2.12753,1.99124 -3.08365,3.08223 -0.43416,1.15602 1.94942,1.87883 2.69951,2.26968 2.04601,1.02764 4.12031,1.80877 6.3782,2.20283 1.96121,0.56776 3.84728,1.34736 5.81414,1.88989 2.06463,0.48989 4.19328,0.5469 6.30448,0.59435 1.98786,0.0573 3.90504,0.66732 5.88668,0.89622 2.0811,0.19351 4.17333,0.20224 6.26159,0.21561 2.20526,0.007 4.41054,9.2e-4 6.61581,-0.002 2.19055,-0.0968 4.41819,0.21963 6.57562,-0.21376 2.15509,-0.42602 4.18276,-1.27679 6.18199,-2.15489 1.6664,-0.61007 3.18574,-1.53464 4.76714,-2.32998 -4.46128,2.56366 -8.90864,5.15169 -13.38383,7.691 -0.23242,0.13188 0.42112,-0.33191 0.6519,-0.46664 4.90566,-2.86408 9.89339,-5.58863 14.75432,-8.52799 4.40179,-2.66173 -8.91031,5.14286 -13.37659,7.69489 -0.43727,0.24985 0.81335,-0.59993 1.17183,-0.95365 1.03773,-0.89323 1.81606,-2.01898 1.49549,-3.42198 -0.4951,-1.28671 -1.48384,-2.37508 -2.49997,-3.28898 -1.27976,-0.88671 -2.61877,-1.64519 -3.99806,-2.37225 -1.54842,-0.73148 -3.07463,-1.50695 -4.67475,-2.14806 -1.60877,-0.84969 -3.16959,-1.84288 -4.87,-2.50055 -1.65118,-0.49159 -3.20977,-1.24526 -4.7657,-1.98041 -0.25284,-0.0882 -0.50568,-0.17633 -0.75852,-0.2645 0,0 13.62525,-9.13975 13.62525,-9.13975 v 0 c 0.27552,0.11959 0.55104,0.23917 0.82655,0.35876 1.53544,0.74057 3.14085,1.32437 4.72858,1.94193 1.63058,0.79219 3.20637,1.6947 4.83694,2.48801 1.62763,0.70681 3.2256,1.45872 4.79979,2.278 1.45935,0.83848 2.95272,1.61775 4.23235,2.73041 1.1631,1.17499 2.3173,2.44187 2.92975,3.99984 0.63195,1.78472 0.4826,3.55009 -0.71934,5.07812 -6.68197,6.04873 18.5641,-10.56391 -15.77142,9.79024 -4.4191,2.61965 8.87222,-5.1815 13.31742,-7.75661 0.22862,-0.13244 -0.44468,0.28549 -0.66702,0.42824 -4.89329,2.87293 -9.78658,5.74585 -14.67987,8.61878 -1.54878,0.84922 -3.19205,1.53088 -4.82293,2.20574 -2.05801,0.85209 -4.23418,1.50114 -6.44783,1.77311 -2.22864,0.10451 -4.4606,0.0367 -6.69116,0.059 -2.20987,0.003 -4.41982,0.009 -6.62962,-0.0127 -2.13631,-0.0329 -4.27905,-0.0736 -6.39858,-0.36941 -1.9197,-0.30215 -3.81218,-0.83281 -5.77183,-0.77522 -2.20861,-0.10492 -4.42826,-0.27391 -6.55343,-0.93182 -1.90159,-0.61383 -3.7838,-1.29602 -5.72247,-1.78875 -2.3214,-0.57314 -4.50259,-1.49105 -6.63813,-2.56313 -1.86677,-0.97149 -3.71565,-2.11612 -3.97265,-4.39984 0.47312,-1.95922 1.88451,-2.13253 2.83981,-3.71741 1.43642,-1.4512 -0.32973,0.23274 1.22017,-0.94675 0.85667,-0.65193 1.0989,-1.87516 2.24547,-2.1969 1.77376,-1.63419 -0.6759,0.69862 1.06287,-1.23152 0.75069,-0.83331 2.02785,-0.95751 2.59239,-2.01829 3.14935,-2.18353 -1.84243,1.33451 1.36236,-1.12754 4.76978,-3.66433 10.48643,-5.90467 15.57538,-9.11103 0.52571,-0.33124 -38.53777,22.32571 1.62431,-0.91458 1.45536,-0.80895 2.99762,-1.46243 4.5217,-2.12954 1.77929,-0.779 3.68272,-1.25369 5.58773,-1.6119 2.20204,-0.5029 4.42114,-0.85497 6.65578,-1.18352 2.4429,-0.32231 4.90244,-0.1805 7.36105,-0.19244 3.0989,0.0115 6.19849,0.0369 9.29693,-0.0293 0,0 -13.26177,9.63524 -13.26177,9.63524 z"
       inkscape:connector-curvature="0" />
    <path
       style="fill:#000000"
       id="path3857"
       d="m 437.63336,181.43115 c -3.03499,-0.48956 -6.10615,-0.68808 -9.17443,-0.81757 -2.43457,-0.0853 -4.87097,-0.0819 -7.30667,-0.0806 -2.21049,0.004 -4.42097,0.007 -6.63146,0.009 -2.20627,0.001 -4.41254,0.002 -6.61881,0.002 -2.00785,-0.019 -4.06928,-0.22133 -5.82618,0.89833 4.48232,-2.54521 8.94633,-5.12294 13.44696,-7.63562 0.22527,-0.12577 -0.41264,0.30994 -0.61411,0.4711 -0.82228,0.6578 -1.44588,1.4822 -2.2887,2.1234 -1.18165,1.0906 -2.50611,1.96896 -3.81526,2.88796 -5.08006,3.59566 -10.46519,5.9457 -16.00575,9.47039 -4.33999,2.76093 8.90294,-5.1548 13.36969,-7.70557 1.68734,-0.96356 -1.14195,0.7382 -1.32634,0.84954 -0.65352,0.65611 -2.36711,1.25849 -2.12098,2.37318 0.85844,0.94232 2.13337,1.35965 3.1941,2.03461 1.53161,0.89807 3.3069,1.01728 5.03711,1.1311 1.79461,0.68832 3.75939,0.67279 5.55932,1.27866 1.76511,0.53224 3.54264,0.80711 5.29441,1.3792 1.81838,0.61539 3.76605,0.42246 5.59808,0.91189 1.83073,0.57198 3.73817,0.73529 5.64189,0.83967 2.15427,0.0871 4.31091,0.0798 6.46652,0.0796 2.21141,-0.003 4.42282,-0.006 6.63423,-0.008 2.09727,0.24739 4.02475,-0.22697 6.04744,-0.64297 5.11958,-2.31357 12.39101,-6.87281 -12.00744,6.99065 -0.0165,0.009 0.6201,-0.13556 0.70774,-1.02206 -0.11907,-1.62304 -1.17996,-2.94476 -2.00327,-4.28281 -1.03517,-1.54704 -2.3447,-2.85859 -3.5452,-4.26708 -1.43779,-1.29436 -2.3991,-2.84368 -3.38377,-4.4827 -0.58006,-1.08552 -0.31022,-0.52395 -0.8056,-1.68658 0,0 14.30814,-8.01592 14.30814,-8.01592 v 0 c 0.40654,1.00571 0.17695,0.51028 0.69118,1.48518 0.92088,1.56954 1.87805,2.98988 3.24241,4.23121 1.27073,1.4562 2.55745,2.89542 3.63682,4.50581 0.98143,1.55265 2.16396,3.06787 2.459,4.9307 1.32967,7.46387 -9.82719,9.83133 -16.36497,11.50997 -2.0581,0.40895 -4.12013,0.41291 -6.21482,0.36238 -2.2124,0.002 -4.42481,0.007 -6.63721,0.005 -2.18256,-0.007 -4.36777,-0.01 -6.54591,-0.1662 -1.95418,-0.1773 -3.87737,-0.50244 -5.77732,-0.99934 -1.91922,-0.24787 -3.86415,-0.38427 -5.70291,-1.04502 -1.73255,-0.51837 -3.5409,-0.7343 -5.25564,-1.32916 -1.79498,-0.3511 -3.58402,-0.73167 -5.38052,-1.06316 -1.9279,-0.23599 -3.81599,-0.62736 -5.47465,-1.70018 -1.45006,-0.77472 -2.96132,-1.5852 -3.84229,-3.03196 -0.71215,-1.85657 -0.50137,-3.11601 1.30056,-4.20383 0.86944,-0.85966 0.25059,-0.355 1.28501,-0.95852 4.89994,-2.85881 9.80873,-5.70273 14.68757,-8.59739 4.41969,-2.62224 -8.8664,5.1987 -13.31005,7.7801 -0.45959,0.26698 1.87759,-1.1306 1.23705,-1.0061 1.39875,-0.76511 2.66507,-1.66663 3.90615,-2.64891 1.39652,-1.36065 -0.27089,0.1634 1.24588,-0.92599 0.81682,-0.58666 0.36808,-0.44513 1.03316,-1.22181 3.86043,-4.50814 20.20312,2.9087 15.28618,-9.13066 2.03713,-0.44262 4.08803,-0.40329 6.16571,-0.36682 2.20617,-3.3e-4 4.41234,-8.6e-4 6.61851,-0.003 2.21011,-0.002 4.42023,-0.007 6.63034,-0.001 2.43615,0.0131 4.87327,0.0393 7.30592,0.18265 3.12161,0.19836 6.2338,0.50094 9.33883,0.87922 0,0 -13.39565,9.44504 -13.39565,9.44504 z"
       inkscape:connector-curvature="0" />
    <path
       style="fill:#000000"
       id="path3859"
       d="m 338.33317,247.07003 c -3.0782,0.35738 -6.16581,0.60827 -9.26055,0.76068 -2.47274,-0.10473 -4.85293,0.54074 -7.28342,0.8766 -2.22135,0.27391 -4.46152,0.31093 -6.69661,0.33737 -2.20933,0.0154 -4.41875,0.008 -6.62811,0.005 -2.20933,-0.003 -4.41866,-0.004 -6.62799,-0.005 -2.25316,-0.0585 -4.04171,-0.0962 -6.23216,0.45215 -5.12432,3.26598 0.51537,-0.34518 12.74745,-7.18981 0.20367,-0.11396 -0.39714,0.25393 -0.55772,0.4233 -0.58632,0.61845 -0.72267,1.45593 -0.89275,2.25081 -0.4485,2.25055 0.0312,4.36575 0.89867,6.4474 0.79965,2.07418 2.13614,3.85637 3.16255,5.8081 1.19477,1.48095 1.59408,3.28711 2.17632,5.04091 0.76593,1.39776 2.49999,1.3411 3.90789,1.4415 2.37871,0.25954 4.73743,0.71251 7.13407,0.92567 2.34502,0.18062 4.69809,0.19522 7.04867,0.20553 2.29614,0.25264 4.36439,-0.4692 6.49649,-1.18182 1.98045,-0.62278 3.84572,-1.57646 5.79202,-2.32018 1.35428,-0.59277 2.86197,-0.50076 4.27248,-0.79281 0.61868,-0.12811 1.20124,-0.3926 1.80706,-0.57194 5.32536,-2.64631 2.48704,-1.2551 -12.42172,7.09392 -0.29009,0.16246 0.56856,-0.34728 0.83227,-0.54978 0.82351,-0.63236 1.31108,-1.35853 1.80647,-2.25226 0.62532,-1.45473 0.17855,-2.62936 -0.80586,-3.74878 -1.12082,-1.32411 -2.29067,-2.64211 -3.59289,-3.79403 -1.13503,-1.11812 -2.19338,-2.32795 -3.39661,-3.37491 -1.09536,-1.17493 -2.20338,-2.34689 -3.5598,-3.2252 -0.84891,-0.33482 -1.58525,-0.86452 -2.39078,-1.28698 0,0 13.7311,-8.95815 13.7311,-8.95815 v 0 c 0.82948,0.47594 1.66016,0.94989 2.48402,1.43555 1.35134,1.00371 2.54331,2.17301 3.69854,3.39506 1.15435,1.10686 2.26934,2.25487 3.39392,3.39148 1.29135,1.2573 2.53598,2.57125 3.68739,3.95749 1.30944,1.57336 2.01388,3.30491 1.63023,5.38435 -2.444,7.09132 -11.81773,10.517 -18.09502,12.51386 -1.9847,0.49225 -4.06935,0.60986 -5.94364,1.50684 -1.91702,0.82113 -3.84383,1.6391 -5.85388,2.20551 -2.22936,0.66558 -4.48149,0.92831 -6.81032,0.77238 -2.37368,-0.0336 -4.74987,-0.0919 -7.11222,-0.34508 -2.40469,-0.27477 -4.78591,-0.71391 -7.19833,-0.91801 -2.0556,-0.34169 -3.93659,-0.96975 -4.90169,-2.9845 -0.58776,-1.67012 -0.87296,-3.41821 -2.03841,-4.84072 -1.02003,-2.00345 -2.37499,-3.83258 -3.18176,-5.94887 -0.97391,-2.30781 -1.71891,-4.68567 -1.36734,-7.21722 0.80537,-7.86594 7.04741,-10.78168 16.4819,-12.58914 2.11743,-0.31368 4.26318,-0.13012 6.39716,-0.17578 2.20963,0.001 4.41925,0.003 6.62888,0.006 2.20307,0.002 4.4064,0.009 6.60921,-0.0317 2.1951,-0.0573 4.39357,-0.15265 6.56518,-0.50213 2.43236,-0.38817 4.85536,-0.75866 7.32918,-0.71772 3.09593,-0.17513 6.19123,-0.42788 9.25271,-0.93609 0,0 -13.12225,9.82135 -13.12225,9.82135 z"
       inkscape:connector-curvature="0" />
    <path
       style="fill:#000000"
       id="path3861"
       d="m 435.49059,244.6351 c -3.07153,-0.0671 -6.14431,-0.0405 -9.21633,-0.0293 -2.4435,0.0102 -4.88702,0.0151 -7.33055,0.0176 -2.09835,-0.24822 -4.02506,0.22561 -6.04815,0.64324 -1.91165,0.89818 -3.9935,1.21374 -6.07434,1.41773 -2.03366,-0.0726 -3.91774,0.646 -5.90389,0.95439 -2.06343,0.34713 -4.17954,0.0738 -6.21975,0.515 -2.18222,0.50558 -4.41237,0.70101 -6.64374,0.81634 -0.94451,0.18656 -1.72067,0.49865 -2.53671,0.97378 -0.24038,0.13995 -0.98181,0.52293 -0.74067,0.38431 13.96521,-8.02806 17.61407,-10.58415 12.81034,-7.25246 -1.26369,1.33983 -1.27806,3.27212 -1.37572,5.00959 -0.19411,2.30993 -0.10168,3.30179 1.22011,5.15563 1.16471,1.09081 2.77006,1.78188 4.28913,2.26915 1.50113,0.99045 3.19398,1.29656 4.94651,1.47387 1.76603,0.66662 3.60781,0.95366 5.47796,1.1089 1.90841,0.1852 3.73583,0.78772 5.65302,1.01711 2.08008,0.19696 4.17186,0.20256 6.25933,0.2146 2.20643,0.005 4.41287,-8.1e-4 6.6193,-0.004 2.21139,-0.003 4.42279,-0.003 6.63418,-0.004 2.1352,0.0401 4.37709,-0.15781 6.35869,-0.99725 1.89471,-0.7751 3.89468,-0.84859 5.73115,-1.76883 5.05226,-2.52754 12.26084,-6.5631 -11.26418,6.52251 -0.257,0.14296 0.45887,-0.3721 0.65418,-0.59195 0.50016,-0.56302 0.55545,-0.8369 0.85468,-1.51917 0.52569,-1.91033 0.67753,-3.95151 0.48472,-5.92223 -0.17113,-1.78093 -1.00821,-2.56884 -2.22921,-3.67865 -1.36191,-0.75095 -2.85849,-1.37174 -4.36042,-1.8223 -0.88017,-0.45639 -1.82286,-0.73882 -2.77137,-1.00775 0,0 13.531,-9.21709 13.531,-9.21709 v 0 c 0.94894,0.32338 1.88442,0.67608 2.823,1.02818 1.6444,0.63233 3.37031,1.22422 4.73464,2.37023 1.42407,1.28309 2.48533,2.74504 2.76895,4.69823 0.34845,2.16982 0.13999,4.40663 -0.1591,6.57476 -1.79764,7.66724 -11.11948,9.71498 -17.92375,12.67675 -1.9299,0.60256 -3.93571,0.93919 -5.83023,1.67072 -2.19348,0.44026 -4.39121,0.73214 -6.6359,0.59877 -2.21098,6.9e-4 -4.42196,0.002 -6.63294,0.005 -2.21083,0.003 -4.42174,0.0103 -6.63251,-0.0102 -2.1387,-0.0318 -4.28502,-0.0685 -6.40531,-0.37908 -1.87525,-0.31697 -3.70506,-0.88236 -5.61428,-0.97158 -1.87149,-0.24674 -3.67608,-0.72568 -5.51098,-1.14746 -1.82505,-0.31926 -3.52562,-0.8967 -5.16744,-1.76284 -1.76175,-0.75208 -3.57826,-1.57093 -4.80206,-3.09999 -1.34242,-1.916 -2.00566,-3.72585 -1.71294,-6.10985 0.0519,-2.02408 0.0775,-4.10631 0.85464,-6.00852 2.94357,-4.968 12.01639,-9.32927 18.76804,-10.18044 2.20979,-0.18436 4.3922,-0.53019 6.57551,-0.91294 2.0707,-0.14904 4.15984,-0.16249 6.2016,-0.58409 1.96755,-0.41207 3.92022,-0.77371 5.93467,-0.87359 2.06118,-0.33637 4.01795,-0.98279 6.02694,-1.52754 2.05738,-0.41022 4.11892,-0.41055 6.21298,-0.35744 2.42735,0.003 4.85471,0.007 7.28204,0.0176 3.0989,0.0115 6.19849,0.0369 9.29693,-0.0293 0,0 -13.26177,9.63524 -13.26177,9.63524 z"
       inkscape:connector-curvature="0" />
    <path
       id="path3863"
       style="fill:#000000"
       d="m 327.09375,391.76562 -1.41992,0.36524 c -0.0716,-0.0291 -0.0844,-0.18342 -0.16016,-0.16797 -0.44329,0.0904 -0.86297,0.26786 -1.28515,0.44141 0.40759,0.0827 0.81211,0.14197 1.21484,0.18164 0.17298,-0.0757 0.34815,-0.14472 0.51953,-0.22461 0.38968,-0.2181 0.75044,-0.39298 1.13086,-0.59571 z"
       inkscape:connector-curvature="0" />
    <path
       id="path3865"
       style="fill:#000000"
       d="m 455.48438,380.3418 c 0.012,0.0155 0.004,0.0347 -0.008,0.0547 0.0188,-0.017 0.0378,-0.0338 0.0566,-0.0508 -0.0162,-0.002 -0.0326,-0.002 -0.0488,-0.004 z m -0.0703,0.10937 c -0.40528,0.35504 -1.05825,0.30651 -1.58203,0.46875 -0.0441,0.0159 -0.0887,0.0221 -0.13281,0.0371 -0.004,0.0113 -0.002,0.0208 -0.01,0.0332 -0.0285,0.0431 -0.0859,0.07 -0.15234,0.0899 0.71001,0.0431 0.94699,0.0379 1.01562,0.0195 0.004,-0.003 0.0169,-0.0125 0.0215,-0.0156 -0.0151,-0.0234 0.0855,-0.0183 0.0449,-0.0293 0.10573,-0.0697 0.15443,-0.10234 0.46484,-0.30664 0.10907,-0.10058 0.22047,-0.19743 0.33008,-0.29688 z"
       inkscape:connector-curvature="0" />
    <path
       style="fill:#000000"
       id="path3867"
       d="m 347.00085,444.03157 c -2.2327,0.008 -4.48059,-0.16047 -6.70123,0.10291 -1.87656,0.37005 -3.80775,0.75542 -5.6264,1.3684 -1.60524,0.4236 -3.13691,1.03288 -4.76922,1.35669 -1.56901,0.49189 -3.05574,1.15533 -4.66482,1.5179 -1.56979,0.52483 -3.06533,1.1951 -4.68478,1.5629 -0.80935,0.52572 -1.78483,0.58273 -2.66848,0.87535 -0.39224,0.12989 -0.74992,0.34849 -1.13496,0.49837 -1.27441,0.71616 -2.68795,1.1106 -3.99631,1.76503 -1.55316,0.70119 -3.11253,1.40902 -4.61049,2.22531 22.36443,-12.82247 0.7695,-0.45138 -1.54962,0.92431 -3.03402,1.79976 6.10851,-3.53059 9.17822,-5.26877 0.22587,-0.12789 -0.42917,0.29207 -0.64466,0.43677 -0.43552,0.29245 -0.87309,0.58185 -1.30911,0.87355 -1.084,0.68574 -2.13238,1.43833 -3.07024,2.31492 -0.8221,0.73768 -1.47064,1.61778 -2.24674,2.40753 -0.87235,1.1596 -1.96223,2.12847 -2.92626,3.21007 -1.11948,1.19682 -2.26976,2.35445 -3.4675,3.4729 -1.3147,1.21264 -2.67461,2.36434 -3.89359,3.67615 -0.57155,0.80093 -1.80413,2.21901 -1.0061,3.19436 1.17464,1.10466 2.64015,1.80801 4.17595,2.25088 1.30937,0.44754 2.53772,1.0906 3.84461,1.53499 1.37558,0.26943 2.69798,0.70787 4.08471,0.93823 1.49745,0.52827 3.0537,0.78697 4.62899,0.92623 1.55031,0.10559 3.10527,0.10061 4.65833,0.10181 1.56217,-0.002 3.12433,-0.006 4.6865,-0.008 1.52934,0.14225 2.82867,-0.62489 4.22445,-1.08283 0.47114,-0.45705 1.13225,-0.55205 1.68684,-0.83629 0.56025,-0.28714 0.97414,-0.59934 1.58646,-0.8107 0.20953,-0.0481 0.42737,-0.0686 0.6286,-0.14426 0.1829,-0.0688 0.68214,-0.38157 0.51239,-0.28479 -3.13562,1.78768 -12.43921,7.3201 -9.41,5.35751 3.38973,-2.19616 7.00704,-4.01953 10.49314,-6.05927 2.67276,-1.56384 -29.98106,17.31359 1.27059,-0.7482 -16.65005,10.48697 -10.12475,6.00104 -6.55869,3.36227 1.07204,-0.6553 1.96707,-1.55021 3.04001,-2.1991 0.98503,-0.59777 1.84014,-1.3587 2.72993,-2.08206 1.12768,-0.86965 2.30422,-1.67289 3.42689,-2.55053 1.39621,-1.1043 2.63528,-2.38676 3.79474,-3.73299 1.07277,-1.14782 1.84552,-2.51435 2.64967,-3.85208 0.9728,-1.26267 1.58722,-2.69332 2.16787,-4.16195 0.67129,-1.46387 1.17932,-2.96321 1.44989,-4.55005 0.21026,-1.52993 0.21397,-3.07752 0.22311,-4.61877 0.0638,-1.85242 -0.0652,-2.09242 -1.38903,-3.19594 -0.95217,-0.75134 -1.86149,-1.25584 -3.05959,-1.47689 0,0 9.54401,-6.57905 9.54401,-6.57905 v 0 c 1.26781,0.39788 2.33138,1.07547 3.35524,1.91774 1.26623,1.10142 2.00728,2.34033 1.85696,4.08685 -0.002,1.58942 0.003,3.18254 -0.15128,4.76621 -0.20563,1.65643 -0.56637,3.28088 -1.34724,4.77289 -0.53577,1.51784 -1.04389,3.08922 -2.06146,4.36354 -0.85807,1.34564 -1.55182,2.79838 -2.59964,4.00982 -1.13981,1.40247 -2.34517,2.74963 -3.71597,3.93338 -1.06908,0.92323 -2.19551,1.79324 -3.38407,2.54067 -0.89946,0.72936 -1.71516,1.54305 -2.69548,2.1503 -0.97995,0.80174 0.0773,0.003 -1.0128,0.6309 -0.74668,0.4304 -1.30237,1.15581 -2.02996,1.6195 -4.44415,2.50415 -7.31808,8.2943 -13.23439,8.11751 23.93527,-13.88657 -0.42861,0.2418 -1.27856,0.76525 -3.06063,1.88492 12.52307,-7.05862 9.33547,-5.39742 -5.04833,2.63091 -7.36663,4.87498 -11.65019,6.4355 -1.07939,0.57122 -2.16672,1.14201 -3.31146,1.57079 -1.43649,0.53321 -2.89416,0.86913 -4.44288,0.7625 -1.56342,0.003 -3.12686,0.008 -4.69028,0.003 -1.57789,-0.012 -3.15955,-0.0253 -4.72943,-0.20272 -1.58924,-0.21232 -3.13345,-0.59506 -4.6838,-0.99666 -1.4201,-0.30297 -2.83431,-0.66603 -4.22171,-1.08992 -1.2544,-0.52267 -2.50204,-1.05668 -3.78054,-1.52085 -1.69764,-0.63733 -3.33454,-1.50643 -4.59715,-2.83424 -1.21986,-1.76866 -0.61887,-2.84297 0.3558,-4.5856 1.10534,-1.44719 2.47716,-2.61612 3.84371,-3.80298 1.18355,-1.1162 2.39073,-2.19813 3.47458,-3.40751 1.01084,-0.98589 1.88113,-2.11395 2.93834,-3.06259 0.34168,-0.59114 0.63207,-0.79407 1.12351,-1.22592 0.48481,-0.42604 0.28534,-0.41896 0.64714,-0.96971 0.10897,-0.16589 0.25213,-0.3066 0.3782,-0.4599 1.04478,-0.78862 1.91919,-1.78838 3.04134,-2.49183 0.692,-0.3846 1.30445,-0.85761 1.98495,-1.25981 34.93434,-20.64735 -23.04864,13.46853 12.13711,-7.10197 1.5424,-0.74943 3.08039,-1.50878 4.65404,-2.19148 1.36184,-0.56814 2.72355,-1.13379 4.07255,-1.72933 1.26168,-0.47051 2.57903,-0.80231 3.84749,-1.2567 1.57391,-0.48659 3.08463,-1.16074 4.68694,-1.5606 1.56864,-0.47845 3.07817,-1.14264 4.68658,-1.49173 1.58481,-0.42643 3.13056,-0.9861 4.72044,-1.39787 1.88863,-0.46531 3.77417,-1.01567 5.72279,-1.15062 2.27686,-0.10546 4.55622,-0.0194 6.83452,-0.084 0,0 -9.37749,6.81314 -9.37749,6.81314 z"
       inkscape:connector-curvature="0" />
    <path
       style="fill:#000000"
       id="path3869"
       d="m 412.32482,433.15293 c 2.54771,-0.49663 5.04337,-1.20646 7.5913,-1.70338 1.89234,-0.43909 3.85364,-0.29398 5.75465,-0.61603 2.09003,-0.33802 4.20034,-0.47503 6.31284,-0.56785 1.78166,-0.0684 3.56483,-0.0735 5.34753,-0.076 1.75833,0.007 3.51665,0.0102 5.27501,0.009 1.63316,-0.002 3.26633,-0.003 4.8995,-0.004 1.58682,-0.0486 3.20762,0.15557 4.70239,0.70056 1.25639,0.61008 2.67907,0.55794 3.98125,0.96814 1.26128,0.24579 2.43157,0.73144 3.66021,1.08467 1.15261,0.53679 2.19533,1.17989 2.96401,2.20557 0.69177,1.13215 1.17997,2.30433 1.45354,3.60161 0.24908,1.50542 0.25538,3.03614 0.26973,4.55778 0.006,1.56628 -0.001,3.13258 -0.004,4.69887 0.0209,1.47729 -0.6575,2.56735 -1.6742,3.56287 -4.0241,3.40873 -8.68546,6.10069 -13.52949,8.17297 24.50015,-14.07682 -0.78606,0.50442 -1.19226,0.73434 -0.62519,0.35387 -0.66425,0.17114 -1.32396,0.42984 -0.38995,0.15291 -0.74571,0.38361 -1.13215,0.54517 -1.33332,0.55388 -2.67268,0.95206 -4.10846,1.15209 -1.50576,0.51959 -3.07995,0.7335 -4.65986,0.86022 -1.57417,0.0981 -3.15226,0.0942 -4.72878,0.0953 -1.56352,-0.002 -3.12705,-0.006 -4.69057,-0.007 -1.56235,-0.002 -3.12471,-0.002 -4.68706,-0.002 -1.56247,-7e-5 -3.12495,-2e-5 -4.68742,0 -1.41731,0.0513 -2.75702,-0.42021 -4.04043,-0.9606 -1.32611,-0.30978 -2.53965,-0.86168 -3.75833,-1.45069 -1.2064,-0.35997 -2.10434,-1.27659 -3.21989,-1.8067 -1.1356,-0.72974 -2.05132,-1.71789 -3.08534,-2.56977 -1.06944,-0.98489 -2.01023,-2.05712 -2.95166,-3.15757 -0.77901,-0.93955 -1.46263,-1.93517 -2.10271,-2.97506 -0.61783,-1.11176 -1.20316,-2.1785 -1.42206,-3.44549 -0.0219,-1.56788 0.86681,-2.70062 1.91053,-3.76439 1.17394,-1.08016 2.43277,-2.06311 3.74347,-2.97114 4.21109,-3.155 9.02373,-5.2512 13.67817,-7.5835 0,0 -9.03562,7.19659 -9.03562,7.19659 v 0 c -0.77809,0.34851 -0.783,0.34493 -1.54249,0.70759 -0.25557,0.12204 -1.00847,0.51454 -0.76452,0.37067 7.66953,-4.52329 12.40123,-7.07961 8.41496,-4.91805 -1.29803,0.8936 -2.63013,1.7623 -3.77571,2.84984 -1.01596,0.73165 -1.87869,1.56783 -2.32789,2.75254 -0.0509,1.12605 0.70971,1.99222 1.15587,2.9723 0.61332,0.99024 1.2628,1.94157 2.00473,2.84044 0.87507,1.07088 1.81197,2.06429 2.83914,2.99533 0.95171,0.83261 1.86948,1.71809 2.97479,2.35143 1.04294,0.62149 2.02003,1.35815 3.17721,1.77178 1.20292,0.57847 2.47361,0.93353 3.72784,1.37932 1.20018,0.46209 2.46869,0.67783 3.75737,0.61654 1.56251,-2e-5 3.12502,-7e-5 4.68754,1.5e-4 1.56262,3.2e-4 3.12525,8.2e-4 4.68788,0.003 1.5623,0.002 3.12461,0.008 4.68692,0.003 1.55452,-0.0109 3.11254,-0.0216 4.65996,-0.18756 1.56251,-0.20012 3.08007,-0.57607 4.61144,-0.93577 1.37215,-0.31372 2.67402,-0.82495 3.96717,-1.37594 0.58893,-0.26341 1.20506,-0.45598 1.78361,-0.74216 0.19962,-0.0987 0.77847,-0.43298 0.58587,-0.32116 -8.24018,4.78404 -17.58445,10.1428 1.22761,-0.6715 3.92992,-2.16023 -1.33035,0.72533 -8.61744,4.99408 -0.19854,0.11631 0.42595,-0.17699 0.62663,-0.28957 0.86384,-0.48462 0.33644,-0.28076 1.1407,-0.88515 0.1941,-0.14586 0.41169,-0.25755 0.61753,-0.38633 0.89565,-0.77084 1.90749,-1.44187 2.08478,-2.70088 0.003,-1.56287 0.01,-3.12574 0.008,-4.68861 -0.007,-1.45368 -0.002,-2.91385 -0.18951,-4.35805 -0.19939,-1.13256 -0.59731,-2.13527 -1.20358,-3.11535 -0.66263,-0.79682 -1.6144,-1.27188 -2.57625,-1.62169 -1.19306,-0.40281 -2.39752,-0.73605 -3.62074,-1.038 -1.35672,-0.25724 -2.71055,-0.50403 -4.00109,-1.01911 -1.47765,-0.35265 -2.97312,-0.50335 -4.49322,-0.4276 -1.62885,-9.3e-4 -3.2577,-0.003 -4.88655,-0.007 -1.76108,-0.004 -3.52214,-0.006 -5.2832,6.8e-4 -1.76018,0.004 -3.52104,0.0112 -5.27964,0.0946 -2.10322,0.11607 -4.1966,0.32952 -6.27883,0.65244 -1.89065,0.16444 -3.79512,0.23031 -5.65519,0.64731 -2.58057,0.54166 -5.12325,1.25103 -7.72006,1.71694 0,0 9.27883,-6.94474 9.27883,-6.94474 z"
       inkscape:connector-curvature="0" />
    <path
       style="fill:#000000"
       id="path3917"
       d="m 343.04726,386.83963 c -2.35802,-0.34847 -4.7402,-0.4879 -7.11995,-0.58062 -1.77207,-0.0583 -3.54529,-0.0562 -5.31807,-0.0548 -1.56292,0.003 -3.12584,0.005 -4.68876,0.006 -1.55927,10e-4 -3.11855,10e-4 -4.67783,10e-4 -1.54763,0.0665 -3.12137,-0.15747 -4.64563,0.14855 -1.56412,0.26936 -3.10867,0.49222 -4.6479,0.87253 -1.53118,0.48979 -3.14441,0.76922 -4.66742,1.28531 -1.5209,0.46257 -2.97804,1.07726 -4.42653,1.72014 -1.17898,0.4316 -2.25608,1.08015 -3.37607,1.64032 23.38614,-13.43251 0.74626,-0.42435 -1.1382,0.63934 -3.13507,1.76959 6.23677,-3.59777 9.36643,-5.37692 0.18896,-0.10742 -0.36127,0.2418 -0.54305,0.36097 -0.7255,0.47563 -0.30232,0.16411 -0.9869,0.71035 -1.20513,0.90198 -2.41171,1.79619 -3.51691,2.81936 -1.20607,1.08176 -1.94505,2.49807 -2.72723,3.88473 -0.6675,1.31285 -0.92743,2.76419 -1.48216,4.12641 -0.57175,1.48741 -1.01966,3.01942 -1.5124,4.53427 -0.47778,1.34238 -1.15524,2.59042 -1.91338,3.79106 -0.64505,0.96506 -1.48447,1.76477 -2.24334,2.63321 -0.13672,0.38862 -1.11398,0.96257 -0.42468,1.1688 1.16844,0.1532 2.29379,0.29403 3.43471,0.59565 1.34533,0.33303 2.73393,0.39131 4.11263,0.4377 1.54211,0.0363 3.08481,0.03 4.62723,0.0282 1.56417,-0.003 3.12834,-0.004 4.69252,-0.005 1.59352,0.0403 2.8589,0.067 4.40808,-0.32079 1.29154,-0.1579 2.41878,-0.75382 3.69406,-1.00109 1.47927,-0.0615 2.88983,-0.41437 4.33866,-0.67867 1.52559,-0.52553 3.09476,-0.86629 4.64269,-1.31367 0.26477,-0.0617 0.53691,-0.0975 0.79431,-0.18501 0.45021,-0.15299 0.85935,-0.41154 1.3077,-0.56991 0.67217,-0.23741 1.34922,-0.35108 2.01611,-0.60875 1.27755,-0.42654 2.44077,-1.12297 3.63704,-1.73081 -17.0053,10.03093 -10.3283,6.49321 -6.99821,3.49372 1.00361,-0.77593 1.5152,-1.82914 2.13245,-2.89237 0.72096,-1.15609 1.56393,-2.22549 2.31535,-3.36149 0.6813,-1.03805 1.51342,-1.95361 2.31747,-2.89333 0.74418,-0.8053 1.56136,-1.54102 2.29745,-2.35303 0.54331,-0.99889 1.09289,-1.98928 1.68241,-2.96372 0.49461,-1.15031 0.743,-2.36231 1.38769,-3.44851 0.78842,-1.21513 1.59044,-2.38001 2.56641,-3.45496 0.8044,-0.80016 0.40074,-0.41725 1.20896,-1.15089 0,0 10.69119,-4.39736 10.69119,-4.39736 v 0 c -0.78014,0.77707 -0.36717,0.41301 -1.23939,1.09165 -0.98996,1.02303 -1.95412,2.02 -2.5821,3.31079 -0.86459,0.93852 -1.20995,2.0234 -1.45996,3.26415 -0.44948,1.0941 -1.30179,1.94232 -1.61797,3.09895 -0.53264,1.05195 -1.4683,1.68076 -2.2062,2.5722 -0.93867,0.76008 -1.69443,1.77251 -2.40817,2.73789 -0.86568,1.02137 -1.523,2.23736 -2.33214,3.29924 -0.78673,1.02602 -0.96304,2.302 -2.05329,3.07489 -3.16718,3.87699 -9.25997,5.54025 -12.74604,8.23331 -1.18899,0.63917 -2.44911,1.16303 -3.7343,1.57448 -1.39253,0.40129 -2.72274,0.97584 -4.13442,1.31362 -1.5595,0.4492 -3.14298,0.82256 -4.71197,1.23417 -1.4375,0.29055 -2.89232,0.42794 -4.32358,0.74161 -1.23143,0.37078 -2.43714,0.79802 -3.72319,0.9566 -1.4974,0.22197 -3.01486,0.0923 -4.52398,0.12628 -1.56429,0.001 -3.12858,0.004 -4.69287,0.005 -1.55485,-10e-4 -3.11056,0.002 -4.66416,-0.0687 -1.43472,-0.0859 -2.8675,-0.22802 -4.25889,-0.60893 -1.25104,-0.282 -2.60929,-0.22939 -3.72209,-0.94593 -0.84116,-0.78653 -1.34237,-1.83005 -0.38089,-2.74996 0.55126,-1.07905 1.53574,-1.73366 2.22222,-2.71479 0.93979,-0.98716 1.52737,-2.25879 2.06556,-3.49927 0.67815,-1.44495 0.95362,-3.06132 1.51748,-4.55447 0.57206,-1.3961 1.0144,-2.77871 1.41721,-4.23057 0.75552,-1.4751 1.52666,-2.94807 2.6054,-4.22116 1.06993,-1.08202 2.1888,-2.04958 3.42069,-2.94121 2.22617,-1.54458 -1.3045,0.94551 0.96143,-0.79659 3.37161,-2.59216 7.41454,-4.17497 11.01394,-6.44022 0.37337,-0.23497 -27.25834,15.78399 1.15576,-0.6448 1.09584,-0.59731 2.25879,-1.07298 3.4052,-1.56418 1.45817,-0.63532 2.98233,-1.12975 4.50357,-1.58944 1.57617,-0.3914 3.12094,-0.88882 4.70762,-1.23659 1.55933,-0.34435 3.1517,-0.51719 4.72732,-0.77213 1.57483,-0.0734 3.15195,-0.0246 4.72812,-0.0384 1.55925,-2.5e-4 3.11849,-6.4e-4 4.67773,-0.002 1.56237,-0.002 3.12473,-0.005 4.68709,-5e-4 1.76871,0.01 3.53793,0.0316 5.30427,0.13141 2.4218,0.14455 4.83827,0.35708 7.25022,0.61918 0,0 -9.47216,6.67866 -9.47216,6.67866 z"
       inkscape:connector-curvature="0" />
    <path
       style="fill:#000000"
       id="path3919"
       d="m 437.60705,379.63303 c -1.95336,-0.80801 -4.01822,-1.24565 -6.02761,-1.86836 -1.66825,-0.42065 -3.3127,-0.92657 -4.9874,-1.32134 -1.49409,-0.24948 -2.97028,-0.32226 -4.43842,-0.6994 -1.34256,-0.3365 -2.72827,-0.39911 -4.10501,-0.44659 -1.53711,-0.0371 -3.07484,-0.0309 -4.61228,-0.0292 -1.56391,0.003 -3.12782,0.004 -4.69174,0.005 -1.56298,7.6e-4 -3.12596,7.7e-4 -4.68893,8.1e-4 -1.35278,-0.0348 -2.80695,0.0794 -4.01393,0.73731 -1.24534,0.59473 -2.35064,0.46925 -3.52163,1.26387 -8.30329,4.51895 33.50031,-19.05434 -1.88837,1.04296 -3.10562,1.76369 6.18747,-3.56902 9.29299,-5.33287 0.16663,-0.0946 -0.38129,0.25591 -1.20801,0.78699 -1.18879,0.76781 -2.39864,1.50952 -3.4663,2.44307 -1.08496,0.83015 -1.98552,1.85972 -2.95342,2.81505 -0.92876,0.93401 -1.54712,2.1002 -2.14164,3.26153 -0.48698,1.19034 -0.79109,2.50857 -0.46758,3.77379 0.38704,1.29426 1.48917,1.9807 2.63777,2.55496 1.54858,0.75345 3.12766,1.49938 4.75847,2.0634 1.38786,0.53507 2.89207,0.73162 4.28077,1.24378 1.26804,0.43098 2.56596,0.62916 3.83715,1.04504 1.36435,0.30066 2.6667,0.77647 4.04526,1.0272 1.51236,0.22913 3.04515,0.24566 4.57135,0.26249 1.34637,0.3397 2.70406,0.5702 4.0872,0.6827 1.48372,0.0318 2.91444,0.0667 4.35934,0.40768 1.35091,0.32066 2.73985,0.38931 4.12182,0.43892 1.53778,0.0395 3.07627,0.0342 4.61443,0.033 1.56387,-0.002 3.12775,-0.004 4.69162,-0.005 1.43448,0.15804 2.76885,-0.34156 4.16675,-0.55859 1.28505,-0.41628 2.43083,-1.04973 3.63567,-1.64422 -0.49838,0.17918 1.92524,-1.06524 1.44944,-0.78914 -3.06875,1.78073 -6.15147,3.53731 -9.2357,5.29108 -0.21563,0.12261 0.41418,-0.27363 0.62923,-0.39725 3.51384,-2.01991 7.01784,-4.05753 10.55686,-6.03301 3.13829,-1.75179 -6.23641,3.57462 -9.35462,5.36192 25.07854,-14.51954 3.6413,-2.10046 1.05178,-0.62974 -0.17153,0.0974 0.31516,-0.23735 0.47514,-0.35274 0.45049,-0.32492 0.85962,-0.67997 1.29181,-1.02887 0.9002,-0.76639 1.01512,-1.72339 0.89701,-2.8236 -0.15243,-1.21431 -0.57257,-2.40316 -1.12214,-3.49339 -0.63398,-1.33202 -1.60038,-2.47822 -2.63037,-3.52217 -1.13118,-1.30314 -2.61033,-2.17665 -3.97199,-3.19774 -0.96891,-0.61927 -2.0076,-1.10813 -2.91327,-1.82317 0,0 9.80199,-6.20504 9.80199,-6.20504 v 0 c 0.93822,0.64782 1.95572,1.16899 2.87554,1.8438 1.42422,1.03954 2.87856,2.04178 4.07984,3.34989 1.09479,1.13585 2.10756,2.39006 2.80578,3.81167 0.63739,1.19128 1.1306,2.49831 1.34226,3.83456 0.20369,1.32919 0.33042,2.58558 -0.43799,3.78214 -0.46837,0.56952 -1.07536,1.16319 -1.71179,1.5419 -11.10999,6.61101 -15.98372,9.39524 -1.0265,0.72826 -34.94143,20.19137 6.46876,-3.78004 -1.85868,1.0614 -3.51844,2.04557 -7.03548,4.09354 -10.55797,6.13212 -0.43998,0.25463 -1.01631,0.55043 -1.46621,0.78608 -1.21647,0.62738 -2.51328,1.12576 -3.85941,1.38818 -1.41634,0.2789 -2.8166,0.49753 -4.26933,0.38485 -1.56414,10e-4 -3.12828,0.004 -4.69243,0.004 -1.55116,-0.002 -3.10323,-4.5e-4 -4.65302,-0.0746 -1.42606,-0.0882 -2.84586,-0.24097 -4.23829,-0.57505 -1.41602,-0.24615 -2.85759,-0.14372 -4.28346,-0.31704 -1.34902,-0.16364 -2.66816,-0.49667 -4.02062,-0.61324 -1.57369,-0.0424 -3.15489,-0.10621 -4.69981,-0.4356 -1.38892,-0.32429 -2.75435,-0.74327 -4.13245,-1.10898 -1.26787,-0.38641 -2.59413,-0.55832 -3.82996,-1.05965 -1.44693,-0.39531 -2.89567,-0.77739 -4.30539,-1.29765 -1.63126,-0.67471 -3.25359,-1.38723 -4.81846,-2.20415 -1.38742,-0.7941 -2.63742,-1.72849 -3.14045,-3.31883 -0.48256,-1.49579 -0.34375,-2.99133 0.0982,-4.49211 0.4721,-1.27771 1.18145,-2.50929 1.98709,-3.59905 0.86076,-1.07998 1.92121,-2.00789 2.90222,-2.97547 1.1158,-0.88819 2.1297,-1.91971 3.43057,-2.55601 3.66433,-2.59348 8.2451,-4.75269 11.70666,-6.93154 3.01163,-1.89566 -12.35963,7.05953 -9.24128,5.34507 16.42218,-9.02888 6.61477,-4.08837 11.16683,-6.37487 1.19175,-0.42048 2.4574,-0.61544 3.60804,-1.16828 1.40102,-0.30799 2.79199,-0.493 4.23299,-0.39076 1.5628,-10e-5 3.12559,-2.3e-4 4.68839,-10e-4 1.56409,-0.001 3.12817,-0.004 4.69226,-0.005 1.55038,10e-4 3.10167,-0.002 4.65075,0.0702 1.42884,0.0878 2.85348,0.23776 4.24019,0.6119 1.46445,0.31439 2.9801,0.31222 4.42714,0.73036 1.66178,0.4509 3.32983,0.87987 4.97582,1.38577 2.05287,0.58263 4.08723,1.20566 6.12143,1.85047 0,0 -9.60199,6.51486 -9.60199,6.51486 z"
       inkscape:connector-curvature="0" />
    <path
       style="fill:#000000"
       id="path3921"
       d="m 299.81383,678.17151 c 1.193,6.19146 2.5702,12.33324 3.43071,18.58482 0.14701,4.47516 1.21417,8.78769 2.04301,13.16008 0.72998,4.17819 0.85213,8.42493 0.94177,12.65516 0.0618,4.40865 0.0457,8.81793 0.0399,13.22688 -0.007,4.42203 -0.0101,8.84406 -0.0119,13.26609 -10e-4,4.41975 -10e-4,8.8395 -10e-4,13.25925 2e-5,4.4194 7e-5,8.8388 10e-5,13.25819 2e-5,4.41942 2e-5,8.83883 3e-5,13.25824 0,4.41941 0,8.83883 0,13.25825 0,4.41942 0,8.83883 0,13.25825 -0.29531,3.88506 -1.11193,7.73018 -1.84563,11.55689 -1.20366,3.62802 -3.0817,6.9855 -4.81275,10.38001 -0.68317,1.61612 -1.60429,3.11228 -2.46965,4.63331 0,0 -30.1237,13.04583 -30.1237,13.04583 v 0 c 1.15693,-1.24694 1.81764,-2.63227 2.78115,-4.02907 1.34251,-3.45941 3.34901,-6.61769 5.01997,-9.92225 1.27505,-3.44218 1.13347,-7.3032 2.30149,-10.8125 0,-4.41942 0,-8.83884 0,-13.25825 0,-4.41942 0,-8.83884 0,-13.25825 0,-4.41941 0,-8.83882 -2e-5,-13.25822 -2e-5,-4.41941 -7e-5,-8.83881 -10e-5,-13.25822 -1e-5,-4.42012 -9e-5,-8.84025 9.8e-4,-13.26037 0.001,-4.423 0.004,-8.84599 0.0105,-13.26899 0.006,-4.38844 0.0213,-8.77705 -0.0199,-13.16538 -0.0615,-4.06354 -0.12704,-8.14287 -0.73252,-12.16972 -0.76875,-4.4621 -1.98268,-8.83501 -1.96495,-13.40303 -0.70173,-6.23394 -1.81374,-12.41391 -3.58134,-18.44169 0,0 28.99418,-15.29531 28.99418,-15.29531 z"
       inkscape:connector-curvature="0" />
    <path
       style="fill:#000000"
       id="path3923"
       d="m 476.87377,677.44015 c 2.5677,4.71226 5.47755,9.24553 7.8598,14.05472 2.42311,3.2618 3.32327,7.11386 4.55918,10.88098 0.94457,3.36785 2.53942,6.4689 3.53218,9.81906 0.71349,4.12665 1.70796,8.19863 2.45384,12.32062 0.74162,4.44784 0.88948,8.96022 0.98603,13.45901 0.0637,4.43359 0.0467,8.86784 0.0403,13.30174 -0.008,4.41929 -0.0109,8.83858 -0.0128,13.25788 -0.0412,4.31382 0.23617,8.62847 -0.45954,12.90033 -1.12966,4.32294 -2.73788,8.50025 -4.94444,12.38422 -2.5457,3.98555 -5.61093,7.59312 -8.16013,11.57209 -1.64029,2.14725 -2.89699,4.38387 -3.0285,7.10446 0,0 -29.2158,14.99585 -29.2158,14.99585 v 0 c -0.2938,-3.32778 0.17556,-6.27386 2.19392,-9.05478 2.90225,-3.69867 5.23001,-7.85378 8.32635,-11.43652 2.42233,-3.51627 3.87107,-7.27289 5.33733,-11.25704 0.96549,-4.08991 0.90879,-8.15707 0.80114,-12.35748 10e-4,-4.42046 0.004,-8.84091 0.0112,-13.26136 0.007,-4.41546 0.0242,-8.83104 -0.0111,-13.24642 -0.0592,-4.34414 -0.13418,-8.70271 -0.75634,-13.0105 -0.66538,-4.02592 -1.80031,-7.94022 -2.36281,-11.98048 -0.89479,-3.33054 -2.56912,-6.34298 -3.45347,-9.67945 -1.24756,-3.62055 -1.89632,-7.40813 -4.25902,-10.57914 -2.27643,-4.83864 -5.0713,-9.45425 -7.94072,-13.9584 0,0 28.50339,-16.22939 28.50339,-16.22939 z"
       inkscape:connector-curvature="0" />
    <path
       style="fill:#000000"
       id="path3935"
       d="m 527.86827,232.14741 c 4.14033,3.84825 7.90923,8.02485 11.95465,11.97344 2.37596,3.01386 5.18786,5.66393 7.1725,8.96199 1.91557,2.51584 3.51558,5.22534 5.30354,7.82367 2.06895,3.09773 3.61796,6.47194 5.31101,9.77825 1.46946,3.21901 2.98946,6.41717 4.74388,9.49389 2.01447,4.06244 3.76153,8.22556 5.87887,12.23799 1.61573,3.66843 3.72357,7.08802 5.36173,10.74697 1.88473,3.99153 3.86393,7.85715 5.12663,12.1027 1.19775,3.97937 2.67325,7.91258 4.60965,11.59506 2.26866,3.87937 2.67164,8.40789 3.92318,12.65174 1.78323,5.83181 3.5367,11.67236 5.34183,17.49782 1.63212,6.12039 3.83974,12.05656 5.86063,18.05545 1.93487,4.98325 3.41967,10.1336 5.25367,15.14668 1.74091,5.41499 3.59681,10.79367 5.17793,16.25813 1.56769,6.46957 3.83813,12.75602 6.04601,19.03072 2.42813,7.15487 3.8894,14.56121 6.0663,21.78954 1.77495,5.96404 3.60231,11.89668 4.72665,18.02331 0.99879,4.79697 2.23882,9.50114 3.57231,14.21387 1.20667,4.47656 1.44017,9.11758 2.20185,13.67517 1.4946,5.88922 2.61861,11.83954 3.34176,17.8712 0.13828,5.5333 1.09009,10.96605 1.88927,16.42669 0.6917,5.12564 0.81509,10.30801 0.9249,15.47265 0.49055,4.6881 1.40015,9.30699 1.78988,14.00914 0.30869,5.62264 0.39445,11.2542 0.45092,16.88401 -0.2302,4.8184 0.0772,9.52305 0.90635,14.2626 0.91909,5.23911 1.02451,10.58104 1.18823,15.88572 0.13008,4.87979 0.14167,9.76158 0.14822,14.64276 10e-4,4.4375 -0.004,8.87499 -0.006,13.31249 -0.002,4.4133 -0.003,8.8266 -0.003,13.2399 0.21147,4.15555 -0.71672,8.19021 -1.988,12.11282 -0.95435,3.79356 -2.33178,7.45615 -3.41254,11.2101 -1.32905,4.00284 -2.38445,8.03584 -2.94688,12.21726 -0.18834,3.96149 -1.34377,7.7638 -1.99167,11.65571 -0.32496,2.61992 -0.18467,1.29777 -0.41877,3.96669 0,0 -29.28091,14.65343 -29.28091,14.65343 v 0 c 0.16173,-2.79239 0.0619,-1.40449 0.29845,-4.1638 0.47958,-3.92911 1.67665,-7.68079 2.07059,-11.593 0.41641,-4.28671 1.07852,-8.55815 2.71393,-12.57418 0.83763,-3.92396 2.56058,-7.49832 3.33351,-11.43577 1.20034,-3.62697 2.61053,-7.31644 2.4729,-11.197 -3e-5,-4.4137 -2.2e-4,-8.8274 0.001,-13.24111 0.002,-4.43968 0.006,-8.87936 0.0183,-13.31902 0.0124,-4.87024 0.0376,-9.74081 -0.0256,-14.61082 -0.10026,-5.1469 -0.20735,-10.31912 -1.07093,-15.4066 -0.8458,-4.91246 -1.41523,-9.78006 -1.08789,-14.78355 0.002,-5.55241 0.0163,-11.11117 -0.34639,-16.65442 -0.38827,-4.7688 -1.15357,-9.47476 -1.89165,-14.1993 -0.0535,-5.0465 -0.12844,-10.10471 -0.73958,-15.12099 -0.71966,-5.51022 -1.80651,-10.96992 -1.87064,-16.54585 -0.5776,-5.97934 -1.55925,-11.89356 -3.294,-17.65799 -0.80863,-4.45456 -1.2041,-8.9382 -2.10757,-13.37303 -1.28466,-4.83897 -2.60919,-9.64228 -3.65972,-14.54016 -0.92795,-6.05867 -2.67241,-11.88733 -4.38071,-17.76299 -2.0973,-7.2014 -3.69288,-14.51424 -5.91743,-21.67443 -2.26318,-6.3173 -4.8562,-12.57175 -6.31504,-19.13105 -1.47663,-5.40833 -3.43219,-10.65705 -5.20175,-15.97271 -1.81272,-5.05347 -3.14298,-10.29026 -5.12131,-15.29572 -2.05473,-6.01785 -4.25522,-11.99827 -5.89329,-18.14411 -1.77426,-5.81704 -3.65712,-11.59995 -5.41176,-17.42252 -1.36986,-4.02416 -1.76052,-8.31756 -3.80225,-12.08169 -1.99862,-3.89876 -3.52888,-8.03789 -4.85523,-12.2087 -1.12689,-4.13514 -3.13317,-7.82786 -4.96473,-11.68242 -1.55952,-3.61592 -3.71663,-6.93596 -5.23193,-10.57271 -2.04612,-3.97814 -3.79455,-8.08 -5.80373,-12.07242 -1.89573,-3.07815 -3.39438,-6.37233 -4.87933,-9.66145 -1.61615,-3.1975 -3.10964,-6.44603 -5.15281,-9.40316 -1.77614,-2.67393 -3.50567,-5.36124 -5.375,-7.97723 -1.83719,-3.04208 -4.48253,-5.51278 -6.63086,-8.3323 -3.92746,-3.91656 -7.42204,-8.29694 -11.89136,-11.61266 0,0 27.78851,-17.4547 27.78851,-17.4547 z"
       inkscape:connector-curvature="0" />
    <path
       style="fill:#000000"
       id="path3939"
       d="m 231.15723,269.58104 c -0.51221,6.17342 0.40779,12.2856 1.15498,18.39359 0.62254,4.88481 0.85539,9.80332 0.97564,14.7221 0.0998,4.76826 0.0338,9.53729 0.0288,14.30601 0.021,5.12559 -0.0207,10.25093 -0.0177,15.37649 0.0133,5.26971 -0.0118,10.53919 0.002,15.80894 0.0163,4.72234 0.026,9.4447 0.0311,14.16706 0.2106,5.0808 -0.1819,10.09445 -0.91386,15.11509 -0.81758,4.96444 -1.08338,9.98485 -1.22999,15.00592 0.14379,5.99462 -0.82274,11.91522 -1.42719,17.86007 -0.2982,5.98483 -0.99778,11.90439 -1.8021,17.83761 -0.70832,5.63483 -0.95282,11.29408 -1.78838,16.91267 -0.96589,5.4875 -1.09679,11.06641 -1.72673,16.5886 -1.09483,5.4414 -1.45563,10.97888 -2.13549,16.47426 -0.99073,5.61972 -1.47001,11.30225 -2.54604,16.9058 -0.86597,6.18329 -2.0968,12.3061 -3.05413,18.4749 -0.97162,4.36821 -2.00306,8.71529 -2.93121,13.09483 -1.37528,4.61322 -1.74653,9.41845 -2.80224,14.09884 -0.64466,4.33733 -1.91687,8.51589 -2.97773,12.75626 -0.65967,4.56073 -2.32968,8.85449 -3.61674,13.25011 -1.13088,4.57764 -1.51497,9.25195 -2.91562,13.76458 -1.60834,4.03933 -2.71222,8.24397 -4.18984,12.33022 -1.77767,4.96863 -3.27377,10.02308 -5.15704,14.9576 -1.32392,4.13568 -2.69323,8.24791 -4.15142,12.34004 -1.70981,4.48956 -3.11705,9.10677 -4.20283,13.78663 -1.0815,4.65363 -2.95237,9.06015 -4.2275,13.6568 -1.43212,4.25226 -2.25023,8.67838 -3.6234,12.94314 -1.18132,3.94067 -2.29301,7.90178 -3.488,11.8398 -1.60444,4.00141 -2.12972,8.29166 -3.30867,12.40988 -1.17686,4.01281 -2.527,7.97868 -3.94774,11.91213 -1.57645,4.07638 -3.23606,8.1129 -4.94308,12.13482 -1.29442,3.67076 -3.52322,6.76618 -5.9019,9.78744 -3.3499,4.16287 -7.08937,7.9888 -10.8136,11.81289 -3.52385,3.58534 -7.03439,7.21519 -9.904,11.35405 -1.92264,2.4109 -4.09638,4.64814 -6.39293,6.70794 0,0 -30.298094,12.52512 -30.298094,12.52512 v 0 c 2.055906,-2.22023 4.420974,-4.18317 6.616144,-6.26552 3.51893,-4.37484 -1.15718,1.58604 2.45857,-3.57317 2.11724,-3.02103 5.06915,-5.45371 7.4477,-8.2532 3.67014,-3.73481 7.35485,-7.465 10.76286,-11.44409 2.32837,-2.84399 4.74376,-5.49392 6.30687,-8.86208 1.44134,-4.11513 3.48585,-7.9874 5.03002,-12.06973 1.34449,-3.91188 2.79873,-7.78816 3.95637,-11.75344 1.32182,-4.13944 1.941,-8.39212 3.31743,-12.52531 1.43318,-3.84414 2.3482,-7.87059 3.44178,-11.81822 1.47739,-4.20537 2.35102,-8.52642 3.80368,-12.75147 1.07094,-4.64019 2.79489,-9.05351 4.30069,-13.55726 0.95346,-4.83582 2.41316,-9.54708 3.89351,-14.23328 1.73681,-3.99857 3.00596,-8.18549 4.26463,-12.35154 1.87203,-4.93961 3.77198,-9.85175 5.08596,-14.98049 1.74457,-3.97816 2.64033,-8.1985 4.17881,-12.24823 1.93559,-4.31768 2.26693,-8.92702 3.14284,-13.5325 1.09285,-4.39975 2.9249,-8.57256 3.56783,-13.07098 0.86659,-4.32058 2.58259,-8.38164 3.05334,-12.78676 1.03506,-4.70601 1.66527,-9.44377 2.71685,-14.14753 1.2314,-4.24211 1.54279,-8.74163 3.20269,-12.88886 0.92522,-6.2106 2.37881,-12.3148 2.98359,-18.56902 1.03215,-5.57937 1.79845,-11.17237 2.60348,-16.79428 0.95846,-5.44041 0.87396,-11.02808 2.07688,-16.44663 1.03028,-5.4719 0.76987,-11.13408 1.83043,-16.6198 0.77914,-5.62001 1.23101,-11.24577 1.82013,-16.89084 0.77356,-5.91232 1.60109,-11.79269 1.87351,-17.75698 0.58514,-5.8564 1.51751,-11.69028 1.40945,-17.58445 0.13012,-5.1289 0.24608,-10.27768 1.04207,-15.35603 0.75307,-4.88184 1.48058,-9.69395 1.08743,-14.65776 0.005,-4.73293 0.0147,-9.46585 0.031,-14.19876 0.0139,-5.27126 -0.0112,-10.54227 0.005,-15.8135 0.006,-5.1239 -0.03,-10.24764 0.004,-15.37154 0.004,-4.73973 -0.0289,-9.4793 -0.0536,-14.21894 -0.0688,-4.84106 -0.20539,-9.68543 -0.72309,-14.50308 -0.66785,-6.20068 -1.62693,-12.37863 -1.5071,-18.63293 0,0 29.21156,-14.88403 29.21156,-14.88403 z"
       inkscape:connector-curvature="0" />
    <path
       style="fill:#000000"
       id="path3941"
       d="m 311.84709,395.63236 c 3.81113,-0.72704 7.44158,-2.01567 11.17099,-3.03631 2.06333,-0.71276 4.29544,-0.49525 6.40409,-0.86294 0.87345,-0.1523 1.69921,-0.50741 2.55326,-0.74552 2.64088,-0.23802 5.03994,-1.1717 7.58477,-1.79897 1.83503,-0.38747 3.70939,-0.49071 5.57667,-0.58995 0,0 -18.62448,13.75759 -18.62448,13.75759 v 0 c -1.80264,0.19105 -3.6058,0.41634 -5.34393,0.9583 -2.50642,0.75223 -5.07183,1.12449 -7.61254,1.7448 -2.93089,0.62406 -5.97714,0.65205 -8.83925,1.63259 -3.71835,1.12175 -7.50421,1.97319 -11.19594,3.17808 0,0 18.32636,-14.23767 18.32636,-14.23767 z"
       inkscape:connector-curvature="0" />
    <path
       style="fill:#000000"
       id="path3947"
       d="m 432.17603,397.105 c -2.83897,-0.0964 -5.64479,-0.6293 -8.47506,-0.89117 -2.01002,-0.59575 -4.04129,-1.01017 -6.12777,-1.19801 -2.09388,-0.055 -4.1133,-0.0996 -6.15314,-0.58011 -1.90243,-0.33712 -3.7645,-0.52921 -5.6211,-1.06643 -1.84861,-0.58355 -3.81572,-0.39223 -5.66927,-0.88583 -0.30301,-0.0808 -0.60601,-0.16163 -0.90902,-0.24245 0,0 13.49015,-9.31651 13.49015,-9.31651 v 0 c 0.28918,0.0636 0.57836,0.12718 0.86754,0.19077 1.92469,0.24414 3.87101,0.37797 5.7344,0.96737 1.8308,0.45195 3.72869,0.52477 5.5604,0.98938 2.00263,0.34745 4.04261,0.19823 6.05662,0.47193 2.05256,0.28625 4.03624,0.84374 6.07114,1.21568 2.80279,0.32282 5.60463,0.85525 8.43688,0.71014 0,0 -13.26177,9.63524 -13.26177,9.63524 z"
       inkscape:connector-curvature="0" />
    <path
       style="fill:#000000"
       id="path3949"
       d="m 428.50551,441.60763 c 3.07153,0.0671 6.14431,0.0405 9.21633,0.0293 2.4435,-0.0102 4.88702,-0.0151 7.33054,-0.0176 1.80655,-0.155 3.89952,-0.37425 5.56533,-1.15078 0,0 -12.96417,10.04783 -12.96417,10.04783 v 0 c -1.92873,0.37611 -3.84692,0.85969 -5.83083,0.71487 -2.42735,-0.003 -4.85471,-0.007 -7.28204,-0.0176 -3.0989,-0.0115 -6.19849,-0.0369 -9.29693,0.0293 0,0 13.26177,-9.63524 13.26177,-9.63524 z"
       inkscape:connector-curvature="0" />
    <path
       style="fill:#000000"
       id="path3951"
       d="m 341.60814,451.70237 c -2.57412,1.58222 -5.06427,3.2933 -7.64155,4.87032 -33.7295,19.44542 -7.99732,4.59821 -2.21582,1.30898 0.326,-0.18547 -0.63103,0.40561 -0.94814,0.60589 -0.98012,0.61903 -1.93868,1.25534 -2.89032,1.91763 -4.99604,2.87764 -9.9568,5.81741 -14.98812,8.63291 -0.33216,0.18588 -0.73406,0.20962 -1.08344,0.36065 -0.31259,0.13513 -1.18956,0.66362 -0.89413,0.49424 4.37964,-2.51103 8.76046,-5.02002 13.14686,-7.51924 0.30073,-0.17135 -0.58883,0.36429 -0.88964,0.53549 -4.98447,2.83683 -9.97729,5.65897 -14.96593,8.48845 25.0161,-14.30868 9.91059,-5.68593 -1.62273,0.98645 -4.42552,2.5603 8.847,-5.12786 13.2934,-7.65172 0.24817,-0.14086 -0.44829,0.3563 -0.69458,0.50041 -9.50159,5.55976 -10.12606,5.91147 -15.57766,9.00726 -1.25625,0.3907 -2.3772,1.00352 -3.5707,1.53815 0,0 12.83053,-10.19961 12.83053,-10.19961 v 0 c 1.16127,-0.55477 2.38806,-0.9649 3.49381,-1.63449 5.22543,-2.85997 2.62355,-1.44553 -12.44802,7.2835 -0.24538,0.14212 0.47065,-0.317 0.71463,-0.46152 4.89878,-2.90178 10.02706,-5.44291 14.71308,-8.67704 0.51987,-0.3588 -38.61361,22.37747 1.66655,-0.90197 -43.79374,25.35287 34.83965,-20.01625 -8.35141,5.15842 0.99628,-0.60733 1.88249,-1.33438 2.86749,-1.9568 8.98841,-5.67972 30.24251,-17.31679 3.22178,-1.93224 2.53527,-1.58095 5.05717,-3.18121 7.5736,-4.78313 0,0 15.26046,-5.97099 15.26046,-5.97099 z"
       inkscape:connector-curvature="0" />
    <path
       style="fill:#000000"
       id="path3953"
       d="m 317.73637,253.30191 c 2.76659,-0.80286 5.60944,-1.25094 8.47111,-1.52825 2.3327,-0.36101 4.76663,0.12152 7.05814,-0.43406 1.55845,-0.44855 3.16846,-0.61811 4.7789,-0.7408 0,0 -13.15116,9.76008 -13.15116,9.76008 v 0 c -1.59282,0.20392 -3.1586,0.53709 -4.74346,0.78845 -2.34273,0.10445 -4.69455,0.0701 -7.02685,0.35682 -2.8337,0.35951 -5.65151,0.8888 -8.34537,1.86532 0,0 12.95869,-10.06756 12.95869,-10.06756 z"
       inkscape:connector-curvature="0" />
    <path
       style="fill:#000000"
       id="path3957"
       d="m 433.28088,258.99821 c -3.07153,-0.0671 -6.14431,-0.0405 -9.21633,-0.0293 -2.4435,0.0102 -4.88702,0.0151 -7.33055,0.0176 -2.21102,0.002 -4.42204,0.002 -6.63306,0.002 -2.07247,0.21665 -4.02812,-0.44817 -6.04763,-0.7732 -2.11243,-0.0676 -4.13254,-0.55836 -6.19899,-0.94359 0,0 13.41346,-9.36255 13.41346,-9.36255 v 0 c 2.0601,0.40559 4.12934,0.62729 6.20852,0.90644 1.94504,0.37042 3.86249,0.73088 5.85864,0.55784 2.20958,-2e-5 4.41916,-1.7e-4 6.62874,0.002 2.42735,0.002 4.85471,0.007 7.28204,0.0176 3.0989,0.0115 6.19849,0.0369 9.29693,-0.0293 0,0 -13.26177,9.63524 -13.26177,9.63524 z"
       inkscape:connector-curvature="0" />
    <path
       style="fill:#000000"
       id="path3959"
       d="m 419.66667,179.75715 c 3.07154,0.0671 6.14431,0.0405 9.21633,0.0293 2.44483,-0.0265 4.83891,-0.63834 7.27218,-0.89631 2.22197,-0.28433 4.38653,-0.86275 6.62592,-1.11372 1.11326,-0.11184 2.23149,-0.14858 3.34896,-0.18697 0,0 -13.18691,9.67853 -13.18691,9.67853 v 0 c -1.09092,0.0683 -2.18276,0.13666 -3.26503,0.29809 -2.2162,0.34823 -4.39293,0.92415 -6.63587,1.09203 -2.43754,0.32615 -4.86669,0.83689 -7.34042,0.70503 -3.0989,-0.0115 -6.19849,-0.0369 -9.29693,0.0293 0,0 13.26177,-9.63524 13.26177,-9.63524 z"
       inkscape:connector-curvature="0" />
    <path
       style="fill:#ffffff"
       id="path3961"
       d="m 330.46248,198.00396 c -2.82738,-0.49563 -5.58544,-1.27646 -8.4343,-1.68323 -2.30518,-0.28813 -4.63088,-0.30961 -6.95038,-0.32466 -2.20161,-0.46267 -4.41991,-0.78715 -6.66227,-0.95767 -1.45542,-0.0763 -0.72716,-0.0447 -2.18479,-0.0947 0,0 13.27794,-9.55318 13.27794,-9.55318 v 0 c 1.48522,0.0866 0.74265,0.0348 2.22773,0.15558 2.20379,0.23791 4.37625,0.69863 6.58632,0.85492 2.36034,0.0498 4.72617,0.14146 7.05779,0.54306 2.83224,0.51375 5.60531,1.34622 8.47762,1.61487 0,0 -13.39566,9.44504 -13.39566,9.44504 z"
       inkscape:connector-curvature="0" />
    <path
       style="fill:#ffffff;stroke-width:1.10485435"
       d=""
       id="path3965"
       inkscape:connector-curvature="0" />
    <path
       style="fill:#ffffff;stroke-width:1.10485435"
       d="m 322.44791,197.31219 c -7.70516,-1.01916 -17.54533,-3.64242 -20.49015,-5.46242 -1.25719,-0.77699 -1.0341,-1.51554 1.18415,-3.92008 1.50325,-1.6295 4.34804,-3.65068 6.32175,-4.49151 4.5376,-1.9331 21.49839,-3.34905 19.06095,-1.59128 -1.47314,1.06235 -1.47314,1.31609 0,2.28368 0.9115,0.5987 4.04392,1.88992 6.96093,2.8694 5.64267,1.89469 13.98761,8.60744 12.52213,10.07292 -1.28037,1.28036 -16.60425,1.42383 -25.55976,0.23929 z"
       id="path3967"
       inkscape:connector-curvature="0" />
    <path
       style="fill:#ffffff;stroke-width:1.10485435"
       d="m 430.72363,191.15727 c -7.77922,-1.64505 -7.92496,-1.78907 -2.77941,-2.7468 4.22398,-0.78621 5.27842,-0.59833 7.15086,1.27411 2.17942,2.17942 2.17955,2.19531 0.0173,2.06814 -1.19846,-0.0705 -3.17339,-0.33845 -4.38873,-0.59545 z"
       id="path3969"
       inkscape:connector-curvature="0" />
    <path
       style="fill:#ffffff;stroke-width:0.390625"
       d="m 405.79709,185.86621 c -1.39649,-0.70883 -2.58599,-1.55245 -2.64334,-1.87472 -0.0591,-0.33186 0.71395,-1.14141 1.78272,-1.86696 l 1.88701,-1.28103 5.3735,0.10915 5.3735,0.10916 -3.96697,2.87733 c -2.18184,1.58254 -4.25956,2.95351 -4.61717,3.0466 -0.3576,0.0931 -1.79277,-0.4107 -3.18925,-1.11953 z"
       id="path3971"
       inkscape:connector-curvature="0" />
    <path
       style="fill:#ffffff;stroke-width:0.390625"
       d="m 399.58525,254.40183 c -2.02813,-0.98226 -3.16316,-2.64004 -3.16316,-4.61999 v -1.72785 l 1.85546,-0.009 c 1.02051,-0.005 2.5586,-0.17695 3.41797,-0.38182 0.85938,-0.20488 3.05664,-0.56078 4.88282,-0.79089 1.82617,-0.23012 4.43746,-0.76142 5.80286,-1.18068 2.19673,-0.67453 3.67708,-0.7623 12.85773,-0.7623 h 10.37517 l -2.31085,1.60864 c -2.91069,2.02619 -2.78171,1.88442 -2.10423,2.31287 1.07885,0.68229 -10.0659,0.39775 -15.20666,-0.38824 l -4.84378,-0.74058 -5.16596,3.63827 -5.16596,3.63827 z"
       id="path3973"
       inkscape:connector-curvature="0" />
    <path
       style="fill:#ffffff;stroke-width:0.390625"
       d="m 434.13693,258.65214 c 0.2041,-0.18665 1.5129,-1.15927 2.90844,-2.16138 2.37373,-1.70453 2.55946,-1.77246 2.8803,-1.05342 0.18863,0.42273 0.22538,1.39535 0.0817,2.16138 l -0.26129,1.39277 h -2.99011 c -1.71661,0 -2.83206,-0.14453 -2.61902,-0.33935 z"
       id="path3975"
       inkscape:connector-curvature="0" />
    <path
       style="fill:#ffffff;stroke-width:0.390625"
       d="m 398.55431,389.43558 c -1.50814,-0.63075 -3.21484,-1.68423 -3.83389,-2.36651 -0.9786,-1.07856 -1.08414,-1.42727 -0.85873,-2.83723 0.5204,-3.25504 3.74234,-7.15021 6.80873,-8.23141 2.38464,-0.84082 17.13777,-0.8467 22.11885,-0.009 4.46017,0.75026 12.69532,2.93816 12.69532,3.37287 0,0.18157 -0.17579,0.33013 -0.39063,0.33013 -0.96439,0 -0.19039,0.85487 2.24609,2.48079 1.4502,0.96775 3.33985,2.4963 4.19922,3.39678 l 1.5625,1.63724 -2.76777,-0.2591 c -1.52227,-0.14251 -4.42266,-0.60056 -6.44531,-1.0179 -2.02265,-0.41734 -4.55645,-0.76456 -5.63067,-0.77161 -1.07422,-0.007 -3.35937,-0.27274 -5.07812,-0.59043 -9.80533,-1.81236 -10.69499,-1.9128 -11.42112,-1.2895 -0.37854,0.32494 -2.89282,2.09846 -5.58728,3.94116 l -4.89902,3.35036 z"
       id="path3977"
       inkscape:connector-curvature="0" />
    <path
       style="fill:#ffffff;stroke-width:0.390625"
       d="m 295.43902,407.04867 c 0.53893,-0.85371 1.77666,-3.87844 2.75052,-6.72161 2.81417,-8.21593 4.34156,-10.0479 9.82034,-11.77864 6.5886,-2.08134 9.03537,-2.31991 21.90158,-2.13548 6.49533,0.0931 11.93478,0.29438 12.08767,0.44727 0.64864,0.64863 -1.50567,1.88992 -4.77247,2.74987 -5.85102,1.5402 -9.00635,2.19391 -10.58949,2.19391 -0.82999,0 -3.90616,0.69164 -6.83593,1.53697 -2.92977,0.84533 -5.92311,1.64882 -6.65187,1.78553 -0.90182,0.16919 -4.03587,2.36068 -9.81257,6.86148 -4.66816,3.63709 -8.57533,6.6129 -8.6826,6.6129 -0.10727,0 0.2459,-0.69849 0.78482,-1.5522 z"
       id="path3979"
       inkscape:connector-curvature="0" />
    <path
       style="fill:#ffffff;stroke-width:0.390625"
       d="m 296.22677,411.67803 c -3.3556,-0.6032 -3.69068,-0.72229 -3.49165,-1.24097 0.10545,-0.27478 0.49475,-0.52313 0.86512,-0.55188 0.37038,-0.0288 3.48718,-0.84523 6.92623,-1.81438 3.43905,-0.96915 8.00936,-2.04373 10.15625,-2.38797 2.14688,-0.34423 6.12334,-1.14685 8.83656,-1.7836 2.71322,-0.63676 5.35825,-1.15774 5.87783,-1.15774 0.5866,0 3.04989,-1.55477 6.49829,-4.10156 3.05447,-2.25586 5.63301,-4.10156 5.73008,-4.10156 0.4711,0 -1.75051,3.19021 -3.68118,5.28616 -1.19386,1.29606 -3.04956,3.71489 -4.12378,5.37517 -1.95112,3.0156 -1.95592,3.01953 -4.6875,3.84308 -1.5039,0.45341 -4.05273,1.06731 -5.66406,1.36421 -1.61133,0.2969 -3.98437,0.80026 -5.27344,1.11856 -2.6473,0.6537 -14.6155,0.75525 -17.96875,0.15248 z"
       id="path3981"
       inkscape:connector-curvature="0" />
    <path
       style="fill:#000000"
       id="path3987"
       d="m 320.22978,185.28142 c 3.07154,0.0671 6.14431,0.0405 9.21633,0.0293 2.41866,-0.1306 4.88819,0.23989 7.27348,-0.22611 2.18941,-0.49103 4.42085,-0.69964 6.65667,-0.81893 1.21914,-0.35817 0.61189,-0.18544 1.82166,-0.51857 0,0 -13.0315,9.93801 -13.0315,9.93801 v 0 c -1.27297,0.25308 -0.62088,0.15549 -1.95724,0.28621 -2.21723,0.18827 -4.40609,0.54703 -6.60512,0.87786 -2.4444,0.11285 -4.89278,0.0221 -7.33912,0.0382 -3.0989,-0.0115 -6.19849,-0.0369 -9.29693,0.0293 0,0 13.26177,-9.63524 13.26177,-9.63524 z"
       inkscape:connector-curvature="0" />
    <path
       style="fill:#000000"
       id="path3989"
       d="m 302.92591,473.62538 c 1.7305,-1.75338 3.50916,-3.4469 5.37679,-5.0531 1.2923,-1.13761 2.69428,-2.11577 4.11195,-3.08322 4.17026,-3.04733 8.71888,-5.32258 13.2411,-7.9301 -16.93968,10.12321 -9.95019,6.03927 -6.41601,3.28568 1.02868,-0.63233 1.89874,-1.48362 2.94035,-2.09114 3.76729,-2.64944 7.58259,-4.64849 11.79466,-7.0269 0.41395,-0.23374 0.77357,-0.15139 1.21354,-0.12769 0,0 -9.30208,6.95786 -9.30208,6.95786 v 0 c -0.32304,0.13404 -1.2443,0.6378 -0.94261,0.46087 16.57511,-9.72106 11.30557,-6.97166 8.0376,-4.51431 -0.90167,0.7338 -2.10107,1.26613 -2.95004,2.12665 -0.67892,0.37035 -1.09019,0.79768 -1.67337,1.28588 -3.47545,2.90946 -10.68492,0.6893 -11.71146,6.9054 17.35513,-10.07838 9.89448,-6.23335 6.57289,-3.52052 -1.51569,0.85603 -2.89889,1.88757 -4.27118,2.95881 -1.84387,1.56871 -3.69732,3.11894 -5.31444,4.93056 0,0 -10.70769,4.43527 -10.70769,4.43527 z"
       inkscape:connector-curvature="0" />
    <path
       style="fill:#000000"
       id="path3991"
       d="m 342.41645,452.90078 c -4.65662,3.49693 -9.83979,6.19283 -14.86382,9.10973 3.06849,-1.7652 6.13101,-3.5408 9.20547,-5.29558 1.64858,-0.94095 -1.42538,0.96454 -1.6725,1.10981 -3.4712,2.0405 -6.93936,4.08715 -10.44729,6.06384 -0.18808,0.10599 -0.41579,0.11639 -0.62369,0.17458 -3.5393,1.86858 -7.86581,4.37157 8.42722,-4.87248 0.16422,-0.0932 -0.31271,0.21233 -0.47646,0.30634 -10.54316,6.05287 -6.57561,4.99431 -11.07365,6.12877 -3.55024,1.84414 -7.82389,4.34244 8.44122,-4.87916 0.1649,-0.0935 -0.31957,0.204 -0.48037,0.30438 -0.79611,0.49698 -0.28278,0.15363 -1.04739,0.6863 -3.35732,3.0504 -7.22147,4.40334 -11.50922,6.87982 -3.12658,1.80582 12.53857,-7.16709 9.3988,-5.38431 -4.23628,2.40539 -22.43562,12.8655 -1.0448,0.57866 -0.92847,0.66078 -1.85914,1.30648 -2.78715,1.96638 -3.49006,1.99253 -6.95206,4.03506 -10.4702,5.9776 -0.18569,0.10252 -0.42145,0.0695 -0.61947,0.14554 -0.18093,0.0695 -0.33159,0.20184 -0.50591,0.28655 -0.1787,0.0868 -0.72303,0.32659 -0.55109,0.22705 12.36776,-7.16019 12.43683,-7.20983 8.99329,-5.09786 -28.30989,16.18155 -0.69031,0.33608 -1.01168,0.54432 -3.68694,2.38904 -7.67267,5.77716 -12.27616,6.48011 -1.2801,0.14612 -2.60154,0.66418 -3.65026,1.41636 -4.67831,2.66269 12.56777,-7.86643 8.32324,-4.71912 0,0 -10.78912,4.25879 -10.78912,4.25879 v 0 c 3.68023,-2.50573 7.59797,-4.6439 11.48048,-6.82116 1.24698,-0.53205 2.50539,-0.97627 3.85657,-1.15938 0.54381,-0.17239 0.65055,-0.18148 1.15459,-0.43659 0.17261,-0.0874 0.671,-0.38549 0.50365,-0.28844 -3.14182,1.82204 -12.61029,7.21204 -9.42705,5.46339 0.84447,-0.46389 25.41591,-14.68294 1.00509,-0.5625 0.16371,-0.0951 0.3269,-0.19117 0.49114,-0.28539 3.48193,-1.99748 6.95603,-4.0087 10.44736,-5.9897 0.4741,-0.269 0.60492,-0.23692 1.10656,-0.44429 0.18389,-0.076 0.71043,-0.35769 0.53879,-0.25702 -3.13142,1.83678 -6.27994,3.64424 -9.4199,5.46635 1.00245,-0.56093 1.90052,-1.23494 2.80734,-1.92659 3.4686,-2.02927 7.03989,-3.89241 10.40581,-6.08779 3.02669,-1.97412 -12.56836,7.13643 -9.38676,5.42312 4.17696,-2.24931 22.39429,-13.01027 1.14299,-0.56833 -0.36616,0.21437 1.51645,-0.79741 1.05864,-0.70675 0.44669,-0.50343 0.85993,-0.82907 1.44174,-1.16469 3.11968,-1.79956 7.45817,-4.93904 11.52213,-6.46569 3.7937,-1.84592 0.77079,-0.39089 -8.89471,5.20316 -0.16226,0.0939 0.32179,-0.1925 0.48409,-0.28635 3.35678,-1.94122 7.47511,-4.83664 11.50669,-6.50812 3.65645,-1.97608 1.76843,-0.96326 -8.83503,5.17831 -0.18144,0.1051 0.35941,-0.21768 0.52603,-0.34497 1.22543,-0.93621 -0.23769,0.002 1.16224,-0.81458 3.51711,-2.05053 7.03018,-4.10799 10.54527,-6.16199 -17.38862,10.13137 -8.65224,5.19627 -4.88017,2.47062 0,0 10.76741,-4.32105 10.76741,-4.32105 z"
       inkscape:connector-curvature="0" />
    <path
       style="fill:#000000"
       id="path3997"
       d="m 306.88407,472.83101 c 4.18192,-2.61832 8.53369,-4.97948 12.79301,-7.45114 2.922,-1.69562 -5.84482,3.38998 -8.78079,5.0613 -0.60632,0.34516 1.17054,-0.7599 1.744,-1.15726 4.36619,-2.98231 8.8953,-5.47328 13.5151,-8.17078 -3.14282,1.81365 -6.27768,3.64115 -9.42846,5.44093 -0.16824,0.0961 0.31121,-0.23245 0.47922,-0.32894 3.48539,-2.00159 6.94889,-4.04325 10.4793,-5.96432 3.19286,-1.7374 -12.5637,7.31582 -9.46646,5.41318 3.41934,-2.1005 6.94935,-4.01535 10.43319,-6.00704 3.16189,-1.80764 -6.31155,3.63657 -9.46733,5.45486 6.39102,-3.98435 21.09961,-12.16725 1.42414,-0.92215 -0.14967,0.0855 0.2992,-0.17401 0.43319,-0.28246 0.28064,-0.22717 0.51776,-0.50343 0.78044,-0.75116 3.05274,-3.47544 9.09605,-5.72992 12.09815,-7.57535 3.09709,-1.90381 -6.30389,3.62309 -9.45584,5.43464 24.74458,-14.34524 3.75522,-2.16878 0.95873,-0.57826 -0.16437,0.0935 0.29111,-0.2442 0.45427,-0.33978 3.46617,-2.0304 6.92761,-4.06988 10.43048,-6.03628 0.79242,-0.20839 0.42758,-0.0513 1.10011,-0.45816 0.18114,-0.0783 0.71417,-0.33374 0.54343,-0.23482 -3.14686,1.82326 -6.31171,3.61532 -9.47509,5.40975 -0.16527,0.0937 0.31526,-0.21275 0.48005,-0.30733 1.78457,-1.02422 7.75443,-4.95174 11.66728,-6.54548 -3.12291,1.78218 -6.24583,3.56437 -9.36874,5.34655 0,0 10.81517,-4.16329 10.81517,-4.16329 v 0 c -3.50555,2.00795 -7.0111,4.01589 -10.51664,6.02384 -0.80874,0.41692 -1.33586,0.68979 -1.19451,0.60715 20.07187,-11.73408 3.94983,-2.10187 -2.0182,1.10657 -0.36693,0.1433 -1.41403,0.69183 -1.07417,0.49265 25.06531,-14.69023 -1.36783,0.91131 -1.40736,0.93942 -2.96023,2.10477 6.28287,-3.64664 9.42431,-5.46995 -3.47008,2.01425 -6.89118,4.11536 -10.41025,6.04276 -3.18635,1.74517 6.27364,-3.66545 9.41178,-5.4959 0.62797,-0.3663 -2.4572,1.51497 -1.7724,1.27092 -2.58677,3.74387 -8.15285,5.44144 -11.48727,7.3983 -2.97506,1.74595 13.12296,-7.81175 8.95221,-5.19149 -3.4538,2.03699 -7.08452,3.80009 -10.36139,6.11098 -2.96853,2.09344 12.63523,-7.17106 9.43301,-5.45628 -3.5376,1.89437 -6.88782,4.12768 -10.43961,5.99531 -3.21192,1.68892 6.28163,-3.63548 9.41923,-5.45876 0.16492,-0.0958 -0.33406,0.18423 -0.50109,0.27635 -3.46284,2.03362 -6.92568,4.06725 -10.38853,6.10088 3.12214,-1.82625 6.23658,-3.66573 9.36641,-5.47875 0.18122,-0.10498 -0.3554,0.22332 -0.51922,0.35381 -0.59012,0.47009 -1.17304,0.93618 -1.81481,1.34427 -0.25886,0.1646 -0.53824,0.29445 -0.80736,0.44167 -0.59333,0.40211 -1.132,0.88613 -1.74915,1.25064 -7.94334,4.69165 -19.21284,11.01756 -2.1012,1.19024 0.61896,-0.35548 -2.2201,1.3821 -1.83957,1.09603 0,0 -10.79077,4.22213 -10.79077,4.22213 z"
       inkscape:connector-curvature="0" />
    <path
       style="fill:#000000"
       id="path3999"
       d="m 330.5946,457.31282 c -1.87614,0.11919 -3.64313,0.64712 -5.45214,1.09768 -1.4761,0.13238 -2.84987,0.57588 -4.28007,0.91064 -1.10845,0.64291 -2.37226,0.93973 -3.58693,1.32361 -1.09176,0.90673 -2.55135,0.87426 -3.78058,1.41871 -0.1987,0.0706 -0.4096,0.11348 -0.5961,0.21192 -1.70001,0.89733 0.77705,-0.1752 -0.97733,0.63155 -0.57757,0.26559 -1.12933,0.33593 -1.68259,0.66123 17.16691,-9.84408 10.41424,-6.8703 7.45852,-3.58914 -0.81107,0.75268 -1.42195,1.70541 -1.92157,2.6867 -0.56823,1.00165 -1.15952,1.99436 -2.07842,2.70816 -0.97197,0.80753 -2.06475,1.45633 -3.11842,2.15101 -0.74198,0.6726 -1.81582,1.11262 -2.19929,2.09603 -0.0277,0.58292 0.38243,0.76502 0.7607,1.13147 0,0 -9.89544,6.08977 -9.89544,6.08977 v 0 c -0.5865,-0.56126 -1.13766,-1.11009 -1.24298,-1.95964 -0.17432,-1.42901 0.62804,-2.32779 1.8156,-3.03483 0.91208,-0.87952 2.0478,-1.45199 3.11537,-2.12253 1.05487,-0.95979 -0.23616,0.14594 0.89689,-0.61831 0.59046,-0.39827 0.96936,-1.15719 1.33238,-1.74084 0.67267,-0.93532 1.03443,-2.0791 1.79884,-2.96561 0.58406,-0.48005 1.01146,-1.08694 1.53773,-1.62126 2.94503,-2.9901 14.57525,3.72624 10.82488,-6.43016 1.14461,-0.39862 2.14652,-1.08331 3.32141,-1.40403 1.3209,-0.32826 2.52496,-0.88064 3.77528,-1.40217 1.2172,-0.42209 2.4311,-0.85217 3.64791,-1.26396 1.40384,-0.38004 2.84053,-0.54085 4.25203,-0.88991 1.85271,-0.47504 3.73579,-0.8124 5.65181,-0.88923 0,0 -9.37749,6.81314 -9.37749,6.81314 z"
       inkscape:connector-curvature="0" />
    <path
       style="fill:#000000"
       id="path4001"
       d="m 333.9739,459.37099 c -1.81123,1.07055 -3.79533,1.78853 -5.72031,2.62117 -0.75023,0.69831 -1.71867,0.89255 -2.62092,1.26525 -0.37942,0.15674 -0.72395,0.38941 -1.10073,0.5524 19.90825,-11.84874 3.94586,-1.48034 -3.122,1.56234 3.15999,-1.80268 6.31521,-3.61374 9.47997,-5.40803 0.16456,-0.0933 -0.31471,0.21056 -0.47879,0.30472 -3.48462,1.99945 -6.95026,4.03298 -10.46678,5.97579 -3.1827,1.75838 6.30597,-3.62227 9.46521,-5.42245 0.16644,-0.0948 -0.3198,0.2115 -0.48634,0.30616 -3.4943,1.98618 -6.99709,3.95738 -10.49564,5.93607 -1.25441,0.50868 -2.46621,1.13865 -3.75932,1.54993 -0.65665,0.6025 -1.5287,0.65193 -2.31375,0.93963 -0.37406,0.13708 -0.71187,0.35984 -1.08086,0.51005 -0.78015,0.22289 -1.42347,0.66921 -2.20445,0.91981 0,0 9.12373,-7.1659 9.12373,-7.1659 v 0 c 0.72152,-0.34058 1.43793,-0.67191 2.19209,-0.93558 1.13461,-0.47603 2.3052,-0.86001 3.40896,-1.41175 1.24138,-0.5408 2.50579,-1.02074 3.71951,-1.62412 -3.14181,1.81506 -6.28686,3.62454 -9.42543,5.44519 -0.16355,0.0949 0.33625,-0.17331 0.50008,-0.2677 3.47691,-2.00321 6.93058,-4.04694 10.42187,-6.02498 3.15893,-1.78973 -6.28208,3.64188 -9.42473,5.46004 -0.16267,0.0941 0.32318,-0.19191 0.48477,-0.28787 3.4766,-2.00418 6.95321,-4.00836 10.42981,-6.01254 10.18419,-4.83786 -30.45955,17.1353 3.11992,-1.55765 1.23568,-0.57819 2.49373,-1.096 3.68408,-1.77128 1.9332,-0.85196 3.90971,-1.60524 5.72584,-2.70247 0,0 -9.05579,7.24377 -9.05579,7.24377 z"
       inkscape:connector-curvature="0" />
    <path
       style="fill:#37c8ab;stroke-width:2.20970869"
       d="m 353.54055,688.42448 c -37.48377,-2.87636 -52.21088,-9.81648 -77.79723,-36.66175 -19.11571,-20.05626 -36.17858,-46.24047 -39.38393,-60.43752 -3.40935,-15.10057 -7.80056,-132.90118 -6.19229,-166.11719 1.30139,-26.87775 3.68592,-62.24858 10.31154,-152.95531 1.32412,-18.12767 2.78809,-33.57522 3.25326,-34.32789 0.46517,-0.75265 1.96334,-11.77452 3.32926,-24.493 4.56881,-42.54163 19.42703,-123.578229 28.95433,-157.91677 8.14543,-29.357938 28.96787,-73.094691 42.08919,-88.406759 13.08164,-15.265764 30.03802,-29.546906 44.10212,-37.144053 9.80399,-5.29592 13.77765,-6.232184 23.15131,-5.454847 20.41798,1.693218 22.00542,3.741181 57.72441,74.4705471 12.62977,25.0089919 22.43374,52.5093829 29.21927,81.9608469 5.60303,24.319035 16.56422,91.910435 22.39431,138.092705 1.38083,10.93806 4.87559,33.80855 7.76616,50.8233 10.32955,60.8029 16.44562,100.31598 16.44562,106.24748 0,3.31456 3.0869,24.51707 6.85976,47.11669 6.81021,40.7935 6.85259,41.55291 5.86816,105.17175 -0.94228,60.89623 -1.29071,65.23486 -7.00966,87.28349 -7.60829,29.33267 -13.17138,38.82209 -29.45563,50.24485 -15.51477,10.88299 -25.85985,15.17166 -43.65874,18.09923 -7.29204,1.19939 -19.22447,3.21115 -26.51651,4.47058 -14.83447,2.56206 -37.47571,2.54105 -71.45471,-0.0663 z M 328.63136,478.7975 c 4.63166,-2.36289 13.04418,-8.78918 18.69449,-14.28066 8.78843,-8.54139 10.2733,-11.2398 10.2733,-18.66937 0,-5.07926 -1.19037,-9.14163 -2.86726,-9.78512 -3.33844,-1.28108 -30.24466,6.95787 -40.90649,12.52596 -8.55915,4.46997 -24.03075,18.02658 -27.08406,23.73174 -5.26324,9.83446 25.87249,14.649 41.89002,6.47745 z m 119.52611,-17.97094 c 13.21285,-5.99328 17.72423,-10.40623 17.68357,-17.29769 -0.0674,-11.41343 -2.25324,-12.36334 -28.44974,-12.36334 -20.97677,0 -25.03905,0.60751 -30.29322,4.5303 -12.94578,9.66544 -12.6514,15.24356 1.30605,24.74834 9.43852,6.42744 26.07359,6.58747 39.75334,0.38239 z M 326.44508,413.64685 c 11.43212,-5.98202 26.73465,-24.60703 26.73465,-32.53927 0,-1.02862 -8.06435,-1.87021 -17.92079,-1.87021 -15.7013,0 -19.47143,0.82648 -30.44113,6.67328 -10.5642,5.63065 -13.42524,8.54315 -18.31219,18.64146 -3.18551,6.5825 -5.14832,12.63087 -4.36178,13.44084 2.8632,2.9485 36.70554,-0.37157 44.30124,-4.3461 z m 117.01614,-14.36059 c 15.2542,-7.78211 16.77023,-14.20067 5.79052,-24.51557 -4.63642,-4.35569 -8.43129,-5.31963 -24.20147,-6.14734 -18.00929,-0.94525 -19.10777,-0.7218 -29.62235,6.02539 -14.81526,9.50691 -17.11662,15.38971 -8.28441,21.17678 12.21046,8.00061 43.63381,9.93158 56.31771,3.46074 z M 341.60813,268.84868 c 13.89983,-6.07805 17.06261,-12.89193 9.64761,-20.78483 -3.58324,-3.8142 -4.06751,-5.58217 -2.07485,-7.57481 1.42965,-1.42966 2.16847,-2.909 1.64182,-3.28745 -0.52665,-0.37844 -11.45202,-0.13988 -24.2786,0.52997 -26.2272,1.36984 -35.23622,5.05758 -35.23622,14.42354 0,7.35471 6.57081,20.59535 10.86169,21.88706 7.74204,2.3306 28.47571,-0.39972 39.43855,-5.19348 z m 94.91088,-1.43202 c 14.00276,-4.69482 18.30732,-8.84266 18.30732,-17.64082 0,-5.23868 -1.19159,-7.62079 -4.30666,-8.60946 -2.60571,-0.82703 -3.82144,-2.63132 -3.07814,-4.56833 1.49255,-3.88955 -9.89067,-4.32221 -28.15443,-1.07014 -6.58323,1.17223 -15.5773,2.68612 -19.98681,3.36421 -8.52943,1.31164 -19.60406,9.86808 -19.60406,15.14641 0,6.72279 7.73098,12.71563 18.78253,14.55972 17.4621,2.91377 26.67929,2.62748 38.04025,-1.18159 z M 353.6087,200.57131 c 10.95584,-6.29709 12.36269,-7.85644 10.88308,-12.06258 -0.93461,-2.65682 -5.66711,-6.8735 -10.51666,-9.3704 -5.29724,-2.7274 -8.41978,-5.73265 -7.82144,-7.52764 0.79995,-2.39987 -1.75964,-2.69982 -13.00701,-1.52423 -10.69725,1.11809 -17.46154,3.51832 -28.65355,10.16735 -16.54698,9.8304 -20.86249,14.07852 -19.0637,18.76611 2.10715,5.49112 20.99425,10.03148 39.0241,9.38116 14.05892,-0.50708 18.4814,-1.69476 29.15518,-7.82977 z m 93.58569,-1.32543 c 9.97651,-4.16844 11.35693,-8.33807 5.48881,-16.57907 -2.621,-3.68086 -4.21111,-7.58944 -3.53357,-8.68572 1.90745,-3.0863 -4.49243,-4.66604 -18.90322,-4.66604 -10.11555,0 -14.27008,1.02495 -17.91361,4.41941 -2.60902,2.43068 -6.33389,4.41942 -8.27748,4.41942 -1.94359,0 -6.97652,2.90133 -11.1843,6.44738 -9.30574,7.84232 -7.70566,10.35735 9.21212,14.47985 16.23951,3.95719 35.86317,4.02887 45.11125,0.16484 z"
       id="path4007"
       inkscape:connector-curvature="0" />
    <path
       style="fill:#ffffff;stroke-width:0.55242717"
       d="m 206.66831,283.92975 c -1.59513,-0.74264 -2.90024,-1.5548 -2.90024,-1.80481 0,-0.25 1.678,-2.11077 3.72888,-4.13504 3.41943,-3.37506 4.0498,-3.75707 7.59588,-4.60326 2.12684,-0.50752 7.09868,-1.03323 11.04854,-1.16825 l 7.18155,-0.24549 -1.58167,1.22628 -1.58167,1.22628 1.85788,0.9901 1.85789,0.9901 -5.52427,0.037 -5.52427,0.037 -6.05572,4.40558 c -3.33064,2.42307 -6.31375,4.40315 -6.62912,4.40018 -0.31538,-0.003 -1.87853,-0.61301 -3.47366,-1.35565 z"
       id="path394"
       inkscape:connector-curvature="0"
       transform="translate(96.914556,-91.203396)" />
    <path
       style="fill:#ffffff;stroke-width:0.55242717"
       d="m 308.62692,276.98515 c -2.89979,-1.53162 -2.96723,-1.97136 -0.54786,-3.57242 1.98668,-1.31473 2.54849,-1.41147 7.33936,-1.26384 l 5.188,0.15987 -4.11204,2.90025 c -2.26163,1.59513 -4.49896,2.88925 -4.97185,2.87582 -0.47289,-0.0134 -1.77592,-0.50829 -2.89561,-1.09968 z"
       id="path396"
       inkscape:connector-curvature="0"
       transform="translate(96.914556,-91.203396)" />
    <path
       style="fill:#ffffff;stroke-width:0.55242717"
       d="m 302.16091,345.28858 c -1.51889,-0.84382 -2.77495,-2.86281 -2.80336,-4.50613 -0.0178,-1.03011 0.60405,-1.22207 6.90022,-2.13002 3.8059,-0.54884 8.07147,-1.34448 9.47906,-1.76811 1.79608,-0.54054 5.62185,-0.76828 12.82947,-0.76372 l 10.27021,0.006 -2.65566,1.73673 c -1.9066,1.24687 -2.45197,1.86593 -1.9335,2.19475 1.21822,0.77263 -8.58568,0.53005 -14.50401,-0.35887 l -5.55143,-0.83382 -4.73145,3.36264 c -5.62436,3.99722 -5.61767,3.99441 -7.29955,3.06005 z"
       id="path398"
       inkscape:connector-curvature="0"
       transform="translate(96.914556,-91.203396)" />
    <path
       style="fill:#ffffff;stroke-width:0.55242717"
       d="m 337.17923,350.05472 c 1.53741,-1.35191 5.17645,-3.99693 5.49901,-3.99693 0.20249,0 0.29102,0.93222 0.19672,2.0716 l -0.17146,2.0716 -3.03835,0.16976 c -1.78274,0.0996 -2.81005,-0.031 -2.48592,-0.31603 z"
       id="path400"
       inkscape:connector-curvature="0"
       transform="translate(96.914556,-91.203396)" />
    <path
       style="fill:#ffffff;stroke-width:0.55242717"
       d="m 212.37183,344.81483 -2.06214,-4.0051 7.91584,-0.34147 c 4.35371,-0.18781 8.59947,-0.5255 9.43501,-0.75042 0.97369,-0.26211 1.51918,-0.19418 1.51918,0.18918 0,0.32897 0.80792,1.03055 1.79539,1.55908 l 1.79539,0.96095 -4.0428,0.42316 c -5.9283,0.62052 -7.93535,1.30575 -11.0213,3.76282 -1.52446,1.21379 -2.8844,2.2069 -3.02209,2.2069 -0.13769,0 -1.17831,-1.8023 -2.31248,-4.0051 z"
       id="path402"
       inkscape:connector-curvature="0"
       transform="translate(96.914556,-91.203396)" />
    <path
       style="fill:#ffffff;stroke-width:0.55242717"
       d="m 225.31365,355.3542 c -6.04317,-0.57249 -8.40785,-1.09536 -8.68268,-1.91985 -0.12254,-0.36762 1.73145,-0.69778 5.02014,-0.89398 5.75501,-0.34335 6.35612,-0.57015 11.05663,-4.17162 l 3.25181,-2.4915 3.59968,3.70727 c 2.13863,2.20256 3.39732,3.90929 3.1011,4.20499 -0.85616,0.85467 -6.96455,2.21553 -9.59158,2.13687 -1.37938,-0.0413 -4.86918,-0.29879 -7.7551,-0.57218 z"
       id="path404"
       inkscape:connector-curvature="0"
       transform="translate(96.914556,-91.203396)" />
    <path
       style="fill:#ffffff;stroke-width:0.55242717"
       d="m 335.24574,282.70926 c -7.35011,-1.17813 -11.89601,-1.95255 -11.98729,-2.04212 -0.0605,-0.0594 2.88924,-0.56461 6.55511,-1.12264 l 6.6652,-1.01462 2.27561,2.27561 2.2756,2.2756 -2.20158,-0.0752 c -1.21087,-0.0414 -2.82307,-0.17484 -3.58265,-0.2966 z"
       id="path406"
       inkscape:connector-curvature="0"
       transform="translate(96.914556,-91.203396)" />
    <path
       style="fill:#ffffff;stroke-width:0.55242717"
       d="m 198.77734,498.01055 c 0.31483,-0.58827 1.53849,-3.69758 2.71924,-6.90959 2.69897,-7.34201 4.14723,-9.28749 7.98185,-10.7222 5.83128,-2.18176 10.85149,-2.84546 21.19717,-2.80236 5.40588,0.0225 10.91301,0.20897 12.23805,0.41433 2.29072,0.35501 2.35863,0.41775 1.38107,1.27587 -1.03524,0.90877 -12.31364,3.79313 -14.83186,3.79313 -1.95605,0 -13.5694,3.27761 -15.19868,4.28949 -0.75958,0.47174 -4.55361,3.30419 -8.43117,6.29431 -3.87756,2.99012 -7.18016,5.43659 -7.3391,5.43659 -0.15894,0 -0.0314,-0.48131 0.28343,-1.06957 z"
       id="path408"
       inkscape:connector-curvature="0"
       transform="translate(96.914556,-91.203396)" />
    <path
       style="fill:#ffffff;stroke-width:0.55242717"
       d="m 197.13894,502.45649 c -1.06342,-0.18984 -1.66408,-0.51913 -1.33479,-0.73176 1.21894,-0.7871 12.87615,-3.83536 19.56489,-5.11604 14.93676,-2.85992 14.10112,-2.54869 21.08838,-7.8543 1.72397,-1.30905 3.27767,-2.3801 3.45267,-2.3801 0.81174,0 0.0978,1.18477 -2.50905,4.16377 -1.55497,1.77696 -3.67932,4.51419 -4.72079,6.08275 -2.09471,3.15487 -2.35279,3.27447 -11.20865,5.19423 -4.13205,0.89575 -7.01505,1.11689 -13.81068,1.05935 -4.72366,-0.04 -9.45856,-0.22805 -10.52198,-0.4179 z"
       id="path410"
       inkscape:connector-curvature="0"
       transform="translate(96.914556,-91.203396)" />
    <path
       style="fill:#ffffff;stroke-width:0.55242717"
       d="m 300.16661,479.87037 c -2.90607,-1.58477 -3.55101,-2.97925 -2.78655,-6.02509 0.60502,-2.4106 4.50263,-6.0676 7.18728,-6.74361 3.32883,-0.8382 14.34774,-0.75571 20.73471,0.15523 6.37904,0.90982 13.73875,3.01105 12.73001,3.63448 -0.49046,0.30312 0.28714,1.11463 2.53437,2.64488 1.78306,1.21417 3.71549,2.73499 4.29429,3.3796 1.04775,1.16688 1.04533,1.17206 -0.55242,1.18084 -0.88264,0.005 -3.96642,-0.35876 -6.85286,-0.80802 -2.88643,-0.44926 -7.98257,-1.24281 -11.32475,-1.76345 -11.15485,-1.73765 -10.04678,-1.89261 -15.9631,2.23229 -2.87535,2.00471 -5.68036,3.63912 -6.23337,3.63202 -0.55301,-0.007 -2.24843,-0.69072 -3.76761,-1.51917 z"
       id="path412"
       inkscape:connector-curvature="0"
       transform="translate(96.914556,-91.203396)" />
    <path
       style="fill:#ffffff;stroke-width:0.55242717"
       d="m 338.31171,486.4735 c 2.40608,-2.07787 8.65356,-6.24149 8.9382,-5.95684 0.19664,0.19663 0.3728,1.52673 0.39148,2.95576 0.032,2.44852 -0.0616,2.61915 -1.62332,2.96091 -2.44677,0.53543 -8.31527,0.56602 -7.70636,0.0402 z"
       id="path414"
       inkscape:connector-curvature="0"
       transform="translate(96.914556,-91.203396)" />
    <path
       style="fill:#ffffff;stroke-width:0.55242717"
       d="m 325.57826,546.62105 c -1.51917,-0.54557 -3.7565,-1.58392 -4.97184,-2.30746 l -2.20971,-1.31551 10.77233,-0.27622 c 5.92478,-0.15191 11.14522,-0.50629 11.60097,-0.7875 1.6629,-1.02606 12.76384,-9.83468 12.59919,-9.99749 -0.0933,-0.0922 -1.28825,0.0485 -2.6555,0.31276 -1.36726,0.26423 -6.31398,0.49125 -10.99271,0.50449 l -8.50678,0.0241 -6.58645,4.76106 -6.58644,4.76106 -1.68883,-1.5846 c -2.56709,-2.40865 -4.86112,-5.75378 -4.86112,-7.08841 0,-0.65715 0.68363,-1.82407 1.51917,-2.59315 1.32823,-1.22257 2.32543,-1.47858 7.93374,-2.03685 10.27366,-1.02267 21.16409,-0.83172 26.74207,0.4689 5.42872,1.26581 7.71422,2.29973 8.55457,3.86994 0.33951,0.63437 0.52158,3.49272 0.4307,6.76151 l -0.15744,5.66258 -3.59077,0.92906 c -5.31956,1.37636 -23.44853,1.33113 -27.34515,-0.0682 z"
       id="path416"
       inkscape:connector-curvature="0"
       transform="translate(96.914556,-91.203396)" />
    <path
       style="fill:#ffffff;stroke-width:0.55242717"
       d="m 212.28631,566.3072 -2.25409,-0.55648 5.71378,-2.92958 c 3.14258,-1.61127 7.51291,-4.09496 9.71186,-5.51931 2.19894,-1.42435 5.73316,-3.46184 7.85382,-4.52777 3.47407,-1.74621 7.77343,-4.7633 11.81026,-8.28792 1.44713,-1.26351 1.44835,-1.27104 0.14709,-0.90757 -0.91532,0.25567 -1.19368,0.17485 -0.92046,-0.26724 0.27863,-0.45083 -0.0602,-0.52119 -1.17378,-0.24376 -1.41377,0.3522 -1.49199,0.30081 -0.80728,-0.53029 0.6642,-0.80621 0.61733,-0.92027 -0.37821,-0.92027 -2.38082,0 -9.43014,1.77282 -14.62087,3.67698 -4.25501,1.56091 -5.34362,2.1727 -5.12683,2.88124 0.19599,0.64056 -0.60738,1.41646 -2.79031,2.69493 -1.68605,0.98747 -3.55087,1.79539 -4.14406,1.79539 -2.42792,0 -4.75684,1.56232 -6.46344,4.3359 -2.08999,3.39667 -5.81451,6.10876 -7.19519,5.23935 -0.50538,-0.31824 -0.98916,-0.93457 -1.07505,-1.36961 -0.22103,-1.11953 14.06373,-15.55172 16.72898,-16.90163 1.21534,-0.61555 5.8143,-2.28554 10.21991,-3.71108 4.4056,-1.42555 9.12886,-2.96146 10.49611,-3.41314 1.36726,-0.45167 4.28221,-0.96551 6.47767,-1.14186 5.39819,-0.43359 5.91503,0.0164 5.50832,4.79598 -0.78267,9.19783 -6.00706,16.36097 -17.7347,24.316 l -3.26279,2.2132 -7.23333,-0.0825 c -3.97833,-0.0454 -8.24766,-0.3329 -9.48741,-0.63896 z"
       id="path418"
       inkscape:connector-curvature="0"
       transform="translate(96.914556,-91.203396)" />
  </g>
</svg>
