<?xml version="1.0" encoding="UTF-8" standalone="no"?>
<!-- Created with Inkscape (http://www.inkscape.org/) -->

<svg
   xmlns:dc="http://purl.org/dc/elements/1.1/"
   xmlns:cc="http://creativecommons.org/ns#"
   xmlns:rdf="http://www.w3.org/1999/02/22-rdf-syntax-ns#"
   xmlns:svg="http://www.w3.org/2000/svg"
   xmlns="http://www.w3.org/2000/svg"
   xmlns:sodipodi="http://sodipodi.sourceforge.net/DTD/sodipodi-0.dtd"
   xmlns:inkscape="http://www.inkscape.org/namespaces/inkscape"
   width="360.01248mm"
   height="238.39508mm"
   viewBox="0 0 360.01248 238.39508"
   version="1.1"
   id="svg4030"
   inkscape:version="0.92.4 (5da689c313, 2019-01-14)"
   sodipodi:docname="goa_greg.svg"
   inkscape:export-filename="C:\Users\Phil2\goa_greg.svg.png"
   inkscape:export-xdpi="96"
   inkscape:export-ydpi="96">
  <defs
     id="defs4025" />
  <sodipodi:namedview
     id="base"
     pagecolor="#ffffff"
     bordercolor="#666666"
     borderopacity="1.0"
     inkscape:pageopacity="0.0"
     inkscape:pageshadow="2"
     inkscape:zoom="0.49497475"
     inkscape:cx="563.03767"
     inkscape:cy="294.30647"
     inkscape:document-units="mm"
     showgrid="false"
     inkscape:window-width="1366"
     inkscape:window-height="706"
     inkscape:window-x="-8"
     inkscape:window-y="-8"
     inkscape:window-maximized="1"
     inkscape:current-layer="svg4030"
     fit-margin-top="0"
     fit-margin-left="0"
     fit-margin-right="0"
     fit-margin-bottom="0" />
  <metadata
     id="metadata4028">
    <rdf:RDF>
      <cc:Work
         rdf:about="">
        <dc:format>image/svg+xml</dc:format>
        <dc:type
           rdf:resource="http://purl.org/dc/dcmitype/StillImage" />
        <dc:title />
      </cc:Work>
    </rdf:RDF>
  </metadata>
  <path
     style="fill:#000000;stroke-width:0.26458332"
     id="path4034"
     d="m 225.07318,7.92696 c -2.39632,-0.390449 -4.82674,-0.486921 -7.24918,-0.571585 -2.06803,-0.149733 -4.16611,0.127548 -6.21755,-0.186111 -1.9645,-0.387514 -3.96714,-0.48491 -5.96295,-0.562615 -2.15994,-0.07102 -4.32109,-0.06387 -6.48183,-0.06851 -2.50952,-0.0013 -5.01896,-0.01125 -7.5285,-0.01095 -2.68026,-0.0042 -5.3605,0.0046 -8.04077,0.0075 -2.49005,-1.93e-4 -4.98009,0.0026 -7.47014,0.0011 -3.09112,-0.03196 -6.15314,0.529704 -9.21203,0.917978 -3.04719,0.537829 -6.10726,1.068451 -9.10808,1.827937 -3.18287,0.758132 -6.36622,1.518645 -9.5598,2.234665 -3.61863,0.665327 -7.19795,1.544471 -10.7397,2.537458 -3.07867,0.796758 -6.09152,1.790605 -9.15431,2.647034 -3.38596,1.087755 -6.84387,1.94903 -10.16472,3.230012 -3.10166,1.04175 -6.10959,2.328651 -9.15998,3.508013 -2.92683,1.197173 -5.89285,2.29015 -8.79729,3.54667 -2.872852,1.2608 -5.649268,2.72029 -8.351532,4.31107 -2.613197,1.4397 -5.233076,2.86911 -7.814175,4.36595 -0.49368,0.2439 -0.989337,0.48383 -1.48104,0.73168 -0.926431,0.46699 -1.85412,0.93197 -2.769078,1.42105 -0.431662,0.23075 -1.705816,0.96087 -1.281685,0.71656 9.018236,-5.1947 10.924131,-6.43716 7.210504,-4.06363 -2.341255,1.50948 -4.577253,3.17023 -6.857638,4.7677 -1.980363,1.26352 -3.846116,2.67984 -5.688698,4.13255 -2.518779,2.00958 -4.888477,4.19539 -7.230789,6.40536 -1.956308,1.8304 -3.792167,3.78395 -5.542425,5.81071 -1.759281,1.9613 -3.265905,4.12939 -4.818668,6.25317 -1.431266,2.2228 -3.00006,4.35269 -4.304356,6.65414 -1.162309,2.46758 -2.348275,4.93158 -3.278629,7.49779 -0.533127,1.89078 -1.012949,3.80679 -1.395749,5.73525 -0.530169,2.33084 -0.814411,4.69838 -0.97864,7.07967 -0.137663,2.07323 -0.123045,4.15178 -0.138592,6.22826 -0.0024,1.76177 0.01106,3.5235 0.01818,5.285254 0.01648,1.75769 -0.0052,3.51521 -0.02228,5.27279 0.07635,2.04128 0.637577,4.01544 1.098055,5.99496 0.679334,2.75544 1.599243,5.42967 2.58594,8.08686 0.812654,2.30924 1.6998,4.60084 2.72528,6.82456 0.847537,2.14758 2.16027,4.02476 3.503943,5.88157 1.097015,1.41593 1.984766,2.9659 2.989371,4.44457 1.404641,1.76176 2.789938,3.56367 4.335473,5.20582 1.32548,1.54591 2.676533,3.06691 4.077666,4.54468 2.009185,2.36724 4.261664,4.51577 6.47873,6.68542 1.991833,1.92664 4.198782,3.58758 6.393316,5.26823 1.510392,1.25291 3.164792,2.31706 4.889533,3.24747 2.182246,1.40072 4.517169,2.53904 6.923168,3.49708 1.9436,0.85544 3.987636,1.41676 5.952113,2.22546 1.779531,0.63324 3.626492,1.08357 5.484042,1.4225 1.92267,0.59575 3.90372,0.89527 5.90366,1.06223 1.72548,0.42105 3.47646,0.64596 5.24531,0.7668 1.60913,0.12528 3.1585,0.55517 4.77419,0.6924 2.85376,0.22253 5.6997,0.56346 8.52678,1.01843 2.63415,0.43532 5.30406,0.56065 7.96849,0.63707 2.29517,0.0354 4.59088,0.0385 6.88629,0.0301 2.13853,-0.005 4.27706,-0.007 6.41559,-0.014 2.06744,-0.01 4.13488,0.006 6.20231,0.006 2.9992,0.0256 5.99829,0.0352 8.99761,0.0227 2.61713,-0.008 5.23422,-0.0192 7.85136,-0.0155 2.47263,0.002 4.94529,10e-4 7.41792,-0.005 2.28119,0.0981 4.48547,-0.55683 6.70535,-0.97628 3.30325,-0.3188 6.57959,-0.85694 9.86577,-1.32564 3.73125,-0.33604 7.3839,-1.18116 11.08178,-1.74148 3.31149,-0.6517 6.5955,-1.36518 9.84516,-2.28057 3.55648,-0.88324 7.05808,-1.94698 10.55993,-3.02322 3.75193,-1.26009 7.4477,-2.65937 11.0795,-4.2315 3.5856,-1.6928 7.17816,-3.36589 10.61161,-5.35424 3.95758,-1.89582 14.22028,-7.93328 -2.158,1.49304 29.8325,-17.1656 2.01636,-1.16302 2.6144,-1.49795 4.5786,-2.56417 9.09246,-5.18802 13.66531,-7.73808 3.73016,-1.99181 3.20463,-1.72511 -7.26234,4.19618 -0.35536,0.20103 0.69614,-0.42683 1.04293,-0.64232 0.17601,-0.10938 1.68422,-1.05993 1.89992,-1.18469 3.49096,-2.01926 6.99274,-4.01975 10.4891,-6.02962 -2.88207,1.65182 -5.75711,3.31598 -8.64622,4.95547 -0.27398,0.15548 0.53143,-0.33851 0.8001,-0.50299 0.28568,-0.17489 0.57225,-0.34844 0.86283,-0.51505 3.55282,-2.03709 7.10308,-4.07875 10.66723,-6.09594 2.78477,-1.57609 -5.54434,3.19639 -8.32904,4.7726 -0.41085,0.23255 0.80456,-0.49417 1.20683,-0.74125 4.63813,-2.7793 9.35272,-5.43018 14.03392,-8.1347 2.77134,-1.60112 -11.09746,6.38344 -8.32218,4.78918 3.5277,-2.02649 7.05295,-4.05723 10.57942,-6.08585 2.14023,-1.25653 -0.0669,0.0137 2.00085,-1.10373 0.30292,-0.1637 1.1963,-0.68251 0.89795,-0.51063 -15.61154,8.99376 -9.49681,5.52712 -6.12709,3.45906 5.02674,-3.17382 10.17853,-6.1022 15.32744,-9.08699 -16.77426,10.36091 -7.73597,4.39408 -3.95477,1.83888 2.49298,-1.57671 4.74595,-3.47876 7.01844,-5.34792 1.97998,-1.64104 3.76443,-3.49847 5.56203,-5.33261 1.75393,-1.78009 3.11683,-3.87713 4.55159,-5.90885 1.47445,-2.00607 2.57094,-4.24026 3.56891,-6.51072 0.82042,-1.94846 1.1537,-4.02958 1.32048,-6.12204 0.0944,-1.567414 0.0776,-3.138554 0.0702,-4.707954 -0.007,-1.53922 -0.0209,-3.07844 -0.009,-4.61766 -0.0336,-1.98399 0.2192,-3.99554 -0.24084,-5.94236 -0.5374,-1.87996 -1.31459,-3.67004 -2.13415,-5.44024 -1.01071,-1.92956 -1.96527,-3.88673 -2.93054,-5.83915 -1.13838,-1.87353 -2.06949,-3.85147 -3.00038,-5.83202 -0.98423,-2.03595 -1.77813,-4.15723 -2.73431,-6.2052 -1.07639,-2.346 -2.42564,-4.54524 -3.76947,-6.74327 -1.2693,-1.9505 -2.35977,-4.01036 -3.64371,-5.9527 -1.15553,-1.64086 -2.33121,-3.26634 -3.50754,-4.89268 -1.10008,-1.46174 -2.21013,-2.89855 -3.13948,-4.47564 -0.92864,-1.69372 -2.42278,-2.93159 -3.61729,-4.41635 -1.37229,-1.79737 -2.95383,-3.41766 -4.50832,-5.05486 -1.19961,-1.17198 -2.41126,-2.33602 -3.54284,-3.57478 -1.02901,-0.92872 -1.93164,-1.980845 -2.98871,-2.879938 -0.93384,-1.000326 -1.92368,-1.948847 -2.94523,-2.859323 -1.10265,-0.721434 -2.03387,-1.663602 -3.07538,-2.465771 -0.7732,-0.887691 -1.85585,-1.305756 -2.89646,-1.789507 -0.92086,-0.68171 -1.9774,-1.100061 -2.86402,-1.832086 -1.06482,-0.526619 -1.94492,-1.340088 -2.99287,-1.892866 -0.96017,-0.640242 -1.96305,-1.282248 -3.04541,-1.698017 -1.27247,-0.635622 -2.54628,-1.236183 -3.93093,-1.58184 -1.30767,-0.518822 -2.52938,-1.178259 -3.89941,-1.523776 -1.28196,-0.31134 -2.50078,-0.752101 -3.82017,-0.926073 -1.41954,-0.142724 -2.84834,-0.140912 -4.27348,-0.146762 -1.53955,-0.04172 -2.76189,-0.06089 -4.25762,0.315746 -0.20953,0.04333 -0.42713,0.05795 -0.6286,0.130001 -0.36157,0.129315 -0.67459,0.372885 -1.03434,0.507208 -0.59537,0.222306 -1.20971,0.316209 -1.83464,0.408575 -1.29177,0.07489 -2.57998,0.357802 -3.77613,0.859118 -1.3983,0.452065 -2.8412,0.679892 -4.26207,1.048557 -1.19777,0.117883 -2.27364,0.613463 -3.42416,0.917832 0,0 8.88057,-6.843408 8.88057,-6.843408 v 0 c 1.12906,-0.357553 2.27198,-0.622205 3.42853,-0.876689 1.41439,-0.358037 2.86524,-0.577395 4.2276,-1.124482 1.27758,-0.332002 2.55402,-0.584282 3.86299,-0.754888 1.18141,-0.315251 2.27657,-0.885201 3.50071,-1.040379 1.4488,-0.217474 2.91814,-0.09826 4.37864,-0.118509 1.46539,0.01984 2.93824,0.03903 4.38761,0.280032 1.32192,0.262927 2.58058,0.726702 3.8896,1.042395 1.3254,0.440113 2.55983,1.093494 3.88924,1.523862 1.39461,0.451964 2.7112,1.086499 4.0452,1.690346 1.07145,0.532731 2.10904,1.139762 3.10356,1.8048 1.03898,0.652084 2.04836,1.348714 3.08524,2.002002 0.87931,0.605171 1.83791,1.078256 2.73819,1.65023 1.08762,0.557797 2.18767,1.072933 3.01978,2.004599 1.02745,0.854417 2.03824,1.72901 3.10485,2.535264 0.99307,0.935678 2.00919,1.844641 2.94324,2.840477 1.04124,0.964393 2.01267,1.996493 3.03177,2.983502 1.13699,1.221711 2.31577,2.403727 3.47583,3.603297 1.55788,1.676841 3.15701,3.321301 4.58944,5.108851 1.21884,1.531 2.73223,2.82835 3.72024,4.54065 0.90914,1.54298 1.95106,2.98893 3.03455,4.41549 1.18818,1.64074 2.41057,3.25298 3.55036,4.9281 1.27234,1.96223 2.30599,4.06565 3.59307,6.01848 1.37698,2.22586 2.73864,4.46438 3.88013,6.82319 0.96559,2.042 1.73501,4.16868 2.69931,6.21135 0.97158,1.95922 1.9127,3.92565 3.02501,5.81251 0.95048,1.97044 1.94796,3.91781 2.95263,5.86084 0.82386,1.83689 1.70125,3.65916 2.26208,5.59706 0.54495,2.02408 0.30466,4.10686 0.37447,6.18453 0.0163,1.53557 0.0115,3.07126 0.0226,4.60687 0.007,1.59935 0.0246,3.19999 -0.0548,4.798 -0.14925,2.20411 -0.46882,4.395584 -1.22492,6.483554 -0.96992,2.33912 -2.02797,4.66029 -3.48979,6.73965 -1.47241,2.03013 -2.76238,4.19321 -4.45627,6.05464 -1.81953,1.85325 -3.61684,3.73445 -5.55364,5.46669 -2.296,1.82644 -4.46774,3.82128 -6.94005,5.41729 -4.88857,3.32669 -9.5558,6.77604 -15.05386,9.2329 17.09143,-9.92317 7.5067,-4.36937 3.65944,-1.93344 -5.10529,3.26761 -10.4354,6.17069 -15.72424,9.12914 2.79701,-1.62183 11.19155,-6.48125 8.39102,-4.8655 -3.54628,2.04599 -7.08966,4.09703 -10.62827,6.15626 -2.76408,1.60851 5.53603,-3.20344 8.30467,-4.80409 0.37396,-0.2162 -0.74838,0.43162 -1.12064,0.65073 -1.97264,1.16115 -0.23374,0.16857 -2.28865,1.32629 -6.07851,3.81707 -21.72006,12.69273 -3.45744,2.06771 0.56153,-0.3267 -1.12538,0.6494 -1.68618,0.97736 -3.4621,2.02469 -6.92768,4.04343 -10.39151,6.06515 2.85075,-1.65227 5.70288,-3.30218 8.55226,-4.95681 0.31307,-0.1818 -0.63459,0.34915 -0.94328,0.53828 -2.26367,1.38694 0.32252,-0.099 -2.04744,1.28513 -3.52806,2.0605 -7.05686,4.11977 -10.59346,6.16559 -0.37878,0.21911 -0.76819,0.41932 -1.15228,0.62898 -0.66282,0.35134 -1.23133,0.65029 -1.89183,1.01041 -0.36001,0.19629 -1.43099,0.80133 -1.07703,0.59433 14.36984,-8.40381 7.82218,-4.45122 -2.43625,1.37449 -2.71215,1.54021 5.39666,-3.1286 8.095,-4.6929 -5.54149,3.2092 -11.00719,6.50568 -16.7143,9.3993 -3.45424,1.89073 -7.02202,3.554 -10.6011,5.19354 -3.66487,1.5517 -7.38991,2.95183 -11.18075,4.16715 -3.49541,1.09652 -7.01781,2.0817 -10.56768,2.98636 -3.29544,0.89683 -6.62475,1.66718 -9.99439,2.23239 -3.67701,0.57714 -7.33202,1.30118 -11.03664,1.69206 -3.32015,0.47342 -6.63472,0.98811 -9.95388,1.46059 -2.25632,0.44801 -4.51038,0.94213 -6.83009,0.80402 -2.46822,-0.006 -4.93647,-0.007 -7.40469,-0.005 -2.60287,0.004 -5.20569,-0.008 -7.80853,-0.0156 -3.02013,-0.0128 -6.04002,-0.002 -9.06002,0.0227 -2.07391,-5e-5 -4.14779,0.016 -6.2217,0.009 -2.13256,-0.004 -4.26512,-5.3e-4 -6.39767,8e-4 -2.29389,-0.005 -4.58826,0.009 -6.88097,-0.0814 -2.68842,-0.10539 -5.37712,-0.30679 -8.03129,-0.76452 -2.83178,-0.46168 -5.68825,-0.72886 -8.551,-0.91377 -1.60481,-0.17213 -3.16393,-0.59907 -4.78027,-0.66886 -1.76751,-0.17002 -3.50407,-0.48806 -5.252315,-0.78798 -2.010344,-0.24033 -3.984464,-0.64392 -5.942198,-1.16009 -1.90644,-0.3967 -3.81442,-0.83927 -5.621281,-1.58041 -1.969565,-0.75994 -3.978665,-1.41384 -5.907797,-2.27334 -2.415638,-1.04099 -4.754863,-2.23184 -7.018876,-3.57306 -1.768957,-0.96711 -3.432074,-2.10458 -4.975536,-3.40479 -2.202207,-1.72066 -4.35719,-3.49504 -6.372064,-5.43612 -2.220412,-2.19455 -4.504412,-4.33441 -6.584569,-6.66413 -1.411311,-1.48001 -2.815949,-2.966 -4.10641,-4.55443 -1.529024,-1.72778 -2.973035,-3.53833 -4.429466,-5.3259 -1.019762,-1.45917 -1.915938,-2.9957 -2.955001,-4.4425 -1.359652,-1.92363 -2.732471,-3.86048 -3.594169,-6.07058 -1.042866,-2.25152 -1.958285,-4.57032 -2.721449,-6.9312 -0.972182,-2.69905 -1.963383,-5.38665 -2.700157,-8.16306 -0.529476,-2.04896 -1.09006,-4.10823 -1.231554,-6.22723 -0.01751,-1.74862 -0.0394,-3.49717 -0.02738,-5.24592 0.0024,-1.7678 0.0066,-3.5356 0.007,-5.30341 -0.0035,-2.105184 0.04178,-4.210474 0.143108,-6.313324 0.167619,-2.39962 0.38027,-4.79776 0.878282,-7.15558 0.296151,-2.01255 0.944647,-3.95215 1.381995,-5.93443 0.890665,-2.62625 2.131605,-5.10064 3.214849,-7.65063 1.19834,-2.43191 2.882839,-4.52204 4.29613,-6.82703 1.545513,-2.10291 2.971416,-4.30653 4.671803,-6.28715 1.801127,-2.08148 3.658635,-4.10952 5.676278,-5.98588 2.30392,-2.19058 4.61613,-4.37059 7.019105,-6.45224 1.910501,-1.38279 3.654684,-2.99887 5.709422,-4.18459 2.286453,-1.59685 4.53509,-3.24476 6.854947,-4.79412 5.435635,-3.76289 11.366457,-6.71618 17.209518,-9.77468 2.596049,-1.47162 5.201637,-2.92565 7.814035,-4.367869 2.75726,-1.549276 5.56358,-3.017309 8.48329,-4.240221 2.90443,-1.182499 5.83094,-2.303803 8.74334,-3.465409 3.06381,-1.191194 6.08555,-2.490851 9.21017,-3.520281 3.37727,-1.167445 6.83278,-2.088962 10.23675,-3.174571 3.0426,-0.839132 6.02915,-1.86327 9.1007,-2.598333 3.56578,-0.939369 7.14903,-1.81705 10.77287,-2.505173 3.21446,-0.742545 6.41798,-1.526688 9.62637,-2.293329 3.02218,-0.647859 6.05414,-1.263986 9.11641,-1.69236 3.11201,-0.399139 6.22284,-0.945644 9.37291,-0.86229 2.48906,-0.0016 4.97812,0.0013 7.46718,0.0011 2.67453,0.0026 5.34903,0.01109 8.02355,0.0043 2.52409,-0.0021 5.04805,-0.01754 7.57211,-0.01778 2.17118,0.0024 4.34392,0.0081 6.51312,0.108384 2.02122,0.112003 4.0385,0.266414 6.03841,0.591592 2.03164,0.120219 4.07128,0.05434 6.10378,0.174879 2.47928,0.111562 4.95721,0.274804 7.42004,0.58937 0,0 -9.16544,6.462392 -9.16544,6.462392 z"
     inkscape:connector-curvature="0" />
  <path
     style="fill:#000000;stroke-width:0.26458332"
     id="path4036"
     d="m 125.33327,45.124116 c -2.09929,0.22716 -4.19781,0.62397 -6.21206,1.2641 -1.78666,0.42304 -3.33611,1.37231 -4.93365,2.22229 -4.05107,1.77823 -11.5226,6.36866 5.4606,-3.38705 -1.0705,0.72591 -2.05945,1.56364 -3.04523,2.40024 -1.43823,1.27629 -2.83967,2.59738 -4.16288,3.99286 -1.35504,1.56292 -2.6842,3.1472 -3.90199,4.81996 -1.0873,1.51408 -2.17106,3.00788 -2.81327,4.76866 -0.44673,1.31699 -0.94219,2.61727 -1.3829,3.93632 -0.43188,1.38044 -0.52017,2.82679 -0.57983,4.26193 -0.20064,1.42219 0.0888,2.26421 0.6673,3.49697 0.50954,0.89944 1.44763,1.30667 2.2536,1.8699 1.01256,0.45019 2.04884,0.89761 3.11638,1.21883 1.28667,0.2248 2.54933,0.31628 3.81389,0.6513 1.40021,0.35343 2.84923,0.3885 4.28461,0.4335 1.41809,0.0619 2.94057,-0.0169 4.22137,-0.6819 1.15667,-0.56303 2.45682,-0.83025 3.57591,-1.45672 0.19611,-0.0873 0.39222,-0.17454 0.58832,-0.26181 -0.40495,0.12469 1.60282,-0.86465 1.20898,-0.63608 -15.67215,9.09572 -11.20089,6.49287 -7.9014,4.46341 1.12537,-0.75482 2.09482,-1.70648 3.06166,-2.64837 0.98308,-0.87386 1.65734,-1.97041 2.36155,-3.06534 0.77464,-1.28459 1.25163,-2.70874 1.8593,-4.07133 0.59047,-1.21653 0.75803,-2.54337 0.85754,-3.87409 0.078,-1.48382 0.0669,-2.97047 0.0647,-4.45579 -0.0667,-1.4319 0.17828,-2.90377 -0.23792,-4.293 -0.45093,-1.19652 -0.8726,-2.39012 -1.46278,-3.5269 -0.74688,-0.9925 -1.50347,-1.99494 -2.08146,-3.09707 -0.62959,-1.04074 -1.25298,-2.0793 -1.90394,-3.10611 -0.64986,-0.90885 -1.46309,-1.66979 -2.19187,-2.50907 0,0 9.61252,-5.81188 9.61252,-5.81188 v 0 c 0.78716,0.86578 1.59916,1.70883 2.2698,2.67285 0.66744,1.05398 1.3172,2.11507 1.9573,3.18634 0.56699,1.10458 1.35731,2.08039 2.06788,3.09436 0.64015,1.18721 1.06949,2.44453 1.5499,3.70104 0.51419,1.5004 0.3942,3.03742 0.39155,4.60623 0.004,1.50471 0.0162,3.00991 -0.028,4.51418 -0.0636,1.43176 -0.15188,2.88242 -0.67769,4.2329 -0.61609,1.39667 -1.18171,2.80446 -1.81578,4.19622 -0.62746,1.14818 -1.28006,2.39057 -2.25531,3.26738 -0.87902,1.08308 -1.95922,1.95 -2.96149,2.9118 -4.11824,2.88305 -8.54674,5.37393 -13.11536,7.47922 -1.22463,0.43582 -2.41269,0.96358 -3.64219,1.38686 -1.47017,0.3116 -2.93397,0.46619 -4.43963,0.3135 -1.49781,-0.075 -2.99726,-0.17963 -4.44817,-0.58978 -1.28541,-0.28486 -2.62632,-0.27394 -3.87532,-0.73075 -1.118179,-0.42235 -2.272635,-0.8073 -3.283377,-1.45464 -1.008021,-0.62928 -1.971674,-1.34033 -2.566843,-2.39892 -0.637357,-1.36619 -1.107986,-2.40633 -0.885386,-3.9792 0.03869,-1.51464 0.09251,-3.04007 0.445372,-4.52067 0.368763,-1.3494 0.876012,-2.66108 1.39502,-3.95791 0.524846,-1.91281 1.508871,-3.53195 2.720971,-5.09513 1.155428,-1.73982 2.494923,-3.33393 3.833873,-4.93403 1.234,-1.48385 2.68703,-2.76526 4.07334,-4.10454 0.95837,-0.87629 1.95129,-1.7245 2.97799,-2.50196 4.56222,-2.68485 8.90067,-5.51646 13.66894,-7.72936 1.60338,-0.87363 3.28651,-1.57264 5.06443,-2.01091 2.12061,-0.5142 4.26696,-0.98061 6.45489,-1.06536 0,0 -9.07384,6.59252 -9.07384,6.59252 z"
     inkscape:connector-curvature="0" />
  <path
     style="fill:#000000;stroke-width:0.26458332"
     id="path4040"
     d="m 178.44405,22.774297 c -0.7912,0.388956 -1.55435,0.777785 -2.31487,1.221996 -0.25455,0.148683 -1.03192,0.570468 -0.77645,0.423363 9.3394,-5.377958 11.69634,-6.999632 8.27359,-4.67745 -1.03129,0.646306 -1.78768,1.598634 -2.36047,2.65638 -0.72113,1.199565 -0.8927,2.570823 -1.12857,3.91991 -0.36899,1.26883 -0.59094,2.56002 -0.70713,3.87414 -0.0872,1.30454 0.40652,2.39238 1.05619,3.47506 0.45073,1.08359 1.26605,1.89999 1.98764,2.79506 0.90529,0.86447 2.03362,1.48474 3.11017,2.1168 1.10236,0.57967 2.20136,1.14904 3.36059,1.61925 1.3739,0.46449 2.73015,0.95529 4.06954,1.51006 1.25815,0.47584 2.60614,0.54104 3.93515,0.59455 1.48717,0.0389 2.97508,0.0279 4.4626,0.0239 1.44923,-0.0399 2.9051,0.23659 4.22149,-0.46602 3.77338,-1.69832 0.977,-0.46244 -8.47242,4.87611 -0.18281,0.10329 0.36107,-0.21445 0.53994,-0.32443 0.49581,-0.30485 0.92716,-0.6644 1.38395,-1.02317 1.10017,-0.99739 1.93894,-2.21606 2.71284,-3.47169 0.86587,-1.28886 1.25472,-2.74386 1.46109,-4.26103 0.15167,-1.49125 0.13938,-2.99264 0.13868,-4.48972 0.0553,-1.43639 0.0546,-2.78706 -0.4783,-4.1308 -0.50671,-1.20752 -1.31629,-2.21085 -2.10266,-3.2376 -0.72398,-0.821819 -1.54584,-1.547449 -2.27564,-2.362305 -0.71756,-0.761571 -1.52576,-1.377447 -2.41555,-1.926193 -0.9863,-0.491948 -1.94767,-1.022173 -2.93172,-1.525461 -1.15343,-0.472921 -2.41543,-0.506902 -3.64395,-0.555961 -1.48732,-0.03847 -2.97536,-0.02746 -4.46302,-0.02341 -1.33518,0.049 -2.61994,0.472463 -3.95747,0.62339 -1.16425,0.155667 -2.3511,-0.0093 -3.48628,0.300005 0,0 8.96268,-6.734386 8.96268,-6.734386 v 0 c 1.16753,-0.07414 2.34083,-0.09635 3.49874,-0.279612 1.33965,-0.226078 2.66223,-0.591738 4.03537,-0.489307 1.50358,-0.0013 3.00865,-0.01098 4.51039,0.07469 1.35687,0.10814 2.72183,0.272589 3.93877,0.932537 0.99638,0.541853 2.02315,1.024159 2.99318,1.61512 0.9236,0.643739 1.80769,1.314259 2.56174,2.15787 0.77642,0.815295 1.59109,1.593596 2.31663,2.456701 0.84806,1.107321 1.66052,2.231718 2.2426,3.508838 0.60017,1.479272 0.78747,2.914454 0.66549,4.513174 0.005,1.53508 0.0201,3.07229 -0.0822,4.60488 -0.15115,1.63842 -0.42686,3.26348 -1.26489,4.70968 -0.78526,1.28432 -1.50583,2.61306 -2.55708,3.70893 -0.50993,0.60087 -1.1543,1.20054 -1.84082,1.59412 -10.25521,5.87923 -6.51166,4.50704 -10.8365,6.04275 -1.4598,0.27166 -2.94999,0.12131 -4.4284,0.16231 -1.5029,0.001 -3.0073,0.0104 -4.50833,-0.0762 -1.4229,-0.11277 -2.84115,-0.30612 -4.1564,-0.89793 -1.33669,-0.56126 -2.72624,-0.97986 -4.07277,-1.51762 -1.18349,-0.52598 -2.33617,-1.09776 -3.45428,-1.75309 -1.15714,-0.73219 -2.40578,-1.37953 -3.31232,-2.43114 -0.77931,-0.92181 -1.59425,-1.81212 -2.07884,-2.9389 -0.75517,-1.2735 -1.317,-2.57668 -1.36263,-4.08709 0.0783,-1.36055 0.19551,-2.72728 0.62169,-4.03105 0.41972,-1.36595 0.31284,-2.8767 1.0028,-4.17679 0.59792,-1.156 1.15145,-2.310642 2.16371,-3.178502 4.50752,-2.930393 9.11885,-5.879777 14.10917,-7.933102 0,0 -8.86647,6.888323 -8.86647,6.888323 z"
     inkscape:connector-curvature="0" />
  <path
     style="fill:#000000;stroke-width:0.26458332"
     id="path4042"
     d="m 246.52873,29.400646 c -0.7611,1.73478 -1.74562,3.33792 -2.36146,5.13754 -0.52981,1.35478 -0.91291,2.7543 -1.34701,4.14043 -0.45799,1.38387 -0.6046,2.8313 -0.6918,4.27758 -0.0775,1.75901 -0.0762,3.52033 -0.0772,5.2807 0.005,1.7429 0.0163,3.48577 0.022,5.22867 0.19582,1.65431 0.64324,3.31148 1.17398,4.89248 0.4145,1.19675 0.85087,2.39922 1.44764,3.51906 0.42014,1.02339 0.99048,1.94069 1.60686,2.85149 0.58834,1.08177 1.27279,2.10855 2.03259,3.07797 0.83191,1.12295 1.6867,2.25487 2.69174,3.23058 0.83456,0.89735 1.71951,1.75172 2.62959,2.57589 1.07149,0.80474 2.07367,1.66926 3.31347,2.2069 1.07965,0.7754 2.30333,1.05014 3.59724,1.19101 1.31509,0.12028 2.64856,0.22362 3.79627,-0.51944 3.55096,-1.84781 2.04868,-1.07435 -8.6735,4.97831 -0.15851,0.0895 0.29816,-0.20887 0.44765,-0.31272 0.51052,-0.35463 0.90399,-0.74604 1.33054,-1.1994 0.88363,-1.00713 1.72261,-2.02623 2.20006,-3.28723 0.39432,-1.36067 0.40053,-2.78924 0.42315,-4.19421 0.0104,-1.51071 -10e-4,-3.02147 -0.007,-4.53219 0.0546,-1.43699 0.0599,-2.78863 -0.47102,-4.13422 -0.6136,-1.26844 -0.71348,-2.67227 -1.01309,-4.02354 -0.30839,-1.32197 -0.7926,-2.58856 -1.1146,-3.9067 -0.46235,-1.46022 -0.77676,-2.95763 -1.18954,-4.43129 -0.31709,-1.32411 -0.61885,-2.66463 -1.16409,-3.91758 -0.58041,-0.9709 -1.05054,-1.98794 -1.54874,-3.00468 -0.52694,-0.87386 -0.89607,-1.93856 -1.65362,-2.64188 -0.702,-0.7679 -1.43051,-1.459 -2.43405,-1.7816 -1.02937,-0.47826 -2.03455,-1.03427 -3.10941,-1.40829 -1.33208,-0.30116 -2.67776,-0.59749 -3.96867,-1.05203 -1.42122,-0.45464 -2.87944,-0.65673 -4.30291,-1.09662 -0.20744,-0.0522 -0.41487,-0.10448 -0.62231,-0.15672 0,0 9.24115,-6.3489 9.24115,-6.3489 v 0 c 0.21298,0.0612 0.42596,0.12239 0.63894,0.18359 1.42115,0.41387 2.90037,0.60142 4.29411,1.11988 1.34716,0.36931 2.71632,0.66575 4.04337,1.09897 1.04889,0.45993 2.08578,0.94701 3.12467,1.42912 1.04532,0.52887 1.90271,1.29974 2.68846,2.16488 0.76222,0.86648 1.27403,1.93123 1.82227,2.93979 0.50778,1.02942 0.9788,2.06346 1.56624,3.05141 0.57261,1.29872 0.90787,2.6884 1.20912,4.07128 0.41873,1.48855 0.73372,2.9998 1.22324,4.46849 0.29608,1.32541 0.81433,2.57418 1.12513,3.89517 0.32722,1.2905 0.33456,2.66064 0.92909,3.88376 0.59791,1.48021 0.7813,2.91508 0.65637,4.51345 0.005,1.51518 0.0143,3.03035 0.015,4.54554 -0.008,1.49306 -0.004,2.99736 -0.27125,4.47171 -0.34816,1.46873 -1.03896,2.59198 -2.00089,3.739 -0.39185,0.45423 -0.76435,1.02324 -1.20723,1.42808 -3.11157,2.8443 -7.12269,4.7887 -11.05006,6.3895 -1.37305,0.2885 -2.75109,0.25281 -4.13634,0.0272 -1.35953,-0.25855 -2.6136,-0.72785 -3.78595,-1.4759 -1.26239,-0.68054 -2.3772,-1.56365 -3.48668,-2.46754 -0.92933,-0.83577 -1.83188,-1.70956 -2.67737,-2.62868 -0.98284,-1.05083 -1.87215,-2.18746 -2.72347,-3.34626 -0.78979,-0.98221 -1.51921,-2.01323 -2.11501,-3.12566 -0.64405,-0.94248 -1.224,-1.9058 -1.66397,-2.96277 -0.61818,-1.17889 -1.08583,-2.43518 -1.49865,-3.69898 -0.56749,-1.69324 -0.99037,-3.46642 -1.34271,-5.21162 0.003,-1.74793 0.008,-3.49587 0.008,-5.24381 -0.004,-1.77055 -0.0273,-3.54166 0.0128,-5.31188 0.061,-1.52077 0.15599,-3.05031 0.56605,-4.52434 0.41958,-1.39986 0.75518,-2.82894 1.37551,-4.15932 0.51725,-1.82818 1.34051,-3.49253 2.294,-5.13056 0,0 10.16283,-4.77285 10.16283,-4.77285 z"
     inkscape:connector-curvature="0" />
  <path
     style="fill:#000000;stroke-width:0.26458332"
     id="path4044"
     d="m 158.69494,93.771606 c -1.55965,1.25042 -3.03266,2.61322 -4.4563,4.01636 -1.16931,1.04343 -2.04517,2.326604 -2.86274,3.648904 -0.84044,1.02705 -1.1222,2.29553 -1.55545,3.51168 -0.50951,1.06952 -1.01913,2.08125 -1.26095,3.25041 -0.21899,1.41221 -0.2175,2.84618 -0.22846,4.27167 -0.0133,1.49428 -0.0523,2.97944 0.17758,4.45884 0.40938,1.20272 0.79331,2.41219 1.28202,3.58528 0.52847,0.99932 1.15686,1.91044 1.79905,2.83668 0.85052,0.8302 1.7083,1.71282 2.76164,2.28848 1.03941,0.76104 2.23824,1.3057 3.46566,1.68828 1.14929,0.67757 2.40594,0.9455 3.71438,1.08229 1.6484,0.21667 2.75951,0.103 4.20229,-0.73495 -14.61111,8.69166 -8.98698,5.92596 -5.60555,1.93159 1.05595,-1.23939 1.76644,-2.70672 2.54637,-4.12283 0.77619,-1.20212 1.10426,-2.54897 1.28225,-3.94819 0.0932,-1.52153 0.44514,-3.00777 0.64643,-4.51605 0.10695,-1.40554 0.38422,-2.85842 -0.007,-4.23641 -0.46942,-1.33967 -1.10097,-2.61014 -1.698,-3.89502 -0.65651,-1.30679 -1.28523,-2.65701 -2.24348,-3.7741 -0.69564,-1.1325 -1.60531,-2.02337 -2.54771,-2.93809 -0.89927,-0.75988 -1.81848,-1.51349 -2.62623,-2.372764 -0.8584,-0.8277 -1.91883,-1.35926 -2.96509,-1.90721 -0.87639,-0.90419 -2.08657,-0.99141 -3.17557,-1.44612 -1.16686,-0.48821 -2.4295,-0.5765 -3.67685,-0.64578 0,0 9.11373,-6.51393 9.11373,-6.51393 v 0 c 1.32692,0.13173 2.63509,0.35827 3.86965,0.88682 1.17898,0.36755 2.28341,0.81354 3.26358,1.58895 1.11481,0.63819 2.26314,1.23385 3.15586,2.18249 0.82837,0.81996 1.7135,1.58082 2.58878,2.34974 0.98475,0.93425 1.86107,1.91787 2.60604,3.05676 0.97564,1.228224 1.68401,2.623364 2.37568,4.025604 0.61692,1.32953 1.29633,2.63074 1.78341,4.01687 0.50751,1.52548 0.36349,3.07909 0.21485,4.66221 -0.16494,1.51058 -0.5245,2.98799 -0.65037,4.497 -0.12465,1.51094 -0.33122,3.02549 -1.08161,4.37211 -0.85724,1.42231 -1.50394,2.96202 -2.5183,4.28398 -3.44203,4.73259 -7.55887,6.63108 -13.40737,9.41042 -1.51203,0.51484 -3.03062,0.49966 -4.60224,0.24502 -1.34557,-0.23681 -2.60585,-0.67173 -3.83648,-1.26679 -1.26792,-0.49231 -2.50195,-1.0749 -3.60379,-1.88189 -1.111,-0.74604 -2.13272,-1.66302 -3.00741,-2.6735 -0.7047,-0.98473 -1.3645,-1.97228 -1.92661,-3.04849 -0.51795,-1.25523 -0.915,-2.54662 -1.37659,-3.82451 -0.27274,-1.53761 -0.32105,-3.06385 -0.26798,-4.62603 0.002,-1.47422 -0.004,-2.95191 0.13299,-4.42119 0.15233,-1.22071 0.36215,-2.44812 1.16635,-3.42881 0.45398,-1.27611 0.71598,-2.63037 1.45953,-3.78266 0.95628,-1.27578 1.59604,-2.78814 2.79879,-3.88582 1.47774,-1.33151 2.85804,-2.772484 4.36261,-4.076174 0,0 10.41875,-4.18113 10.41875,-4.18113 z"
     inkscape:connector-curvature="0" />
  <path
     style="fill:#000000;stroke-width:0.26458332"
     id="path4046"
     d="m 213.2488,90.704776 c -0.78445,2.35915 -1.08136,4.82327 -1.2725,7.28949 -0.13557,2.032604 -0.15061,4.070184 -0.15248,6.106424 0.003,1.53977 0.01,3.07953 0.0131,4.6193 0.0333,1.48562 -0.0638,2.9763 0.0628,4.45787 0.22295,1.38152 0.96448,2.50149 1.74792,3.61702 0.85168,0.87963 1.47391,2.01178 2.42353,2.79039 0.87617,0.96149 1.8569,1.76885 3.04337,2.3092 1.0919,0.79647 2.33215,1.08456 3.64747,1.22994 1.44785,0.11256 2.90174,0.0984 4.35285,0.0962 -0.21071,0.92968 3.31153,-1.32832 2.51535,-0.88129 -8.83739,4.96196 -11.68077,7.38272 -8.45798,4.69914 0.95937,-0.8041 1.64466,-1.87746 2.1992,-2.98732 0.68644,-1.23584 0.9324,-2.60594 1.078,-3.9929 0.0688,-1.43721 0.1979,-2.89226 0.0466,-4.32716 -0.17135,-1.08636 -0.73587,-2.05972 -1.26291,-3.00961 -0.66647,-0.88162 -1.28478,-1.81957 -1.76769,-2.81571 -0.38208,-1.23739 -1.06632,-2.33874 -1.65682,-3.48469 -0.5691,-1.45402 -1.29476,-2.83696 -1.90943,-4.27109 -0.58184,-1.1873 -1.23294,-2.344384 -1.75796,-3.558124 -0.27451,-1.00676 -0.78285,-1.90991 -1.7124,-2.42574 -1.19057,-0.53439 -2.41253,-0.85234 -3.70546,-1.02061 -1.47274,-0.21253 -2.97756,0.007 -4.43225,-0.29542 -1.28785,-0.34829 -2.61258,-0.47178 -3.93954,-0.54451 -1.21576,-0.078 -2.43328,0.047 -3.62797,-0.20519 0,0 9.1611,-6.45894 9.1611,-6.45894 v 0 c 1.1907,0.0766 2.38594,0.0452 3.57594,0.14496 1.34441,0.11811 2.66769,0.3421 3.9906,0.60597 1.47815,0.10223 2.96993,0.0565 4.43472,0.3202 1.39937,0.27261 2.77549,0.68066 4.01199,1.40958 0.97239,0.7677 1.73408,1.75438 2.02921,2.97933 0.50482,1.22303 1.16463,2.3796 1.72469,3.57827 0.58587,1.41226 1.34233,2.74622 1.88202,4.178714 0.61123,1.14529 1.30541,2.26626 1.6987,3.50753 0.46431,0.98222 1.10955,1.87291 1.73613,2.75663 0.59386,1.06991 1.20892,2.17382 1.44385,3.38528 0.24218,1.50255 0.0803,3.03858 0.0544,4.55473 -0.10322,1.48904 -0.26135,2.99099 -0.88103,4.36858 -0.59861,1.18939 -1.14197,2.39124 -2.03091,3.4043 -3.72725,3.23683 -8.34462,7.00368 -13.49629,6.96214 -1.48846,-0.008 -2.98473,-0.006 -4.46043,-0.22587 -1.38459,-0.26703 -2.65984,-0.75185 -3.84399,-1.53154 -1.20768,-0.68001 -2.27565,-1.53421 -3.22573,-2.54546 -0.93508,-0.92059 -1.67696,-2.02853 -2.54647,-3.00957 -0.87749,-1.27001 -1.64527,-2.58126 -1.99233,-4.10788 -0.22647,-1.51305 -0.0847,-3.04761 -0.12459,-4.57413 -0.002,-1.54457 -0.007,-3.08915 -2.6e-4,-4.63371 0.0164,-2.07586 0.0598,-4.15219 0.2078,-6.22352 0.18729,-2.50098 0.39002,-5.000564 1.04941,-7.431464 0,0 10.12678,-4.80973 10.12678,-4.80973 z"
     inkscape:connector-curvature="0" />
  <path
     style="fill:#000000;stroke-width:0.26458332"
     id="path4048"
     d="m 118.77278,53.591126 c -0.7651,1.9641 -1.60632,3.89647 -2.46743,5.8199 -0.59168,1.48674 -1.16754,2.99248 -2.17885,4.24764 -3.54019,2.0579 -10.37418,9.9969 -11.86077,3.49584 -0.22265,-1.47585 -0.20088,-2.97469 -0.2026,-4.4633 0.0222,-1.31923 0.40465,-2.56382 0.87897,-3.77908 1.52788,-4.6897 -1.53598,-1.22232 10.53452,-5.81786 0.052,-0.0198 0.0811,0.60364 0.1218,1.28686 -0.0575,1.29641 -0.42825,2.5496 -0.59922,3.8353 0.0233,1.23986 0.21087,1.38393 0.81332,0.35065 -3.05161,1.75185 -6.08547,3.53496 -9.15481,5.25553 -0.17878,0.10022 0.33004,-0.24546 0.47527,-0.39007 0.66229,-0.65946 0.94221,-1.49694 1.18191,-2.37401 0.22175,-1.10471 -0.13202,-1.834 -0.97462,-2.51608 -0.57295,-0.51696 -1.11436,-0.99513 -1.57045,-1.62426 0,0 9.66106,-5.73148 9.66106,-5.73148 v 0 c 0.42602,0.54582 0.96567,0.9581 1.4603,1.43995 1.02151,1.00788 1.6244,2.0835 1.50702,3.56907 -1.02615,5.77492 -5.1195,6.19458 -11.36756,9.41378 -1.37195,0.0216 -2.02672,-1.14899 -2.07149,-2.41915 0.11732,-1.24277 0.30278,-2.47345 0.6694,-3.67041 -0.007,-0.19944 -0.009,-0.39905 -0.0196,-0.59834 -0.009,-0.17028 -0.1831,-0.42181 -0.0373,-0.51017 14.9484,-9.05782 10.54294,-8.66709 9.53903,-4.249 -0.37575,1.15462 -0.95466,2.21335 -1.07669,3.44879 -0.003,1.41623 -0.0254,2.83831 0.12803,4.24828 0.0128,0.0752 0.0742,0.9448 0.29879,0.96562 0.0153,0.001 0.50913,-0.37982 0.38313,-0.30592 -3.03808,1.78195 -6.05713,3.59612 -9.0857,5.39419 1.31213,-0.8943 1.86351,-2.42664 2.41813,-3.86333 0.83008,-1.88796 1.72829,-3.7453 2.43359,-5.68609 0,0 10.16283,-4.77285 10.16283,-4.77285 z"
     inkscape:connector-curvature="0" />
  <path
     style="fill:#000000;stroke-width:0.26458332"
     id="path4052"
     d="m 194.41229,42.843796 c 0.60281,-1.97394 0.90556,-4.01514 1.58055,-5.96835 0.62683,-1.19727 0.91353,-2.51448 1.35756,-3.77801 0.36214,-1.12456 0.86529,-2.18513 1.22955,-3.30931 1.36299,-4.694508 11.67803,-9.615784 10.75518,-3.27759 -0.37505,1.59442 -1.13727,3.03261 -1.82535,4.50303 -0.52605,1.33416 -1.06109,2.66434 -1.60363,3.99199 -0.55538,1.32843 -0.7179,2.75296 -0.81608,4.17526 -0.0272,1.44363 -0.15509,2.90184 -5.3e-4,4.34085 0.0377,0.20016 0.0754,0.40032 0.11309,0.60048 0,0 -9.88876,5.28753 -9.88876,5.28753 v 0 c -0.0468,-0.22113 -0.0935,-0.44225 -0.14025,-0.66338 -0.24299,-1.49764 -0.0814,-3.02793 -0.0854,-4.54024 0.0676,-1.51446 0.17108,-3.04161 0.65672,-4.49012 0.50621,-1.36236 1.11558,-2.67934 1.60526,-4.04325 0.59821,-1.46032 1.47121,-2.7864 1.86835,-4.32862 0.12995,-0.29794 0.2924,-0.5685 0.29452,-0.90421 7.9e-4,-0.10804 -0.16533,-0.26307 -0.0713,-0.3162 3.251,-1.83594 6.60125,-3.4903 9.90187,-5.23545 -0.42352,-0.11267 -0.22687,-0.153265 -0.56932,0.196842 -0.28465,0.549858 -0.36115,1.105768 -0.58515,1.679498 -0.0689,0.17651 -0.15733,0.34478 -0.236,0.51717 -0.0895,0.15306 -0.20153,0.29501 -0.26852,0.45918 -0.0795,0.19483 -0.11149,0.40583 -0.16724,0.60874 -0.46791,1.28518 -0.74524,2.62405 -1.37146,3.85134 -0.92146,1.82208 -1.14879,3.86346 -1.60688,5.83309 0,0 -10.12677,4.80973 -10.12677,4.80973 z"
     inkscape:connector-curvature="0" />
  <path
     style="fill:#000000;stroke-width:0.26458332"
     id="path4054"
     d="m 154.58188,104.41214 c 1.22129,1.28985 2.34537,2.64767 3.47067,4.01794 0.79422,1.0751 1.42103,2.24924 1.99073,3.45441 0.60019,1.29477 1.03256,2.62979 0.59316,4.02717 -2.04242,2.88924 -8.67642,7.91279 -13.02399,5.74272 -1.13621,-0.4219 -2.10328,-1.15077 -3.16586,-1.71781 -0.79517,-0.85288 -1.97854,-0.95716 -2.93316,-1.50054 -2.73856,-3.89727 6.82799,-7.1272 10.91159,-6.61138 0.57883,0.0731 0.76784,0.22012 1.29126,0.47419 1.41695,0.49358 2.6492,1.35029 4.02264,1.93691 5.34008,2.51429 -5.83096,7.36658 -9.22473,7.26241 -0.82728,0.0352 -1.62024,-0.27172 -2.42346,-0.44235 0,0 9.20924,-6.40613 9.20924,-6.40613 v 0 c 0.75128,0.15344 1.48557,0.30517 2.25486,0.16123 4.08212,-0.8791 -1.5253,0.28043 -8.96457,5.28795 -0.26678,0.17957 0.92785,0.82423 0.61704,0.74165 -0.28887,-0.0768 -0.43771,-0.48007 -0.78979,-0.42458 -1.32403,-0.64224 -2.59807,-1.3868 -4.00424,-1.84809 -0.57792,-0.12912 -1.07078,-0.14174 -1.66371,-0.0845 -0.18312,0.0177 -0.69827,0.17851 -0.54696,0.0739 9.00442,-6.22682 11.19237,-3.04606 8.74993,-6.30951 1.00721,0.44766 2.00431,0.88935 2.88667,1.56704 1.00215,0.5771 1.98727,1.19043 3.08952,1.56472 0.50955,0.10179 0.96256,0.15792 1.47351,0.0106 0.19056,-0.0549 0.72802,-0.30877 0.55778,-0.20704 -8.91698,5.32839 -12.5698,6.11654 -8.6355,5.21287 1.15152,-0.63673 0.33731,-2.04405 -0.0326,-2.97632 -0.55234,-1.11853 -1.10304,-2.24 -1.84378,-3.25029 -1.09004,-1.40226 -2.22634,-2.75574 -3.50261,-3.99764 0,0 9.6364,-5.7595 9.6364,-5.7595 z"
     inkscape:connector-curvature="0" />
  <path
     style="fill:#000000;stroke-width:0.26458332"
     id="path4058"
     d="m 214.53565,119.20746 c -1.864,-0.065 -3.69926,0.32024 -5.46494,0.87762 -3.99497,1.09496 -10.22589,5.88273 8.01999,-5.91798 0.14061,-0.0909 0.33462,0.0143 0.50202,0.0188 0.199,0.005 0.39809,0.007 0.59713,0.0105 1.4658,0.0551 2.67162,0.0172 4.08875,-0.35228 0.21147,-0.0451 0.43106,-0.0617 0.63439,-0.13523 0.36523,-0.13203 0.68215,-0.37722 1.04579,-0.51354 0.59854,-0.22436 1.21572,-0.31988 1.8442,-0.41338 1.38261,-0.16668 2.77703,-0.14466 4.16646,-0.18232 4.11445,-0.19008 5.30053,-2.88642 -9.13061,6.61352 -0.0854,0.0562 -1.63194,-0.009 -1.79781,-0.01 -1.06069,0.0786 -2.15841,-0.12706 -3.21347,0.0366 11.51028,-8.64367 5.80899,-7.05591 10.75073,-6.18926 0.66983,0.11747 1.18603,0.27257 1.79061,0.58836 2.67802,2.79641 -6.0734,4.8774 -9.49203,6.69528 -0.14947,0.0795 -1.25113,-0.1907 -1.5793,-0.22434 -0.90677,0.0249 -1.74161,-0.20083 -2.60611,-0.43463 0,0 9.2305,-6.37368 9.2305,-6.37368 v 0 c 0.83429,0.18153 1.67485,0.24535 2.52565,0.31067 4.96548,0.56973 2.44654,-1.05339 -7.72573,5.8899 -0.19852,0.1355 0.58755,0.50192 0.27049,0.34947 -5.15186,-1.95163 -7.08252,2.39836 5.99563,-7.26943 1.03522,0.0806 2.08101,0.0178 3.12006,0.0308 0.52039,-0.004 0.77723,-0.005 1.29033,-0.0111 0.18102,-0.002 0.68344,-0.12216 0.54304,-0.008 -11.81466,9.61715 -4.98286,6.73099 -9.0459,6.61996 -1.34812,0.005 -2.70686,0.058 -4.02883,0.3424 -1.18953,0.31886 -2.29084,0.89358 -3.52076,1.06468 -1.41185,0.22946 -2.85367,0.15991 -4.27824,0.10097 -6.34306,-0.78649 5.02092,-6.74207 8.86591,-7.45875 1.85234,-0.46829 3.76737,-0.64127 5.67588,-0.6485 0,0 -9.07383,6.59252 -9.07383,6.59252 z"
     inkscape:connector-curvature="0" />
  <path
     style="fill:#000000;stroke-width:0.26458332"
     id="path4060"
     d="m 254.23764,56.475476 c 0.73634,6.7634 1.61238,2.89722 -9.68825,8.83344 -0.71104,-0.96086 -1.19025,-2.04736 -1.72265,-3.10988 -0.48237,-1.16596 -0.69454,-2.40312 -1.18632,-3.56808 -0.30545,-0.59571 -0.42952,-1.26532 -0.77051,-1.84472 -0.067,-0.11376 -0.13738,-0.23344 -0.24287,-0.31279 -0.0387,-0.0291 -0.18631,0.0449 -0.1436,0.0221 3.24822,-1.73635 6.51153,-3.44431 9.76729,-5.16647 -0.14004,1.0831 0.41803,2.26205 0.74519,3.29394 0.70224,1.48963 1.02207,3.09953 1.49397,4.66226 0.40324,1.16692 1.01303,2.25413 1.5151,3.38451 0.48317,1.03917 0.96789,2.08321 1.41994,3.13164 -9.60866,5.74229 -8.10396,8.45498 -12.29417,3.50497 -1.04887,-1.10309 -1.92361,-2.33269 -2.82829,-3.548 -0.68248,-0.99191 -1.15319,-2.10598 -1.74561,-3.14788 -0.65706,-0.9268 -1.11481,-1.93942 -1.61181,-2.9559 -0.42593,-0.8508 -0.96176,-1.59881 -1.2509,-2.51572 0,0 9.89774,-5.33991 9.89774,-5.33991 v 0 c 0.10457,0.88206 0.81666,1.48832 1.11563,2.30629 0.4906,0.9954 0.93174,1.9905 1.58119,2.90067 0.56364,1.0095 1.02107,2.08054 1.66491,3.04591 0.85877,1.21285 1.7339,2.4068 2.76793,3.4828 0.29726,0.3476 0.56905,0.7191 0.89438,1.04058 3.08562,3.04921 10.89776,-5.72298 -8.1795,6.53027 0.12746,-0.005 -0.27991,-0.88051 -0.29836,-0.93039 -0.2545,-0.68814 -0.53424,-1.36331 -0.89801,-2.00283 -0.52307,-1.17056 -1.17459,-2.29113 -1.57385,-3.5094 -0.47886,-1.55528 -0.71236,-3.18857 -1.46943,-4.6566 -0.40925,-1.25459 -0.92097,-2.50798 -1.12094,-3.81065 9.64761,-5.60807 8.85041,-8.93431 11.33612,-3.06498 0.5189,1.13959 0.76173,2.33896 1.16933,3.51372 0.43855,0.87708 0.80995,1.80671 1.44354,2.56462 -3.17108,1.90047 -6.34216,3.80094 -9.51325,5.70141 0.17943,-0.23396 0.19813,-0.20075 0.18277,-0.60578 -0.0329,-0.86889 -0.29617,-1.73274 -0.37577,-2.59653 0,0 9.91906,-5.23261 9.91906,-5.23261 z"
     inkscape:connector-curvature="0" />
  <path
     style="fill:#000000;stroke-width:0.26458332"
     id="path4066"
     d="m 126.42845,173.71845 c -0.0804,2.29936 -0.054,4.60066 -0.0384,6.90087 -0.0702,1.55493 -0.0145,3.02126 0.78473,4.38583 0.55588,1.06275 1.51191,1.79564 2.30134,2.66733 0.8423,0.98647 1.80409,1.77228 2.80786,2.57744 0.92394,0.69349 1.86479,1.33926 2.86625,1.91881 0.84412,0.74273 1.88009,1.17305 2.73905,1.89812 1.01984,0.52242 1.99301,1.07145 2.98748,1.65893 1.32367,0.60871 2.5921,1.32393 3.97101,1.80534 1.18972,0.5874 2.33164,1.24235 3.49236,1.88444 1.32342,0.87503 1.81211,2.25978 2.09711,3.7466 0.25182,1.54107 0.25435,3.04422 -0.26462,4.52311 -0.67169,1.65841 -1.91426,2.97063 -3.11245,4.26326 -1.30572,1.33958 -2.68121,2.60527 -3.99168,3.94118 -1.29088,1.18483 -2.50243,2.4484 -3.71628,3.71096 -1.10758,1.15615 -2.36732,2.14792 -3.51837,3.25665 -1.11969,1.01323 -2.28172,1.98028 -3.47915,2.89992 -4.11538,3.32816 -9.08167,5.3509 -13.55551,8.1381 -3.8689,1.98687 -10.95402,6.1118 5.73361,-3.43966 -3.75747,2.30497 -3.28323,2.02303 -10.80264,6.16905 -0.20163,0.11118 -0.44713,0.11293 -0.66408,0.19003 -0.69814,0.24807 -1.32851,0.66063 -1.99989,0.97123 -0.98947,0.35835 -0.50299,0.15557 -1.45912,0.6091 0,0 8.76258,-6.9478 8.76258,-6.9478 v 0 c 0.98242,-0.41418 0.50065,-0.20265 1.44579,-0.63347 0.68489,-0.33692 1.37676,-0.60986 2.0784,-0.90559 0.20137,-0.0849 0.78243,-0.38809 0.59399,-0.27744 -4.85281,2.84916 -12.3023,7.09623 -8.39763,4.86918 4.463,-2.57889 8.87456,-5.21671 13.41837,-7.63955 3.73767,-1.87653 0.53141,-0.28361 -8.20786,4.82187 -0.23415,0.13679 0.48337,-0.24731 0.71403,-0.38992 0.67354,-0.41643 1.33469,-0.87929 1.94077,-1.38798 1.19589,-0.91141 2.38781,-1.81062 3.50848,-2.81543 1.22566,-1.02949 2.3401,-2.19072 3.58973,-3.19815 1.21099,-1.26217 2.35951,-2.60453 3.71101,-3.71731 1.30437,-1.34837 2.62119,-2.6738 4.01019,-3.9302 1.16029,-1.20552 2.36857,-2.40536 3.2267,-3.85385 0.17699,-0.38944 0.41432,-0.75546 0.53891,-1.16469 0.27533,-0.9044 0.0294,-1.8891 0.002,-2.8076 -0.17559,-1.18295 -0.44691,-2.26269 -1.58583,-2.86311 -1.13855,-0.58404 -2.19672,-1.31228 -3.39306,-1.78186 -1.40053,-0.57746 -2.76181,-1.25159 -4.10298,-1.95514 -1.01571,-0.62016 -2.13417,-1.03772 -3.07997,-1.76609 -0.87087,-0.62318 -1.82259,-1.12268 -2.6639,-1.78877 -1.00452,-0.64244 -1.99367,-1.29437 -2.92507,-2.04113 -1.05959,-0.8209 -1.98687,-1.74025 -2.89839,-2.72156 -0.8776,-0.9076 -1.84072,-1.74977 -2.42885,-2.89316 -0.87444,-1.55477 -1.1546,-3.15292 -0.9915,-4.93425 0.0154,-2.28715 0.0428,-4.57546 -0.0384,-6.86173 0,0 9.99342,-5.09191 9.99342,-5.09191 z"
     inkscape:connector-curvature="0" />
  <path
     style="fill:#000000;stroke-width:0.26458332"
     id="path4068"
     d="m 250.92112,148.20019 c -1.80616,1.27784 -3.51039,2.68304 -5.16016,4.15519 -0.98139,0.90771 -1.97943,1.80419 -2.8898,2.78385 -0.94496,1.03415 -1.5695,2.25207 -1.95161,3.58859 -0.33013,1.44015 -0.34514,2.92455 -0.36536,4.39444 -0.009,1.51284 0.001,3.02571 0.006,4.53855 0.076,1.1916 0.66704,2.25457 1.43308,3.14376 0.87963,1.30932 2.06104,2.32899 3.22786,3.37009 1.49376,1.11706 2.97606,2.24828 4.51244,3.30457 1.24938,0.9289 2.50606,1.83947 3.75445,2.7699 1.29015,0.80763 2.58679,1.60582 4.01427,2.14638 1.32215,0.64073 2.58789,1.38841 3.91285,2.0226 1.26871,0.46852 2.48422,1.12871 3.50489,2.01983 0.85804,0.69565 1.68728,1.45254 2.42463,2.27838 0.72882,1.0145 1.42433,2.03379 1.9389,3.17639 0.56143,1.42341 0.66967,2.95259 0.74219,4.4644 0.0297,1.5412 0.0909,3.08652 -0.0281,4.62457 -0.30325,1.85727 -1.37054,3.39995 -2.50525,4.84881 -1.35226,1.76916 -3.09251,3.15007 -4.80843,4.54308 -1.88227,1.56003 -3.93079,2.88843 -5.96356,4.23809 -4.56255,2.96088 -9.35366,5.54273 -14.07755,8.235 -1.46614,0.762 -2.94331,1.46934 -4.55335,1.86381 -1.16062,0.76112 -2.60188,0.67397 -3.83537,1.17681 0,0 8.88056,-6.85467 8.88056,-6.85467 v 0 c 1.31301,-0.26426 2.55545,-0.69725 3.81172,-1.15474 1.5324,-0.53708 2.97578,-1.28506 4.42302,-2.01655 -16.79059,9.75352 -8.76636,5.17649 -5.03301,2.78963 2.08275,-1.27873 4.11559,-2.63787 6.05004,-4.13528 1.67921,-1.36821 3.48694,-2.6326 4.84159,-4.34374 1.16775,-1.2273 2.17066,-2.62215 2.7377,-4.23172 0.2572,-1.46833 0.0792,-2.97614 0.10749,-4.4614 -0.0445,-1.37467 -0.0885,-2.77453 -0.55531,-4.08385 -0.45368,-1.03497 -1.11609,-1.93482 -1.77629,-2.84678 -0.73278,-0.76319 -1.50391,-1.4972 -2.33695,-2.15017 -1.01805,-0.77189 -2.15798,-1.33701 -3.33561,-1.82618 -1.28687,-0.65962 -2.55891,-1.34942 -3.86807,-1.96456 -1.45815,-0.66044 -2.85002,-1.46149 -4.17036,-2.36706 -1.249,-0.9151 -2.47271,-1.86318 -3.73418,-2.76139 -1.5229,-1.12816 -3.06083,-2.2372 -4.5383,-3.42516 -1.22333,-1.0723 -2.46192,-2.13137 -3.39167,-3.48264 -0.87601,-1.12035 -1.60192,-2.39309 -1.77677,-3.82631 -0.004,-1.51707 -0.0126,-3.03413 -0.0121,-4.55121 0.008,-1.54176 0.0114,-3.09163 0.25092,-4.61874 0.29417,-1.4904 0.80837,-2.83706 1.70776,-4.07481 0.88491,-1.07039 1.89103,-1.98621 2.88445,-2.95526 1.6921,-1.38873 3.24279,-2.95578 5.08158,-4.16338 0,0 10.41875,-4.18112 10.41875,-4.18112 z"
     inkscape:connector-curvature="0" />
  <path
     style="fill:#000000;stroke-width:0.26458332"
     id="path4070"
     d="m 43.034227,102.84304 c -1.578443,1.3998 -3.206197,2.74068 -4.832022,4.08536 -1.567386,1.28677 -2.933213,2.79199 -4.401081,4.18733 -1.264846,1.15274 -2.453397,2.38717 -3.727765,3.52868 -1.575417,1.37694 -3.094538,2.8157 -4.598784,4.26942 -1.576012,1.51579 -3.118448,3.06296 -4.603223,4.66806 -1.445686,1.53955 -2.756911,3.19275 -4.052914,4.85759 -1.39496,1.65788 -2.381713,3.56265 -3.369488,5.47393 -0.758269,1.4708 -1.593588,2.90306 -2.154883,4.46357 -0.437909,1.65914 -0.823806,3.33046 -1.067117,5.02959 -0.192924,1.52838 -0.215088,3.07043 -0.2306644,4.60864 -0.0078,1.51009 -0.0019,3.0202 7.94e-4,4.5303 -0.08109,1.35535 0.0383,2.62322 0.6421674,3.84484 0.676773,1.28845 1.364676,2.58773 2.293012,3.7149 0.646986,0.98665 1.332703,1.93932 2.025338,2.89385 0.92116,1.20535 1.879777,2.39254 2.900508,3.51468 1.042469,1.20785 2.199558,2.29919 3.353977,3.39928 1.433319,1.43477 2.966074,2.75934 4.406805,4.18564 1.468239,1.40402 2.886728,2.85567 4.423026,4.18788 1.11153,1.07487 2.315959,2.07388 3.559416,2.9952 1.108006,0.7442 2.246431,1.44601 3.349942,2.19765 0.979514,0.63927 1.937568,1.29531 2.953168,1.88103 0.539819,0.36357 1.093946,0.65961 1.620057,1.04437 0,0 -9.454748,6.03277 -9.454748,6.03277 v 0 c -0.525668,-0.33806 -1.065149,-0.65059 -1.596133,-0.98013 -0.99649,-0.62947 -1.983137,-1.26653 -2.960182,-1.92471 -1.155261,-0.72491 -2.25498,-1.51769 -3.387982,-2.27663 -1.222192,-0.98082 -2.454785,-1.95837 -3.548665,-3.08343 -1.535327,-1.35998 -2.970985,-2.82686 -4.446863,-4.24987 -1.443064,-1.41662 -2.977563,-2.73251 -4.425315,-4.14495 -1.191122,-1.11085 -2.3511064,-2.24342 -3.4131914,-3.47981 -1.019426,-1.17577 -2.042583,-2.35174 -3.000348,-3.57859 -0.691344,-0.93876 -1.337781,-1.90153 -1.984405,-2.87002 -0.927216,-1.219 -1.674669,-2.56035 -2.39420396,-3.9096 -0.715626,-1.36436 -1.005239,-2.76525 -0.88669,-4.31153 -0.0026,-1.51346 -0.0079,-3.02693 -0.0049,-4.54039 0.009,-1.58037 0.02029,-3.16381 0.181631,-4.73759 0.211386,-1.75984 0.629256,-3.46793 0.97245796,-5.20215 0.459965,-1.65652 1.257128,-3.15778 2.108655,-4.64518 0.986938,-1.96276 1.956763,-3.93679 3.305587,-5.68278 1.322459,-1.66693 2.585408,-3.37679 4.0130104,-4.95833 1.539621,-1.55482 2.960505,-3.22861 4.585568,-4.70415 1.489818,-1.4572 2.987653,-2.90706 4.540763,-4.29719 1.279736,-1.13737 2.489729,-2.33252 3.75835,-3.48104 1.429084,-1.46012 2.955925,-2.82963 4.373108,-4.30708 1.655831,-1.25381 3.289834,-2.57776 4.755338,-4.04828 0,0 10.418746,-4.18113 10.418746,-4.18113 z"
     inkscape:connector-curvature="0" />
  <path
     style="fill:#000000;stroke-width:0.26458332"
     id="path4072"
     d="m 317.95145,69.404706 c 2.04779,1.44136 4.18599,2.75069 6.14357,4.31451 1.59324,1.26571 3.17511,2.547 4.77757,3.80599 1.62162,1.08246 3.01487,2.44396 4.52952,3.65869 1.45323,1.26432 2.88854,2.55928 4.3112,3.86275 1.65773,1.49301 3.14337,3.15568 4.73592,4.71447 1.40786,1.36294 2.82159,2.73739 3.99052,4.31471 1.17122,1.62076 2.25699,3.29829 3.33122,4.98399 1.08285,1.601674 2.14918,3.224514 2.9767,4.974394 0.78674,1.53568 1.65522,3.03192 2.34491,4.61437 0.57336,1.72207 1.29418,3.38942 1.89026,5.10248 0.58261,1.31561 1.15837,2.63778 1.62313,4.00026 0.49389,1.41124 0.45988,2.91519 0.68547,4.37213 0.33111,1.31709 0.51895,2.65571 0.62473,4.0076 0.0921,1.49284 0.0925,2.98929 0.0963,4.48436 -0.0287,1.66303 -0.58113,3.21898 -1.20396,4.73828 -0.69954,1.65674 -1.73026,3.15537 -2.78789,4.60182 -1.16682,1.50817 -2.57974,2.79433 -4.0114,4.04393 -4.31014,3.47512 -9.43949,5.8839 -14.1494,8.68066 -2.83601,1.68403 5.71432,-3.29578 8.57148,-4.94366 -3.50171,2.02149 -6.99194,4.063 -10.50512,6.06449 -0.32502,0.18517 -0.67494,0.323 -1.00746,0.49435 -0.32272,0.1663 -1.27214,0.7002 -0.95788,0.51841 2.86456,-1.65696 11.47268,-6.60271 8.60907,-4.94413 -10.37419,6.00865 -6.77297,4.38392 -11.28457,6.37299 -1.93623,0.81621 -3.84666,1.71679 -5.78895,2.5313 -1.99342,0.93653 -3.99434,1.86102 -5.94918,2.87668 -1.60405,0.77528 -3.21716,1.50711 -4.82875,2.25805 0.643,-0.70111 -2.79986,1.44569 -1.74252,0.83404 9.77288,-5.65338 12.0109,-7.2053 8.67915,-4.92194 0,0 -10.46087,4.08649 -10.46087,4.08649 v 0 c 3.98032,-2.51897 7.95253,-5.11613 12.28364,-6.97516 1.57882,-0.7614 3.20972,-1.41483 4.76106,-2.23659 1.97853,-0.95996 3.94644,-1.94148 5.96786,-2.80992 1.93588,-0.86215 3.8866,-1.69107 5.80147,-2.59775 0.2736,-0.14288 1.08723,-0.58448 0.8208,-0.42864 -2.87522,1.68178 -11.5483,6.64514 -8.64801,5.00696 3.50129,-1.97764 6.96076,-4.02849 10.45109,-6.0254 0.63451,-0.36302 2.56595,-1.40146 1.93419,-1.03367 -2.83469,1.65024 -5.67996,3.28223 -8.51993,4.92335 3.48513,-2.01575 6.95508,-4.05798 10.4554,-6.04725 2.85564,-1.62289 -5.67194,3.31419 -8.5213,4.94808 -0.33992,0.19491 0.6589,-0.42431 0.992,-0.63064 0.77188,-0.4781 1.13652,-0.65143 1.86144,-1.18299 0.28367,-0.208 0.54945,-0.43934 0.82418,-0.65901 1.49034,-1.10912 2.87603,-2.42056 4.08358,-3.82804 1.1725,-1.26322 2.06856,-2.7993 2.91586,-4.29195 0.57718,-1.41261 1.24101,-2.79669 1.38346,-4.34019 -0.002,-1.47057 0.002,-2.94206 -0.0692,-4.41131 -0.0834,-1.31593 -0.23299,-2.6243 -0.57689,-3.90141 -0.27194,-1.39941 -0.16207,-2.85705 -0.59821,-4.23271 -0.44286,-1.36913 -1.0501,-2.67845 -1.59902,-4.00734 -0.55516,-1.69434 -1.29009,-3.3232 -1.83397,-5.02251 -0.69199,-1.569 -1.56512,-3.05142 -2.32016,-4.5908 -0.80962,-1.706 -1.84886,-3.29324 -2.8953,-4.86207 -1.05672,-1.66718 -2.14861,-3.30773 -3.31144,-4.903774 -1.13305,-1.53311 -2.53459,-2.84192 -3.88482,-4.1808 -1.55943,-1.57049 -3.02342,-3.23351 -4.71283,-4.67206 -1.41958,-1.28442 -2.83668,-2.57622 -4.30337,-3.80534 -1.46919,-1.25149 -2.9017,-2.53971 -4.48488,-3.65131 -1.60764,-1.25468 -3.19307,-2.53198 -4.77208,-3.82142 -1.9449,-1.54959 -4.03099,-2.91844 -6.16984,-4.18491 0,0 9.44244,-6.04589 9.44244,-6.04589 z"
     inkscape:connector-curvature="0" />
  <path
     style="fill:#000000;stroke-width:0.26458332"
     id="path4074"
     d="m 91.269614,116.02815 c -2.035685,-0.24054 -4.112136,-0.65064 -6.162557,-0.42045 -1.545035,0.0905 -2.906479,0.75355 -4.313717,1.31799 2.322367,-1.35267 -4.436783,2.40031 -2.165341,1.09361 29.659511,-17.0623 -22.286926,12.87532 7.324724,-4.18062 -1.51504,0.86458 -2.760113,2.08857 -3.77429,3.49535 -0.686169,1.2593 -1.095029,2.64329 -1.68121,3.95266 -0.60112,1.25084 -0.697686,2.64315 -1.042904,3.96797 -0.418833,1.29253 -0.490025,2.64916 -0.668408,3.98496 -0.320175,1.46382 -0.536682,2.94097 -0.653733,4.43399 -0.128293,1.15819 0.04228,2.26834 0.73439,3.21849 0.545349,0.90423 1.541259,1.33362 2.317976,2.00846 0.910596,0.54882 1.917013,1.01316 2.936727,1.33989 1.230292,0.65587 2.589455,0.88054 3.958581,1.01682 1.488818,0.11085 2.983088,0.10285 4.47504,0.10298 0.709377,-0.0531 1.463966,0.14144 2.141677,-0.16158 0.507889,-0.22709 0.941736,-0.62237 1.467855,-0.85131 0.192246,-0.0569 0.394354,-0.0875 0.576738,-0.17072 0.33992,-0.15519 1.302021,-0.73396 0.978592,-0.54682 -2.889396,1.67184 -11.599821,6.61362 -8.711588,4.93977 3.363245,-1.94914 6.739549,-3.87566 10.109324,-5.81349 -15.748094,10.1869 -10.358796,6.33037 -7.086638,3.56269 0.877355,-0.61819 1.659421,-1.27055 2.094378,-2.26503 0.397894,-1.31508 0.389064,-2.70653 0.4104,-4.06803 0.002,-1.41526 0.08391,-2.82661 -0.180095,-4.22237 -0.449469,-1.02716 -0.823993,-2.07959 -1.278756,-3.10421 -0.661204,-1.15316 -1.02909,-2.42945 -1.525046,-3.65483 -0.390447,-1.09611 -0.896074,-2.14878 -1.425315,-3.18422 -0.5594,-1.15809 -0.661237,-2.44743 -1.008357,-3.67155 -0.614067,-1.00928 -0.86519,-2.14972 -1.23801,-3.25185 -0.202757,-0.66188 -0.544874,-1.26882 -0.978716,-1.8044 0,0 9.65491,-5.74362 9.65491,-5.74362 v 0 c 0.477041,0.64796 0.909159,1.34203 1.146431,2.11779 0.403186,1.11425 0.611627,2.29155 1.266416,3.31068 0.336554,1.15836 0.451961,2.36038 0.910967,3.4789 0.542871,1.06614 1.067491,2.14941 1.462971,3.27893 0.48428,1.21626 0.83621,2.48487 1.51618,3.61408 0.48745,1.10073 0.88744,2.22874 1.38464,3.32661 0.31066,1.47008 0.30245,2.93845 0.27025,4.43843 -0.007,1.45336 0.001,2.91685 -0.23816,4.35483 -0.28607,1.27426 -0.77568,2.10796 -1.80184,2.91007 -4.240783,2.65978 -4.521633,7.4303 -12.11518,7.6056 3.03809,-1.76546 6.073234,-3.536 9.114269,-5.29638 0.156994,-0.0909 -0.305263,0.19627 -0.461912,0.28774 -3.352917,1.95788 -6.705839,3.9158 -10.066586,5.86021 -0.501172,0.28996 -1.055473,0.43367 -1.5668,0.70179 -1.244664,0.62381 -2.494894,0.68456 -3.879597,0.59719 -1.521379,-0.0111 -3.047866,-0.0201 -4.559367,-0.21429 -1.429485,-0.22486 -2.804424,-0.609 -4.126035,-1.20792 -1.093103,-0.45192 -2.221231,-0.90141 -3.149274,-1.64873 -0.894912,-0.68494 -1.894298,-1.27676 -2.479541,-2.27651 -0.779015,-1.1687 -1.195117,-2.48219 -1.057979,-3.90113 0.08868,-1.52493 0.237628,-3.04761 0.597551,-4.53609 0.295222,-1.34245 0.190627,-2.75031 0.604213,-4.07726 0.402908,-1.36176 0.541986,-2.75918 0.989235,-4.1113 0.568537,-1.36855 1.204587,-2.69949 1.635325,-4.12123 0.868168,-1.57477 2.104655,-2.94804 3.582577,-3.97777 3.434568,-1.99323 6.883394,-3.96209 10.303705,-5.97968 2.920936,-1.72302 -11.759172,6.76227 -8.805536,5.09593 4.161411,-2.34773 8.128644,-5.1229 12.554932,-6.96903 1.452456,-0.57866 2.946466,-0.99098 4.523411,-1.00403 2.117687,0.0474 4.219854,0.32907 6.323549,0.55965 0,0 -9.165446,6.46239 -9.165446,6.46239 z"
     inkscape:connector-curvature="0" />
  <path
     style="fill:#000000;stroke-width:0.26458332"
     id="path4076"
     d="m 82.981749,129.46563 c -1.708919,-0.77803 -2.956923,-2.0482 -3.651949,-3.7817 -0.07594,-0.63187 -0.175685,-0.87946 0.01312,-1.49686 0.196312,-0.64197 0.72873,-1.35406 1.318272,-1.6882 3.387842,-1.92021 6.817874,-3.76501 10.226811,-5.64751 1.430214,0.24973 2.270599,1.20577 2.944911,2.42055 0.612016,1.38087 0.819413,2.87518 0.662385,4.36922 -0.148642,0.83202 -0.527473,1.72083 -1.299284,2.17344 -10.097057,5.9211 -6.309508,5.63797 -10.857858,5.85945 -1.473645,-0.39775 -1.901927,-1.83696 -2.027031,-3.20099 0.0564,-0.53853 0.140742,-1.35248 0.685729,-1.67079 7.278091,-4.25086 6.771063,-5.50752 11.556909,-5.84664 1.465117,-0.11773 2.88746,-0.10647 4.220536,0.56073 1.320974,0.5394 2.129693,0.75245 3.150029,1.82016 0.883781,1.07534 1.608481,2.16061 1.911521,3.53365 0.25574,4.79581 -7.217669,8.28635 -11.498965,6.6667 -1.040042,-0.50844 -1.979447,-1.04635 -3.135158,-1.27844 -1.136268,0.0735 -2.080479,0.70834 -3.053166,1.22969 0,0 8.748222,-7.00148 8.748222,-7.00148 v 0 c 1.120001,-0.52815 2.299249,-0.90437 3.542057,-0.59101 1.087059,0.33386 2.032453,0.95322 3.131083,1.22535 0.25988,-0.004 0.611807,0.0115 0.859567,-0.0816 0.11075,-0.0416 0.39142,-0.26568 0.2902,-0.2044 -3.099,1.87628 -6.189514,3.76654 -9.284272,5.64981 0.38234,-0.12414 0.219148,-0.009 0.465951,-0.37601 -0.02729,-1.16683 -0.854404,-2.02208 -1.538568,-2.89746 -0.83701,-0.74887 -1.911495,-0.98237 -2.916325,-1.45123 -1.267533,-0.35832 -2.573536,-0.27698 -3.868178,-0.0941 -0.414323,0.0869 -1.585825,0.56183 -1.222308,0.34487 3.015626,-1.79989 6.070266,-3.53359 9.1054,-5.30038 -0.481213,0.1256 -0.889247,0.19532 -1.14459,0.66714 -0.09963,0.69901 -0.01076,1.8483 0.956522,1.50055 3.666094,-1.67715 0.171996,-0.098 -8.517395,5.03227 -0.828662,0.48925 2.580136,-1.26469 1.671711,-1.32802 0.258198,-1.26884 0.207921,-2.50712 -0.314498,-3.71844 -0.444195,-0.79284 -1.103672,-1.57147 -2.091916,-1.13324 3.029444,-1.75873 6.074516,-3.49081 9.088332,-5.27618 0.195745,-0.11596 -0.426829,0.16063 -0.629032,0.26492 -0.626484,0.32312 -1.254199,0.80955 -1.340638,1.54262 0.420979,1.50389 1.69134,2.42867 3.132938,2.89962 0,0 -9.291072,6.30391 -9.291072,6.30391 z"
     inkscape:connector-curvature="0" />
  <path
     style="fill:#000000;stroke-width:0.26458332"
     id="path4078"
     d="m 272.18214,104.41715 c -1.6588,0.75602 -3.24281,1.63132 -4.83195,2.51762 16.17321,-10.210804 9.48054,-5.54012 5.97285,-2.99016 -1.25262,0.83902 -2.42148,1.68216 -3.32619,2.90039 -0.79116,1.05768 -1.71863,2.02187 -2.35593,3.18373 -0.59186,1.08363 -1.00186,2.18979 -1.20408,3.40655 -0.16163,1.33739 -0.24596,2.68028 -0.004,4.00954 0.32705,0.91838 0.83139,1.79171 1.67911,2.30534 0.92982,0.91345 2.07347,1.53902 3.10587,2.31549 1.10955,0.80314 2.32768,1.40746 3.54592,2.02244 1.16335,0.36255 2.24117,0.90556 3.43963,1.15885 1.30964,0.14051 2.68958,0.39625 3.98331,0.0776 0.20062,-0.0503 0.41144,-0.07 0.60184,-0.15078 0.34552,-0.14656 1.29956,-0.75164 0.97405,-0.5648 -15.14191,8.69139 -11.53029,6.85662 -8.30389,4.63504 1.07273,-0.86136 1.74952,-2.03119 2.46434,-3.17689 0.64428,-0.98078 1.27961,-1.96474 1.85945,-2.98592 0.47495,-1.00828 1.0704,-1.95859 1.80584,-2.79634 0.67969,-0.97404 1.38991,-1.92616 2.16742,-2.82747 0.78203,-1.01962 1.61233,-2.02407 2.1909,-3.17631 0.56418,-1.10605 0.97379,-2.22668 1.17533,-3.4518 0.17702,-1.43558 0.17295,-2.88532 0.17976,-4.32939 -0.0819,-1.37666 0.28788,-2.70964 0.49861,-4.05716 0.18421,-1.26705 0.22913,-1.74459 -1.07506,-2.01977 -1.35641,-0.18425 -2.73088,-0.15607 -4.09659,-0.15153 -1.5483,-0.03 -2.78639,-0.0452 -4.29018,0.33502 -1.30877,0.28963 -2.69306,0.51839 -3.90161,1.11552 -0.57325,0.3597 -1.27301,0.37027 -1.88994,0.58629 -0.57805,0.20241 -1.08698,0.49609 -1.68712,0.66811 -1.11214,0.63544 -2.21859,1.29105 -3.38257,1.83302 -1.38094,0.86414 -2.91202,1.40637 -4.38353,2.07934 -0.25563,0.0963 -0.51125,0.19258 -0.76688,0.28887 0,0 8.78883,-6.91111 8.78883,-6.91111 v 0 c 0.24802,-0.10514 0.49603,-0.21027 0.74405,-0.315414 1.49624,-0.62335 2.92595,-1.37878 4.35685,-2.1386 1.1393,-0.62316 2.27199,-1.29643 3.50183,-1.72299 1.17111,-0.45739 2.37452,-0.80688 3.54018,-1.28094 1.3291,-0.37176 2.65388,-0.75008 4.01871,-0.97199 1.45782,-0.22275 2.93766,-0.11012 4.40784,-0.14093 1.45761,0.0134 2.95222,-0.0114 4.35127,0.4542 1.38247,0.6796 2.08504,1.76092 1.81922,3.34101 -0.15723,1.32115 -0.56014,2.604444 -0.58013,3.930164 -1.2e-4,1.48399 0.008,2.97036 -0.10216,4.45122 -0.13085,1.2934 -0.3218,2.59217 -1.04789,3.70499 -0.42598,1.31843 -1.22726,2.37363 -2.05546,3.46704 -0.69684,0.95769 -1.62344,1.75823 -2.15063,2.8262 -0.63031,0.86411 -1.43524,1.58002 -1.92127,2.55519 -0.42613,1.11311 -1.10726,2.15158 -1.83361,3.08793 -0.66929,1.22232 -1.35668,2.4443 -2.30847,3.47477 -0.37625,0.44602 -0.31456,0.45051 -0.8161,0.74474 -3.23969,1.90062 -7.43537,5.71498 -11.84484,6.28832 -1.41849,0.0108 -2.84942,-0.0667 -4.23055,-0.413 -1.2225,-0.36942 -2.40881,-0.87031 -3.57925,-1.37584 -1.23834,-0.67368 -2.50296,-1.29997 -3.62623,-2.16354 -1.06536,-0.74273 -2.15447,-1.44911 -3.13565,-2.3056 -0.96986,-0.81092 -1.66022,-1.83904 -2.08224,-3.03481 -0.30092,-1.43906 -0.2973,-2.87266 -0.15588,-4.33685 0.13038,-1.2899 0.31794,-2.58792 1.06357,-3.68647 0.46355,-1.3421 1.34258,-2.37196 2.25307,-3.44107 0.96234,-1.19755 1.7111,-2.53905 3.23336,-3.14238 3.8144,-3.43132 9.16475,-5.24308 13.10813,-8.209634 1.60764,-0.91036 3.28479,-1.712 5.00566,-2.3834 0,0 -8.86647,6.888324 -8.86647,6.888324 z"
     inkscape:connector-curvature="0" />
  <path
     style="fill:#000000;stroke-width:0.26458332"
     id="path4084"
     d="m 274.24588,110.77929 c -1.04013,-1.48492 -2.10497,-2.94957 -3.09708,-4.46966 -0.3813,-0.41172 -0.82309,-2.14822 -1.45799,-2.13686 8.62016,-5.724214 8.57078,-8.635944 10.9903,-3.44119 0.54945,0.98907 1.10622,1.9837 1.55761,3.02274 0.45834,1.10469 0.78803,2.2561 1.20416,3.37481 0.2857,0.7394 0.1485,0.35954 0.4096,1.14031 0,0 -9.83323,5.40832 -9.83323,5.40832 v 0 c -0.23264,-0.72941 -0.10465,-0.36591 -0.3849,-1.09017 -0.43006,-1.09682 -0.72266,-2.25029 -1.18428,-3.3371 -0.43327,-1.03447 -1.00577,-2.01013 -1.5457,-2.99113 -2.36684,-5.15243 -4.16523,-0.82409 8.3305,-8.185774 0.59305,0.82043 1.13251,1.67956 1.57454,2.596964 0.95054,1.50339 1.94112,2.97419 3.07287,4.34924 0,0 -9.6364,5.7595 -9.6364,5.7595 z"
     inkscape:connector-curvature="0" />
  <path
     style="fill:#44aa00;stroke-width:0.75595242"
     d="m 121.20495,171.39598 c -20.92139,-2.70036 -29.123949,-5.14877 -38.837457,-11.59276 -9.277258,-6.15457 -23.833258,-21.96751 -29.216303,-31.73918 -0.95653,-1.73636 -2.846205,-6.21863 -4.199279,-9.96059 -2.29026,-6.33379 -2.482848,-7.61848 -2.789103,-18.605242 C 45.651284,81.147523 47.993561,72.812635 57.079659,60.65107 74.492103,37.344856 104.51144,21.689526 152.57697,10.84843 170.76771,6.7455447 175.42718,6.3296356 197.17817,6.8672689 207.7804,7.1293307 217.93021,7.5654355 219.7333,7.83639 l 3.27834,0.4926436 -2.14441,1.8190364 c -1.69855,1.440823 -1.83007,1.738916 -0.63252,1.43369 19.03633,-4.8519104 20.47552,-4.930071 29.62522,-1.6089125 8.66718,3.1460205 16.93948,9.0715415 26.95232,19.3061985 11.6891,11.948038 19.78256,23.939841 28.57146,42.333333 l 6.32124,13.229166 v 9.827382 c 0,9.792323 -0.009,9.844893 -2.64583,14.736123 -3.5157,6.5226 -11.44742,14.75734 -19.51623,20.26185 -7.08498,4.83333 -34.94064,21.29849 -42.42108,25.0746 -2.52257,1.27339 -4.5865,1.99649 -4.5865,1.60688 0,-0.38961 1.87927,-2.31389 4.17616,-4.27619 2.29689,-1.96229 4.0601,-3.68388 3.91823,-3.82573 -0.14185,-0.14186 -2.60335,0.67195 -5.46998,1.80846 -5.20064,2.06185 -13.9637,9.02783 -13.9637,11.10009 0,1.81915 -19.54617,6.94122 -36.8031,9.64424 -14.77346,2.31403 -57.20275,2.65997 -73.18797,0.59673 z M 91.72281,146.34269 c 2.878232,-0.78049 4.906674,-2.11455 8.50446,-5.59319 l 4.72471,-4.56823 v -4.59812 c 0,-3.19687 -0.5474,-5.83624 -1.79624,-8.66094 -3.349032,-7.57499 -4.376598,-11.31654 -3.423375,-12.4651 0.568245,-0.6847 0.594035,-1.04711 0.0745,-1.04711 -0.436985,0 -1.286725,-0.49221 -1.88831,-1.0938 -0.954422,-0.95442 -1.724743,-0.87332 -6.045535,0.63649 -5.541947,1.93651 -14.929189,7.20341 -18.122986,10.16828 -2.575615,2.39099 -4.964146,9.73076 -5.561139,17.08896 -0.390469,4.81267 -0.268004,5.50089 1.266063,7.11496 3.145024,3.30905 7.349414,4.69593 13.19642,4.35306 2.910416,-0.17067 6.992559,-0.77153 9.071428,-1.33526 z m 69.22192,-13.14668 c 8.41251,-4.26294 13.04203,-10.92968 13.89278,-20.00625 0.41185,-4.39403 0.22949,-5.39338 -1.72429,-9.44941 -2.35895,-4.897161 -8.01321,-10.983265 -11.93128,-12.842508 -4.95007,-2.348963 -6.38943,-2.199124 -11.06181,1.151514 -4.73599,3.39625 -5.35048,4.509452 -2.48923,4.509452 1.69157,0 1.51265,0.32075 -2.00298,3.590772 -5.24264,4.87638 -7.41916,9.88719 -7.39744,17.03048 0.0256,8.40197 2.68215,12.99556 9.47586,16.38497 4.15815,2.07451 8.66417,1.94891 13.23839,-0.36902 z m 119.44015,-4.01726 c 3.99167,-2.38907 5.70968,-4.11398 9.59984,-9.63839 6.28642,-8.92734 7.4962,-11.71899 7.93073,-18.30066 0.49154,-7.445152 -0.029,-7.934171 -8.07051,-7.581489 -5.24083,0.229846 -7.01912,0.697282 -12.49805,3.28518 -5.93189,2.801853 -14.77884,8.830969 -14.77884,10.071649 0,0.29731 -0.80636,1.38303 -1.79192,2.4127 -3.41089,3.56359 -4.62793,6.26709 -4.63085,10.2869 -0.002,3.36927 0.31514,4.18993 2.41666,6.24455 3.5798,3.49992 9.35701,6.12938 13.4669,6.12938 2.70788,0 4.58849,-0.65489 8.35604,-2.90982 z m -55.92825,-0.90268 c 7.05449,-3.59894 10.5041,-8.50289 10.51494,-14.94801 0.005,-2.58544 -8.87748,-21.846894 -10.81581,-23.455569 -1.08004,-0.896355 -9.71526,-2.345176 -14.12642,-2.370137 -1.91257,-0.01082 -3.90289,0.875432 -7.18155,3.197823 -4.15064,2.94005 -4.37074,3.231991 -2.59266,3.438887 l 1.94304,0.226097 -0.34041,12.439419 -0.34041,12.43942 2.00272,3.02631 c 1.1015,1.66448 3.40792,4.04424 5.12538,5.28836 2.69229,1.95029 3.78838,2.26204 7.95304,2.26204 3.37268,0 5.74409,-0.46613 7.85814,-1.54464 z M 120.67247,80.30215 c 13.28197,-6.648974 18.00529,-13.359548 17.42946,-24.762621 -0.23979,-4.748371 -0.67288,-6.194878 -3.04908,-10.183826 -2.48187,-4.166338 -2.64512,-4.752078 -1.57131,-5.638294 1.04601,-0.863278 0.87045,-1.042109 -1.38141,-1.407195 -2.78918,-0.452202 -6.9151,1.267574 -16.9428,7.062124 -7.14163,4.126833 -11.19789,7.537068 -15.289489,12.854405 -6.210956,8.071604 -8.138039,17.159957 -4.528389,21.356425 2.089004,2.428614 7.454108,4.002861 13.882408,4.07343 4.05319,0.04452 5.51824,-0.384696 11.45061,-3.354448 z m 139.16711,1.557459 c 8.21992,-4.165351 10.66597,-7.805142 10.66597,-15.871309 0,-5.672034 -3.71991,-20.795334 -6.41912,-26.096952 -2.83226,-5.562938 -4.73242,-6.830967 -14.14464,-9.43911 l -4.31078,-1.194528 -4.90768,2.420085 c -6.70207,3.304943 -8.12241,6.433336 -8.59448,18.92998 -0.41423,10.965206 0.73276,15.177021 6.19766,22.758172 7.13314,9.895401 13.6609,12.472654 21.51307,8.493662 z M 203.48043,45.646544 c 8.01138,-4.768305 10.31488,-8.451257 10.32447,-16.507272 0.005,-4.610963 -0.83129,-6.666706 -4.25721,-10.458783 -4.67948,-5.179624 -7.68422,-6.28577 -15.90647,-5.855693 -6.85234,0.358424 -7.10029,0.437677 -11.37246,3.635071 -2.40205,1.797762 -4.53747,3.47789 -4.74536,3.733615 -0.20788,0.255725 -1.48868,1.240787 -2.84622,2.189025 -3.14661,2.197899 -4.56196,4.965298 -5.16542,10.099807 -0.76622,6.51936 1.95167,10.522265 9.52355,14.026255 4.10543,1.899844 14.3335,3.379907 17.76488,2.570687 0.83155,-0.196104 3.83766,-1.740826 6.68024,-3.432712 z"
     id="path4086"
     inkscape:connector-curvature="0" />
  <path
     style="fill:#ffffff;stroke-width:2.02030516"
     d="m 803.24743,432.49215 c -0.77534,-0.77534 -1.4097,-16.77674 -1.4097,-35.55868 v -34.14899 l 4.54569,0.64559 c 3.65169,0.51863 7.54266,6.70488 19.7844,31.45525 l 15.23873,30.80965 h -6.33134 c -5.65941,0 -18.72256,3.29956 -27.2821,6.89105 -1.72479,0.72371 -3.77035,0.68146 -4.54568,-0.0939 z"
     id="path374"
     inkscape:connector-curvature="0"
     transform="scale(0.26458333)" />
  <path
     style="fill:#ffffff;stroke-width:2.02030516"
     d="m 1041.7744,469.10375 c -7.9652,-2.92581 -23.8545,-13.19464 -30.136,-19.47622 -7.576,-7.57594 -2.8043,-33.22966 7.9613,-42.8017 4.0997,-3.64518 4.2363,-3.60623 7.0863,2.02031 1.5982,3.15543 4.0236,9.19633 5.3897,13.42421 1.366,4.22788 3.5331,7.40986 4.8158,7.07107 1.2826,-0.3388 9.7785,-4.62615 18.8796,-9.52746 l 16.5475,-8.91147 -0.2566,-8.26112 c -0.1534,-4.93602 -2.1562,-11.10724 -4.9759,-15.3322 l -4.7193,-7.07106 5.415,-0.67006 c 2.9782,-0.36854 8.4266,-0.10507 12.1075,0.58547 l 6.6926,1.25554 -1.2176,19.61757 c -1.4184,22.85159 -3.4514,28.72546 -15.3698,44.40894 -4.8376,6.36577 -10.8595,14.98339 -13.3821,19.15027 -5.1383,8.48778 -4.5325,8.30334 -14.838,4.51791 z"
     id="path376"
     inkscape:connector-curvature="0"
     transform="scale(0.26458333)" />
  <path
     style="fill:#ffffff;stroke-width:2.02030516"
     d="m 967.50275,283.35652 c -3.88909,-2.59599 -10.47391,-8.25636 -14.63293,-12.5786 l -7.56187,-7.85862 15.11364,-9.88698 c 8.31251,-5.43784 14.7479,-10.25272 14.30089,-10.69973 -0.44701,-0.44702 -2.67765,0.1853 -4.95697,1.40516 -3.60401,1.92881 -4.57071,1.39318 -7.41602,-4.10906 -2.35227,-4.54878 -2.65569,-6.9431 -1.07958,-8.51921 4.28228,-4.28228 1.34125,-19.75631 -3.21924,-16.93778 -1.00243,0.61954 -3.47464,-3.58239 -5.49379,-9.33761 -2.01916,-5.75523 -5.08503,-12.06272 -6.81306,-14.01665 -2.72516,-3.08141 -3.7012,-3.18855 -7.35899,-0.80774 -2.31941,1.50968 -8.67639,4.71053 -14.12661,7.11301 l -9.90948,4.36813 1.26514,-24.96218 c 0.69583,-13.7292 1.86111,-26.51523 2.5895,-28.4134 1.69026,-4.40473 10.08351,-2.8627 23.42629,4.30393 13.0178,6.99207 21.06982,22.92226 31.73683,62.7884 7.18569,26.85533 8.27838,33.72199 8.27838,52.02285 0,23.85801 -0.94481,24.93537 -14.14213,16.12608 z"
     id="path378"
     inkscape:connector-curvature="0"
     transform="scale(0.26458333)" />
  <path
     style="fill:#ffffff;stroke-width:2.02030516"
     d="m 716.14184,151.63211 c -18.1296,-7.59811 -28.486,-15.59054 -33.4267,-25.79667 -4.02419,-8.31287 -4.17484,-10.01061 -1.93068,-21.75867 2.7463,-14.376739 4.60639,-18.853413 10.54112,-25.3692 6.03387,-6.624639 28.57697,-6.475523 42.83193,0.283321 9.77396,4.634225 28.42077,21.434959 23.79024,21.434959 -3.11759,0 -11.13905,17.56045 -17.76501,38.89087 -6.23079,20.05825 -5.9316,19.90499 -24.0409,12.31539 z"
     id="path380"
     inkscape:connector-curvature="0"
     transform="scale(0.26458333)" />
  <path
     style="fill:#ffffff;stroke-width:2.02030516"
     d="m 422.02037,287.46101 c -17.97997,-3.97972 -28.28427,-10.69537 -28.28427,-18.43379 0,-3.25018 1.55961,-4.90348 5.55584,-5.8896 3.05571,-0.75404 12.06136,-6.33805 20.01256,-12.40893 14.69759,-11.22186 17.61052,-15.46744 27.05889,-39.43814 4.07617,-10.34133 3.90028,-11.05092 -1.96167,-7.9137 -2.79312,1.49484 -4.60052,0.80458 -7.93504,-3.03045 -2.37493,-2.73142 -3.64222,-4.98013 -2.81619,-4.99715 0.82602,-0.017 0.37227,-0.7483 -1.00836,-1.62509 -4.03393,-2.56181 11.53154,-16.44153 19.97502,-17.81172 6.82607,-1.10772 7.31157,-0.73924 15.39923,11.68737 13.60552,20.90472 15.23697,26.38084 14.13991,47.46224 -0.79657,15.30696 -2.0285,20.66781 -7.19621,31.31473 -7.16881,14.76975 -9.80236,18.34047 -15.93632,21.60744 -5.5214,2.94072 -22.43411,2.70158 -37.00339,-0.52321 z"
     id="path382"
     inkscape:connector-curvature="0"
     transform="scale(0.26458333)" />
  <path
     style="fill:#ffffff;stroke-width:2.02030516"
     d="m 313.09748,526.47803 c -7.18542,-3.5906 -13.5055,-8.29444 -14.71702,-10.95344 -2.47389,-5.4296 -0.27911,-35.28138 2.59398,-35.28138 1.01636,0 1.84793,2.66247 1.84793,5.9166 0,8.82355 5.1573,12.91937 14.66229,11.64448 7.65588,-1.02687 7.77915,-0.94763 4.37585,2.81297 -3.87233,4.27888 -2.63177,4.96246 3.2719,1.80291 2.8006,-1.49883 5.88502,-1.22128 11.22559,1.01016 4.05016,1.69226 10.46619,3.07684 14.25785,3.07684 h 6.89393 l -1.24268,10.60661 c -1.89583,16.18142 -1.3371,15.65736 -16.69314,15.65736 -11.49703,0 -16.04712,-1.0815 -26.47648,-6.29311 z"
     id="path384"
     inkscape:connector-curvature="0"
     transform="scale(0.26458333)" />
  <path
     style="fill:#ffffff;stroke-width:2.02030516"
     d="m 593.7463,479.08474 c -6.11142,-2.83652 -13.58006,-7.51249 -16.59697,-10.39104 l -5.4853,-5.23373 9.80787,-4.54405 c 14.97088,-6.93611 26.41654,-18.16222 26.41654,-25.90981 0,-7.48949 -5.83291,-19.03964 -15.69007,-31.06901 l -7.07466,-8.63369 -8.97929,5.26221 c -4.93861,2.89422 -9.36659,4.87492 -9.83995,4.40156 -1.46297,-1.46296 3.63171,-14.2608 8.82578,-22.17039 3.95648,-6.02496 5.63801,-7.14891 8.44663,-5.64579 7.76124,4.15369 26.34517,26.93985 32.50091,39.85006 l 6.54393,13.72437 -2.3544,19.03205 c -2.24789,18.17112 -8.24991,34.24279 -13.38903,35.85197 -1.11117,0.34793 -7.02056,-1.68819 -13.13199,-4.52471 z"
     id="path386"
     inkscape:connector-curvature="0"
     transform="scale(0.26458333)" />
</svg>
