<?xml version="1.0" encoding="UTF-8" standalone="no"?>
<!-- Created with Inkscape (http://www.inkscape.org/) -->

<svg
   xmlns:dc="http://purl.org/dc/elements/1.1/"
   xmlns:cc="http://creativecommons.org/ns#"
   xmlns:rdf="http://www.w3.org/1999/02/22-rdf-syntax-ns#"
   xmlns:svg="http://www.w3.org/2000/svg"
   xmlns="http://www.w3.org/2000/svg"
   xmlns:sodipodi="http://sodipodi.sourceforge.net/DTD/sodipodi-0.dtd"
   xmlns:inkscape="http://www.inkscape.org/namespaces/inkscape"
   width="539.63556mm"
   height="265.14182mm"
   viewBox="0 0 539.63556 265.14182"
   version="1.1"
   id="svg4094"
   inkscape:version="0.92.4 (5da689c313, 2019-01-14)"
   sodipodi:docname="goa_lumi.svg"
   inkscape:export-filename="C:\Users\Phil2\goa_lumi.svg.png"
   inkscape:export-xdpi="96"
   inkscape:export-ydpi="96">
  <defs
     id="defs4088" />
  <sodipodi:namedview
     id="base"
     pagecolor="#ffffff"
     bordercolor="#666666"
     borderopacity="1.0"
     inkscape:pageopacity="0.0"
     inkscape:pageshadow="2"
     inkscape:zoom="0.7"
     inkscape:cx="985.71815"
     inkscape:cy="488.77582"
     inkscape:document-units="mm"
     inkscape:current-layer="layer1"
     showgrid="false"
     inkscape:window-width="1366"
     inkscape:window-height="706"
     inkscape:window-x="-8"
     inkscape:window-y="-8"
     inkscape:window-maximized="1"
     fit-margin-top="0"
     fit-margin-left="0"
     fit-margin-right="0"
     fit-margin-bottom="0" />
  <metadata
     id="metadata4091">
    <rdf:RDF>
      <cc:Work
         rdf:about="">
        <dc:format>image/svg+xml</dc:format>
        <dc:type
           rdf:resource="http://purl.org/dc/dcmitype/StillImage" />
        <dc:title />
      </cc:Work>
    </rdf:RDF>
  </metadata>
  <g
     inkscape:label="Calque 1"
     inkscape:groupmode="layer"
     id="layer1"
     transform="translate(168.19834,-13.232874)">
    <path
       style="fill:#000000;stroke-width:0.26458332"
       id="path4104"
       d="m 104.51407,19.38368 c -1.64344,1.68735 -3.38062,3.270927 -5.11755,4.859207 -1.298509,1.148995 -2.48017,2.417887 -3.60951,3.73113 -1.049628,1.320996 -2.295858,2.463226 -3.426441,3.712416 -0.994881,1.052148 -1.933615,2.152508 -2.883432,3.244885 -1.464371,1.541907 -2.800059,3.195386 -4.190211,4.802534 -1.555454,1.753785 -3.131307,3.487772 -4.531326,5.369494 -1.26787,1.597697 -2.568821,3.168303 -3.813876,4.783973 -1.311833,1.737635 -2.515584,3.552775 -3.743513,5.349865 -1.45361,2.132115 -2.856558,4.298201 -4.333213,6.41455 -1.209651,1.814451 -2.325984,3.696332 -3.415483,5.58597 -0.975611,1.51333 -1.75043,3.132469 -2.531766,4.750525 -0.964721,2.044182 -2.078439,4.010893 -2.997837,6.076268 -0.981808,2.383692 -2.160482,4.672896 -3.047879,7.095074 -0.849937,2.26641 -1.462958,4.609354 -2.196951,6.913295 -0.679059,2.145025 -1.463043,4.253484 -2.164988,6.390897 -0.761862,2.533587 -1.593014,5.044497 -2.407729,7.561107 -0.801116,2.1629 -1.277822,4.42256 -1.973239,6.6165 -0.571958,1.69978 -1.022165,3.43596 -1.582526,5.13887 -0.643086,1.93973 -1.199205,3.91303 -1.677498,5.90005 -0.562742,1.88378 -0.888407,3.82193 -1.350761,5.72975 -0.379228,1.78525 -0.638173,3.58952 -0.99853,5.37963 -0.414057,1.53542 -0.841258,3.05591 -1.064257,4.63297 -0.173974,1.48352 -0.181888,2.97933 -0.191744,4.47093 -0.161578,1.68277 -0.458099,3.34518 -0.603864,5.03157 -0.121279,1.59187 -0.137038,3.18893 -0.147211,4.78456 -0.01521,1.69923 -0.01275,3.39847 -0.0074,5.09775 -0.01262,1.78586 -0.0019,3.57179 0.0035,5.35767 0.0047,1.55887 0.006,3.11776 0.0067,4.67664 5.29e-4,1.5106 5.29e-4,3.02119 2.65e-4,4.53179 -4.5e-5,1.51108 -6.9e-5,3.02217 -8.2e-5,4.53326 -1.1e-5,1.51187 -1.1e-5,3.02375 -1.1e-5,4.53562 0.18737,1.65309 0.440198,3.29675 0.588007,4.95568 0.01955,1.80138 0.327517,3.56987 0.581671,5.34755 0.226438,1.59367 0.292317,3.20249 0.329142,4.8097 -0.107292,1.36328 0.197776,2.67115 0.436927,3.99949 0.185457,1.25519 0.615834,2.44762 0.836525,3.6987 0.103651,1.45874 0.426313,2.88227 0.668068,4.32099 0.149625,1.52065 0.344003,3.02193 0.62651,4.52371 0.279439,1.50459 0.32872,3.03152 0.612195,4.53469 0.245459,1.51501 0.587423,3.01223 1.031536,4.48135 0.486199,1.54185 1.045734,3.05862 1.55456,4.5954 0.556882,1.69063 1.033446,3.40223 1.52827,5.11121 0.375788,1.45291 0.79565,2.8842 1.233038,4.31907 0.410231,1.07246 0.967142,2.07467 1.414214,3.12933 0.512923,0.99739 1.064551,1.9798 1.509929,3.01006 0.53404,0.98194 0.999897,1.98985 1.562767,2.95745 0.508939,1.1543 1.111911,2.23764 1.794383,3.29533 0.478507,1.03708 1.253805,1.88014 1.804932,2.8715 0.523629,0.91803 1.23639,1.68514 1.893689,2.50215 0.80668,0.8217 1.531342,1.71159 2.404215,2.46935 0.820047,0.88716 1.737188,1.66826 2.64051,2.47034 1.135076,0.93633 2.233264,1.9234 3.386476,2.8379 1.124755,0.5912 2.160413,1.34457 3.332679,1.83925 1.016259,0.56116 2.025504,1.18177 3.117392,1.58732 1.055651,0.66752 2.117336,1.26119 3.328405,1.58657 1.168885,0.42842 2.263593,1.02823 3.437883,1.43566 1.21223,0.60108 2.524982,0.89752 3.789973,1.36305 1.33082,0.28721 2.63756,0.65662 3.970261,0.94359 1.457632,0.27797 2.944217,0.31726 4.423328,0.34655 1.510035,0.0185 3.020237,0.0111 4.530341,0.008 1.512377,-0.003 3.024747,-0.004 4.537127,-0.005 1.51197,0 3.02393,0 4.53589,0 1.5119,3e-5 3.02381,6e-5 4.53571,6e-5 1.6895,-0.37558 3.32529,-0.96274 4.96255,-1.52017 1.50745,-0.8055 3.2033,-1.03089 4.71752,-1.80483 1.54221,-0.58256 3.02274,-1.30421 4.54204,-1.9405 1.53994,-0.54486 3.06677,-1.16044 4.51943,-1.91162 0.25488,-0.11015 0.51463,-0.20966 0.76465,-0.33045 1.01401,-0.48992 0.45692,-0.3212 1.50638,-0.73838 0.74133,-0.29469 1.48379,-0.43871 2.20639,-0.78042 1.25913,-0.53885 2.48534,-1.11739 3.72235,-1.69804 1.29259,-0.72041 2.5914,-1.44649 3.93808,-2.06573 8.15178,-5.05857 -32.01594,18.85812 2.19501,-1.29002 2.91677,-1.71779 -5.85959,3.39105 -8.799,5.06981 -0.53347,0.30467 1.03191,-0.66738 1.53578,-1.01883 1.47289,-1.05516 2.83016,-2.23585 4.11587,-3.50873 1.09038,-1.14821 2.10961,-2.35603 2.98888,-3.6732 0.87302,-1.37388 1.60225,-2.8319 2.33725,-4.2823 0.78069,-1.34463 1.16144,-2.81554 1.36104,-4.34232 0.20225,-1.52448 0.69753,-2.98679 1.1348,-4.45482 0.53456,-1.76679 0.97589,-3.56045 1.44007,-5.34704 0.55648,-1.60406 0.86206,-3.27362 1.32297,-4.9034 0.36414,-1.53157 0.82521,-3.04187 1.14007,-4.58465 0.42744,-1.62375 0.71775,-3.27283 1.03267,-4.91989 0.39557,-1.82104 0.87875,-3.61999 1.21129,-5.45412 0.38184,-1.68951 0.78086,-3.36834 0.99164,-5.08936 0.28999,-1.51038 0.54045,-3.02787 0.81543,-4.54105 0.47356,-1.45237 0.60534,-2.96955 0.83087,-4.47015 0.41748,-1.70692 0.53025,-3.45975 0.76623,-5.1942 0.31858,-1.55363 0.55553,-3.11682 0.68004,-4.69759 0.0835,-1.68662 0.44038,-3.34163 0.6326,-5.01801 0.15779,-1.64852 0.15225,-3.29807 0.40561,-4.93629 0.29132,-1.67769 0.43545,-3.37339 0.51635,-5.07256 0.0584,-1.53201 0.057,-3.06543 0.0579,-4.59831 -10e-4,-1.51045 -0.003,-3.02089 -0.004,-4.53134 -0.001,-1.51149 -0.001,-3.02299 -0.001,-4.53448 -5e-5,-1.5119 -2e-5,-3.0238 -1e-5,-4.5357 0.008,-1.90885 0.0257,-3.8177 0.0281,-5.72656 -0.004,-1.84831 -0.0161,-3.69658 -0.0224,-5.54488 -0.005,-1.5387 -0.005,-3.07741 -0.006,-4.61612 -2.1e-4,-1.50835 -7e-5,-3.01669 0,-4.52503 0.12796,-1.3597 -0.17941,-2.6629 -0.41919,-3.98733 -0.16209,-1.53828 -0.3625,-3.06072 -0.61706,-4.58743 -0.27245,-1.62897 -0.32042,-3.27761 -0.61806,-4.90189 -0.30379,-1.64892 -0.35907,-3.32382 -0.72993,-4.9594 -0.39675,-1.33663 -0.40551,-2.73903 -0.64544,-4.10031 -0.33138,-1.31778 -0.54301,-2.65815 -0.82491,-3.98661 -0.29213,-1.5238 -0.84472,-2.97083 -1.14212,-4.49556 -0.33531,-1.59042 -0.87344,-3.12441 -1.36915,-4.67044 -0.43148,-1.51018 -0.97321,-2.982402 -1.55252,-4.44169 -0.5407,-1.330571 -0.82617,-2.74052 -1.39709,-4.059402 -0.61038,-1.284502 -1.03047,-2.650799 -1.60975,-3.94635 -0.43698,-1.188882 -1.06084,-2.284857 -1.63828,-3.407833 -0.51732,-1.313313 -1.12661,-2.573772 -1.8381,-3.791876 -0.67253,-1.301145 -1.29752,-2.626884 -1.99197,-3.918001 -0.88625,-1.76281 -1.88551,-3.465351 -2.88976,-5.162727 -0.84847,-1.466453 -1.55541,-3.025381 -2.59342,-4.371845 -0.88765,-1.136587 -1.59168,-2.390855 -2.30474,-3.639304 -0.78269,-1.362811 -1.74865,-2.603265 -2.56836,-3.942453 -0.5831,-1.37064 -1.62532,-2.443742 -2.38178,-3.710173 -0.62945,-1.066043 -1.43829,-1.989077 -2.20624,-2.950287 -0.56145,-0.986493 -1.33987,-1.814359 -1.8961,-2.801318 -0.64646,-1.045041 -1.35949,-2.048788 -2.0154,-3.09241 -0.86199,-1.330481 -1.91334,-2.520402 -2.86664,-3.785259 -0.99369,-1.354346 -2.07423,-2.645315 -2.97943,-4.062886 -0.87902,-1.139542 -1.62919,-2.374821 -2.5315,-3.495617 -0.86705,-1.010742 -1.60962,-2.121858 -2.43831,-3.162125 -0.68077,-0.919171 -1.40321,-1.833838 -2.24579,-2.611734 -0.75256,-0.820261 -1.56414,-1.569855 -2.2851,-2.4219 -0.84237,-0.850721 -1.7547,-1.633168 -2.56688,-2.513116 -0.8826,-0.719516 -1.88837,-1.258991 -2.72644,-2.040474 -0.9818,-0.664541 -1.90288,-1.409824 -2.86398,-2.103997 -0.77886,-0.796894 -1.76829,-1.323943 -2.67992,-1.955371 -1.092325,-0.615379 -2.29243,-1.032082 -3.373489,-1.662439 -0.685638,-0.34121 -0.337232,-0.191774 -1.044368,-0.450289 0,0 9.332067,-6.23443 9.332067,-6.23443 v 0 c 0.75696,0.348479 0.38877,0.167068 1.10538,0.542559 1.15669,0.558158 2.32919,1.09526 3.43121,1.756642 0.94537,0.612441 1.89946,1.225025 2.7201,2.002182 0.95444,0.744689 1.95762,1.421662 2.89878,2.181618 0.90718,0.73676 1.96406,1.285968 2.7901,2.123723 0.84597,0.867897 1.7399,1.687715 2.58626,2.555554 0.72345,0.805497 1.51256,1.545103 2.24662,2.340326 0.83591,0.857332 1.61669,1.774095 2.30707,2.752704 0.80467,1.057796 1.59184,2.127607 2.42198,3.16597 0.89737,1.170379 1.72367,2.393135 2.58243,3.592173 0.88619,1.390264 1.93101,2.674779 2.91142,3.997862 0.98235,1.286944 2.07103,2.490119 2.96638,3.84098 0.66479,1.05918 1.37635,2.082692 2.04968,3.133688 0.52515,0.92936 1.27691,1.709203 1.80081,2.64309 0.80901,0.995053 1.59888,1.997908 2.25385,3.105078 0.75145,1.263092 1.82508,2.314279 2.3761,3.698595 0.82328,1.345975 1.77867,2.607172 2.5768,3.969721 0.70539,1.20545 1.40245,2.413479 2.25764,3.522213 1.00658,1.416028 1.75198,2.988955 2.5934,4.504875 1.00525,1.708666 2.02914,3.40955 2.93677,5.172736 0.71636,1.267823 1.35289,2.574928 1.99985,3.876937 0.73024,1.229342 1.3466,2.513243 1.8769,3.841099 0.59266,1.139886 1.24243,2.247016 1.66653,3.466021 0.57814,1.29903 1.00454,2.66456 1.60937,3.954692 0.58821,1.327251 0.90267,2.73176 1.40904,4.08795 0.61115,1.474375 1.11246,2.991287 1.55875,4.522579 0.53988,1.582118 1.06483,3.170629 1.47342,4.791739 0.25561,1.52279 0.79845,2.95662 1.10658,4.46506 0.31014,1.32945 0.54671,2.66504 0.86514,3.99286 0.29417,1.34412 0.23251,2.74707 0.61826,4.08042 0.37915,1.65366 0.44718,3.33324 0.7366,5.00371 0.31706,1.6349 0.40535,3.27818 0.6179,4.9289 0.2533,1.51884 0.54663,3.02034 0.64874,4.55947 0.23622,1.38666 0.62987,2.74637 0.49153,4.16944 6e-5,1.50834 2e-4,3.01669 -1e-5,4.52504 -5.3e-4,1.54064 -0.001,3.08128 -0.006,4.62192 -0.006,1.85592 -0.0181,3.71182 -0.0224,5.56775 0.002,1.89934 0.0203,3.79866 0.0281,5.69798 -2e-5,1.51188 -4e-5,3.02376 -1e-5,4.53564 6e-5,1.51125 1.2e-4,3.02251 0.001,4.53376 0.001,1.51082 0.003,3.02164 0.005,4.53245 2.3e-4,1.54873 0.003,3.09786 -0.0447,4.64603 -0.0689,1.73622 -0.19318,3.47073 -0.47301,5.1875 -0.24989,1.62672 -0.34929,3.24465 -0.42841,4.89083 -0.16844,1.66482 -0.48953,3.30974 -0.63301,4.97055 -0.0974,1.61586 -0.27615,3.22488 -0.64968,4.80328 -0.34733,1.71787 -0.29991,3.49961 -0.74869,5.20435 -0.32794,1.49402 -0.26781,3.06308 -0.77893,4.52167 -0.46265,1.42437 -0.41985,2.98429 -0.89973,4.41652 -0.17247,1.75233 -0.50044,3.47564 -0.99625,5.1672 -0.30194,1.84974 -0.75016,3.66142 -1.1544,5.48813 -0.41778,1.60994 -0.50577,3.30008 -1.06087,4.88303 -0.25495,1.59465 -0.74504,3.11124 -1.07476,4.68718 -0.49866,1.61648 -0.75927,3.27928 -1.35586,4.86682 -0.43733,1.81482 -0.96896,3.60492 -1.4371,5.41175 -0.44723,1.40415 -0.78241,2.82848 -1.18905,4.24595 -0.14715,1.63542 -0.41788,3.25713 -1.19726,4.72677 -0.78438,1.44751 -1.4659,2.94762 -2.28181,4.37891 -0.88834,1.37128 -1.81185,2.68605 -2.92463,3.88752 -1.27749,1.31464 -2.56259,2.59924 -4.0566,3.66858 -3.66672,2.87783 -7.42723,4.52768 -11.79035,7.09156 -2.92386,1.71815 11.74168,-6.79325 8.80394,-5.09894 -10.85802,6.26226 -6.74354,4.16141 -11.05146,6.34278 -1.32149,0.69514 -2.63974,1.39721 -3.96962,2.07557 -1.22509,0.59907 -2.50208,1.09847 -3.75768,1.63007 -1.52772,0.50374 -2.96936,1.18521 -4.41264,1.89299 -1.50119,0.66294 -3.01893,1.2822 -4.54612,1.88246 -1.49936,0.67948 -3.03109,1.28056 -4.53842,1.94149 -1.58301,0.59031 -3.21427,1.04677 -4.76746,1.7219 -1.68289,0.57121 -3.41696,1.17602 -5.20452,1.24384 -1.5119,-3e-5 -3.0238,-6e-5 -4.535689,-3e-5 -1.51184,3e-5 -3.02368,5e-5 -4.535517,0 -1.512144,0 -3.024288,0.003 -4.536429,0.006 -1.5171,0.003 -3.034615,0.008 -4.55123,-0.037 -1.528088,-0.0621 -3.060523,-0.16385 -4.552577,-0.52377 -1.359575,-0.3326 -2.741764,-0.59161 -4.065564,-1.04976 -1.267952,-0.46617 -2.587329,-0.7833 -3.809233,-1.37485 -1.121542,-0.4794 -2.231927,-0.98296 -3.383917,-1.38888 -1.195552,-0.43751 -2.277703,-1.07709 -3.404648,-1.66166 -1.062797,-0.5052 -2.098236,-1.06881 -3.131915,-1.63058 -1.196642,-0.62248 -2.369505,-1.3136 -3.482282,-2.07451 -1.123434,-0.96441 -2.252093,-1.92104 -3.392284,-2.86547 -0.929195,-0.78668 -1.82649,-1.60404 -2.668529,-2.48443 -0.875416,-0.82938 -1.685978,-1.71655 -2.50308,-2.60225 -0.714216,-0.85672 -1.428588,-1.70877 -1.991746,-2.6771 -0.537411,-0.96762 -1.309616,-1.79121 -1.763906,-2.8113 -0.687284,-1.07049 -1.286076,-2.17385 -1.80917,-3.33357 -0.605864,-1.00166 -1.084549,-2.05802 -1.644238,-3.08383 -0.432821,-1.03817 -1.007377,-2.01386 -1.513538,-3.01727 -0.44826,-1.09721 -1.040106,-2.12919 -1.458055,-3.24204 -0.41511,-1.44483 -0.851768,-2.87345 -1.199097,-4.33733 -0.511294,-1.68699 -0.908685,-3.40736 -1.521153,-5.06485 -0.534342,-1.53449 -1.019075,-3.0877 -1.563352,-4.61821 -0.491093,-1.49549 -0.843158,-3.0378 -1.095597,-4.59054 -0.304398,-1.50758 -0.404871,-3.02135 -0.616984,-4.54354 -0.278122,-1.51194 -0.560338,-3.00687 -0.641107,-4.54606 -0.222954,-1.43976 -0.611283,-2.8488 -0.68353,-4.30824 -0.19241,-1.25673 -0.633415,-2.43944 -0.832702,-3.68915 -0.234045,-1.38472 -0.624154,-2.74242 -0.497477,-4.16297 -0.02199,-1.57021 -0.05939,-3.14291 -0.250389,-4.70347 -0.232293,-1.79844 -0.605329,-3.58048 -0.609335,-5.40066 -0.125669,-1.68835 -0.352774,-3.35993 -0.649893,-5.02653 0,-1.51187 0,-3.02374 -1.1e-5,-4.53561 -1.3e-5,-1.51106 -3.7e-5,-3.02212 -7.4e-5,-4.53318 -2.7e-5,-1.51074 -1.11e-4,-3.02147 5.29e-4,-4.5322 7.94e-4,-1.56107 0.0021,-3.12215 0.0065,-4.68322 0.0049,-1.78596 0.01474,-3.57199 -0.0011,-5.35792 0.0021,-1.69923 -0.0027,-3.3984 -0.0092,-5.09757 0.008,-1.62319 0.02061,-3.24751 0.127216,-4.86785 0.123661,-1.65845 0.292553,-3.31367 0.621695,-4.94565 0.0035,-1.53081 0.0028,-3.06426 0.133815,-4.59069 0.172897,-1.60859 0.486357,-3.1892 1.043591,-4.71347 0.354788,-1.80976 0.73474,-3.60432 0.986308,-5.43291 0.485413,-1.90184 0.800659,-3.83854 1.375482,-5.71722 0.437835,-2.03042 1.031047,-4.02485 1.644277,-6.00835 0.581104,-1.68596 0.978985,-3.42239 1.539899,-5.11516 0.767498,-2.19463 1.298469,-4.45556 2.095275,-6.64417 0.734557,-2.53484 1.649978,-5.01644 2.363581,-7.56008 0.685323,-2.14014 1.424818,-4.258102 2.127662,-6.391332 0.831499,-2.287132 1.355797,-4.676243 2.253843,-6.942577 0.7938,-2.47615 1.958152,-4.772292 2.980243,-7.1565 0.866071,-2.081048 1.93076,-4.066003 2.931329,-6.083366 0.747287,-1.653381 1.472959,-3.341576 2.522889,-4.829151 1.039432,-1.963923 2.266098,-3.831661 3.420727,-5.727224 1.502225,-2.064247 2.891639,-4.206361 4.252928,-6.365538 1.272162,-1.798942 2.508367,-3.616283 3.774104,-5.420453 1.230675,-1.609016 2.467136,-3.21564 3.760063,-4.771935 1.50541,-1.831687 2.915012,-3.740676 4.571769,-5.450604 1.386126,-1.579132 2.652401,-3.256738 4.107249,-4.773568 0.970246,-1.088829 1.880545,-2.223376 2.865501,-3.29179 1.194276,-1.164465 2.267447,-2.458511 3.475765,-3.616168 1.03882,-1.419326 2.275314,-2.728545 3.590851,-3.891489 1.64759,-1.635536 3.523877,-3.03203 5.046641,-4.801167 0,0 10.360966,-4.291652 10.360966,-4.291652 z"
       inkscape:connector-curvature="0" />
    <path
       style="fill:#000000;stroke-width:0.26458332"
       id="path4108"
       d="m 22.782152,145.75681 c -2.065395,-0.63446 -4.189507,-1.0736 -6.251405,-1.72013 -2.24727,-0.58803 -4.428395,-1.39555 -6.6903365,-1.92698 -2.2490877,-0.32907 -4.4608199,-0.80875 -6.66482,-1.35872 -1.9410513,-0.57236 -3.953047,-0.89029 -5.8973545,-1.43871 -2.0078919,-0.34667 -3.9941848,-0.7738 -5.9938517,-1.16519 -1.6163243,-0.23406 -3.2193643,-0.34335 -4.8182303,-0.67652 -2.419724,-0.3266 -4.84258,-0.60063 -7.256732,-0.97995 -3.295147,-0.36256 -6.562613,-0.90074 -9.846544,-1.34049 -2.721748,-0.20448 -5.423472,-0.55577 -8.138258,-0.83072 -2.907123,-0.47504 -5.831173,-0.81608 -8.770398,-1.00337 -2.624219,-0.37882 -5.262377,-0.63349 -7.909494,-0.77317 -2.074555,-0.0978 -4.151637,-0.0887 -6.227828,-0.096 -2.489441,-0.31772 -4.989415,-0.52484 -7.49526,-0.65135 -2.493941,-0.11346 -4.990936,-0.10838 -7.486819,-0.11777 -2.183209,0.007 -4.366421,0.0108 -6.549631,0.0188 -1.789718,0.011 -3.579368,0.0128 -5.369073,0.002 -2.082046,-0.0159 -4.164176,-0.003 -6.246233,0.005 -1.608209,0.006 -3.216428,0.008 -4.824648,0.009 -1.781986,-0.008 -3.564006,-0.009 -5.346006,-0.0108 -1.90514,-0.004 -3.81025,-0.001 -5.71539,0.003 -1.60187,0.004 -3.20374,0.006 -4.80561,0.007 -1.69967,0.21076 -3.3311,0.68234 -4.99664,1.05825 -1.67339,0.20795 -3.30686,0.57522 -4.97014,0.84391 -1.83525,0.51274 -3.70957,0.8124 -5.55564,1.28227 -1.75341,0.44507 -3.49618,0.92682 -5.23451,1.43692 -1.45253,0.44742 -2.80701,1.03767 -4.32502,1.26988 -1.45319,0.43178 -2.82882,1.0267 -4.31498,1.35135 -1.51632,0.50319 -2.96002,1.14938 -4.52308,1.50462 -1.48476,0.24093 -2.90485,0.70822 -4.29875,1.25151 -1.28464,0.22864 -2.4773,0.70033 -3.73275,1.01739 -1.23608,0.17855 -2.46328,0.50993 -3.60954,1.01602 -1.33283,0.31423 -2.57907,0.85193 -3.89448,1.21558 -3.41292,1.83447 -7.68219,4.35546 8.11826,-4.677 0.68323,-0.39058 -0.37985,0.18162 -0.65319,0.44669 0.10241,0.7098 0.99749,1.14322 1.61009,1.39993 0.95866,0.55906 1.94005,1.1338 2.98729,1.51625 0.97918,0.63121 2.09741,0.94046 3.16676,1.37966 1.07883,0.47222 2.09385,0.92799 3.27148,1.11743 1.15754,0.44356 2.34072,0.71708 3.49861,1.15208 1.33095,0.29223 2.60177,0.77259 3.94527,1.02747 1.42374,0.45214 2.86527,0.7943 4.29748,1.20844 1.42395,0.21656 2.74376,0.78323 4.15313,1.06377 1.44926,0.0802 2.8418,0.40627 4.26406,0.66802 1.4772,0.24984 2.97683,0.29376 4.47132,0.32365 1.50952,0.0196 3.01922,0.0135 4.52882,0.0111 1.5121,-0.003 3.02421,-0.004 4.53631,-0.004 1.51195,-5.3e-4 3.0239,-5.3e-4 4.53586,-5.3e-4 1.68848,0.002 3.37698,0.004 5.06545,0.0117 1.80584,0.002 3.611685,-0.004 5.417527,-0.008 1.548352,-0.003 3.09671,-0.003 4.645064,-0.004 1.537386,0.001 3.074784,-0.004 4.612146,0.005 1.705692,0.005 3.411392,1.6e-4 5.117084,-0.002 1.543235,-0.002 3.08647,-0.003 4.629705,-0.003 1.510858,-2.1e-4 3.021716,-1.7e-4 4.532575,-1.5e-4 1.579835,-0.004 3.159632,0.004 4.739449,0.007 1.678154,5.3e-4 3.356306,-0.003 5.034457,-0.005 1.679766,-0.001 3.359484,0.006 5.039257,0.004 1.609947,-0.003 3.219892,-0.005 4.829839,-0.006 1.516631,-7.9e-4 3.03326,-7.9e-4 4.549891,-7.9e-4 1.510671,-1e-5 3.021344,2e-5 4.532016,3e-5 1.511753,2e-5 3.023505,2e-5 4.535258,2e-5 1.511914,0 3.02383,0 4.535744,0 1.511906,0 3.023814,0 4.535723,0 1.511903,0 3.023809,0 4.535715,0 1.511903,0 3.023808,0 4.535713,0 1.511905,0 3.023809,0 4.535714,0 1.507674,-0.0612 2.986736,-0.44335 4.494905,-0.60235 1.520216,-0.1363 3.047623,-0.14754 4.5727425,-0.15744 1.5132907,-0.005 3.0265925,-7.9e-4 4.5398851,0.001 1.5118019,0.002 3.0236051,0.002 4.53540803,0.003 1.53107347,0.15151 2.98436687,-0.16229 4.47939287,-0.41652 1.5277656,-0.16737 3.024918,-0.29175 4.5260694,-0.61607 1.5086161,-0.31881 3.0493451,-0.4044 4.5859681,-0.45646 1.46744,-0.13069 2.986962,0.17011 4.422706,-0.18494 1.293664,-0.37243 2.635756,-0.476 3.973288,-0.54558 1.487595,-0.0581 2.976692,-0.0541 4.465151,-0.0544 0.252052,2.3e-4 0.504104,5.3e-4 0.756157,8e-4 0,0 -9.054212,6.57886 -9.054212,6.57886 v 0 c -0.251692,5.3e-4 -0.503383,7.9e-4 -0.755076,0.001 -1.475877,0.007 -2.953662,0.0113 -4.426139,0.12356 -1.326366,0.12532 -2.626343,0.37678 -3.9371838,0.60541 -1.4886963,0.0539 -2.97977,0.0125 -4.4678734,0.096 -1.5078771,0.0916 -3.0087625,0.25675 -4.48546013,0.58688 -1.50627187,0.26809 -3.04113307,0.30084 -4.54535917,0.59177 -1.5247451,0.2534 -3.0458807,0.32871 -4.5920355,0.26763 -1.512007,-5.3e-4 -3.024014,-0.001 -4.53602,-0.003 -1.510512,-0.002 -3.021093,-0.006 -4.531544,0.0102 -1.502041,0.0248 -3.007065,0.0619 -4.498686,0.25612 -1.520328,0.21227 -3.031439,0.56784 -4.576522,0.49329 -1.511906,0 -3.02381,0 -4.535715,0 -1.511906,0 -3.023809,0 -4.535715,0 -1.511904,0 -3.023809,0 -4.535713,0 -1.511908,0 -3.023817,0 -4.535723,0 -1.511916,0 -3.02383,0 -4.535744,0 -1.511768,0 -3.023536,1e-5 -4.535302,2e-5 -1.510705,10e-6 -3.021407,4e-5 -4.532109,3e-5 -1.515827,-3e-5 -3.031654,-6e-5 -4.547481,-7.9e-4 -1.604745,-0.001 -3.209488,-0.003 -4.814231,-0.006 -1.683835,-0.002 -3.367611,0.006 -5.051435,0.004 -1.673495,-0.002 -3.346988,-0.006 -5.020485,-0.005 -1.58641,0.004 -3.172804,0.0113 -4.759235,0.007 -1.510721,1e-5 -3.021444,6e-5 -4.532167,-1.5e-4 -1.540608,-2.6e-4 -3.081216,-7.9e-4 -4.621821,-0.003 -1.703715,-0.002 -3.407442,-0.007 -5.111157,-0.002 -1.54201,0.009 -3.084056,0.004 -4.626086,0.005 -1.54489,-2.6e-4 -3.08979,-7.9e-4 -4.63468,-0.004 -1.79866,-0.004 -3.59733,-0.0102 -5.396,-0.008 -1.69916,0.008 -3.39835,0.01 -5.09752,0.0116 -1.51184,5e-5 -3.02368,9e-5 -4.53552,7.9e-4 -1.51198,0.001 -3.02395,0.003 -4.53593,0.005 -1.51632,7.9e-4 -3.03302,0.005 -4.54886,-0.039 -1.53288,-0.06 -3.06732,-0.16128 -4.57402,-0.46797 -1.42961,-0.28053 -2.87115,-0.42666 -4.30165,-0.695 -1.39654,-0.36453 -2.76372,-0.83144 -4.17922,-1.12561 -1.40866,-0.41954 -2.84455,-0.73686 -4.25808,-1.13974 -1.36215,-0.33485 -2.70809,-0.74797 -4.05266,-1.14163 -1.11199,-0.40195 -2.27136,-0.66578 -3.39806,-1.02233 -1.18722,-0.30297 -2.26317,-0.83754 -3.39912,-1.28408 -1.06393,-0.44738 -2.16819,-0.79134 -3.16801,-1.38265 -1.03546,-0.48402 -2.05127,-1.01511 -3.04095,-1.58655 -0.96419,-0.57237 -1.94647,-1.27357 -2.24891,-2.41199 -0.0851,-0.40381 -0.26714,-1.22095 0.21951,-1.51537 2.62916,-1.59061 7.24558,-4.94204 11.21198,-6.26866 1.27856,-0.45055 2.59227,-0.772 3.85991,-1.25547 1.21493,-0.36162 2.42704,-0.68847 3.66534,-0.95753 1.21747,-0.39213 2.47554,-0.61713 3.67099,-1.07882 1.41424,-0.50134 2.89455,-0.78684 4.34726,-1.15406 1.52071,-0.46964 2.98068,-1.12123 4.53151,-1.49766 1.45638,-0.43266 2.86188,-1.03751 4.363,-1.314 1.43634,-0.36374 2.78616,-0.98368 4.23194,-1.31974 1.74258,-0.50879 3.50242,-0.96272 5.26391,-1.4 1.85893,-0.44647 3.74648,-0.7656 5.60361,-1.22151 1.64496,-0.30989 3.29821,-0.5592 4.93697,-0.89834 1.69735,-0.41172 3.41262,-0.81571 5.16661,-0.86432 1.59532,10e-4 3.19064,0.003 4.78595,0.007 1.901927,0.005 3.803839,0.007 5.70577,0.004 1.791867,-0.001 3.583755,-0.003 5.375609,-0.0108 1.600289,0.001 3.200579,0.003 4.800861,0.009 2.077779,0.007 4.155631,0.0206 6.233398,0.004 1.789793,-0.0114 3.57954,-0.0109 5.369359,-0.003 2.169446,0.004 4.338886,0.001 6.508303,0.0171 2.513013,0.008 5.027787,0.0281 7.537863,0.15786 2.498182,0.17242 4.987361,0.45872 7.488184,0.57911 2.078884,0.006 4.159295,0.0391 6.234361,0.17277 2.642809,0.19214 5.269397,0.52339 7.904972,0.79169 2.93042,0.24665 5.835738,0.68801 8.752465,1.05428 2.722522,0.28089 5.447404,0.53657 8.164733,0.86113 3.264985,0.47063 6.51796,1.01765 9.798863,1.3789 2.4821376,0.31851 4.9828871,0.49167 7.450101,0.9133 1.593225,0.28906 3.220934,0.33082 4.80186743,0.70269 2.00462687,0.43489 4.02320027,0.78038 6.02798787,1.21209 1.9570401,0.46819 3.9105917,0.94446 5.8584497,1.45077 2.200214,0.54907 4.436311,0.89396 6.652295,1.36814 2.261516,0.59911 4.478726,1.35402 6.740228,1.95571 2.106305,0.60393 4.235005,1.12405 6.350235,1.69333 0,0 -9.291073,6.30391 -9.291073,6.30391 z"
       inkscape:connector-curvature="0" />
    <path
       style="fill:#000000;stroke-width:0.26458332"
       id="path4110"
       d="m 22.044393,154.39745 c -2.238929,-0.0855 -4.503627,0.11048 -6.690101,0.60024 -1.963702,0.44404 -3.956796,0.70627 -5.963643,0.83859 -1.5593814,0.31761 -3.1037112,0.60751 -4.637891,1.02191 -1.7827622,0.37675 -3.6012952,0.46444 -5.41640718,0.51994 -1.88720122,0.3389 -3.79285672,0.55526 -5.70459672,0.69061 -1.6833415,0.44804 -3.4044482,0.63318 -5.1364861,0.75455 -1.976966,-0.0277 -3.913273,0.26051 -5.871754,0.48131 -1.995655,0.24074 -4.002788,0.3172 -6.010581,0.35392 -1.719076,0.026 -3.438391,0.026 -5.157619,0.0261 -1.80948,0.0397 -3.626795,-0.13468 -5.422612,0.11715 -1.882246,0.3157 -3.786343,0.4719 -5.690827,0.57048 -1.805208,0.0539 -3.611298,0.0626 -5.417167,0.0673 -1.808713,-7.9e-4 -3.61742,-0.0106 -5.426138,-0.0128 -1.747769,0.001 -3.49553,0.006 -5.243298,0.009 -1.607315,-0.0754 -3.170293,0.0208 -4.753542,0.27344 -1.673394,0.2808 -3.365989,0.39384 -5.059497,0.45468 -1.553948,-0.11321 -3.03226,0.19536 -4.550153,0.45251 -1.514039,0.24075 -3.047839,0.29137 -4.577694,0.32393 -1.533469,-0.13088 -2.990855,0.1784 -4.488796,0.43111 -1.463424,0.33407 -3.011575,0.0855 -4.451157,0.48187 -1.293477,0.39506 -2.642606,0.49567 -3.985197,0.56444 -1.482743,0.1287 -2.93466,0.49697 -4.424418,0.6535 -1.507582,0.20037 -3.048526,-0.0106 -4.537048,0.29534 -1.48028,0.40341 -3.04037,0.32658 -4.51818,0.69834 -1.6916,0.42854 -3.46172,0.36274 -5.15343,0.7483 -1.72373,0.39916 -3.49666,0.52592 -5.25927,0.61667 -1.60755,-0.091 -3.14185,0.21332 -4.71321,0.47877 -1.54302,0.12264 -3.00879,0.60275 -4.53447,0.84484 -1.54175,0.0887 -3.01287,0.54228 -4.53654,0.76906 -1.52119,0.25454 -3.00358,0.65718 -4.54495,0.83616 -1.40475,-0.026 -2.7019,0.4803 -4.07349,0.69877 -1.4184,0.27337 -2.80594,0.64595 -4.25226,0.81406 -1.44044,-0.0448 -2.77468,0.30558 -4.16436,0.59659 -1.40032,0.2597 -2.75035,0.75167 -4.1048,1.1919 -1.33412,0.47531 -2.58612,1.01155 -4.00444,1.22785 -1.38122,-0.0231 -2.65726,0.33241 -3.99037,0.6109 -1.07971,0.61155 -2.3059,0.85849 -3.33443,1.56166 0.71247,-0.58564 -2.59487,1.40943 -1.66927,0.88231 3.04333,-1.75566 6.08667,-3.51132 9.13,-5.26697 -0.38575,0.32251 -0.25261,0.1454 -0.44427,0.49442 0.008,0.85846 0.91378,1.38256 1.6235,1.69956 1.21273,0.68092 2.59326,0.97174 3.91808,1.36468 1.32971,0.39474 2.57673,0.92718 3.9592,1.14336 1.46599,0.0677 2.87115,0.48535 4.32003,0.69589 1.5165,0.23791 2.99248,0.6449 4.52448,0.82642 1.49436,0.14526 2.99733,0.15023 4.49726,0.15766 1.53449,0.0516 3.03939,0.43702 4.57142,0.59884 1.48007,0.0754 2.9155,0.10765 4.35803,0.4525 1.30596,0.31388 2.64967,0.3798 3.98638,0.42752 1.48723,0.0378 2.97513,0.0325 4.46271,0.0312 1.5132,-0.002 3.0264,-0.004 4.5396,-0.005 1.51236,-7.9e-4 3.02473,-7.9e-4 4.53709,-7.9e-4 1.511916,-2e-5 3.023827,1e-5 4.535741,2e-5 1.511898,1e-5 3.023796,1e-5 4.535696,1e-5 1.511903,1e-5 3.023807,1e-5 4.535713,1e-5 1.511903,0 3.023809,0 4.535712,-1e-5 1.550016,0.0909 3.046579,-0.0338 4.569727,-0.27535 1.652217,-0.21262 3.276804,-0.31967 4.88423,-0.75403 1.370023,-0.35209 2.786342,-0.4167 4.193055,-0.46373 0.984383,-0.10968 2.001153,0.0851 2.982775,-0.0268 0.422482,-0.0481 0.825185,-0.20567 1.237869,-0.30814 1.340533,-0.31184 2.719181,-0.37057 4.089239,-0.4163 1.509831,0.077 2.960055,-0.34761 4.445976,-0.55073 1.003176,-0.21169 2.055588,-0.0594 3.061433,-0.20312 0.426926,-0.061 0.832366,-0.22614 1.24946,-0.33578 1.326592,-0.37894 2.725928,-0.2425 4.05338,-0.57061 1.478103,-0.37339 2.996758,-0.50389 4.514217,-0.58277 1.443694,-0.45007 2.957537,-0.60153 4.458923,-0.71383 1.5412,-0.14672 3.04614,-0.5335 4.593603,-0.69921 1.457661,-0.52982 3.031307,-0.54007 4.508595,-0.95545 1.536922,-0.32005 2.991342,-0.88139 4.53538,-1.17775 1.484286,-0.5 3.0111,-0.81047 4.516466,-1.23427 1.518345,-0.3397 3.06099,-0.65829 4.522305,-1.20194 1.53016,-0.44097 2.997916,-1.02616 4.563542,-1.34102 1.169092,-0.71493 2.5953603,-0.63066 3.8191447,-1.13162 1.2791591,-0.33092 2.5296868,-0.74942 3.8191522,-1.04714 0.2445776,-0.0423 0.4950348,-0.0589 0.7337327,-0.12697 0.4203686,-0.11987 0.8052591,-0.34426 1.2225819,-0.47434 0.6386965,-0.19907 1.2232615,-0.26306 1.82851582,-0.55757 0.54082272,-0.32951 1.20157627,-0.30923 1.78002213,-0.50271 0.56197385,-0.18797 1.06018255,-0.47494 1.64328295,-0.63735 0.6115896,-0.56243 1.4304348,-0.58946 2.160853,-0.85559 0.3586684,-0.13069 0.6816183,-0.34584 1.0351249,-0.48991 1.1164083,-0.43162 2.191462,-0.98309 3.3252891,-1.41173 1.3582746,-0.53871 2.3176316,-0.98989 3.7975036,-1.21211 0.723254,-0.45458 1.598497,-0.45398 2.381707,-0.70052 0.371052,-0.11681 0.708023,-0.32379 1.07151,-0.46235 1.240559,-0.17856 2.378327,-0.63428 3.586025,-0.93453 1.295488,-0.43272 2.72982,-0.5598 3.989281,-1.08824 1.074541,-0.33684 2.14927,-0.63311 3.228036,-0.958 0,0 -8.860568,6.84977 -8.860568,6.84977 v 0 c -1.072356,0.33531 -2.168071,0.5904 -3.225851,0.97433 -1.353429,0.31311 -2.679929,0.71306 -4.023446,1.06386 -1.1726054,0.37091 -2.3847709,0.56782 -3.5360754,1.00629 -1.1547167,0.4096 -2.3659813,0.68131 -3.5417087,1.02217 -1.2684538,0.34253 -2.4356731,0.93233 -3.66989845,1.37557 -1.10689423,0.4926 -2.20729475,0.99472 -3.33955185,1.4239 -1.0723071,0.4462 -2.1817936,0.80722 -3.2440972,1.27762 -1.1231412,0.42637 -2.2786885,0.73337 -3.4001686,1.16671 -1.2869608,0.32607 -2.5276448,0.80048 -3.8315818,1.06204 -1.269865,0.36778 -2.548451,0.69772 -3.811023,1.09053 -1.309704,0.25906 -2.55687,0.68321 -3.833533,1.06267 -1.518224,0.41681 -2.996752,0.96533 -4.507892,1.40795 -1.511559,0.41218 -3.027434,0.79872 -4.549129,1.17002 -1.511168,0.42121 -3.047365,0.75097 -4.554705,1.18769 -1.513631,0.38624 -2.996223,0.88812 -4.534603,1.17871 -1.531604,0.26183 -3.047175,0.58761 -4.573495,0.87201 -1.538182,0.22562 -3.055353,0.59603 -4.61332,0.6678 -1.505847,0.16865 -2.9791,0.50283 -4.478718,0.69484 -1.498397,0.129 -2.977309,0.36776 -4.448705,0.67939 -1.354899,0.14758 -2.714175,0.268 -4.036639,0.61984 -1.433684,0.25777 -2.903225,0.19837 -4.3386,0.46425 -1.500048,0.24523 -2.991475,0.49834 -4.519076,0.46625 -1.34797,0.0885 -2.686206,0.24876 -4.003841,0.55658 -1.425221,0.21371 -2.869782,0.0907 -4.305036,0.19555 -1.375558,0.0936 -2.741027,0.26496 -4.074898,0.6284 -1.622483,0.32787 -3.289652,0.35223 -4.917662,0.66008 -1.554649,0.2127 -3.116199,0.15628 -4.682553,0.15513 -1.511904,0 -3.02381,0 -4.535715,0 -1.511904,0 -3.02381,0 -4.535709,0 -1.5119,0 -3.0238,-1e-5 -4.5357,-2e-5 -1.5119,-2e-5 -3.0238,-4e-5 -4.5357,2e-5 -1.51219,1.1e-4 -3.02438,2.5e-4 -4.53657,0.001 -1.51345,10e-4 -3.02689,0.004 -4.54034,0.004 -1.50021,-0.002 -3.00131,1e-4 -4.5002,-0.0715 -1.38048,-0.0855 -2.75505,-0.23382 -4.10142,-0.56469 -1.41471,-0.25697 -2.85999,-0.17626 -4.28285,-0.38486 -1.49611,-0.20284 -2.98194,-0.5514 -4.5005,-0.49811 -1.52947,-0.0233 -3.06328,-0.0571 -4.57988,-0.27587 -1.52152,-0.24434 -3.0089,-0.65241 -4.53907,-0.84485 -1.44997,-0.25653 -2.89093,-0.54508 -4.35408,-0.71784 -1.3703,-0.31911 -2.65001,-0.88419 -4.00817,-1.24523 -1.39244,-0.42745 -2.82224,-0.76787 -4.0797,-1.53674 -1.05352,-0.66387 -2.05302,-1.50476 -2.28027,-2.79449 -0.52108,-5.2463 7.77785,-5.72181 11.77472,-8.18577 1.1551,-0.48798 2.31381,-1.01476 3.53336,-1.31231 1.32147,-0.29814 2.66115,-0.34897 3.99115,-0.59606 1.33638,-0.35128 2.57777,-0.95713 3.91252,-1.31796 1.37439,-0.45428 2.77439,-0.84098 4.19665,-1.11282 1.3868,-0.30317 2.78771,-0.35143 4.19422,-0.52311 1.42326,-0.24408 2.8092,-0.6491 4.23803,-0.8636 1.35456,-0.29365 2.69923,-0.55951 4.0873,-0.64497 1.51674,-0.25135 2.99937,-0.66492 4.52602,-0.86038 1.5068,-0.28471 3.00432,-0.5988 4.52874,-0.77921 1.50994,-0.3062 3.0071,-0.66193 4.54152,-0.83308 1.58317,-0.264 3.16641,-0.33823 4.77015,-0.37611 1.74463,-0.12798 3.476323,-0.34893 5.188056,-0.71721 1.725059,-0.21368 3.45736,-0.37983 5.155999,-0.76769 1.522566,-0.19446 3.043716,-0.38589 4.556492,-0.6493 1.513787,-0.0932 3.035874,-0.0788 4.541126,-0.29088 1.488342,-0.21525 2.957655,-0.57398 4.466876,-0.61395 1.325795,-0.12667 2.623793,-0.3775 3.925308,-0.6548 1.483937,-0.11478 2.974353,-0.18282 4.439414,-0.46789 1.520823,-0.25275 3.038586,-0.32555 4.580446,-0.31104 1.502616,-0.0612 3.004553,-0.16779 4.485288,-0.44486 1.535901,-0.25737 3.070077,-0.33171 4.627105,-0.34067 1.668787,-0.0928 3.33035,-0.26189 4.980984,-0.52897 1.615734,-0.2014 3.234952,-0.17047 4.861031,-0.15696 1.738622,0.003 3.477239,0.009 5.215861,0.012 1.815529,2.7e-4 3.631052,-0.004 5.446575,-0.006 1.791105,-0.003 3.583792,-0.005 5.372309,-0.11291 1.892501,-0.12561 3.772532,-0.35087 5.653652,-0.58907 1.836237,-0.0869 3.67545,-0.0414 5.513375,-0.0551 1.704897,0.003 3.410034,0.008 5.114644,-0.0289 1.979298,-0.0586 3.957112,-0.1758 5.9234666,-0.41731 1.9736887,-0.23804 3.942431,-0.40568 5.9297313,-0.47962 1.7282573,-0.1702 3.42020644,-0.52648 5.1400293,-0.75061 1.9133556,-0.16866 3.8084011,-0.47477 5.7200569,-0.65005 1.7833959,-0.0946 3.5718439,-0.25282 5.3001769,-0.72993 1.557623,-0.39004 3.152794,-0.65282 4.744441,-0.85479 1.969509,-0.1779 3.918189,-0.49642 5.853484,-0.90352 2.281538,-0.33939 4.5795,-0.5199 6.887563,-0.49132 0,0 -9.073837,6.59253 -9.073837,6.59253 z"
       inkscape:connector-curvature="0" />
    <path
       style="fill:#000000;stroke-width:0.26458332"
       id="path4116"
       d="m 179.54882,125.40269 c 2.2961,-1.14138 4.71368,-1.96232 7.12747,-2.8158 3.26833,-1.11325 6.65541,-1.81279 9.99308,-2.68132 2.30701,-0.37468 4.47028,-1.27188 6.74287,-1.77185 1.9052,-0.67542 3.90417,-1.06566 5.88443,-1.4537 2.68665,-0.62087 5.36693,-1.25892 8.03825,-1.94453 2.30154,-0.52327 4.62598,-0.92677 6.9428,-1.37853 3.23969,-0.66519 6.50648,-1.17474 9.76159,-1.76741 3.0237,-0.57368 6.05949,-1.04268 9.12312,-1.33608 2.32961,-0.51272 4.70191,-0.70398 7.06573,-0.97134 3.08225,-0.38775 6.13374,-0.95649 9.22795,-1.25834 3.22699,-0.1202 6.44373,-0.17718 9.65726,-0.49999 2.9052,-0.21206 5.78421,-0.65284 8.68047,-0.95385 2.67748,-0.27396 5.36766,-0.27201 8.05532,-0.29789 2.51063,0.0776 4.99123,-0.30774 7.48903,-0.50041 2.41591,-0.20402 4.84045,-0.23467 7.26319,-0.26864 1.91079,-0.0287 3.82174,-0.0179 5.73264,-0.0186 1.83343,0.004 3.66686,0.004 5.50029,5.3e-4 1.5897,-0.003 3.1794,-0.005 4.76909,-0.006 1.51188,-5.3e-4 3.02374,-5.3e-4 4.53562,-5.3e-4 1.51069,2e-5 3.02139,4e-5 4.53208,5e-5 1.49767,0.0655 3.02175,-0.15563 4.49577,0.14713 1.32654,0.41405 2.59099,0.92508 3.97317,1.1618 1.50688,0.0534 2.95656,0.36905 4.43484,0.63185 1.51662,0.29244 2.98963,0.72655 4.52956,0.92381 1.49204,0.15595 2.99405,0.16028 4.49249,0.16777 1.30281,0.32254 2.61488,0.54723 3.95195,0.65658 1.50418,-0.0516 2.94241,0.26074 4.41267,0.51574 0.81989,0.40995 1.8039,0.46729 2.57093,0.98608 0.34536,0.23359 0.63659,0.53875 0.96107,0.80055 0.98716,0.92408 1.17232,2.06128 1.02127,3.34249 -0.28742,1.17767 -0.99261,2.16878 -1.80041,3.04983 -0.82032,0.87208 -1.65762,1.7366 -2.55347,2.53192 -0.88678,0.88922 -1.84986,1.67489 -2.87867,2.39443 -3.81497,2.61024 -0.0188,0.0363 -10.79471,6.17317 -0.76911,0.43801 -1.51704,0.89956 -2.32037,1.27669 -1.31296,0.37084 -2.50494,0.98009 -3.84963,1.24856 -1.13885,0.56296 -2.38734,0.83321 -3.59892,1.19912 -0.9512,0.59725 -2.06269,0.66376 -3.11245,0.94785 -0.51266,0.13874 -1.00105,0.35559 -1.50611,0.51986 -1.40666,0.40309 -2.91325,0.6184 -4.23725,1.25483 -0.79333,0.47329 -1.73223,0.45223 -2.58953,0.68485 -0.39053,0.10598 -0.75107,0.30241 -1.13366,0.43428 -1.34409,0.2904 -2.62327,0.75071 -3.98349,0.98592 -1.46812,0.47975 -2.97365,0.7811 -4.4591,1.19703 -1.50799,0.3969 -3.0666,0.4878 -4.61748,0.54328 -1.51784,0.0369 -3.03631,0.0281 -4.55443,0.0249 -1.52281,-0.11944 -2.98794,0.30952 -4.4857,0.51487 -1.51897,0.18588 -3.05056,0.21305 -4.57885,0.23234 -1.51416,0.0117 -3.02839,0.007 -4.54258,0.005 -1.51183,-0.002 -3.02366,-0.003 -4.53549,-0.003 -1.51185,-2.6e-4 -3.02371,-2.6e-4 -4.53559,-2.6e-4 -1.51188,1e-5 -3.02379,2e-5 -4.5357,3e-5 -1.51191,1e-5 -3.02382,1e-5 -4.53572,1e-5 -1.51191,0 -3.02379,0 -4.5357,0 -1.51191,0 -3.02382,0 -4.53572,0 -1.6452,0.0938 -3.24308,-0.0483 -4.86529,-0.28595 -1.97164,-0.1601 -3.87592,-0.68309 -5.83117,-0.95858 -1.70565,-0.2188 -3.42614,-0.2552 -5.1433,-0.27362 -1.43437,0.14494 -2.78961,-0.30474 -4.188,-0.52688 -1.77059,-0.19498 -3.55488,-0.21178 -5.33425,-0.229 -1.66683,0.0564 -3.28625,0.0138 -4.9238,-0.28713 -1.4867,-0.28949 -2.99835,-0.38236 -4.50869,-0.43567 -1.50484,-0.0386 -3.01035,-0.0336 -4.51555,-0.0325 -1.51163,0.002 -3.02327,0.004 -4.5349,0.005 -1.51199,8e-4 -3.02398,8e-4 -4.53598,8e-4 -1.51191,1e-5 -3.02383,-2e-5 -4.53574,-3e-5 -1.30501,-0.31952 -2.61736,-0.55027 -3.95592,-0.66218 -1.45078,-0.0949 -2.90552,-0.0951 -4.35873,-0.0994 -1.51126,-0.001 -3.02252,0.002 -4.53378,0.004 -1.51277,10e-4 -3.02554,0.002 -4.53831,0.002 -1.51197,1.1e-4 -3.02394,8e-5 -4.53591,6e-5 -1.5119,-1e-5 -3.02379,-2e-5 -4.53569,-2e-5 -1.46203,0.0931 -2.97749,-0.19975 -4.40704,0.15617 -1.29311,0.37548 -2.63533,0.48046 -3.97305,0.55088 0,0 9.01358,-6.65074 9.01358,-6.65074 v 0 c 1.32662,-0.12666 2.62634,-0.3809 3.93742,-0.61008 1.49377,-0.0524 2.98907,-0.0121 4.48353,-0.0247 1.5119,1e-5 3.0238,2e-5 4.53569,3e-5 1.51193,1e-5 3.02386,4e-5 4.53578,-2e-4 1.51253,-2.6e-4 3.02506,-7.9e-4 4.53759,-0.003 1.51309,-0.002 3.0262,-0.006 4.53927,0.002 1.47862,0.0134 2.96025,0.0273 4.4324,0.18092 1.29945,0.16033 2.57194,0.4894 3.87761,0.57575 1.5119,1e-5 3.02381,4e-5 4.53571,-3e-5 1.51184,-1.2e-4 3.02369,-2.7e-4 4.53554,-0.001 1.5119,-0.001 3.0238,-0.004 4.5357,-0.004 1.51567,0.002 3.03215,0.003 4.54646,0.0752 1.53591,0.0915 3.06412,0.25634 4.57752,0.54074 1.59594,0.21938 3.20388,0.1261 4.81097,0.17062 1.82751,0.0414 3.66466,0.0735 5.47559,0.34262 1.34953,0.25446 2.68195,0.4959 4.06598,0.4035 1.73932,0.0482 3.48007,0.13852 5.2004,0.41604 1.93759,0.32315 3.85244,0.776 5.81531,0.93573 1.60253,0.17739 3.20651,0.15863 4.81748,0.14455 1.51191,0 3.02382,0 4.53573,0 1.5119,0 3.02381,0 4.53569,0 1.51191,0 3.02382,0 4.53573,-1e-5 1.51191,-1e-5 3.02382,-3e-5 4.53573,-2e-5 1.51193,2e-5 3.02387,4e-5 4.53583,5.3e-4 1.51198,7.9e-4 3.02395,0.002 4.53593,0.004 1.50964,0.001 3.01943,0.006 4.52885,-0.0235 1.50212,-0.0404 3.00657,-0.10672 4.49255,-0.34641 1.52209,-0.24406 3.03588,-0.49209 4.5857,-0.382 1.50657,3e-5 3.01427,0.006 4.5193,-0.0725 1.50997,-0.1031 3.01381,-0.28726 4.46577,-0.73625 1.49534,-0.41259 3.01603,-0.73298 4.5118,-1.14455 1.31967,-0.32343 2.62189,-0.72121 3.9256,-1.10134 1.22613,-0.38599 2.51031,-0.58443 3.68173,-1.14661 1.41991,-0.40184 2.84184,-0.79295 4.26056,-1.19718 1.55022,-0.47885 3.13383,-0.83593 4.63343,-1.4721 1.2136,-0.38971 2.43536,-0.74965 3.64004,-1.16242 1.2538,-0.40577 2.49343,-0.89148 3.69014,-1.43849 0.58177,-0.32628 1.16599,-0.65705 1.75988,-0.96084 0.19423,-0.0993 0.77901,-0.39175 0.59089,-0.2813 -8.27598,4.85899 -12.13736,6.82923 -8.40891,4.91462 1.00873,-0.71917 2.13149,-1.3209 2.91269,-2.29604 0.92062,-0.75741 1.73594,-1.58681 2.61761,-2.38181 0.69217,-0.83187 1.57665,-1.54923 1.98453,-2.57706 0.4236,-0.79956 0.32867,-1.61149 -0.38161,-2.20273 -0.93181,-0.7352 -2.03433,-1.08366 -3.18799,-1.34164 -1.45322,-0.25611 -2.90581,-0.36026 -4.3784,-0.44198 -1.30162,-0.15806 -2.57548,-0.48114 -3.88171,-0.58138 -1.53069,-0.0244 -3.06649,-0.0598 -4.58216,-0.29638 -1.52871,-0.26683 -3.01453,-0.71398 -4.54861,-0.95139 -1.48055,-0.27721 -2.97079,-0.40807 -4.45645,-0.64652 -1.33144,-0.31575 -2.5848,-0.88117 -3.9374,-1.09481 -1.4628,-0.0803 -2.93,-0.0101 -4.39438,-0.0337 -1.51075,10e-6 -3.02149,3e-5 -4.53224,7e-5 -1.5114,2e-5 -3.02284,1e-4 -4.53424,-5.3e-4 -1.58422,-7.9e-4 -3.16841,-0.002 -4.75263,-0.007 -1.83087,-0.005 -3.66173,-0.007 -5.49259,-0.007 -1.89752,-0.004 -3.79508,-0.001 -5.69259,0.009 -2.39581,0.0292 -4.79153,0.10293 -7.18003,0.30309 -2.50592,0.22101 -5.00351,0.55194 -7.52671,0.42942 -2.66816,0.031 -5.33828,0.11111 -7.99443,0.38249 -2.89473,0.30829 -5.77612,0.73512 -8.68171,0.93789 -3.21479,0.27405 -6.44246,0.20061 -9.65506,0.51394 -3.08426,0.34263 -6.13665,0.89253 -9.2163,1.26864 -2.3666,0.29114 -4.72631,0.6117 -7.08493,0.9601 -3.0327,0.31312 -6.03103,0.83398 -9.03052,1.37395 -3.2701,0.57313 -6.54125,1.12904 -9.7897,1.81726 -2.30231,0.4721 -4.62126,0.86411 -6.90475,1.42206 -2.69671,0.68278 -5.40622,1.31078 -8.11469,1.94509 -1.96702,0.44603 -3.93542,0.87607 -5.86087,1.48385 -2.22252,0.61308 -4.42589,1.29728 -6.69235,1.74279 -3.31297,0.82589 -6.66918,1.51496 -9.8738,2.72064 -2.46159,0.89214 -4.89199,1.85283 -7.2202,3.05873 0,0 8.76255,-7.00922 8.76255,-7.00922 z"
       inkscape:connector-curvature="0" />
    <path
       style="fill:#000000;stroke-width:0.26458332"
       id="path4118"
       d="m 180.35673,139.91665 c 1.99985,-0.50598 3.93741,-1.15779 5.96965,-1.53351 1.81098,-0.31133 3.64856,-0.37703 5.48173,-0.40613 1.98444,-0.0726 3.9525,-0.41371 5.93685,-0.5697 2.11831,-0.14692 4.24342,-0.15504 6.36591,-0.16057 2.36596,-0.0709 4.72217,-0.39898 7.08556,-0.57994 2.51167,-0.18004 5.03284,-0.0608 7.54045,-0.27895 2.47236,-0.28036 4.95097,-0.4931 7.43746,-0.58842 2.25831,0.0531 4.48005,-0.35635 6.7205,-0.56789 3.09981,-0.13251 6.18555,-0.46144 9.27961,-0.69879 3.31511,-0.20153 6.61123,-0.6773 9.90844,-1.07595 4.13165,-0.35558 8.27353,-0.55088 12.41772,-0.67576 2.73728,-0.11151 5.48144,0.0304 8.21321,-0.17694 2.87999,-0.24969 5.76267,-0.45479 8.651,-0.57357 3.04646,-0.0262 6.09293,-0.0538 9.1395,-0.0621 2.29359,-0.009 4.58724,-0.0195 6.88086,-0.0155 2.6715,0.0184 5.34297,0.0239 8.01455,0.0225 2.90454,-0.009 5.80895,0.0122 8.71347,-1.8e-4 2.27975,-0.0225 4.55948,-0.0227 6.83929,-0.0141 2.74151,0.009 5.48307,0.0199 8.2246,0.0123 2.08317,-0.0102 4.16634,-0.0241 6.24951,-0.0313 1.45391,-0.16292 2.8249,0.29467 4.24056,0.52409 1.6383,0.0893 3.23643,0.40662 4.85825,0.6378 1.74948,0.23991 3.51467,0.30662 5.27804,0.33998 1.44269,-0.13674 2.8054,0.3147 4.21169,0.53861 1.35472,0.51784 2.77535,0.75159 4.21177,0.88367 1.47053,0.23105 2.83247,0.77516 4.24672,1.19989 1.20171,0.28272 2.3254,0.81896 3.43662,1.3445 1.08265,0.38861 2.07743,1.04933 2.91436,1.83521 0.95253,0.71206 1.72027,1.54993 2.22655,2.62831 0.50178,1.26723 0.51771,2.54309 0.0284,3.80532 -0.48403,1.19358 -1.43052,2.06888 -2.29266,2.98768 -0.43429,0.36415 -0.88408,0.77478 -1.37761,1.06107 -3.36653,1.95286 -6.75063,3.87533 -10.1332,5.80025 -3.05358,1.73769 12.14745,-7.06503 9.14614,-5.23854 -3.31896,2.0198 -6.73298,3.87913 -10.09946,5.81869 19.48648,-11.61781 3.89218,-1.62146 -1.92386,1.18358 -1.74972,0.84388 0.55824,-0.38711 -1.24108,0.59547 -1.42579,0.7009 -2.88555,1.31479 -4.37568,1.86879 -1.34901,0.52222 -2.61896,1.06993 -4.06599,1.28851 -1.45293,0.24498 -2.87541,0.60656 -4.35062,0.76606 -1.51842,0.19481 -3.00019,0.58047 -4.53104,0.74828 -1.55004,0.13901 -3.1078,0.15077 -4.66289,0.14742 -1.70762,-0.001 -3.41524,-0.001 -5.12286,-0.001 -1.5431,8e-5 -3.08623,1.7e-4 -4.62934,2.1e-4 -1.51082,4e-5 -3.02164,4e-5 -4.53247,4e-5 -1.51135,0 -3.02268,0 -4.53403,0 -1.51188,0 -3.02379,0 -4.53567,0 -1.53966,-0.002 -3.07935,0.004 -4.61902,-0.005 -1.7064,-0.005 -3.41283,-1.1e-4 -5.11924,0.002 -1.49849,-0.0516 -2.95968,-0.44633 -4.45897,-0.60001 -1.60472,-0.0162 -3.14814,-0.45181 -4.72866,-0.67964 -1.67081,-0.12264 -3.31586,-0.25844 -4.97115,-0.51491 -1.99342,-0.30254 -4.00957,-0.39671 -6.02249,-0.45255 -1.73435,0.11683 -3.40771,-0.19427 -5.11281,-0.43843 -1.96596,-0.35428 -3.92219,-0.72576 -5.9163,-0.92584 -1.8052,-0.0713 -3.57464,-0.18808 -5.35787,-0.45871 -2.24447,-0.1859 -4.44313,-0.66642 -6.67518,-0.95369 -1.86544,-0.50156 -3.76813,-0.77973 -5.69041,-0.93114 -1.59146,-0.18108 -3.21788,0.0694 -4.7883,-0.24679 -1.36259,-0.20927 -2.6559,-0.65168 -3.99201,-0.97045 -1.43635,-0.30323 -2.90742,-0.34688 -4.36968,-0.37981 -1.47095,-0.37254 -2.97344,-0.56009 -4.48361,-0.67218 -1.4804,0.0689 -2.87451,-0.22629 -4.30933,-0.52159 -1.39778,-0.17123 -2.76659,-0.3059 -4.1429,-0.60567 -1.47675,-0.36946 -3.01436,-0.27504 -4.49252,-0.59526 -1.47927,-0.36129 -2.99276,-0.50577 -4.50921,-0.58587 -1.41385,0.0936 -2.74569,-0.3625 -4.12424,-0.58368 -1.38746,-0.18591 -2.78973,-0.20214 -4.1872,-0.21953 -1.45994,0.14094 -2.82959,-0.14418 -4.24507,-0.43081 -1.34891,-0.24648 -2.7227,-0.28345 -4.08989,-0.31442 -1.49775,-0.0229 -2.99575,-0.0177 -4.49363,-0.0159 -1.49916,-0.0633 -3.02452,0.15917 -4.50016,-0.14294 -1.28582,-0.35004 -2.60812,-0.47871 -3.93355,-0.55394 -1.4719,-0.063 -2.94559,-0.0597 -4.41853,-0.0605 -1.51259,0.001 -3.02517,0.004 -4.53775,0.005 -1.51255,0.001 -3.0251,0.001 -4.53765,0.001 -1.49779,-0.0655 -3.02198,0.1557 -4.4961,-0.14711 -0.21759,-0.0503 -0.43518,-0.10058 -0.65277,-0.15088 0,0 9.19917,-6.41294 9.19917,-6.41294 v 0 c 0.20316,0.0329 0.40632,0.0659 0.60948,0.0988 1.46286,0.0803 2.93014,0.0101 4.39458,0.0336 1.51234,-2e-4 3.02468,-5.3e-4 4.53701,-0.002 1.51347,-0.002 3.02694,-0.005 4.5404,-0.002 1.49138,0.007 2.98451,0.0108 4.47273,0.11966 1.34011,0.12095 2.65798,0.35146 3.97837,0.60557 1.4643,0.0793 2.93288,0.007 4.39872,0.0296 1.50637,-9e-5 3.01316,-0.004 4.51898,0.043 1.41233,0.059 2.82671,0.15305 4.21156,0.45551 1.36355,0.27043 2.72386,0.30606 4.11349,0.27881 1.43922,0.0372 2.88383,0.0896 4.30305,0.35268 1.33919,0.26069 2.66339,0.52441 4.03794,0.49725 1.53799,0.12925 3.05842,0.36374 4.57033,0.675 1.5112,0.16973 3.03279,0.27154 4.51773,0.62452 1.38021,0.25675 2.79005,0.28569 4.16202,0.59894 1.39448,0.29058 2.79314,0.35565 4.21403,0.43184 1.49259,0.15718 2.96235,0.44964 4.45158,0.61852 1.51693,0.0689 3.03842,0.18131 4.51243,0.57224 1.29659,0.34675 2.59574,0.67676 3.92746,0.86411 1.57365,0.10211 3.15685,0.0469 4.72623,0.23356 1.91912,0.21579 3.80522,0.58768 5.69289,0.9891 2.22661,0.33702 4.44114,0.75363 6.68801,0.94131 1.77393,0.21939 3.55992,0.23396 5.33548,0.44289 1.99525,0.2545 3.96484,0.64776 5.95405,0.93774 1.67609,0.23842 3.34714,0.35159 5.04164,0.34694 2.0334,0.0982 4.06596,0.24856 6.08023,0.55335 1.66804,0.21743 3.35108,0.2365 5.01324,0.50575 1.56126,0.26773 3.11277,0.56926 4.69975,0.64464 1.45862,0.19032 2.9021,0.55707 4.3816,0.49563 1.70439,0.002 3.40879,0.007 5.11318,0.002 1.5444,-0.009 3.08885,-0.004 4.63328,-0.005 1.51191,0 3.02379,0 4.53567,-2e-5 1.51138,-1e-5 3.02276,-3e-5 4.53414,-7e-5 1.51074,-2e-5 3.02149,-9e-5 4.53223,5.3e-4 1.54072,8e-4 3.08144,0.002 4.62214,0.007 1.70333,0.005 3.40675,0.0142 5.11003,-0.004 1.53408,-0.0306 3.07284,-0.0539 4.5952,-0.26658 1.5145,-0.23298 3.0022,-0.61562 4.5315,-0.75072 1.4488,-0.22969 2.86686,-0.60118 4.31434,-0.83854 1.35274,-0.35902 2.60427,-0.97808 3.92872,-1.42492 1.46251,-0.60748 2.92061,-1.21893 4.31877,-1.96775 0.864,-0.41947 0.43593,-0.20041 1.23738,-0.63103 0.18502,-0.0994 0.73649,-0.40417 0.55523,-0.29804 -3.03327,1.77578 -6.07095,3.54399 -9.11151,5.30723 -0.15592,0.0904 0.30482,-0.19237 0.45722,-0.28856 3.34373,-1.97111 6.68748,-3.94221 10.0312,-5.91332 -23.69402,13.71359 0.24411,-0.15044 0.98267,-0.53837 3.10575,-1.63124 -6.06719,3.52356 -9.09847,5.28929 -1.09217,0.63619 2.40411,-1.60992 1.4496,-0.89327 0.9303,-0.72186 1.74106,-1.64299 2.47049,-2.55728 0.53409,-1.06357 0.8676,-1.74757 0.40688,-2.96199 -0.41775,-0.94281 -1.20751,-1.5748 -1.99218,-2.21964 -0.82823,-0.66916 -1.74382,-1.19452 -2.73997,-1.57587 -1.07143,-0.51098 -2.19618,-0.91009 -3.33873,-1.23036 -1.34125,-0.45648 -2.69353,-0.86706 -4.10866,-1.02975 -1.44809,-0.20078 -2.84956,-0.56584 -4.26373,-0.9261 -1.35819,-0.25761 -2.70007,-0.50354 -4.09332,-0.42452 -1.78149,-0.0681 -3.56118,-0.19282 -5.32463,-0.46548 -1.64214,-0.24326 -3.28869,-0.40448 -4.93213,-0.62801 -1.3595,-0.26035 -2.70039,-0.5022 -4.09561,-0.38662 -2.05444,-0.007 -4.10885,-0.0211 -6.16329,-0.0313 -2.75277,-0.008 -5.50555,0.003 -8.2583,0.0123 -2.26687,0.008 -4.53367,0.009 -6.80048,-0.0141 -2.90433,-0.0125 -5.80859,0.009 -8.71297,-2.6e-4 -2.6911,-0.002 -5.38213,0.004 -8.07318,0.0193 -2.27507,0.001 -4.55017,-0.0147 -6.82524,-0.0222 -3.04607,-2.7e-4 -6.09402,-0.0215 -9.13784,0.11538 -2.87414,0.11793 -5.74238,0.32797 -8.60842,0.57215 -2.72961,0.13772 -5.46341,0.0385 -8.19542,0.1133 -4.11552,0.088 -8.2362,0.24999 -12.32601,0.7422 -3.31472,0.42527 -6.6301,0.88521 -9.97045,1.05633 -3.11851,0.23594 -6.22949,0.55925 -9.34866,0.78581 -2.24746,0.24854 -4.49201,0.52495 -6.75795,0.51713 -2.46503,0.12961 -4.92171,0.34916 -7.37902,0.58108 -2.52157,0.14233 -5.05097,0.094 -7.56954,0.30971 -2.3793,0.18982 -4.75113,0.54192 -7.14154,0.52364 -2.10967,0.0257 -4.22155,0.0522 -6.32456,0.23921 -2.00466,0.18963 -3.99841,0.53466 -6.01631,0.54063 -1.7833,0.0546 -3.56969,0.1641 -5.31982,0.53529 -2.01719,0.45756 -3.99104,1.09172 -5.96684,1.6991 0,0 8.86646,-6.88832 8.86646,-6.88832 z"
       inkscape:connector-curvature="0" />
    <path
       style="fill:#000000;stroke-width:0.26458332"
       id="path4126"
       d="m 108.2436,107.8428 c -1.74122,1.17242 -3.51305,2.3059 -5.13404,3.64323 -1.45115,1.29583 -2.79112,2.70977 -4.152278,4.09821 -1.258374,1.30877 -2.322316,2.78216 -3.428965,4.21628 -0.914903,1.23735 -1.842466,2.46518 -2.753694,3.70509 -0.784227,1.12526 -1.3936,2.36307 -2.067311,3.55722 -0.574135,1.13633 -1.056143,2.31924 -1.646875,3.44652 -0.569259,1.25421 -1.165302,2.49952 -1.685205,3.77536 -0.665216,1.4162 -1.035958,2.9135 -1.379742,4.42977 -0.344426,1.41076 -0.644842,2.82241 -1.070049,4.2115 -0.397682,1.30656 -0.479811,2.6718 -0.537178,4.02732 -0.1637,1.51941 -0.472271,3.01512 -0.629867,4.53643 -0.154302,1.51513 -0.09307,3.04022 -0.216937,4.55612 -0.25522,1.49642 -0.476076,2.9939 -0.59268,4.50783 -0.09514,1.49898 -0.09897,3.00167 -0.104169,4.50305 -0.05704,1.45046 0.06639,2.89911 0.475985,4.29407 0.520481,1.30281 0.778296,2.66767 0.92523,4.05591 -0.05191,1.24525 0.463698,2.29414 0.926348,3.40324 0.368552,1.07963 0.831684,2.12482 1.334633,3.14809 0.472776,1.06933 1.009808,2.13707 1.668425,3.10562 0.722733,0.86737 1.181931,1.99114 2.030402,2.74278 0.779878,0.71937 1.531861,1.48211 2.355678,2.15397 0.676476,0.99473 1.766247,1.06108 2.768026,1.50289 1.152075,0.30673 2.247553,0.75873 3.3934,1.08677 1.300923,0.29907 2.642733,0.32032 3.970983,0.34856 1.49983,0.0195 2.99985,0.0116 4.49975,0.008 1.5432,0.0365 2.77036,0.061 4.27044,-0.31499 1.2321,-0.73603 2.68173,-0.79695 4.01214,-1.22803 1.51432,-0.59782 2.94814,-1.31244 4.40558,-2.0324 1.59973,-0.59513 3.00947,-1.57632 4.53382,-2.33043 -16.45564,9.82711 -9.30615,5.46646 -5.72596,3.00029 1.04985,-0.80189 2.1113,-1.59898 3.05936,-2.52134 0.83041,-0.8141 1.66784,-1.62605 2.45285,-2.48452 0.81852,-0.69937 1.46156,-1.52932 2.10378,-2.38193 0.63196,-0.98042 1.13783,-2.02771 1.62391,-3.0862 0.45406,-1.21559 1.02327,-2.37364 1.33858,-3.63574 0.24076,-1.44265 0.61184,-2.85521 0.82851,-4.30218 0.1934,-1.48312 0.21583,-2.9806 0.23376,-4.47392 0.0105,-1.51113 0.005,-3.0223 0.003,-4.53345 -0.002,-1.51217 -0.003,-3.02435 -0.003,-4.53652 0.12769,-1.36037 -0.17967,-2.66425 -0.41954,-3.98935 -0.36162,-1.32036 -0.63889,-2.65769 -1.08327,-3.95304 -0.38875,-1.17754 -0.92197,-2.30493 -1.39077,-3.45452 -0.41119,-1.30211 -1.12231,-2.47514 -1.63782,-3.73462 -0.61457,-1.27631 -1.38339,-2.46991 -2.00778,-3.74797 -0.6554,-1.25346 -1.28487,-2.52761 -2.01537,-3.73911 -0.48531,-1.04432 -1.07726,-2.0074 -1.72065,-2.95781 -0.50713,-0.9269 -1.07721,-1.8405 -1.81547,-2.60154 -0.79319,-0.92204 -1.40347,-1.9794 -2.21693,-2.88328 -0.7041,-0.8395 -1.42442,-1.68883 -2.24542,-2.41841 -0.75279,-0.75443 -1.46093,-1.56452 -2.26591,-2.26536 -0.75716,-0.75124 -1.46358,-1.56312 -2.26816,-2.26544 -0.75665,-0.7524 -1.46314,-1.56492 -2.2679,-2.26775 -0.85516,-0.45779 -1.76926,-0.81069 -2.70649,-1.06935 0,0 9.2584,-6.30598 9.2584,-6.30598 v 0 c 1.05156,0.36642 2.1307,0.75227 3.00304,1.46537 0.77047,0.74099 1.51317,1.5106 2.26778,2.26748 0.7701,0.74025 1.51262,1.50892 2.26759,2.26436 0.7737,0.74232 1.52141,1.51198 2.27186,2.27743 0.81021,0.79808 1.58676,1.63595 2.29638,2.5246 0.77044,0.92507 1.41553,1.94387 2.21133,2.84862 0.73268,0.83884 1.3751,1.75682 1.89639,2.74196 0.66018,0.96838 1.2494,1.96277 1.74194,3.02768 0.72488,1.25021 1.36084,2.5521 2.04348,3.82623 0.63293,1.30253 1.42504,2.51262 2.05075,3.81463 0.49954,1.26422 1.24896,2.4175 1.63927,3.7264 0.47991,1.16791 1.0449,2.30713 1.42744,3.50948 0.46175,1.35214 0.73936,2.74246 1.16619,4.10674 0.23629,1.38728 0.62987,2.74761 0.49158,4.17129 2.6e-4,1.51177 7.9e-4,3.02354 0.003,4.53531 0.002,1.51475 0.007,3.0295 0.002,4.54425 -0.0101,1.53338 -0.0209,3.06962 -0.17179,4.59704 -0.17354,1.47686 -0.53586,2.90651 -0.77877,4.36621 -0.22755,1.36196 -0.72928,2.57047 -1.24521,3.83421 -0.43663,1.12994 -0.96454,2.20086 -1.51653,3.26472 -0.56162,0.96826 -1.21114,1.839 -2.00214,2.62412 -0.91404,0.7284 -1.64055,1.68316 -2.46375,2.5098 -1.02048,0.86047 -1.91163,1.88138 -3.04469,2.61 -3.95393,3.40457 -9.50986,4.77209 -13.38087,8.14589 -1.49066,0.82228 -2.98407,1.63684 -4.54608,2.3176 -1.46321,0.74833 -2.99538,1.36114 -4.55725,1.87033 -1.38711,0.31705 -2.71278,0.7893 -4.07713,1.17579 -1.4503,0.21603 -2.920408,0.0924 -4.38221,0.12721 -1.508805,0.002 -3.018083,0.01 -4.526367,-0.0369 -1.403858,-0.0619 -2.82053,-0.14801 -4.167341,-0.58458 -1.145119,-0.39331 -2.308429,-0.72015 -3.440414,-1.14938 -1.14314,-0.39102 -2.184347,-0.86002 -2.979322,-1.81282 -0.811173,-0.72759 -1.62659,-1.45442 -2.396194,-2.22533 -0.824746,-0.88868 -1.405567,-1.97548 -2.131626,-2.94395 -0.66998,-1.02057 -1.278019,-2.10311 -1.754515,-3.22664 -0.512898,-1.04498 -0.998572,-2.10917 -1.368256,-3.21311 -0.491583,-1.20529 -1.116991,-2.35716 -1.062374,-3.70774 -0.110458,-1.31928 -0.314452,-2.62045 -0.820054,-3.85456 -0.470104,-1.48104 -0.680541,-3.04309 -0.622549,-4.59648 0.0019,-1.52294 7.94e-4,-3.04668 0.07158,-4.56834 0.08971,-1.53293 0.245345,-3.06074 0.565189,-4.56506 0.260903,-1.48987 0.06942,-3.01942 0.23249,-4.52363 0.122679,-1.50569 0.335129,-2.99777 0.654653,-4.47521 0.03494,-1.42953 0.07648,-2.87039 0.401762,-4.26949 0.379468,-1.40006 0.867277,-2.75149 1.10722,-4.19049 0.431377,-1.51395 0.557231,-3.12155 1.326372,-4.53287 0.443916,-1.33443 1.115362,-2.56429 1.600044,-3.8813 0.568013,-1.14993 1.18469,-2.27385 1.661308,-3.46635 0.614696,-1.27048 1.394706,-2.44781 2.004349,-3.71904 0.921332,-1.24028 1.834123,-2.47222 2.762718,-3.70771 1.065845,-1.51113 2.257824,-2.93092 3.411529,-4.37857 1.36389,-1.39252 2.711506,-2.80143 4.100915,-4.16862 1.54419,-1.43449 3.30441,-2.56198 5.030748,-3.76054 0,0 10.441355,-4.08541 10.441355,-4.08541 z"
       inkscape:connector-curvature="0" />
    <path
       style="fill:#000000;stroke-width:0.26458332"
       id="path4456"
       d="m 107.38322,115.62991 c -0.99494,-0.0898 -1.95498,-0.36469 -2.93658,-0.53524 -0.73493,-0.20321 -1.47524,-0.45342 -2.13835,-0.8344 -0.46595,-0.3527 -0.81157,-0.82492 -1.23016,-1.22489 -0.23699,-0.28427 -0.11453,-0.15669 -0.36299,-0.3869 0,0 4.78639,-2.94085 4.78639,-2.94085 v 0 c 0.26126,0.26664 0.1397,0.13511 0.36645,0.39294 0.36213,0.37719 0.69093,0.79603 1.13209,1.08658 0.6495,0.30552 1.31398,0.58232 2.02433,0.71096 0.9754,0.20049 1.94281,0.44264 2.94154,0.5006 0,0 -4.58272,3.2312 -4.58272,3.2312 z"
       inkscape:connector-curvature="0" />
    <path
       style="fill:#000000;stroke-width:0.26458332"
       id="path4458"
       d="m 107.775,113.27721 c -0.76708,-0.49689 -1.67371,-0.63614 -2.51372,-0.94423 -0.33273,-0.13556 -0.68059,-0.21598 -1.03079,-0.289 0,0 4.60882,-3.18282 4.60882,-3.18282 v 0 c 0.35507,0.0986 0.70723,0.20495 1.05133,0.33801 0.85703,0.27573 1.70748,0.5557 2.5299,0.9261 0,0 -4.64554,3.15194 -4.64554,3.15194 z"
       inkscape:connector-curvature="0" />
    <path
       style="fill:#000000;stroke-width:0.26458332"
       id="path4460"
       d="m 110.02214,112.06403 c -0.76349,-0.49556 -1.55219,-0.98204 -2.38537,-1.35379 -0.62727,-0.20249 -1.17883,-0.60454 -1.86006,-0.53268 -0.60826,0.0765 -1.14748,0.40379 -1.68524,0.6764 -0.29392,0.13031 -0.60906,0.1793 -0.9233,0.23053 0,0 4.45986,-3.39805 4.45986,-3.39805 v 0 c 0.29171,-0.0894 0.58001,-0.18433 0.84628,-0.33748 0.5784,-0.2835 1.2044,-0.49029 1.85616,-0.44144 0.69868,0.12979 1.32401,0.44216 1.97231,0.72372 0.81611,0.42363 1.59536,0.91538 2.40633,1.34893 0,0 -4.68697,3.08386 -4.68697,3.08386 z"
       inkscape:connector-curvature="0" />
    <path
       style="fill:#000000;stroke-width:0.26458332"
       id="path4462"
       d="m 107.00525,114.118 c -1.02777,-0.20448 -2.08735,-0.15375 -3.11364,-0.3466 -0.71221,-0.06 -1.22345,-0.55032 -1.83124,-0.85038 -0.43981,-0.3554 -0.98241,-0.5185 -1.49533,-0.73805 -0.0951,-0.0537 -0.1903,-0.10748 -0.28545,-0.16122 0,0 4.69036,-3.07532 4.69036,-3.07532 v 0 c 0.0898,0.0425 0.17968,0.085 0.26952,0.12749 0.52172,0.23486 1.06191,0.4261 1.52192,0.77827 0.53914,0.3199 1.04769,0.6612 1.69716,0.71032 1.03981,0.13366 2.09042,0.17822 3.12942,0.3243 0,0 -4.58272,3.23119 -4.58272,3.23119 z"
       inkscape:connector-curvature="0" />
    <path
       style="fill:#ffcc00;stroke-width:2.02030516"
       d="m 364.13179,716.60803 c -19.96875,-6.63837 -38.08284,-32.0443 -45.55053,-63.88695 -6.05834,-25.83307 -3.09705,-86.02889 6.07197,-123.42848 4.61975,-18.84353 20.52576,-53.428 31.44353,-68.36773 11.7126,-16.02736 26.51042,-31.72589 27.85494,-29.55042 0.66484,1.07573 5.15763,2.9502 9.98398,4.16549 7.19597,1.81197 12.40107,5.90207 28.92293,22.72732 11.08126,11.28474 23.97527,26.4271 28.65337,33.6497 13.78149,21.27746 33.8951,63.74862 37.3186,78.80055 4.0107,17.63371 4.14926,57.12762 0.27154,77.39465 -3.87727,20.26465 -10.36593,32.18606 -25.90835,47.60059 -12.9537,12.84712 -18.66358,16.29256 -35.8467,21.63064 -12.58897,3.91086 -50.56804,3.46906 -63.21528,-0.73536 z"
       id="path4464"
       inkscape:connector-curvature="0"
       transform="scale(0.26458333)" />
    <path
       style="fill:#ffffff;stroke-width:2.85714293"
       d="m 333.78727,1023.348 c -32.17002,-7.6517 -69.48306,-28.09981 -92.72104,-50.81255 -36.05583,-35.24083 -60.78617,-97.0424 -75.74387,-189.28528 -7.82954,-48.28412 -8.10777,-53.5298 -8.10777,-152.85715 0,-97.40171 0.35403,-104.43434 6.67505,-132.59388 15.14796,-67.48277 50.61944,-174.62617 71.97567,-217.40612 27.03398,-54.1534 67.01228,-108.78808 126.37541,-172.70571 l 21.08781,-22.70572 16.94302,13.134872 c 25.40705,19.696488 33.51544,29.475738 91.90881,110.847988 33.76554,47.05292 74.0004,121.04952 88.95254,163.59412 23.27566,66.22814 28.80251,109.02671 28.87937,223.63405 0.0803,119.88703 -6.64797,172.467 -37.4574,292.71683 -22.2904,86.99992 -25.00951,89.99943 -112.97891,124.63025 l -31.92433,12.5676 -42.36138,-0.2924 c -23.29876,-0.1609 -46.4751,-1.271 -51.50298,-2.4669 z m 56.85811,-277.59909 c 17.17827,-3.64829 35.24035,-12.06529 72.28349,-33.68446 45.25929,-26.41428 61.19974,-47.29874 67.0646,-87.86506 7.96546,-55.09557 -3.03157,-97.81211 -39.84363,-154.76751 -21.0374,-32.54897 -57.62673,-66.18171 -71.99959,-66.18171 -1.96774,0 -14.99599,4.7328 -28.95167,10.51734 -39.39684,16.32977 -68.75373,46.51708 -90.55348,93.11506 -18.90483,40.40994 -29.3052,115.75157 -21.59177,156.41348 5.1703,27.25557 17.14915,51.93863 32.05371,66.04837 18.19301,17.22283 48.74395,23.36929 81.53834,16.40449 z"
       id="path4564"
       inkscape:connector-curvature="0"
       transform="scale(0.26458333)" />
    <path
       style="fill:#000000;stroke-width:0.26458332"
       id="path350"
       d="m 22.928143,143.32971 c 0.57567,0.5079 1.09306,1.0638 1.55956,1.67408 0.345446,0.51796 0.636429,1.06356 0.931103,1.61107 0.28733,0.50873 0.473784,1.05668 0.69927,1.59229 0.142682,0.34394 0.06067,0.18537 0.240096,0.47873 0,0 -3.226106,1.87018 -3.226106,1.87018 v 0 c -0.202923,-0.34244 -0.115592,-0.16703 -0.263962,-0.52524 -0.223607,-0.52383 -0.398015,-1.0649 -0.682845,-1.56252 -0.28376,-0.53085 -0.560152,-1.06203 -0.890825,-1.56604 -0.445971,-0.58648 -0.930897,-1.13252 -1.525421,-1.57442 0,0 3.15913,-1.99813 3.15913,-1.99813 z"
       inkscape:connector-curvature="0" />
    <path
       style="fill:#000000;stroke-width:0.26458332"
       id="path352"
       d="m 19.931295,159.90266 c 0.304999,-0.66824 0.569296,-1.35518 0.866021,-2.02773 0.25517,-0.55782 0.524105,-1.10845 0.789535,-1.66147 0.258302,-0.50134 0.510517,-1.00574 0.756275,-1.51349 0.176474,-0.32444 0.09255,-0.15977 0.251719,-0.49405 0,0 3.38551,-1.55747 3.38551,-1.55747 v 0 c -0.138075,0.36698 -0.05975,0.19059 -0.233277,0.52993 -0.304205,0.47292 -0.488188,1.01913 -0.757965,1.51256 -0.327441,0.51505 -0.526873,1.10876 -0.807432,1.65054 -0.350404,0.63701 -0.587055,1.339 -0.840716,2.01854 0,0 -3.40967,1.54264 -3.40967,1.54264 z"
       inkscape:connector-curvature="0" />
    <path
       style="fill:#000000;stroke-width:0.26458332"
       id="path356"
       d="m 21.770298,155.77689 c 0.02585,-0.8407 -0.01416,-1.67813 0.106873,-2.5124 0.0808,-0.47666 0.0306,-0.24444 0.148579,-0.69709 0,0 3.36545,-1.58309 3.36545,-1.58309 v 0 c -0.162124,0.40297 -0.09789,0.18711 -0.181952,0.6507 -0.151553,0.81078 -0.152034,1.62127 -0.108373,2.44487 0,0 -3.330577,1.69701 -3.330577,1.69701 z"
       inkscape:connector-curvature="0" />
    <path
       style="fill:#000000;stroke-width:0.26458332"
       id="path358"
       d="m 186.79015,125.86945 c -0.50506,0.59317 -1.05421,1.14554 -1.53122,1.76216 -0.38878,0.52068 -0.7909,1.0306 -1.22632,1.51314 -0.40532,0.40252 -0.72763,0.87196 -1.08498,1.31554 -0.3819,0.4879 -0.81359,0.93235 -1.18583,1.42761 -0.24064,0.33718 -0.49282,0.66544 -0.75565,0.98549 0,0 -3.4235,1.46815 -3.4235,1.46815 v 0 c 0.24535,-0.33253 0.52216,-0.63569 0.77065,-0.9663 0.32896,-0.53244 0.75983,-0.97964 1.17684,-1.44106 0.32285,-0.46757 0.67911,-0.9303 1.07149,-1.33441 0.40399,-0.50979 0.87656,-0.96281 1.25597,-1.49542 0.43365,-0.6403 0.9733,-1.19379 1.49974,-1.75558 0,0 3.43281,-1.47932 3.43281,-1.47932 z"
       inkscape:connector-curvature="0" />
    <path
       style="fill:#ffffff;stroke-width:1.42857146"
       d="m 978.86101,975.7538 c -24.26472,-4.21676 -66.59507,-22.34384 -85.67076,-36.68668 -14.27818,-10.73566 -31.85802,-29.5345 -39.5604,-42.30358 -13.33892,-22.11338 -25.63782,-48.55782 -30.37711,-65.31524 -2.49339,-8.81623 -6.12899,-20.70908 -8.0791,-26.42857 -5.64434,-16.5542 -7.36678,-24.48251 -11.25967,-51.82761 -2.0134,-14.14286 -4.6737,-30.21429 -5.91178,-35.71429 -1.23808,-5.5 -2.80937,-17.71429 -3.49176,-27.14286 -0.68238,-9.42857 -2.23148,-26.14285 -3.44243,-37.14285 -4.34974,-39.51196 -2.01896,-159.65965 3.5551,-183.25955 0.79458,-3.36418 3.06046,-14.29275 5.03527,-24.28571 4.20321,-21.2691 6.35872,-29.36366 18.53323,-69.5976 35.9137,-118.68653 47.59069,-146.12967 87.97878,-206.76682 22.6931,-34.07055 49.2925,-66.74741 92.3426,-113.441103 21.57842,-23.404708 19.03942,-22.693807 35.71882,-10.001117 15.9114,12.108262 34.6687,31.030245 46.2318,46.63761 19.5685,26.41285 32.3645,43.90156 35.0157,47.85714 1.5799,2.35715 8.1805,11.80967 14.6681,21.00562 24.4552,34.66454 46.3743,70.85818 62.9796,103.99438 13.1624,26.26607 18.8411,39.79912 27.5746,65.71429 10.9864,32.59998 15.0256,51.5977 22.4765,105.71428 l 4.2289,30.71429 0.013,78.70143 c 0.01,43.28577 -0.5885,83.78577 -1.3234,90 -0.7348,6.21421 -2.0815,18.04857 -2.9925,26.29857 -5.9296,53.69529 -19.5612,124.24347 -34.5043,178.57143 -3.9981,14.53571 -8.4611,31.82743 -9.9177,38.42601 -6.3435,28.7359 -27.6325,54.58543 -52.4832,63.72607 -2.8571,1.0509 -14.1947,5.85555 -25.1947,10.67699 -11,4.82143 -28.8492,11.94301 -39.6649,15.82573 l -19.665,7.05948 -39.6208,-0.19454 c -21.7915,-0.107 -41.22801,-0.47384 -43.19229,-0.8152 z m 52.86169,-281.64564 c 13.7489,-3.93364 33.0062,-12.5644 43.1733,-19.3495 4.9308,-3.29056 15.3936,-9.39706 23.2507,-13.57 29.3978,-15.61319 48.4071,-33.13719 57.7568,-53.24399 8.415,-18.09657 10.1004,-29.06608 10.1004,-65.73877 0,-42.7005 -2.3829,-51.71051 -25.2415,-95.44236 -15.1911,-29.06274 -22.5689,-39.2326 -45.4428,-62.64027 -16.1718,-16.5492 -21.8805,-21.43348 -29.6372,-25.35714 -11.1229,-5.62646 -15.481,-5.98509 -23.305,-1.91783 -3.1126,1.61804 -12.4638,5.70056 -20.7804,9.07223 -25.64625,10.39734 -41.81498,23.69184 -63.22722,51.98766 -17.72773,23.4268 -29.10957,46.90203 -36.56713,75.42023 -3.95337,15.11797 -5.28383,24.53942 -10.06759,71.29227 -2.17002,21.20815 -1.77893,34.21211 1.4379,47.81087 1.58587,6.70401 3.53954,15.08198 4.3415,18.6177 0.80196,3.53571 4.64713,12.99417 8.54483,21.01878 11.74585,24.18246 25.68592,36.74135 47.08743,42.42195 12.12753,3.21901 46.77978,2.99313 58.57598,-0.38183 z"
       id="path362"
       inkscape:connector-curvature="0"
       transform="matrix(0.26458333,0,0,0.26458333,-168.19834,13.232874)" />
    <path
       style="fill:#ffffff;stroke-width:1.42857146"
       d="m 186.71815,626.66639 c -18.61584,-2.78373 -31.77863,-4.19212 -39.1633,-4.19038 -16.19728,0.004 -72.979558,-12.17718 -72.979558,-15.65566 0,-1.37387 23.277323,-8.36167 31.428568,-9.43479 3.53572,-0.46548 12.85715,-2.02566 20.71429,-3.46708 7.85714,-1.44141 22.32143,-4.01259 32.14286,-5.71372 9.82143,-1.70113 22.67857,-4.05198 28.57143,-5.2241 5.89285,-1.17213 15.21428,-2.44082 20.71428,-2.81932 5.5,-0.37849 23.5,-2.5332 40,-4.78822 16.5,-2.25503 39.32143,-5.20121 50.71429,-6.54707 11.39285,-1.34586 24.89285,-3.00814 30,-3.69395 5.10714,-0.68582 17.64285,-1.92576 27.85714,-2.75543 10.21429,-0.82967 25,-2.13907 32.85714,-2.90979 7.85715,-0.77071 36.14286,-1.99124 62.85715,-2.71228 67.33275,-1.81737 118.93975,-3.91637 135,-5.49081 20.89977,-2.04887 50.69785,-5.81477 65.71428,-8.305 26.05049,-4.32006 39.33402,-6.09505 45.98712,-6.14497 3.68577,-0.0276 7.09871,-0.69313 7.58431,-1.47885 0.4856,-0.78571 3.09497,-1.42857 5.7986,-1.42857 3.73756,0 4.91044,0.59917 4.89381,2.5 -0.0379,4.3172 -1.87218,5.71828 -10.69241,8.1666 -4.71429,1.30859 -10.17857,2.91369 -12.14286,3.56688 -1.96428,0.6532 -7.42857,2.30654 -12.14285,3.67409 -4.71429,1.36755 -15.96429,5.57228 -25,9.34384 -17.581,7.33842 -25.97123,10.09602 -62.85715,20.65911 -65.73617,18.825 -80.46303,22.2264 -124.28571,28.70578 -51.04209,7.54681 -61.7963,8.86278 -97.85714,11.97464 -8.64286,0.74584 -18.60715,2.09643 -22.14286,3.00132 -7.978,2.0418 -150.90289,3.06214 -163.57143,1.16773 z"
       id="path364"
       inkscape:connector-curvature="0"
       transform="matrix(0.26458333,0,0,0.26458333,-168.19834,13.232874)" />
    <path
       style="fill:#ffffff;stroke-width:1.42857146"
       d="m 151.00386,519.70813 c -33.21813,-5.95201 -96.443691,-25.76179 -99.858907,-31.28773 -0.345305,-0.55871 3.338831,-2.19121 8.18697,-3.62777 4.848139,-1.43656 17.814798,-5.41843 28.814798,-8.8486 36.835329,-11.4865 55.212369,-16.33478 83.972709,-22.15387 l 28.57232,-5.78106 93.72749,0.64051 c 93.52477,0.63913 126.5629,1.82809 163.0132,5.86647 85.58074,9.48162 138.8067,16.82093 167.85714,23.14578 12.57143,2.73705 28.96428,6.26807 36.42857,7.84672 7.46429,1.57865 21.19601,5.08184 30.51494,7.78487 13.30419,3.85897 17.60003,5.73826 20,8.74933 7.0178,8.8047 7.17753,8.14328 -2.41254,9.98982 -4.84917,0.93369 -13.95954,1.74849 -20.24526,1.81065 -6.28571,0.0622 -17.21428,1.14738 -24.28571,2.41159 -21.99433,3.93207 -80.68916,5.03573 -294.28572,5.53354 -192.71797,0.44916 -206.6168,0.31774 -220,-2.08025 z"
       id="path366"
       inkscape:connector-curvature="0"
       transform="matrix(0.26458333,0,0,0.26458333,-168.19834,13.232874)" />
    <path
       style="fill:#ffffff;stroke-width:1.42857146"
       d="m 1623.0425,450.50721 c -0.876,-0.91701 -25.7949,-3.11357 -60.6101,-5.34265 -37.7646,-2.41793 -114.0391,-4.45788 -173.7298,-4.64638 l -58.0155,-0.18321 3.5422,-4.64285 c 1.9482,-2.55358 3.7761,-4.64286 4.0619,-4.64286 0.2858,0 18.0487,-4.46487 39.4733,-9.92192 77.2375,-19.67322 169.0954,-35.23351 228.2394,-38.66265 12.9643,-0.75166 28.7143,-2.03643 35,-2.85505 20.9758,-2.73179 69.3519,-4.5791 137.6155,-5.25505 64.2148,-0.63585 68.2384,-0.52385 80,2.22687 19.7958,4.6297 37.1314,7.64833 50.9559,8.87289 36.6811,3.24916 48.285,5.90576 50.0472,11.45777 1.9188,6.04559 -10.5463,19.92521 -21.6132,24.06586 -7.2789,2.72339 -34.3138,11.12363 -69.8626,21.7076 l -15.7143,4.67862 -86.4285,1.00224 c -47.5357,0.55123 -98.9643,1.45121 -114.2857,1.99996 -15.3215,0.54875 -28.2255,0.61211 -28.6757,0.1408 z"
       id="path368"
       inkscape:connector-curvature="0"
       transform="matrix(0.26458333,0,0,0.26458333,-168.19834,13.232874)" />
    <path
       style="fill:#ffffff;stroke-width:1.42857146"
       d="m 1772.9021,536.81529 c -9.1702,-1.36973 -25.8845,-3.24104 -37.1428,-4.15847 -31.3011,-2.55068 -95.1976,-10.27376 -114.0411,-13.78399 -5.8929,-1.09773 -14.5715,-2.0309 -19.2858,-2.0737 -4.7142,-0.0428 -12.75,-1.07102 -17.8571,-2.28494 -8.8507,-2.10372 -16.9289,-3.24514 -44.2857,-6.25743 -6.6786,-0.73539 -20.8214,-2.64013 -31.4286,-4.23278 -37.2558,-5.59388 -62.1155,-8.04901 -100,-9.87596 l -20.7143,-0.99892 18.5715,-1.09782 c 50.9147,-3.00973 118.9474,-8.51819 146.3117,-11.84655 9.7572,-1.18677 25.5072,-2.0441 35,-1.90517 66.31,0.97046 178.8774,0.16935 200.1168,-1.42418 41.2523,-3.09504 82.9575,-3.45647 100.3685,-0.86983 8.3593,1.24189 21.0176,2.60778 28.1294,3.0353 13.2067,0.79391 34.4496,4.51869 50.4307,8.84266 l 8.9286,2.41578 v 20.29067 c 0,11.15988 -0.5245,20.61483 -1.1655,21.01101 -0.6411,0.39618 -10.7067,2.36269 -22.3682,4.37002 -20.9039,3.59829 -22.2006,3.64748 -92.0487,3.49221 -59.459,-0.13217 -73.5261,-0.55778 -87.5194,-2.64791 z"
       id="path370"
       inkscape:connector-curvature="0"
       transform="matrix(0.26458333,0,0,0.26458333,-168.19834,13.232874)" />
  </g>
</svg>
