<?xml version="1.0" encoding="UTF-8" standalone="no"?>
<!-- Created with Inkscape (http://www.inkscape.org/) -->

<svg
   xmlns:dc="http://purl.org/dc/elements/1.1/"
   xmlns:cc="http://creativecommons.org/ns#"
   xmlns:rdf="http://www.w3.org/1999/02/22-rdf-syntax-ns#"
   xmlns:svg="http://www.w3.org/2000/svg"
   xmlns="http://www.w3.org/2000/svg"
   xmlns:sodipodi="http://sodipodi.sourceforge.net/DTD/sodipodi-0.dtd"
   xmlns:inkscape="http://www.inkscape.org/namespaces/inkscape"
   width="777.15973"
   height="613.28467"
   viewBox="0 0 777.15973 613.28467"
   version="1.1"
   id="SVGRoot"
   inkscape:version="0.92.4 (5da689c313, 2019-01-14)"
   sodipodi:docname="goa_crimson.svg">
  <defs
     id="defs3755" />
  <sodipodi:namedview
     id="base"
     pagecolor="#ffffff"
     bordercolor="#666666"
     borderopacity="1.0"
     inkscape:pageopacity="0.0"
     inkscape:pageshadow="2"
     inkscape:zoom="0.90509668"
     inkscape:cx="358.36037"
     inkscape:cy="361.61731"
     inkscape:document-units="px"
     inkscape:current-layer="layer1"
     showgrid="false"
     inkscape:window-width="1366"
     inkscape:window-height="706"
     inkscape:window-x="-8"
     inkscape:window-y="-8"
     inkscape:window-maximized="1"
     fit-margin-top="0"
     fit-margin-left="0"
     fit-margin-right="0"
     fit-margin-bottom="0" />
  <metadata
     id="metadata3758">
    <rdf:RDF>
      <cc:Work
         rdf:about="">
        <dc:format>image/svg+xml</dc:format>
        <dc:type
           rdf:resource="http://purl.org/dc/dcmitype/StillImage" />
        <dc:title />
      </cc:Work>
    </rdf:RDF>
  </metadata>
  <g
     inkscape:label="Calque 1"
     inkscape:groupmode="layer"
     id="layer1"
     transform="translate(42.675422,-37.904056)">
    <path
       style="fill:#000000"
       id="path3768"
       d="m 340.39251,52.97809 c -2.28335,0.788526 -4.38255,2.01203 -6.48125,3.186686 -0.85483,0.478453 -3.40807,1.933766 -2.55648,1.449572 12.20801,-6.941207 15.00793,-8.982025 9.27932,-5.002012 -3.11997,2.232908 -6.20983,4.520152 -8.99708,7.163003 -1.75341,2.012605 -3.78127,3.753587 -5.56741,5.732772 -2.5141,2.888508 -4.98554,5.813218 -7.5098,8.692951 -2.69667,3.093583 -5.60871,5.986597 -8.23624,9.139523 -2.88748,3.479984 -5.34747,7.283677 -7.90423,11.00665 -2.3514,3.494075 -4.87962,6.862835 -7.28911,10.315645 -3.88082,5.28298 -7.39272,10.81767 -10.7463,16.4457 -3.61513,5.91174 -7.22059,11.8143 -10.52918,17.90507 -2.95413,5.79906 -6.22517,11.4256 -9.1919,17.2175 -3.89777,7.88817 -7.78372,15.78094 -11.48504,23.7636 -2.8824,6.15482 -5.55418,12.40434 -8.14507,18.68638 -3.00039,8.01197 -5.65939,16.15456 -8.26032,24.30453 -2.80914,9.072 -5.81932,18.08046 -8.45975,27.20426 -2.00204,7.30265 -3.99991,14.60952 -5.82332,21.95916 -1.78301,7.14279 -3.52298,14.30608 -4.99316,21.52114 -1.6455,7.94648 -3.28304,15.88682 -4.4785,23.91506 -1.10556,7.54543 -2.01699,15.12212 -2.85758,22.7019 -0.49289,6.17178 -1.09576,12.33339 -1.4974,18.51253 -0.30285,5.65421 -0.396,11.31815 -0.44562,16.97951 -0.0164,5.1963 0.0186,10.39259 0.0371,15.58885 0.006,4.54092 0.0157,9.08176 0.022,13.62269 -0.0891,3.91806 0.12569,7.83748 0.7714,11.70379 0.58713,3.82888 1.66245,7.54862 2.54313,11.31226 0.97859,3.26804 1.97755,6.51821 2.86797,9.81195 1.16983,3.46409 2.34631,6.92869 3.43022,10.42102 1.08275,3.23133 2.01467,6.47881 3.31786,9.63143 1.52609,3.47696 3.09082,6.93375 5.03624,10.20074 1.33679,2.21906 2.73962,4.3967 4.14544,6.57548 1.05066,1.92906 2.41354,3.63131 3.5477,5.51102 1.363,1.78825 2.69785,3.59051 4.05714,5.38071 1.75804,2.47186 3.69291,4.80861 5.51096,7.23744 1.79327,2.39866 3.68311,4.77578 5.86098,6.84023 1.71359,1.75834 3.24577,3.68784 5.09406,5.30877 1.76499,1.66934 3.67265,3.17863 5.4719,4.81455 2.12702,1.69122 4.39726,3.19348 6.46173,4.96094 2.19676,1.90244 4.62518,3.46121 7.03938,5.06237 2.43399,1.82031 5.03414,3.38973 7.55292,5.08648 2.3034,1.39727 4.6693,2.71181 6.89569,4.228 2.09083,1.28708 4.00978,2.81594 6.14565,4.03216 2.76297,1.95259 5.76246,3.54681 8.66647,5.29043 4.47397,2.80448 9.09415,5.36808 13.8954,7.56672 2.96032,1.42826 5.80727,3.07967 8.74168,4.55843 3.29303,1.81057 6.84877,3.10235 10.30406,4.57942 3.48786,1.73511 7.24627,2.80018 10.89431,4.12871 2.95384,0.96295 5.77927,2.28023 8.77901,3.10172 3.59697,0.93498 7.22292,1.73515 10.83593,2.60792 3.59474,0.68132 7.11615,1.66978 10.73844,2.20298 4.0311,0.98078 8.14703,1.50015 12.23529,2.16893 4.67862,0.96503 9.46859,1.05327 14.1853,1.68782 3.94249,0.53928 7.90287,0.89614 11.85667,1.34074 4.34639,0.48496 8.71687,0.66053 13.08635,0.75653 4.10355,0.18553 8.1857,0.69656 12.29486,0.91711 5.36485,0.25518 10.73756,0.25233 16.10718,0.26101 3.75535,-0.0193 7.51073,-0.0289 11.2661,-0.0428 3.3988,0.003 6.79757,0.006 10.19635,-0.007 3.43921,0.34732 6.54734,-0.6459 9.73127,-1.80013 4.36108,-1.7303 8.60732,-3.77738 12.654,-6.15208 7.15018,-3.97658 -7.04154,4.08732 -10.60028,6.06361 -0.48692,0.27041 0.92369,-0.62264 1.38217,-0.93888 1.24552,-0.85912 2.45092,-1.76814 3.66344,-2.67264 2.32845,-1.55549 4.4302,-3.4077 6.65119,-5.10471 2.55428,-1.87244 4.8837,-4.01787 7.17699,-6.19489 2.67407,-2.36624 4.92786,-5.13083 7.32424,-7.76167 2.50974,-2.5617 5.05985,-5.06934 7.30791,-7.8683 1.8116,-2.21625 3.52015,-4.5104 5.1768,-6.84392 1.66433,-2.34298 3.25263,-4.72231 4.66989,-7.22348 1.75103,-3.11185 3.49265,-6.22899 5.2258,-9.35132 1.87116,-3.58505 3.77239,-7.15442 5.40241,-10.85694 2.11539,-4.38425 3.53448,-9.04742 5.03434,-13.66482 1.85509,-5.92452 3.63093,-11.87802 5.28051,-17.864 1.69022,-5.72472 3.03892,-11.53297 4.37044,-17.34801 1.12271,-4.72828 1.77273,-9.54884 2.63149,-14.32866 0.75042,-5.1572 1.62951,-10.29897 2.23055,-15.47682 0.55306,-4.99164 0.9829,-9.99619 1.50963,-14.9903 0.60504,-4.41863 0.96625,-8.86072 1.15816,-13.31467 0.24001,-5.28491 0.18632,-10.57851 0.17291,-15.86751 -0.0532,-4.3874 -0.0333,-8.77503 -0.0249,-13.16257 -0.0302,-4.23795 -0.006,-8.47602 -0.0276,-12.71398 0.13598,-4.11711 -0.0664,-8.17609 -0.73276,-12.23889 -0.60145,-4.09601 -1.7046,-8.09299 -2.59589,-12.1305 -1.09566,-3.97366 -2.39528,-7.89924 -3.74513,-11.79453 -1.15426,-4.13641 -2.85504,-8.0643 -4.63636,-11.95961 -1.50394,-3.68755 -3.11265,-7.3306 -4.6286,-11.01351 -1.73151,-4.23291 -3.70535,-8.36804 -5.74605,-12.46019 -2.14084,-4.28567 -4.25069,-8.58254 -6.4617,-12.83288 -2.40313,-4.55978 -4.88525,-9.07804 -7.31964,-13.62176 -2.38371,-4.19073 -4.83189,-8.34853 -7.38046,-12.44119 -3.45986,-5.67176 -6.87665,-11.3634 -10.24078,-17.09291 -2.81444,-4.0033 -5.46561,-8.10955 -8.18191,-12.17992 -2.46522,-3.60249 -4.83708,-7.26113 -7.38826,-10.80554 -2.82813,-3.90859 -5.76202,-7.74236 -8.63998,-11.61689 -3.13349,-3.88136 -6.04656,-7.94045 -9.20251,-11.80225 -2.24036,-2.8784 -4.41398,-5.80727 -6.71095,-8.64306 -2.26859,-3.05567 -4.77402,-5.91883 -7.10236,-8.92727 -1.86141,-2.40678 -3.92677,-4.63627 -5.80819,-7.02632 -1.74113,-2.31419 -3.47236,-4.63725 -5.20612,-6.95872 -2.20362,-2.67663 -4.12724,-5.5418 -6.11366,-8.37828 -2.42975,-3.20431 -5.04194,-6.26927 -7.61492,-9.36014 -2.14821,-2.67128 -4.41345,-5.23463 -6.63341,-7.84492 -2.11574,-2.19754 -4.28869,-4.24394 -6.16129,-6.66504 -1.91923,-2.5746 -4.20131,-4.84156 -6.37122,-7.20242 -2.13429,-2.68514 -4.64543,-5.04022 -7.06293,-7.46464 -2.48985,-2.58543 -5.14815,-4.98906 -7.76839,-7.43465 -1.72208,-1.34916 -3.25261,-2.884738 -4.70227,-4.517047 -1.46471,-1.523611 -2.97919,-3.031018 -4.59892,-4.393259 -1.21858,-1.12511 -2.32029,-2.379565 -3.57302,-3.466084 -1.19608,-1.393337 -2.73934,-2.416481 -4.11893,-3.607457 -1.39762,-1.46919 -3.07644,-2.565086 -4.6753,-3.776227 -1.63495,-1.24624 -3.18538,-2.580804 -4.75589,-3.910315 -1.40455,-1.359146 -2.87407,-2.57059 -4.25984,-3.950871 -1.26213,-0.974004 -2.54962,-1.941771 -3.66954,-3.082054 -0.95735,-1.272508 -2.05631,-2.403186 -3.11498,-3.597505 -1.13822,-1.367678 -2.3856,-2.639351 -3.53414,-3.997391 -1.10423,-1.161084 -2.2996,-2.236813 -3.36574,-3.433691 -1.10864,-1.096551 -2.27431,-2.146384 -3.31426,-3.311255 -1.34828,-0.75453 -2.22749,-2.07566 -3.50093,-2.917277 -1.49558,-0.55741 -2.65035,-1.694195 -4.0963,-2.343482 -0.95346,-0.560069 -1.79532,-1.250823 -2.70411,-1.874855 0,0 13.85237,-8.813224 13.85237,-8.813224 v 0 c 0.82975,0.606205 1.66647,1.199278 2.57501,1.684915 1.43342,0.82577 2.7947,1.774982 4.24888,2.569218 1.24865,1.026305 2.3797,2.184934 3.66098,3.172518 1.07984,1.129654 2.21354,2.207188 3.31534,3.315142 1.11416,1.174915 2.28142,2.298229 3.38176,3.486752 1.16888,1.339465 2.35963,2.660765 3.54408,3.985593 0.99761,1.182097 2.11365,2.23791 3.04168,3.476768 1.18227,1.091596 2.46723,2.061405 3.67725,3.121529 1.31036,1.367321 2.80716,2.491493 4.14005,3.838225 1.55701,1.296986 3.089,2.611904 4.72866,3.805696 1.65925,1.188388 3.20516,2.496727 4.70996,3.877551 1.43328,1.170765 2.94757,2.25991 4.19485,3.639679 1.19135,1.137818 2.34236,2.317021 3.53213,3.456573 1.60319,1.472789 3.1798,2.982573 4.67619,4.563093 1.44356,1.565681 2.96052,3.052217 4.56728,4.451693 2.58701,2.485952 5.18216,4.962036 7.70885,7.511269 2.47908,2.41012 4.98786,4.80852 7.17684,7.49162 2.18618,2.4001 4.44961,4.74047 6.43577,7.31141 1.87324,2.37303 4.07594,4.37886 6.11446,6.60261 2.25819,2.59025 4.37938,5.28713 6.60028,7.90756 2.56409,3.15437 5.18731,6.25864 7.68035,9.46844 1.97282,2.82463 3.96792,5.61905 6.12871,8.30465 1.74281,2.30267 3.51103,4.583 5.22004,6.91042 1.87839,2.39741 3.94148,4.63668 5.77561,7.07006 2.28555,3.0246 4.7211,5.92645 7.07953,8.8945 2.27492,2.84738 4.44068,5.77608 6.61924,8.69652 3.10969,3.91404 6.02012,7.98665 9.13735,11.89713 2.95884,3.83136 5.94551,7.64749 8.70712,11.62492 2.55502,3.56839 5.09285,7.14263 7.50468,10.80968 2.69239,4.11647 5.24206,8.32113 8.01597,12.38405 3.29761,5.74759 6.72353,11.41496 10.29447,16.99746 2.60034,4.10696 5.20276,8.2162 7.47502,12.51791 2.41931,4.55881 4.86734,9.10065 7.38426,13.60342 2.21688,4.25822 4.24267,8.60391 6.3932,12.89444 2.10114,4.1079 4.20935,8.22508 5.89895,12.52389 1.479,3.67513 3.22366,7.23544 4.64267,10.93536 1.76755,3.95734 3.45923,7.94944 4.61976,12.13572 1.37537,3.95196 2.86204,7.87854 3.91742,11.92999 0.83452,4.08046 2.01703,8.08913 2.57966,12.22363 0.68578,4.13723 1.16661,8.2458 0.89711,12.45094 -0.0213,4.24613 0.003,8.49237 -0.0223,12.73852 0.0134,4.39316 0.0434,8.78642 -0.005,13.17952 -0.0172,5.29849 -0.066,10.59673 -0.0863,15.89513 -0.16612,4.50308 -0.51027,8.99149 -1.15481,13.45415 -0.65848,4.97353 -0.9087,9.99955 -1.51211,14.98068 -0.57047,5.21644 -1.55962,10.36814 -2.22565,15.57271 -0.76114,4.83383 -1.48507,9.68517 -2.6219,14.44684 -1.46152,5.79934 -2.5967,11.68583 -4.3665,17.40594 -1.66104,5.98949 -3.49232,11.93181 -5.20751,17.90544 -1.48554,4.61998 -2.77692,9.31897 -4.8265,13.7342 -1.58204,3.76996 -3.51457,7.35081 -5.37432,10.99 -1.60134,3.15815 -3.44159,6.19853 -5.11166,9.31558 -1.33532,2.57365 -2.87243,5.02305 -4.58821,7.36013 -1.56396,2.43543 -3.36387,4.71856 -5.17313,6.97468 -2.22019,2.86091 -4.67998,5.46823 -7.24358,8.02147 -2.57353,2.48846 -4.62399,5.46956 -7.33659,7.82994 -2.26678,2.19607 -4.51907,4.42084 -7.03197,6.33987 -2.24418,1.68607 -4.36111,3.51854 -6.6438,5.15427 -1.73325,1.1758 -3.30207,2.60484 -5.10388,3.68116 -5.10936,3.05209 -10.24571,6.05881 -15.37974,9.06922 -0.55142,0.32334 -1.11741,0.62115 -1.67612,0.93173 -4.14753,2.25408 -8.41262,4.3309 -12.8575,5.93374 -3.32913,1.07838 -6.60185,1.71975 -10.12402,1.42578 -3.39568,-0.0115 -6.79136,-0.007 -10.18704,0.002 -3.71683,-0.008 -7.43372,-0.007 -11.15036,-0.0527 -5.38678,-0.0439 -10.77329,-0.13546 -16.15708,-0.32628 -4.11877,-0.23969 -8.22141,-0.69224 -12.34418,-0.82589 -4.37281,-0.14787 -8.74003,-0.43216 -13.08968,-0.91446 -3.98186,-0.42047 -7.98065,-0.68101 -11.9379,-1.31621 -4.69625,-0.54967 -9.41656,-0.92183 -14.06618,-1.82831 -4.15773,-0.61016 -8.33665,-1.07389 -12.43277,-2.04441 -3.60928,-0.64098 -7.1485,-1.60921 -10.74014,-2.33992 -3.66811,-0.83984 -7.3415,-1.65144 -10.97809,-2.62383 -2.97297,-0.94958 -5.84639,-2.18028 -8.79495,-3.20209 -3.66962,-1.30446 -7.36313,-2.56397 -10.88818,-4.23469 -3.52542,-1.45516 -7.09875,-2.83179 -10.46865,-4.62669 -2.87301,-1.52823 -5.72739,-3.09184 -8.62246,-4.57702 -4.73691,-2.37452 -9.30285,-5.04607 -13.86928,-7.7308 -3.00084,-1.66403 -6.10719,-3.16895 -8.91202,-5.15733 -2.10401,-1.30467 -4.09564,-2.77186 -6.17317,-4.11712 -2.25653,-1.48219 -4.63017,-2.77411 -6.90517,-4.22774 -2.50607,-1.68851 -5.02093,-3.36309 -7.48473,-5.11265 -2.47564,-1.62892 -4.97565,-3.2265 -7.21338,-5.18389 -2.08974,-1.75831 -4.37007,-3.26062 -6.46892,-5.00683 -1.82608,-1.60906 -3.75864,-3.09906 -5.48287,-4.81993 -1.8112,-1.69267 -3.44355,-3.55763 -5.1383,-5.36495 -2.14422,-2.2052 -4.07619,-4.61882 -5.89697,-7.09494 -1.83235,-2.41901 -3.83743,-4.70359 -5.59903,-7.17795 -1.39182,-1.83506 -2.81974,-3.64177 -4.17049,-5.5085 -1.1385,-1.85522 -2.46677,-3.57143 -3.51274,-5.48269 -1.41376,-2.19719 -2.78073,-4.42656 -4.08573,-6.6882 -1.94127,-3.35032 -3.48733,-6.90146 -5.11788,-10.40928 -1.34198,-3.20303 -2.41062,-6.44779 -3.39271,-9.77949 -1.02473,-3.5235 -2.30599,-6.96316 -3.50157,-10.43114 -0.9068,-3.31451 -1.81002,-6.62097 -2.85181,-9.89673 -0.8445,-3.79928 -1.94093,-7.54238 -2.60488,-11.38135 -0.68665,-3.95333 -0.9302,-7.97345 -0.82505,-11.98359 0.005,-4.54584 0.011,-9.09155 0.009,-13.63738 0.01,-5.21631 0.0285,-10.43259 0.0554,-15.64884 0.0221,-5.69715 0.0639,-11.39486 0.44682,-17.08235 0.38484,-6.20346 0.93764,-12.39558 1.47661,-18.58697 0.85567,-7.63618 2.0285,-15.23514 3.02402,-22.854 1.23745,-7.99734 2.64662,-15.96418 4.24642,-23.8969 1.52536,-7.22366 3.37497,-14.37635 4.97689,-21.58359 1.85514,-7.40525 3.9874,-14.73801 6.00952,-22.09871 2.49732,-9.20939 5.84575,-18.15471 8.5712,-27.29702 2.37889,-8.16391 5.13068,-16.20296 7.82921,-24.26571 2.59827,-6.35114 5.34052,-12.64477 8.29761,-18.83774 3.73287,-7.95794 7.66873,-15.81544 11.39746,-23.77378 2.87182,-5.84143 6.06619,-11.49626 9.11958,-17.2423 3.3203,-6.09746 6.78841,-12.1039 10.51404,-17.96435 3.30979,-5.58735 6.68969,-11.13689 10.45985,-16.42973 2.33821,-3.50166 4.93251,-6.82139 7.28585,-10.31314 2.5426,-3.75669 5.07155,-7.537555 7.85705,-11.118141 2.5132,-3.294013 5.46979,-6.168953 8.2515,-9.23365 2.50305,-2.814593 4.88583,-5.721271 7.31406,-8.597575 1.74436,-2.078661 3.76418,-3.838295 5.58029,-5.847177 2.67126,-2.895209 5.90488,-5.193879 9.08629,-7.492882 7.00192,-5.233501 1.80158,-1.468911 18.10134,-10.957539 3.03567,-1.767165 6.16668,-3.434221 9.48685,-4.601304 0,0 -12.89435,10.017568 -12.89435,10.017568 z"
       inkscape:connector-curvature="0" />
    <path
       style="fill:#000000"
       id="path3770"
       d="m 286.9795,270.90271 c 0.96923,2.92164 2.65798,5.52471 4.34497,8.07315 1.84529,2.53478 3.44977,5.23003 5.2621,7.78711 2.05435,2.5995 3.88346,5.36167 5.81388,8.05108 1.96946,2.82647 3.88749,5.68537 5.76059,8.57636 2.05466,3.10278 4.03067,6.23561 6.30512,9.18576 2.35536,3.22663 4.52523,6.58886 7.02717,9.70662 2.39793,3.16972 4.71341,6.39498 7.13282,9.54864 1.9934,2.42407 3.76798,5.01326 5.72131,7.46797 1.91301,2.13034 3.62396,4.42542 5.45346,6.62562 2.12049,2.84545 4.25547,5.68057 6.48824,8.43922 2.56219,3.1893 5.29647,6.22084 7.98925,9.29751 2.27519,2.4236 4.36029,5.06953 6.81325,7.31424 1.72365,1.62584 3.23856,3.45848 4.91256,5.13208 1.15425,1.17602 2.15941,2.5637 3.45016,3.5956 0.0684,-0.0426 0.2028,-0.0472 0.20528,-0.12776 0.008,-0.25757 0.0488,-0.87417 -0.17819,-0.75226 -4.70013,2.5238 -9.1054,5.56444 -13.73159,8.22134 -0.14672,0.0843 0.16927,-0.29667 0.2162,-0.45922 0.13032,-0.45135 0.17479,-1.31012 0.21057,-1.72862 0.1036,-2.41924 0.0699,-4.84191 0.0576,-7.26265 -0.0216,-2.42313 -0.0192,-4.84605 0.005,-7.26911 -5.4e-4,-3.12364 0.0238,-6.24711 0.0121,-9.37075 0.0437,-2.89673 -0.11829,-5.80028 0.0711,-8.69226 0.46516,-2.96257 1.21378,-5.87308 1.78976,-8.81993 0.6048,-3.52302 1.65488,-6.94234 2.55116,-10.39596 0.60318,-3.02902 1.74138,-5.90027 2.46892,-8.89768 0.62577,-2.57934 1.38559,-5.11985 2.12518,-7.66736 0.4163,-2.0478 0.91795,-4.06252 1.54077,-6.05777 0.79954,-1.92359 1.18754,-3.9464 1.40358,-6.00664 0.34853,-2.2076 0.80816,-4.38813 1.04627,-6.61293 0.12574,-2.24631 0.67199,-4.43489 0.9828,-6.65802 0.15714,-2.01754 0.68766,-3.97856 1.16692,-5.9378 0.48068,-2.05344 1.34142,-4.00826 1.7391,-6.07846 0.007,-1.58002 -2.11714,-1.27665 -3.24317,-1.35215 -2.38757,-0.10441 -4.77846,-0.0615 -7.16737,-0.0413 -2.2337,0.12157 -4.59403,0.4416 -6.73925,1.12396 -2.45902,0.63112 -4.98433,0.88767 -7.51149,1.03661 -2.49591,-0.11446 -4.8477,0.56772 -7.22092,1.2334 -2.66527,0.74973 -5.47266,0.62931 -8.15684,1.20701 -2.47017,0.40463 -4.89513,0.99699 -7.35295,1.46476 -2.44741,0.23859 -4.78922,0.96629 -7.21402,1.34828 -2.27015,0.0737 -4.44376,0.56823 -6.66661,0.96923 -2.25302,0.19456 -4.39595,0.88999 -6.62623,1.24138 -2.25442,0.1271 -4.40581,0.7893 -6.63362,1.12035 -2.11519,-7.4e-4 -4.07609,0.54326 -6.11624,0.98437 0,0 13.04372,-9.92304 13.04372,-9.92304 v 0 c 2.02864,-0.47005 4.08538,-0.58336 6.14141,-0.89342 2.2034,-0.41533 4.39334,-0.87288 6.62261,-1.13446 2.2028,-0.44548 4.38764,-0.95989 6.61949,-1.24998 2.21335,-0.42616 4.4426,-0.62429 6.6703,-0.95373 2.38621,-0.47138 4.75644,-1.00784 7.16529,-1.35891 2.45721,-0.52173 4.91637,-1.02454 7.39679,-1.42697 2.70099,-0.31976 5.42531,-0.54363 8.0462,-1.32565 2.44188,-0.62946 4.90204,-0.98392 7.42816,-1.00281 2.48501,-0.22113 4.95164,-0.59349 7.35765,-1.27219 2.29951,-0.43295 4.61162,-0.88744 6.96428,-0.80364 2.42744,-0.009 4.86198,-0.0409 7.2811,0.19265 2.22127,0.33214 4.27591,1.02916 4.60161,3.56032 -0.16085,2.1987 -1.14725,4.17564 -1.63548,6.31095 -0.61741,1.83616 -0.99266,3.81926 -1.29492,5.72051 -0.2546,2.22235 -0.80576,4.39105 -1.00537,6.6111 -0.18444,2.22554 -0.50254,4.43198 -1.04682,6.60099 -0.1558,2.1658 -0.40236,4.3393 -1.20533,6.37647 -0.78476,1.91229 -1.26504,3.93726 -1.62821,5.96634 -0.67847,2.56186 -1.55463,5.06452 -2.2158,7.63314 -0.67078,3.03615 -1.76322,5.92317 -2.47054,8.9429 -0.87996,3.43833 -2.00819,6.81728 -2.61532,10.32149 -0.56928,2.88991 -1.05572,5.78813 -1.77273,8.64404 -0.4024,2.83226 -0.0804,5.71642 -0.19352,8.56908 -0.0117,3.11866 0.0122,6.23714 0.0148,9.3558 0.0275,2.41472 0.0357,4.82936 0.0337,7.24424 0.005,2.43903 0.0135,4.87809 0.004,7.31713 -6.5e-4,0.20984 0.15261,2.5475 -0.056,2.69251 -9.55577,6.64332 -10.08406,12.49014 -15.28054,8.17236 -1.16614,-1.21617 -2.32231,-2.44304 -3.42914,-3.71321 -1.59996,-1.70669 -3.13728,-3.47324 -4.79258,-5.12605 -2.40723,-2.37291 -4.56975,-4.99571 -6.88327,-7.46185 -2.6408,-3.12531 -5.27909,-6.24969 -7.89904,-9.39243 -2.28042,-2.72448 -4.498,-5.50345 -6.62375,-8.34902 -1.83658,-2.21051 -3.55727,-4.51335 -5.46939,-6.66084 -1.94809,-2.47053 -3.70485,-5.08174 -5.66657,-7.5424 -2.37059,-3.17707 -4.70628,-6.37748 -7.11715,-9.5247 -2.43713,-3.17288 -4.67924,-6.48856 -7.01345,-9.73708 -2.28061,-2.99713 -4.37365,-6.11504 -6.43903,-9.26283 -1.83539,-2.88554 -3.7381,-5.72222 -5.73423,-8.50026 -1.91403,-2.70356 -3.73032,-5.47466 -5.80483,-8.06262 -1.8186,-2.57217 -3.47004,-5.25592 -5.29675,-7.82207 -1.77747,-2.66319 -3.3917,-5.44467 -4.68369,-8.37846 0,0 14.37406,-7.91643 14.37406,-7.91643 z"
       inkscape:connector-curvature="0" />
    <path
       style="fill:#000000"
       id="path3772"
       d="m 341.11736,279.74155 c 0.87111,2.78168 1.25273,5.67097 1.82676,8.51729 0.60783,2.38497 0.98333,4.8093 1.18504,7.25933 0.1479,2.22558 0.14705,4.45728 0.15084,6.68667 -0.0414,2.04362 0.50137,4.0318 0.74282,6.05391 0.32115,2.39756 0.18254,4.82638 0.4262,7.2261 0.35245,2.78398 0.58406,5.57778 1.13084,8.33189 0.5678,2.52806 0.70029,5.11388 1.16697,7.6587 0.43728,2.37779 1.18839,4.67264 1.61447,7.05473 0.35428,2.07766 1.06399,4.03933 1.73342,6.02549 0.3412,1.24124 0.15023,0.66457 0.5542,1.7361 0,0 -14.32807,7.97535 -14.32807,7.97535 v 0 c -0.46989,-1.20485 -0.27885,-0.59976 -0.58098,-1.81276 -0.66561,-2.07562 -1.41179,-4.11024 -1.82243,-6.26154 -0.36777,-2.39034 -1.11516,-4.67494 -1.57243,-7.04309 -0.47715,-2.53968 -0.67211,-5.10255 -1.15455,-7.64144 -0.55749,-2.79377 -0.78819,-5.6144 -1.20832,-8.43121 -0.33116,-2.39572 -0.16261,-4.8238 -0.43752,-7.22894 -0.23544,-2.08358 -0.83359,-4.11841 -0.83917,-6.216 9.1e-4,-2.19515 0.01,-4.39166 -0.0927,-6.585 -0.14796,-2.39033 -0.44609,-4.76423 -1.0383,-7.08997 -0.59646,-2.76813 -0.79401,-5.63435 -1.83113,-8.29919 0,0 14.37406,-7.91642 14.37406,-7.91642 z"
       inkscape:connector-curvature="0" />
    <path
       style="fill:#000000"
       id="path3774"
       d="m 434.04441,274.93931 c 1.95532,2.47966 3.95745,4.92922 6.12531,7.22696 1.67833,1.90503 3.15379,3.97039 4.65302,6.01606 1.87704,2.29486 3.59945,4.74167 5.66055,6.87806 2.29478,2.44767 4.15707,5.23832 6.11349,7.95011 1.97052,3.15064 4.56873,5.81589 6.81672,8.75746 1.72739,2.19899 3.60437,4.26096 5.38779,6.41107 1.28388,1.62789 2.70417,3.13726 4.03102,4.72665 1.72222,1.75041 3.09004,3.80701 4.75039,5.62241 1.67991,1.70344 3.10953,3.60966 4.63318,5.44419 1.38882,1.44025 2.52684,3.05971 3.71677,4.65476 0.86814,1.22419 1.73734,2.5435 2.88544,3.52722 4.48451,-3.27664 -1.43244,1.06047 -13.8894,7.24532 -0.1966,0.0976 0.2622,-0.35811 0.3426,-0.56235 0.39303,-0.99844 0.55464,-2.16405 0.76822,-3.20997 0.40855,-2.55798 0.54815,-5.14057 0.90091,-7.70715 0.45042,-3.16911 0.65141,-6.36241 0.75677,-9.55904 0.0831,-3.26585 0.12527,-6.53201 0.11565,-9.79885 0.0163,-3.39457 -0.0114,-6.78898 -0.0378,-10.18341 -0.0779,-2.8028 0.43846,-5.57102 0.75534,-8.34554 0.24956,-2.63018 0.30307,-5.27409 0.33546,-7.91431 0.0151,-2.48366 1.8e-4,-4.96738 -0.007,-7.45104 -0.007,-2.23267 -0.008,-4.46535 -0.009,-6.69803 0.053,-2.2014 -0.4728,-4.35914 -0.75467,-6.53256 -0.26483,-2.22579 -0.31252,-4.46851 -0.34431,-6.70727 -0.29433,-1.02676 0.40228,-2.51054 -0.10627,-3.48981 -0.0846,-0.1629 -0.19805,0.31021 -0.31514,0.45157 -0.15187,0.13542 -0.28001,0.30346 -0.45561,0.40625 -0.44394,0.25986 -1.18031,0.40138 -1.64696,0.5554 -1.29118,0.42618 -2.53959,0.98377 -3.81962,1.44377 -2.72045,0.66813 -5.32489,1.64673 -7.94414,2.61885 -2.28,0.56973 -4.54524,1.2024 -6.84583,1.69412 -2.21964,0.50276 -4.38636,1.11952 -6.65818,1.40082 -2.15733,0.70496 -4.39666,1.02268 -6.64981,1.20512 -1.33485,0.59171 -2.83339,0.54923 -4.22269,0.89073 -0.65195,0.16024 -1.26368,0.45435 -1.90145,0.66403 -1.96388,0.67411 -4.07249,0.47535 -6.06055,0.96764 -2.16383,0.5469 -4.38736,0.73537 -6.60886,0.84901 -1.81903,0.72118 -3.80972,0.70377 -5.65457,1.27157 -1.37104,0.35517 -0.67662,0.19291 -2.0836,0.48531 0,0 13.02088,-9.90896 13.02088,-9.90896 v 0 c 1.38787,-0.33828 0.69452,-0.16966 2.08005,-0.50587 1.93888,-0.33675 3.84999,-0.83185 5.80481,-1.04604 2.19182,-0.18668 4.35594,-0.53166 6.50638,-0.99683 2.01181,-0.23665 4.03311,-0.44152 5.95497,-1.13102 2.05821,-0.5805 4.19654,-0.91098 6.297,-1.28988 2.23126,-0.2842 4.40087,-0.82365 6.60257,-1.26665 2.21681,-0.40199 4.36826,-1.06184 6.57751,-1.50128 2.24351,-0.57046 4.5245,-1.02753 6.69644,-1.84131 2.6017,-0.97398 5.28231,-1.68386 7.90752,-2.58615 2.0752,-0.7921 4.3575,-1.98733 6.60523,-1.81786 2.06996,1.28733 1.43803,2.8859 1.48595,5.03465 0.019,2.18424 0.0423,4.37224 0.26004,6.54768 0.25745,2.24105 0.81997,4.45305 0.8474,6.70843 1.3e-4,2.23386 4.8e-4,4.46773 -7.6e-4,6.70159 -0.002,2.49483 -0.006,4.98968 -0.0207,7.48448 -0.017,2.68368 -0.0432,5.36893 -0.26899,8.04521 -0.23448,2.7433 -0.86929,5.45004 -0.84284,8.20733 -0.0225,3.40526 -0.0439,6.81049 -0.0238,10.21583 -0.01,3.27311 0.0634,6.54691 -0.0292,9.81915 -0.12125,3.24402 -0.29508,6.48871 -0.72369,9.70905 -0.30274,2.58208 -0.4827,5.16583 -0.77849,7.74817 -0.96054,5.80127 -3.65449,22.83749 -15.94637,12.28176 -1.06888,-1.19418 -2.11123,-2.42407 -2.9711,-3.77934 -1.13814,-1.59819 -2.30455,-3.16025 -3.64898,-4.59916 -1.45602,-1.8484 -2.91753,-3.68033 -4.5164,-5.41158 -1.64807,-1.85348 -3.13498,-3.84523 -4.87537,-5.61435 -1.34007,-1.58689 -2.68763,-3.16536 -3.99974,-4.77555 -1.74653,-2.19099 -3.62059,-4.2715 -5.31927,-6.50193 -2.27964,-2.93747 -4.77266,-5.71348 -6.8118,-8.83127 -1.89045,-2.69176 -3.85747,-5.30001 -6.10898,-7.70659 -2.02055,-2.25212 -3.76432,-4.73736 -5.75097,-7.01951 -1.51701,-1.96105 -2.87505,-4.04214 -4.52856,-5.89604 -2.16186,-2.36683 -4.11455,-4.91284 -6.29693,-7.26355 0,0 14.08399,-8.41774 14.08399,-8.41774 z"
       inkscape:connector-curvature="0" />
    <path
       style="fill:#000000"
       id="path3776"
       d="m 465.9659,267.58815 c 1.23097,2.85595 2.4029,5.73603 3.59294,8.60927 1.95654,3.67663 3.2986,7.58952 4.65432,11.51108 1.22096,3.43344 2.45115,6.85358 3.45725,10.35786 0.86136,3.99828 2.18632,7.86466 3.38808,11.76599 1.18213,3.04481 1.99335,6.19921 2.84723,9.34395 0.81268,2.78675 1.66361,5.56567 2.63874,8.30062 0.77518,2.03639 0.95601,4.21101 1.52624,6.29986 0.0781,0.30626 0.15624,0.61251 0.23435,0.91877 0,0 -14.41895,7.79595 -14.41895,7.79595 v 0 c -0.0717,-0.29518 -0.14344,-0.59036 -0.21516,-0.88554 -0.56839,-2.06518 -0.74718,-4.19271 -1.41589,-6.23388 -0.94954,-2.78785 -1.81806,-5.60447 -2.61623,-8.4385 -0.86773,-3.13191 -1.68116,-6.27182 -2.83001,-9.31958 -1.10141,-3.93411 -2.38546,-7.81508 -3.40557,-11.77313 -0.98113,-3.48693 -2.15693,-6.90555 -3.30608,-10.33926 -1.33623,-3.88712 -2.76478,-7.72067 -4.67091,-11.37454 -1.25066,-2.88662 -2.40235,-5.8181 -3.83441,-8.6225 0,0 14.37406,-7.91642 14.37406,-7.91642 z"
       inkscape:connector-curvature="0" />
    <path
       style="fill:#000000"
       id="path3782"
       d="m 337.95937,155.32808 c 2.16626,1.78326 4.33561,3.57602 6.55195,5.29949 1.43191,1.18146 2.6743,2.56898 4.07366,3.78106 1.46792,1.33359 3.05592,2.51235 4.63234,3.71373 1.88466,1.51037 3.57134,3.24333 5.33148,4.89666 1.77093,1.41124 3.54939,2.78545 5.09775,4.44379 1.88082,1.64641 3.73053,3.32582 5.54611,5.04389 2.023,1.97239 4.03925,3.9519 6.2317,5.7358 2.07233,1.5745 3.86982,3.46942 5.90181,5.08765 1.88634,1.81177 3.885,3.50614 5.73544,5.35351 1.36833,1.28193 2.79231,2.52333 4.05347,3.91274 0.39722,0.31368 1.05093,1.10292 1.67716,0.85773 0.15223,-0.0596 0.4744,-0.43996 0.33048,-0.36239 -2.33739,1.25986 -18.82368,10.40997 -13.38792,7.39318 0.87452,-1.60591 0.75938,-3.58461 0.79819,-5.36698 0.0316,-2.80061 -0.0277,-5.59154 0.28658,-8.37782 0.51664,-2.47441 1.13056,-4.93732 1.85162,-7.36136 0.59201,-2.17557 1.00984,-4.39171 1.52358,-6.5876 0.34503,-2.21576 0.89015,-4.3903 1.31968,-6.58955 0.28016,-2.06489 0.46015,-4.11743 0.92662,-6.15156 0.46748,-1.94263 0.58317,-3.93889 0.66056,-5.9277 -0.11413,-2.04654 0.26188,-4.02378 0.64106,-6.01892 0.39385,-2.04356 0.36885,-4.13006 0.57392,-6.19297 0.4065,-2.17264 0.72573,-4.35277 0.89585,-6.55659 -0.0675,-1.61669 0.72499,-3.84256 -0.55024,-5.12913 -1.5716,-0.6733 -3.37243,-0.5875 -5.05317,-0.61185 -2.23278,0.36497 -4.29175,1.27415 -6.50041,1.75832 -2.3689,0.0578 -4.40256,1.15946 -6.60257,1.86981 -2.30069,0.37541 -4.44398,1.21444 -6.62078,2.00428 -2.14643,0.69764 -4.45668,1.04356 -6.5,2.01375 -1.85807,0.87337 -3.89531,1.06039 -5.91518,1.1853 -1.95828,-0.0213 -3.91515,0.33652 -5.72982,1.07967 -2.04522,0.65303 -4.15141,0.99016 -6.22678,1.53083 -2.15974,0.70847 -4.4394,1.09378 -6.59281,1.81921 -2.14331,0.68545 -4.43796,1.09012 -6.46334,2.08422 0,0 12.87081,-10.11333 12.87081,-10.11333 v 0 c 2.17487,-0.6711 4.34262,-1.35983 6.5414,-1.95043 2.22383,-0.54979 4.40309,-1.24225 6.62899,-1.78257 2.06884,-0.52498 4.18848,-0.85143 6.19197,-1.61956 1.96074,-0.46276 3.91411,-0.75792 5.93412,-0.79376 1.9582,-0.24706 3.83837,-0.72558 5.64623,-1.53597 2.17134,-0.63628 4.34999,-1.25615 6.49346,-1.97934 2.17791,-0.7946 4.42653,-1.30478 6.63949,-1.98225 2.19008,-0.8008 4.38544,-1.40088 6.69386,-1.759 2.22853,-0.62151 4.42588,-1.50377 6.78303,-1.40258 2.08966,0.11096 4.25825,0.22886 5.86415,1.7415 1.41447,1.89274 1.25992,3.97363 1.09124,6.24556 -0.1303,2.23799 -0.35346,4.47002 -0.84011,6.66262 -0.39061,2.05004 -0.16386,4.16569 -0.52633,6.22814 -0.31051,1.9469 -0.94643,3.82424 -0.76457,5.82106 -0.0481,2.07151 -0.10752,4.15398 -0.50077,6.1947 -0.44455,2.03228 -0.92593,4.0067 -0.98847,6.10447 -0.36922,2.23521 -1.02999,4.39851 -1.29145,6.65098 -0.4754,2.24026 -1.03836,4.45126 -1.48209,6.69768 -0.71464,2.36961 -1.31403,4.76158 -2.00472,7.14047 -0.39779,2.72501 -0.41777,5.43231 -0.31746,8.18442 -0.0129,2.02977 -0.008,4.07404 -0.35874,6.08012 -1.49589,7.07845 -12.6675,12.72354 -17.67225,7.32984 -1.27881,-1.33849 -2.62568,-2.61268 -3.95769,-3.89745 -1.81735,-1.80671 -3.75108,-3.48955 -5.62491,-5.23632 -1.99472,-1.68117 -3.88906,-3.48012 -5.94107,-5.09499 -2.1349,-1.88254 -4.18175,-3.85812 -6.23817,-5.82569 -1.86023,-1.72183 -3.79029,-3.36409 -5.64617,-5.08958 -1.5586,-1.59181 -3.34977,-2.91203 -5.0265,-4.37576 -1.73623,-1.60389 -3.36185,-3.33541 -5.27392,-4.73418 -1.62614,-1.21797 -3.21959,-2.48262 -4.75211,-3.81641 -1.31445,-1.25095 -2.58791,-2.54373 -3.95597,-3.73814 -2.16157,-1.8045 -4.32312,-3.60672 -6.60752,-5.2571 0,0 13.89425,-8.72735 13.89425,-8.72735 z"
       inkscape:connector-curvature="0" />
    <path
       style="fill:#000000"
       id="path3784"
       d="m 368.73872,146.05417 c 0.80317,3.28961 2.01421,6.44592 3.37846,9.53663 1.10503,2.64639 2.21934,5.2704 3.43911,7.86589 1.34905,2.76607 2.29523,5.69239 3.31741,8.58604 0.72279,2.26207 1.4284,4.52438 2.13879,6.79065 0.40507,1.87671 0.75538,3.74613 1.22762,5.60915 0.3536,2.02101 0.6811,4.03642 1.09649,6.04755 0.45382,2.21095 0.58578,4.46547 0.66609,6.71527 0.008,0.37177 0.0165,0.74354 0.0247,1.1153 0,0 -14.56066,7.45255 -14.56066,7.45255 v 0 c -0.005,-0.36589 -0.0105,-0.73178 -0.0157,-1.09767 -0.0539,-2.16324 -0.13518,-4.33443 -0.53878,-6.46628 -0.40094,-1.98926 -0.84525,-3.95396 -1.09493,-5.96902 -0.45063,-1.84499 -0.89085,-3.6652 -1.17435,-5.54443 -0.66091,-2.26335 -1.36024,-4.50841 -2.02003,-6.77188 -1.00295,-2.84337 -1.87152,-5.74206 -3.26374,-8.43292 -1.21882,-2.61999 -2.31988,-5.2644 -3.41792,-7.93738 -1.31438,-3.14813 -2.52038,-6.33773 -3.57665,-9.58302 0,0 14.37406,-7.91643 14.37406,-7.91643 z"
       inkscape:connector-curvature="0" />
    <path
       style="fill:#000000"
       id="path3786"
       d="m 294.35293,551.16023 c -0.38581,0.16949 -0.77765,0.32587 -1.15744,0.50846 -0.95889,0.46102 -1.91577,0.92627 -2.86896,1.39895 -0.49309,0.24453 -1.93543,1.0488 -1.45843,0.77421 14.04084,-8.08282 16.61432,-9.76566 11.46466,-6.45623 -2.38329,1.47284 -4.47547,3.33623 -6.5192,5.23706 -2.15494,2.03706 -4.26176,4.12111 -6.24643,6.3246 -1.64287,1.70656 -3.21584,3.47977 -4.78657,5.25272 -1.51721,1.7779 -2.65847,3.83089 -3.89621,5.8039 -1.14383,1.96574 -2.40364,3.86336 -3.4573,5.87954 -1.00497,2.03923 -1.87125,4.13954 -2.74155,6.23837 -1.05536,2.45811 -1.81813,5.02479 -2.72409,7.53925 -1.09873,2.92734 -1.34295,6.05893 -2.02786,9.08734 -0.45786,2.45055 -1.07391,4.86795 -1.55977,7.31269 -0.3015,2.25632 -0.55674,4.50345 -0.98228,6.74172 -0.42445,2.14597 -0.5555,4.32989 -0.63306,6.51098 0.0348,2.01777 -0.31825,4.09118 0.28368,6.04639 0.56489,1.93856 1.59985,3.57822 2.74878,5.21102 1.29732,1.7993 2.74578,3.48026 3.9525,5.34481 1.00153,1.50144 2.24024,2.80174 3.3876,4.18336 6.09739,5.23277 -7.84254,13.56358 -14.00988,10.3872 -2.25115,-0.87807 -4.48998,-1.78788 -6.75668,-2.63283 -2.26629,-0.99959 -4.59583,-1.90014 -6.96925,-2.62063 -2.69399,-0.67206 -5.31148,-1.6323 -7.94965,-2.49857 -3.77081,-1.21794 -7.65089,-2.02687 -11.48159,-3.03166 -3.81633,-0.89637 -7.66882,-1.64488 -11.47059,-2.60122 -3.24278,-0.70365 -6.50116,-1.36987 -9.78061,-1.88598 -4.27959,-0.76885 -8.61897,-1.06805 -12.92299,-1.64678 -4.10125,-0.62398 -8.23775,-0.9309 -12.38003,-1.09127 -2.58841,-0.0828 -5.17845,-0.0715 -7.76778,-0.0642 -2.41122,-0.50718 -4.85269,-0.78592 -7.30816,-0.95504 -2.33429,-0.13481 -4.67327,-0.13937 -7.01062,-0.14415 -1.23422,0.27827 -2.48573,0.61974 -3.60716,1.22193 -0.27726,0.14888 -1.04231,0.70348 -0.76837,0.54857 4.44802,-2.5154 8.86328,-5.08831 13.29493,-7.63246 0,0 -15.19796,6.15543 -15.19796,6.15543 v 0 c 4.91679,-2.95113 12.31404,-9.66285 19.51422,-9.8981 2.35506,0.0223 4.7122,0.0596 7.06018,0.26017 2.42532,0.22681 4.82568,0.65142 7.25179,0.83365 2.57702,0.0107 5.15497,0.0399 7.72817,0.19413 4.1294,0.26254 8.24863,0.66111 12.34269,1.26925 4.35562,0.52811 8.73274,0.88224 13.0619,1.62272 3.29563,0.57515 6.59343,1.17302 9.83894,1.989 3.80581,0.88193 7.60768,1.77785 11.41159,2.66739 3.88842,0.96666 7.8175,1.79789 11.62201,3.0684 2.66251,0.87758 5.35762,1.63565 8.04409,2.43521 2.35511,0.83486 4.70012,1.70522 6.99443,2.69489 2.21982,0.8663 4.43407,1.79292 6.731,2.42803 6.82964,-0.87558 -18.47648,5.49661 -12.66469,8.5348 0.17778,0.0929 -0.16601,-0.37295 -0.30157,-0.52083 -0.1989,-0.21698 -0.41017,-0.42229 -0.61526,-0.63344 -1.20671,-1.41716 -2.41422,-2.82774 -3.44784,-4.38122 -1.20032,-1.83892 -2.63025,-3.51506 -3.92301,-5.28784 -1.24295,-1.7504 -2.34635,-3.54465 -2.99507,-5.60884 -0.78407,-2.13256 -0.57078,-4.33569 -0.5364,-6.57857 0.0543,-2.25346 0.14055,-4.51307 0.52465,-6.7391 0.40997,-2.24668 0.84999,-4.4608 0.99381,-6.74676 0.4322,-2.48771 1.17137,-4.89973 1.52986,-7.4008 0.80948,-3.06133 1.16376,-6.19855 1.98261,-9.26164 0.92169,-2.50993 1.68739,-5.0671 2.65279,-7.55889 0.82303,-2.16269 1.80117,-4.2531 2.65557,-6.39532 1.09294,-2.03419 2.20158,-4.0267 3.45478,-5.97023 1.17559,-2.06529 2.47737,-4.06017 3.75886,-6.06044 1.5556,-1.82078 3.17397,-3.57706 4.79982,-5.33137 2.09798,-2.11519 4.00911,-4.42181 6.23745,-6.41771 2.02394,-1.95516 4.05914,-3.92361 6.39253,-5.51299 7.06983,-4.57012 14.312,-9.10535 22.16711,-12.2086 0,0 -12.95869,10.06755 -12.95869,10.06755 z"
       inkscape:connector-curvature="0" />
    <path
       style="fill:#000000"
       id="path3788"
       d="m 532.41374,524.34943 c 2.47422,1.76483 4.74748,3.78163 7.07187,5.73226 2.16296,1.30744 3.80473,3.20418 5.52185,5.01102 1.69337,1.83718 3.4027,3.64039 5.02345,5.54679 1.83665,2.03099 3.5605,4.16472 5.13761,6.40347 1.41355,1.74979 2.92631,3.40831 4.33568,5.16109 1.37857,1.83487 2.90868,3.53796 4.33364,5.33774 2.02609,2.30922 3.84757,4.78255 5.80004,7.1525 1.90912,2.63861 4.0932,5.05777 6.10569,7.61242 1.60606,1.67169 3.04061,3.50893 4.71056,5.11645 1.22767,1.35792 2.6241,2.54362 3.84211,3.91385 1.29581,1.17395 2.33307,2.65896 3.12026,4.21622 1.39591,2.49008 1.15193,1.66341 3.25777,0.31779 -24.09256,13.85289 -12.33756,7.59803 -7.41373,3.48233 1.4721,-1.3764 3.02553,-2.61512 4.71171,-3.71855 7.45377,-4.45189 14.75048,-9.25446 22.79248,-12.57206 3.6013,-1.4874 7.20443,-2.92426 11.0104,-3.78863 2.81386,-0.72858 5.61762,-1.51253 8.45153,-2.16901 2.58158,-0.51148 5.22822,-0.57283 7.85192,-0.63073 2.61506,-0.0145 5.23017,-0.0124 7.84526,-0.011 2.44294,-0.004 4.88579,0.0126 7.32872,0.0134 2.74056,0.019 5.48116,-0.004 8.22173,0.005 2.57908,0.002 5.15816,-0.006 7.73723,-0.0109 2.55201,0.0142 5.10409,0.005 7.65612,0.001 2.07394,-0.0887 4.03608,0.5635 5.91643,1.35119 1.72223,0.38238 3.35619,1.00035 5.05789,1.45913 2.07317,0.38837 3.9613,1.37027 5.9681,1.99075 2.44936,0.59127 4.79474,1.52838 7.22745,2.18847 2.66907,1.03784 5.36591,1.90436 8.17975,2.445 2.70137,0.59304 5.33467,1.38526 8.00367,2.09869 2.08585,0.58292 4.27182,0.38611 6.3709,0.82847 2.44802,0.50088 4.93873,0.7048 7.43009,0.82364 1.15357,0.0473 2.30807,0.0582 3.46238,0.0702 0,0 -13.24465,9.58746 -13.24465,9.58746 v 0 c -1.16481,-0.0286 -2.32993,-0.0568 -3.49275,-0.13546 -2.52858,-0.18655 -5.04053,-0.50427 -7.53909,-0.93814 -2.17464,-0.21775 -4.37359,-0.32683 -6.47341,-0.99677 -2.60472,-0.78304 -5.22839,-1.45446 -7.8839,-2.04784 -2.81764,-0.6548 -5.54285,-1.57955 -8.2759,-2.51998 -2.43133,-0.74174 -4.84559,-1.53821 -7.2953,-2.22023 -1.97425,-0.69737 -3.91983,-1.48098 -5.97573,-1.91908 -1.71425,-0.54651 -3.46441,-0.95504 -5.15027,-1.58357 -1.75803,-0.67091 -3.61894,-0.96074 -5.50253,-0.8793 -2.55325,-0.004 -5.10655,-0.0129 -7.65979,10e-4 -2.56919,-0.004 -5.13839,-0.0126 -7.70759,-0.0107 -2.7449,0.009 -5.48981,-0.0136 -8.23471,0.003 -2.44742,-0.002 -4.89482,0.0102 -7.34222,-0.007 -2.60338,-0.009 -5.20774,-0.0317 -7.81026,0.0494 -2.56455,0.0953 -5.14221,0.24166 -7.63624,0.89734 -2.7992,0.71945 -5.60933,1.38932 -8.401,2.13773 -3.69281,0.99628 -7.23348,2.45221 -10.75748,3.92748 -0.66773,0.29978 -1.34248,0.58438 -2.00319,0.89933 -4.61706,2.20087 -12.58714,7.20629 10.19306,-6.0726 0.70142,-0.40886 -2.85004,1.56534 -2.06857,1.2859 -0.32491,0.19427 -0.64982,0.38855 -0.97473,0.58282 -1.77123,0.89561 -3.47176,2.00531 -4.803,3.49301 -1.19548,0.90903 -0.60308,0.41296 -1.76842,1.49863 -5.69591,4.57626 -12.95379,6.99615 -18.77116,11.27403 -2.95215,0.99024 -3.40192,-0.0437 -4.74913,-2.36266 -0.71021,-1.44116 -1.71807,-2.73389 -2.88257,-3.83689 -1.22832,-1.32527 -2.59631,-2.50572 -3.79396,-3.85801 -1.63463,-1.72105 -3.15231,-3.55213 -4.71889,-5.33415 -1.98317,-2.55214 -4.13824,-4.97043 -6.04691,-7.58338 -1.99989,-2.34385 -3.7862,-4.85859 -5.86929,-7.13319 -1.48584,-1.75527 -2.97668,-3.50041 -4.38519,-5.31719 -1.44201,-1.76757 -2.94906,-3.47994 -4.34407,-5.28477 -1.54508,-2.19973 -3.25498,-4.28031 -5.06997,-6.26239 -1.61437,-1.86879 -3.30983,-3.64875 -4.97232,-5.47269 -1.69289,-1.75621 -3.37885,-3.5068 -5.40534,-4.89605 -2.27877,-2.00249 -4.61152,-3.94339 -7.14834,-5.61708 0,0 13.89425,-8.72735 13.89425,-8.72735 z"
       inkscape:connector-curvature="0" />
    <path
       style="fill:#000000"
       id="path3790"
       d="m 203.61698,348.88097 c -2.44529,1.84509 -5.01834,3.51413 -7.48394,5.33049 -2.21814,1.76768 -4.46249,3.50109 -6.70262,5.24056 -2.65137,1.98881 -5.13857,4.18375 -7.66894,6.3224 -2.72835,2.53333 -5.6227,4.87165 -8.45473,7.28499 -2.67094,2.37966 -5.50205,4.56393 -8.19554,6.91773 -2.71358,2.54208 -5.63245,4.84721 -8.41868,7.30676 -3.24207,2.91696 -6.29288,6.03198 -9.55055,8.93161 -2.44147,2.058 -4.62627,4.39189 -6.88362,6.64467 -3.09428,2.7586 -6.058,5.64776 -8.96816,8.59786 -2.83899,2.85899 -5.44468,5.92098 -7.95503,9.06728 -1.80476,2.21031 -3.59774,4.42643 -5.49231,6.56018 -1.4566,1.61427 -2.8621,3.26997 -4.17572,5.00318 -1.33529,1.51621 -2.60395,3.09313 -3.99995,4.55442 -4.83294,4.80801 -11.419625,12.47723 -18.311338,9.93858 -1.454489,-1.04257 -2.374446,-2.58007 -2.96604,-4.23986 -1.003869,-2.37541 -1.909669,-4.78536 -2.850616,-7.18678 -1.401931,-3.13909 -2.764185,-6.29178 -4.380962,-9.32883 -1.60114,-2.94386 -2.919815,-6.0267 -4.381653,-9.0391 -1.735552,-3.55165 -3.560518,-7.0574 -5.38674,-10.5628 -2.045223,-3.6109 -4.071934,-7.23291 -6.122181,-10.84184 -1.718504,-2.94977 -3.510462,-5.85299 -5.240393,-8.79478 -1.76079,-2.88589 -3.452387,-5.81709 -5.446222,-8.5507 -2.307147,-3.10052 -4.588559,-6.25362 -7.165613,-9.13788 -1.678007,-2.17732 -3.382936,-4.34886 -5.299812,-6.32195 -1.579497,-1.86026 -3.282997,-3.60467 -4.943172,-5.39019 -1.969878,-1.79236 -3.68769,-3.84236 -5.639179,-5.65055 -1.778548,-1.71407 -3.628586,-3.35079 -5.446577,-5.02553 -1.600127,-1.50105 -3.516881,-2.55424 -5.189567,-3.95477 -1.533736,-1.10553 -3.37553,-1.57165 -4.934376,-2.64475 -0.935746,-0.55864 -0.457966,-0.31434 -1.430824,-0.73781 0,0 13.701116,-9.027 13.701116,-9.027 v 0 c 1.050691,0.57103 0.543076,0.27517 1.524611,0.88456 1.671224,0.94472 3.531772,1.56042 5.012827,2.81958 1.738776,1.34899 3.584786,2.54963 5.193144,4.06636 1.847183,1.66068 3.679734,3.33144 5.459126,5.0636 1.923359,1.88822 3.739957,3.88329 5.71738,5.71771 1.6529,1.78195 3.324805,3.54666 4.930538,5.37075 1.898957,2.01878 3.560413,4.25009 5.239694,6.45166 2.520961,2.99987 4.85464,6.15823 7.278722,9.23637 1.99977,2.78994 3.670533,5.78487 5.460985,8.71018 1.767873,2.93732 3.620544,5.81801 5.269396,8.82886 2.00627,3.65243 4.046705,7.28474 6.064219,10.9306 1.828156,3.52036 3.788744,6.97145 5.556117,10.5245 1.432927,3.00305 2.692952,6.08836 4.281232,9.01696 1.65631,3.08626 3.117809,6.25869 4.486869,9.4813 0.964469,2.41131 2.014089,4.78668 3.046369,7.16949 0.32908,1.02929 0.90301,2.47706 2.07727,2.72649 0.32264,-0.0333 1.20093,-0.4782 0.92072,-0.31483 -23.779467,13.86392 -15.692157,9.98155 -11.190343,6.19568 1.25335,-1.58718 2.774988,-2.95591 4.047529,-4.53472 1.461744,-1.61236 2.566914,-3.54988 4.196404,-5.02121 1.7822,-2.25401 3.85444,-4.2743 5.59761,-6.56965 2.57163,-3.17719 5.13413,-6.35298 8.00214,-9.27492 2.90156,-2.87799 5.68005,-5.87975 8.77065,-8.56566 2.41196,-2.16849 4.49684,-4.67601 6.99324,-6.75675 3.28855,-2.84583 6.38618,-5.88087 9.51554,-8.89997 2.75915,-2.50581 5.6833,-4.80893 8.43805,-7.31537 2.63867,-2.41729 5.44244,-4.61844 8.16302,-6.93513 2.80225,-2.45249 5.76496,-4.70801 8.45798,-7.28416 2.469,-2.19045 4.98653,-4.34167 7.58676,-6.36722 2.20457,-1.77494 4.46705,-3.47292 6.68731,-5.22727 2.29151,-1.96895 4.9321,-3.50398 7.37142,-5.2825 0,0 15.22741,-6.11088 15.22741,-6.11088 z"
       inkscape:connector-curvature="0" />
    <path
       style="fill:#000000"
       id="path3792"
       d="m 76.908714,207.19052 c -0.09857,3.48566 -0.09347,6.97384 -0.07487,10.46063 0.201517,3.13674 -0.16044,6.20593 -0.874024,9.25293 -0.678879,2.67182 -1.02318,5.40193 -1.194428,8.14793 -0.34158,3.41563 -1.180922,6.75014 -1.689945,10.14242 -0.370049,3.70227 -0.628912,7.40449 -1.100644,11.09696 -0.591321,4.15778 -1.527234,8.25197 -2.174762,12.39999 -0.619501,4.02401 -1.547575,7.98161 -2.406087,11.95743 -1.01076,4.72515 -2.178924,9.41247 -3.353459,14.09863 -1.041389,4.99407 -2.429567,9.90337 -3.486184,14.89384 -1.018604,4.86863 -1.976696,9.73686 -3.219679,14.55431 -1.338209,5.61129 -2.540448,11.25462 -3.982428,16.84041 -1.548799,5.86591 -2.313495,11.89322 -3.418973,17.84929 -1.040895,5.87372 -2.212249,11.7191 -3.36713,17.57076 -0.838174,5.09438 -1.734435,10.18529 -2.34907,15.31297 -0.739726,4.52357 -1.220827,9.07161 -1.459868,13.64751 -0.187031,4.02247 -0.187936,8.05037 -0.204016,12.07626 0.0378,4.0085 -0.01833,8.01664 -0.0058,12.02511 0.0038,4.04519 0.06642,8.08977 -0.01595,12.13435 -0.03708,4.39388 0.03038,8.78764 0.04594,13.18141 0.01654,3.44559 0.008,6.89116 0.01504,10.33675 0.08192,2.70674 -0.09675,5.42717 0.132705,8.12709 0.400844,3.09738 1.135075,6.1361 1.612013,9.22258 0.277623,2.19279 0.790673,4.36486 1.353995,6.50209 0.581046,1.66496 0.770858,3.42343 1.207823,5.12164 0,0 -14.395018,7.81918 -14.395018,7.81918 v 0 c -0.472682,-1.68568 -0.593489,-3.45053 -1.18849,-5.1099 -0.655221,-2.18608 -1.095707,-4.4759 -1.379359,-6.7357 -0.408705,-3.11279 -1.105992,-6.16201 -1.686096,-9.24233 -0.366807,-2.75688 -0.05082,-5.55497 -0.131605,-8.32977 0.007,-3.45072 -0.0014,-6.90142 0.01514,-10.35213 0.01564,-4.4093 0.08303,-8.81859 0.04576,-13.228 -0.08454,-4.03737 -0.02004,-8.07489 -0.02358,-12.11292 0.0062,-4.00485 -0.06297,-8.00925 -0.02489,-12.01417 -0.0015,-4.05876 0.01798,-8.11876 0.206702,-12.17401 0.266241,-4.60005 0.59252,-9.20091 1.423425,-13.74053 0.596393,-5.20123 1.604231,-10.34124 2.45982,-15.50299 1.126019,-5.83762 2.291933,-11.66423 3.278875,-17.52722 1.218203,-5.97395 1.993137,-12.03358 3.450536,-17.95816 1.352181,-5.59394 2.694351,-11.1908 3.934717,-16.81045 1.126016,-4.82515 2.193419,-9.65638 3.238163,-14.49976 1.022828,-4.99203 2.344664,-9.91433 3.367793,-14.90522 1.15456,-4.68255 2.435017,-9.335 3.424262,-14.05833 0.765924,-3.95247 1.621484,-7.88447 2.36217,-11.84168 0.60048,-4.13442 1.59962,-8.19252 2.13579,-12.33716 0.460758,-3.70897 0.925528,-7.40112 1.135957,-11.13666 0.426039,-3.34755 1.150453,-6.63526 1.65011,-9.97094 0.130776,-2.83444 0.389808,-5.65793 1.092526,-8.41766 0.692758,-2.95191 1.324736,-5.87583 1.086193,-8.94042 0.01837,-3.46135 0.02485,-6.92416 -0.07487,-10.38434 0,0 14.605781,-7.44202 14.605781,-7.44202 z"
       inkscape:connector-curvature="0" />
    <path
       style="fill:#000000"
       id="path3794"
       d="m 80.971829,208.61968 c -3.140437,0.73128 -6.339323,1.21489 -9.379142,2.31169 -2.410462,0.6432 -4.61979,1.66752 -6.821793,2.79386 -2.196515,0.58246 -4.289554,1.34079 -6.375395,2.24378 1.676436,-1.30939 -4.773028,2.54538 -3.060586,1.54976 22.38877,-13.01691 15.469534,-9.33296 10.848154,-5.92857 -6.713667,4.35678 -13.65752,8.3548 -20.67545,12.20447 33.298996,-19.1677 -1.664413,0.96128 -2.497953,1.4396 -4.236613,2.43116 16.91647,-9.77659 12.697953,-7.31416 -5.07924,2.96485 -10.238162,5.79369 -15.280157,8.82144 -4.165828,2.50161 8.415177,-4.86188 12.651183,-7.24272 0.40829,-0.22948 -0.776207,0.52435 -1.16431,0.78653 -5.843701,4.07417 -12.276456,7.21733 -18.361955,10.89446 -4.279955,2.58614 8.654005,-5.01361 13.006749,-7.47527 0.32803,-0.18551 -0.619168,0.42978 -0.928752,0.64466 -2.229028,1.6202 -4.419325,3.29354 -6.647015,4.91506 -3.042439,2.21211 -6.073044,4.44118 -9.094211,6.68272 -3.125568,2.2766 -6.215008,4.60558 -9.222586,7.03633 -2.840901,2.19756 -5.592122,4.50777 -8.44062,6.69505 -3.1152253,2.46845 -6.2542462,4.90698 -9.4364358,7.28842 -2.52226337,1.75654 -4.9865487,3.60229 -7.3742895,5.53809 -2.3949986,2.0378 -4.8266077,4.03327 -7.2653897,6.0185 -2.65002,1.99308 -5.150424,4.17176 -7.690275,6.30057 -1.791679,1.63665 -3.534371,3.32597 -5.340337,4.94741 -4.693591,4.28625 -13.665466,15.59386 -17.403499,8.46933 -0.551615,-2.25852 -0.35767,-4.64191 -0.359683,-6.95169 -0.04925,-2.62841 0.35877,-5.25062 0.854644,-7.82554 0.878125,-3.28697 1.109964,-6.68662 1.289887,-10.06904 -0.0024,-4.21382 0.467029,-8.39822 0.799133,-12.59257 0.113012,-3.76498 0.698757,-7.4857 1.064975,-11.22872 0.180597,-3.30923 0.441436,-6.59638 0.894854,-9.87944 0.440482,-3.23157 0.5776,-6.49207 0.667664,-9.74882 -0.07941,-4.38048 0.338145,-8.7379 0.671095,-13.09952 0.129912,-3.47693 0.467557,-6.92118 0.893128,-10.37198 0.433965,-4.27849 1.037987,-8.53629 1.406997,-12.82146 0.17532,-4.00673 0.666438,-7.98674 1.022934,-11.97916 0.1379,-3.66255 0.493127,-7.29585 0.895709,-10.93661 0.386537,-2.88897 0.369229,-5.81082 0.652865,-8.70645 0.466044,-2.48604 0.759041,-4.98742 0.930201,-7.50945 0.255932,-2.38646 0.742953,-4.73516 1.003066,-7.12219 0.08928,-2.51205 0.270316,-4.99217 0.668347,-7.47451 0.490927,-2.71153 0.525656,-5.47009 0.758536,-8.20775 0.449616,-3.23998 0.740448,-6.4927 0.895687,-9.75915 0.101917,-2.48065 0.107823,-4.96372 0.110064,-7.44603 0.04971,-2.15974 -0.195028,-4.336 0.280081,-6.457637 4.663466,-10.269787 11.227175,-10.939157 18.2851162,-8.697918 2.0175457,0.428 3.9802994,0.816872 5.850516,1.71688 2.13055945,0.665601 4.0072835,1.873404 6.0668384,2.704452 2.0985482,1.096434 4.2063285,2.156186 6.3200412,3.221445 2.0246222,1.10408 3.9876682,2.306646 5.9351082,3.543628 2.21973,1.56891 4.61576,2.85587 6.894519,4.33123 2.106716,1.51051 4.23634,2.98498 6.379032,4.44409 1.55233,1.46603 3.478193,2.41731 5.092334,3.79806 1.585611,1.14357 3.072801,2.40779 4.661236,3.54519 1.436145,1.41892 3.189463,2.42261 4.809694,3.60513 1.715871,1.1642 3.433122,2.30244 5.232008,3.3364 1.475085,1.24397 3.161386,2.18026 4.723814,3.30434 1.716145,1.15134 3.426995,2.28817 5.219062,3.32055 1.672544,0.90728 3.150264,2.07848 4.686741,3.18553 0.231777,0.11939 0.474401,0.21974 0.69533,0.35818 0.957106,0.59976 0.439042,0.44967 1.395751,0.93013 0.747712,0.3755 1.533303,0.52958 2.287133,0.90728 1.697051,0.65022 3.015442,1.9046 4.389627,3.04294 1.386625,1.15631 2.329033,2.6683 3.485669,4.02944 0.713308,0.96449 1.465922,1.91098 2.309037,2.76566 0,0 -14.009959,8.52804 -14.009959,8.52804 v 0 c -0.824677,-0.91022 -1.607236,-1.86057 -2.348674,-2.83986 -1.096794,-1.29049 -1.999819,-2.72393 -3.340095,-3.79679 -1.262261,-1.07598 -2.594004,-2.05672 -4.158458,-2.65636 -1.633162,-0.64831 -3.144045,-1.45286 -4.566068,-2.49505 -1.463428,-1.12323 -2.986992,-2.14479 -4.592949,-3.05619 -1.768613,-1.11282 -3.515446,-2.24688 -5.237039,-3.43044 -1.580124,-1.04832 -3.201088,-2.03359 -4.705192,-3.19342 -1.779097,-1.11809 -3.535704,-2.25733 -5.25628,-3.46349 -1.668785,-1.14088 -3.377405,-2.22752 -4.855769,-3.62051 -1.571462,-1.2051 -3.15283,-2.39543 -4.724358,-3.60057 -1.624562,-1.2698 -3.38594,-2.35656 -4.944134,-3.71394 -2.136097,-1.44057 -4.223981,-2.94966 -6.3457191,-4.41134 -2.2976772,-1.44171 -4.6514224,-2.79023 -6.9023197,-4.30553 -1.94050167,-1.18428 -3.8792298,-2.36675 -5.8980158,-3.41517 -2.051806,-1.09586 -4.1356937,-2.13729 -6.2345884,-3.13739 -2.020176,-0.92454 -3.993754,-1.93648 -6.092519,-2.68187 -1.868798,-0.690612 -3.812162,-1.023416 -5.735785,-1.525328 -0.713955,-0.164489 -1.512678,-0.392569 -2.235452,-0.08533 -0.172401,0.07328 -0.613746,0.428781 -0.452941,0.332685 1.693818,-1.012219 18.4332665,-11.104107 12.809359,-7.713607 -1.150897,1.705348 -0.422762,3.979152 -0.601505,5.926039 -0.0073,2.516707 -0.0227,5.034201 -0.140674,7.548661 -0.169836,3.29078 -0.388695,6.58458 -0.881717,9.84522 -0.324132,2.74459 -0.139546,5.52571 -0.6348,8.25679 -0.404616,2.45132 -0.787741,4.8701 -0.730093,7.36807 -0.15465,2.39305 -0.5707,4.74218 -1.056031,7.0891 -0.100829,2.55392 -0.289986,5.11175 -0.842526,7.61346 -0.508189,2.87217 -0.292517,5.84142 -0.778007,8.72589 -0.40912,3.63437 -0.789694,7.26274 -0.954022,10.91843 -0.324229,3.99182 -0.863476,7.96296 -0.989231,11.96923 -0.394686,4.2922 -1.093333,8.54953 -1.369513,12.85083 -0.373532,3.44496 -0.840218,6.87044 -0.943448,10.34015 -0.397479,4.32787 -0.889514,8.65516 -0.735319,13.00936 -0.01647,3.29809 -0.02603,6.60266 -0.498829,9.8754 -0.423046,3.28332 -0.876546,6.54337 -0.990864,9.85908 -0.348591,3.74324 -0.901405,7.46131 -1.096774,11.21777 -0.341758,4.17466 -0.862409,8.33711 -0.808373,12.53296 -0.12598,3.43516 -0.271002,6.90211 -1.022988,10.26735 -0.662439,2.42405 -0.968965,5.0105 -1.059406,7.5131 4.04e-4,2.07743 -0.01663,4.16233 0.190613,6.23177 -2.318048,-5.00617 -19.747437,12.81048 -12.077987,5.90729 1.671322,-1.81151 3.720225,-3.23779 5.381365,-5.07283 2.458477,-2.23828 5.109496,-4.27844 7.67217,-6.39941 2.519988,-1.84777 4.850934,-3.96395 7.261128,-5.94924 2.363785,-2.03815 4.872761,-3.90831 7.42611,-5.69669 3.2772171,-2.20684 6.3063594,-4.78108 9.424032,-7.21001 2.83146983,-2.21904 5.6418887,-4.46057 8.4859413,-6.66603 2.9785,-2.47703 6.0724187,-4.81003 9.1764747,-7.12484 3.065826,-2.15513 6.032511,-4.45255 9.042569,-6.68537 2.258472,-1.52831 4.332272,-3.28895 6.589891,-4.81567 5.419317,-4.6016 -1.517035,1.20013 15.805712,-9.49496 4.220103,-2.6055 -8.56604,5.00159 -12.865358,7.47419 -3.441951,1.97951 6.725245,-3.76473 3.350094,-2.16825 5.304904,-3.46319 11.030631,-6.2515 16.3342,-9.71673 4.050736,-2.64666 -16.767379,9.66783 -12.571063,7.25864 5.068754,-2.91008 10.09574,-5.89324 15.188386,-8.7613 0.841517,-0.47392 -39.166076,22.6821 2.506614,-1.45316 4.937394,-2.82251 12.381655,-7.03907 -10.64676,6.2239 -0.37675,0.21699 0.736929,-0.46239 1.091767,-0.71362 2.127488,-1.50624 0.06413,-0.23524 2.337239,-1.56188 0.383295,-0.20354 0.76659,-0.40708 1.149885,-0.61062 0.294887,-0.2872 0.531823,-0.6496 0.884661,-0.86162 5.727387,-3.44156 11.832137,-7.54102 18.22584,-10.19423 2.079974,-0.85849 4.308996,-1.3016 6.316274,-2.33423 2.204355,-1.08841 4.566991,-1.77717 6.902428,-2.52574 3.149579,-0.85921 6.362437,-1.4417 9.498974,-2.34686 0,0 -12.982803,9.99614 -12.982803,9.99614 z"
       inkscape:connector-curvature="0" />
    <path
       style="fill:#000000"
       id="path3796"
       d="m 92.295757,138.79396 c -0.496958,3.10778 -1.224169,6.16892 -1.692835,9.28181 -0.340818,2.3837 -0.415879,4.79172 -0.453937,7.19567 -0.227438,2.26625 -0.57642,4.529 -0.967197,6.77404 -0.601491,2.43732 -0.918843,4.9241 -1.10502,7.42331 -0.0246,2.32451 -0.202538,4.61084 -0.587109,6.90221 -0.237674,2.2435 -0.790406,4.42712 -1.220812,6.63622 -0.423764,2.13398 -0.395508,4.31488 -0.593882,6.4716 -0.280675,1.83582 -0.714303,3.62327 -1.303476,5.38129 -0.48046,1.78483 -0.732188,3.60552 -1.214012,5.39241 -0.376366,1.7289 -0.905064,3.43661 -1.649346,5.04341 -3.436275,8.15872 1.022943,2.50813 -16.378133,10.22192 -0.779971,-2.14973 -0.63024,-4.52724 -0.640687,-6.78495 -0.199441,-2.6626 0.347353,-5.21559 0.962702,-7.78348 0.735042,-2.8232 1.038208,-5.71798 1.203593,-8.62187 0.02271,-2.28883 0.08053,-4.54217 0.513224,-6.79257 0.692285,-2.19611 1.228728,-4.3985 1.515257,-6.68545 0.242098,-2.29801 0.26057,-4.61094 0.27524,-6.91915 0.02731,-2.36352 0.887506,-4.57135 1.479498,-6.82589 0.470765,-2.15224 0.938832,-4.31766 1.684728,-6.39377 1.633062,-5.75382 12.926912,-13.63767 15.458797,-7.46662 0.358876,0.8747 0.341889,1.90559 0.388919,2.82976 0.09424,2.36946 0.03529,4.72165 -0.287761,7.07035 -0.5529,2.46816 -1.257306,4.88718 -1.635298,7.3922 -0.153457,2.07001 -0.663222,4.08264 -1.320951,6.04386 -0.725902,1.92136 -0.846267,3.98138 -1.341312,5.95865 -0.265557,0.89781 -0.441313,1.81523 -0.605423,2.73543 0,0 -14.706872,7.2159 -14.706872,7.2159 v 0 c 0.124516,-0.97456 0.248753,-1.95091 0.517883,-2.89919 0.583159,-1.99932 0.774755,-4.03757 1.314579,-6.05227 0.628851,-1.88389 1.351089,-3.78137 1.480178,-5.77976 0.3082,-2.52659 0.866302,-4.99653 1.654498,-7.41897 0.347149,-2.25019 0.485135,-4.4852 0.36394,-6.76545 -0.247996,-7.28449 -1.262001,-1.62384 13.968006,-10.18317 0.165903,-0.0932 -0.264255,0.27393 -0.396383,0.4109 -0.789021,2.01698 -1.444107,4.07972 -1.796197,6.22695 -0.487446,2.18755 -1.369123,4.25339 -1.646265,6.48446 -0.0094,2.36245 -0.02103,4.72805 -0.217104,7.08402 -0.227483,2.30196 -0.484728,4.63728 -1.406613,6.78284 -0.44262,2.20577 -0.81171,4.35237 -0.687223,6.62422 -0.155944,2.98695 -0.37962,5.98208 -1.102928,8.8949 -0.57071,2.44717 -1.262929,4.87406 -1.076629,7.41477 -0.0033,1.95782 -0.07913,3.95627 0.291292,5.88549 -4.822675,2.55073 -9.694828,5.01002 -14.468026,7.65218 -0.132198,0.0732 0.296173,0.16326 0.438853,0.11352 0.98397,-0.34299 0.843283,-2.14667 1.270108,-2.86312 0.718848,-1.53804 1.499813,-3.0815 1.793355,-4.77089 0.432994,-1.82672 0.984456,-3.58542 1.17324,-5.46595 0.490872,-1.73485 1.192554,-3.36977 1.422862,-5.17912 0.500496,-2.12238 0.143412,-4.37119 0.601991,-6.51582 0.369473,-2.22093 1.037268,-4.37159 1.229999,-6.61992 0.381058,-2.25243 0.762652,-4.46457 0.673584,-6.76432 0.157884,-2.56086 0.428462,-5.11492 0.988083,-7.62325 0.542405,-2.12323 0.601314,-4.34981 1.109712,-6.48777 0.02853,-2.47669 0.08574,-4.95819 0.413774,-7.41692 0.444461,-3.09698 1.230028,-6.13046 1.605272,-9.23144 0,0 14.708264,-7.23321 14.708264,-7.23321 z"
       inkscape:connector-curvature="0" />
    <path
       style="fill:#000000"
       id="path3798"
       d="m 89.106741,148.46725 c 1.904664,-2.23737 3.883528,-4.4162 5.931278,-6.52392 1.439868,-1.63534 3.062128,-3.09233 4.593752,-4.63713 5.500929,-4.83702 12.262129,-7.93562 18.650189,-11.45879 -28.956055,17.65588 -4.68065,1.092 2.9371,-1.53288 1.08606,-0.37423 2.19398,-0.54636 3.32625,-0.70363 2.22837,-0.23423 4.47265,-0.21825 6.71034,-0.21749 2.21352,0.008 4.42703,0.0169 6.64056,0.0218 2.23113,0.0747 4.48251,-0.18544 6.68476,0.21648 2.01809,0.34933 3.87539,1.27833 5.69148,2.18375 1.43631,0.89014 2.57012,2.13058 3.84642,3.21244 1.14417,1.31951 2.12229,2.79777 2.9821,4.32037 0.79552,1.83973 1.3263,3.79227 1.89611,5.71557 0.83337,1.66835 1.32119,3.42384 1.60383,5.25888 0.25927,2.15392 0.26153,4.32741 0.27386,6.49358 0.004,2.21385 -0.004,4.42771 -0.008,6.64156 -0.004,2.21074 -0.004,4.42148 -0.005,6.63221 -0.0293,2.23948 0.0777,4.48196 -0.0893,6.71649 -0.54641,2.22608 -1.23582,4.41126 -1.80903,6.63407 -0.59517,1.92356 -1.28057,3.81591 -1.94635,5.71557 -0.69346,1.83122 -1.70977,3.50015 -2.67623,5.1916 -0.76596,1.50944 -1.68568,2.94261 -2.81163,4.20777 -1.07979,1.44488 -2.4316,2.64137 -3.67957,3.93191 -5.07462,5.09103 -10.24552,6.62943 -17.4774,10.95252 -4.36743,2.61076 8.82562,-5.06661 13.23843,-7.59991 -39.65284,22.82597 -1.6127,0.92861 -1.64672,0.94723 -6.33016,3.46604 -11.47338,6.8894 -17.58127,9.79326 -1.77379,1.13762 -3.86024,1.64438 -5.85254,2.27348 -2.17795,0.61996 -4.44403,0.73991 -6.69368,0.81724 -2.15048,0.2128 -4.03671,-0.85405 -6.01966,-1.48072 -1.94068,-0.81908 -3.84287,-1.71936 -5.72195,-2.6734 -1.979258,-1.03069 -3.857271,-2.14693 -5.746788,-3.33158 -1.702579,-1.36328 -3.482555,-2.65308 -5.163574,-4.0454 -0.798813,-0.50252 -1.456214,-1.16922 -2.204285,-1.73934 0,0 13.883397,-8.72771 13.883397,-8.72771 v 0 c 0.72378,0.5965 1.4259,1.22018 2.18905,1.76715 1.67036,1.31789 3.31774,2.67822 5.06037,3.89457 1.81674,1.18363 3.72742,2.16289 5.64816,3.16728 1.85734,0.85889 3.64646,1.86969 5.60407,2.49454 1.85432,0.64625 3.64957,1.28429 5.65463,0.99225 2.18132,-0.15067 4.36012,-0.41097 6.42681,-1.16995 1.97633,-0.69468 3.94249,-1.36182 5.73781,-2.47202 1.89935,-0.98254 -0.26971,0.11667 1.7243,-0.82042 0.30458,-0.14314 1.19275,-0.62304 0.90219,-0.45322 -4.36731,2.5526 -17.53141,10.10303 -13.13409,7.60249 2.45743,-1.39741 34.79133,-20.12337 1.64251,-0.9314 4.94332,-2.85368 9.77765,-5.90509 14.82996,-8.56103 4.49551,-2.36325 -8.77362,5.11873 -13.15808,7.68214 -0.26506,0.15497 0.54701,-0.28263 0.79986,-0.45681 0.69103,-0.47603 1.35991,-1.05526 1.86894,-1.72121 1.38159,-1.07722 2.55348,-2.43901 3.7673,-3.69073 0.97353,-1.31679 2.20772,-2.41524 2.98161,-3.89157 0.77571,-1.77931 2.03848,-3.27396 2.72297,-5.10592 0.90479,-1.75177 1.3003,-3.74658 2.01872,-5.58157 0.80853,-2.05685 0.96198,-4.35032 1.96121,-6.35975 0.3709,-2.15473 0.0886,-4.36331 0.17523,-6.54205 3.1e-4,-2.21151 7.2e-4,-4.42302 0.004,-6.63453 0.003,-2.21082 0.0104,-4.42163 0.011,-6.63245 -0.005,-2.09596 0.003,-4.1969 -0.19265,-6.2858 -0.22342,-1.776 -0.67136,-3.45316 -1.5023,-5.05168 -0.50514,-1.80985 -1.03572,-3.62575 -1.70376,-5.37568 -0.78334,-1.35581 -1.671,-2.69314 -2.73217,-3.84291 -1.13133,-1.03837 -2.24113,-2.11768 -3.60032,-2.86214 -1.67801,-0.84077 -3.45378,-1.55683 -5.33611,-1.74381 -2.18934,-0.1106 -4.38322,-0.0291 -6.57466,-0.0605 -2.21101,-0.006 -4.42204,-0.02 -6.63306,-0.0122 -2.18355,0.0222 -4.38318,0.0379 -6.53493,0.45533 -1.06914,0.25659 -2.07984,0.5431 -3.07504,1.023 -0.33193,0.16006 -1.29372,0.70595 -0.97544,0.52024 0.63721,-0.3718 37.26285,-21.60339 -1.90909,1.11973 -5.21177,2.88966 -2.90294,1.61802 12.3338,-7.2307 0.26402,-0.15333 -0.52842,0.30888 -0.77179,0.49325 -0.2562,0.19408 -0.48159,0.42579 -0.72239,0.63868 -0.27597,0.15984 -0.5659,0.29771 -0.82792,0.47952 -0.25918,0.17983 -0.48696,0.40117 -0.73044,0.60176 -1.70593,1.3498 -3.16136,3.0284 -4.72264,4.54057 -1.95106,2.13241 -4.06545,4.12298 -5.89627,6.36527 0,0 -15.088449,6.44636 -15.088449,6.44636 z"
       inkscape:connector-curvature="0" />
    <path
       style="fill:#000000"
       id="path3800"
       d="m 575.51808,312.56693 c 2.99255,0.4285 5.98497,0.58928 8.94323,1.22339 2.0692,0.21404 3.94444,1.10026 5.96559,1.52015 2.01674,0.0261 3.76883,0.91947 5.62652,1.5571 2.1942,0.5235 4.12638,1.72713 6.24069,2.47442 2.21545,0.65753 4.35097,1.63824 6.45685,2.59756 2.2886,1.2557 4.69092,2.23873 6.95762,3.54308 2.4063,1.52509 4.82277,3.05018 7.35784,4.35417 1.97149,1.0813 3.68773,2.47937 5.41038,3.90806 1.71809,1.12589 3.14302,2.62478 4.74453,3.90123 1.50161,1.30692 2.91734,2.69876 4.36932,4.0592 1.59015,1.44845 2.98207,3.08335 4.36475,4.72736 1.24588,1.77386 2.79018,3.30544 4.17088,4.96965 1.30801,1.16506 2.32228,2.549 3.38796,3.91932 1.20748,0.73078 1.60823,2.50552 3.08179,2.74206 3.63302,-4.43273 -0.0261,0.1184 -13.56931,7.28094 -0.20889,0.11047 0.35503,-0.3283 0.45834,-0.54083 0.1483,-0.30506 0.20845,-0.64674 0.28014,-0.97827 0.17334,-0.80173 0.21769,-1.55473 0.29345,-2.36971 0.0142,-2.68342 0.19315,-5.2806 0.86329,-7.88396 0.7704,-2.38301 1.04126,-4.86538 1.42629,-7.32536 1.08119,-4.81711 2.45951,-9.56092 3.61123,-14.36185 1.30797,-5.77994 3.2915,-11.366 5.07449,-17.00684 1.31802,-4.21948 2.70753,-8.41438 4.11617,-12.60414 1.32739,-3.63211 2.74994,-7.22679 4.01956,-10.8812 1.05622,-3.63437 2.28298,-7.21395 3.4365,-10.81796 1.41674,-4.20912 2.8646,-8.40433 4.42536,-12.56272 1.74395,-4.67399 3.09836,-9.47894 4.79333,-14.16997 1.4147,-4.10792 3.06825,-8.12252 4.50267,-12.22401 1.53047,-4.56869 3.57171,-8.9339 5.49516,-13.34301 1.50275,-3.76026 3.34187,-7.35722 5.31003,-10.89037 1.45559,-2.53085 3.08462,-4.94095 4.79828,-7.301 0.97534,-1.32134 0.49305,-0.68578 1.44409,-1.9088 0,0 15.01474,-6.46851 15.01474,-6.46851 v 0 c -0.93108,1.2802 -0.43131,0.65364 -1.50394,1.87596 -1.6295,2.40468 -3.46585,4.66631 -4.91538,7.19598 -2.07139,3.46485 -3.99652,7.01481 -5.4892,10.77336 -1.91901,4.38283 -4.01329,8.6971 -5.55786,13.23448 -1.41926,4.10649 -2.96802,8.15906 -4.45429,12.23724 -1.78261,4.69595 -3.24111,9.50215 -4.93073,14.23035 -1.4833,4.11329 -2.83197,8.27132 -4.2435,12.40772 -1.18719,3.61703 -2.46669,7.2068 -3.48824,10.87418 -1.24235,3.64833 -2.53081,7.27633 -3.97087,10.84856 -1.43443,4.22613 -2.96658,8.41792 -4.33194,12.66721 -1.75299,5.62159 -3.78152,11.1616 -5.12352,16.90582 -1.11584,4.71061 -2.32863,9.40434 -3.36618,14.12802 -0.46746,2.489 -0.55132,5.05371 -1.37432,7.47552 -0.74262,2.56467 -1.10331,4.90292 -0.97783,7.59068 -0.3917,6.8926 -1.93609,18.92112 -15.78158,12.99444 -1.38598,-0.93318 -2.27942,-2.29329 -3.47789,-3.43693 -1.02174,-1.37101 -2.10801,-2.66098 -3.31901,-3.87667 -1.3809,-1.6546 -2.8767,-3.2152 -4.14006,-4.96486 -1.36867,-1.58272 -2.73029,-3.17943 -4.29121,-4.57883 -1.39961,-1.36785 -2.87333,-2.63476 -4.3203,-3.95161 -1.5492,-1.33097 -3.05036,-2.72602 -4.72503,-3.90191 -1.65651,-1.33909 -3.31132,-2.65406 -5.19704,-3.6687 -2.49114,-1.39016 -4.90553,-2.90682 -7.3431,-4.38775 -2.2715,-1.20146 -4.64127,-2.19678 -6.91898,-3.38703 -2.127,-0.88789 -4.21655,-1.87002 -6.43162,-2.52529 -2.05707,-0.84892 -4.04937,-1.87168 -6.21396,-2.43854 -1.81776,-0.65753 -3.64272,-1.13339 -5.56062,-1.40122 -1.95341,-0.53745 -3.85907,-1.23292 -5.87837,-1.51175 -2.95162,-0.58275 -5.96013,-0.71489 -8.94085,-1.10257 0,0 13.39566,-9.44504 13.39566,-9.44504 z"
       inkscape:connector-curvature="0" />
    <path
       style="fill:#000000"
       id="path36"
       d="m 341.07174,146.65242 c -0.15263,1.08934 -0.30244,2.18349 -0.59164,3.24629 -0.30979,1.00153 -0.61529,2.00334 -0.91941,3.00681 -0.33023,0.93757 -0.65402,1.87777 -1.00483,2.80778 0,0 -4.93807,2.26845 -4.93807,2.26845 v 0 c 0.43176,-0.88337 0.6537,-1.86217 1.02157,-2.77432 0.38739,-0.96073 0.56453,-2.01079 0.93705,-2.98042 0.30708,-1.01589 0.46876,-2.0445 0.62756,-3.09434 0,0 4.86777,-2.48025 4.86777,-2.48025 z"
       inkscape:connector-curvature="0" />
    <path
       style="fill:#000000"
       id="path38"
       d="m 437.15145,268.78737 c -0.41704,1.09155 -0.67853,2.22248 -0.95815,3.35352 -0.20881,1.05615 -0.61977,2.05092 -0.91544,3.08136 -0.34567,0.84355 -0.56276,1.71714 -0.78483,2.59785 -0.14377,0.42049 -0.26072,0.84772 -0.36741,1.27874 0,0 -4.89906,2.3625 -4.89906,2.3625 v 0 c 0.0887,-0.44535 0.17956,-0.89051 0.34607,-1.31518 0.30889,-0.8448 0.32468,-1.78895 0.80217,-2.58262 0.25369,-1.05282 0.73165,-2.02402 0.93494,-3.09131 0.31053,-1.09958 0.45181,-2.24988 0.92702,-3.3017 0,0 4.91469,-2.38316 4.91469,-2.38316 z"
       inkscape:connector-curvature="0" />
    <path
       style="fill:#000000"
       id="path40"
       d="m 77.042295,140.24852 c 1.367222,0.57028 2.567741,1.54011 3.463889,2.71211 0.642654,0.81982 1.322358,1.61025 1.837026,2.51891 0,0 -6.674383,3.8456 -6.674383,3.8456 v 0 c -0.494092,-0.87492 -1.164309,-1.63063 -1.766268,-2.43206 -0.860446,-1.09597 -2.011976,-1.91372 -3.322246,-2.3928 0,0 6.461982,-4.25176 6.461982,-4.25176 z"
       inkscape:connector-curvature="0" />
    <path
       style="fill:#ff0000"
       id="path42"
       d="m 97.66147,142.64246 c -3.282705,2.08247 -6.724204,3.90206 -10.061785,5.89054 -1.870353,1.11433 3.775205,-2.16987 5.67423,-3.23461 0.264314,-0.14819 -0.512802,0.323 -0.769204,0.48449 -20.119607,11.52499 -0.927564,0.50812 -1.37886,0.78338 -2.358116,1.43831 -4.799145,2.73673 -7.171955,4.15066 -1.967423,1.17236 7.940236,-4.56901 5.955676,-3.42589 -2.400134,1.38249 -4.799994,2.76547 -7.202399,4.14401 -1.971103,1.13105 3.938992,-2.2677 5.908488,-3.40154 -23.40054,13.34169 4.793269,-2.78153 -2.542804,1.49585 -2.398345,1.39838 -4.821248,2.75486 -7.205464,4.1772 -1.943981,1.15971 3.923087,-2.2595 5.884631,-3.38924 -2.422133,1.38463 -4.844266,2.76926 -7.266398,4.15389 -0.239191,0.1369 -0.956718,0.54768 -0.717573,0.4107 1.933738,-1.10762 3.863786,-2.22171 5.801349,-3.32262 0.254751,-0.14475 -0.497949,0.30922 -0.752687,0.45399 -8.056315,4.57849 -4.899496,2.62674 -7.99685,4.55467 -0.219329,0.11623 -0.873108,0.47254 -0.657987,0.34869 1.999102,-1.15088 3.99763,-2.30299 6.010286,-3.43001 0.186532,-0.10445 -0.345283,0.25353 -0.529958,0.36122 -2.371313,1.38291 -4.776968,2.70688 -7.136533,4.10973 -2.009845,1.19494 4.053356,-2.33237 6.087254,-3.48589 0.170965,-0.097 -0.331921,0.2106 -0.497881,0.3159 -2.382434,1.34592 -4.764867,2.69184 -7.147301,4.03777 0,0 6.026651,-4.79631 6.026651,-4.79631 v 0 c -2.022403,1.17692 -4.044806,2.35385 -6.067209,3.53078 2.802028,-1.57964 1.614063,-0.90648 7.595096,-4.42626 2.004145,-1.17941 -4.01722,2.3436 -6.025831,3.51539 0.18055,-0.11607 0.35707,-0.23867 0.541648,-0.34822 2.36981,-1.40658 4.744871,-2.80431 7.121137,-4.19995 0.21063,-0.12371 0.426269,-0.23869 0.639404,-0.35803 2.701608,-1.44089 0.599255,-0.33106 -5.102836,3.01586 -0.251622,0.1477 0.509794,-0.28401 0.761918,-0.43084 2.431465,-1.41608 4.855647,-2.84466 7.288782,-4.25786 0.241035,-0.14 0.973941,-0.54259 0.733477,-0.40161 -1.949698,1.14305 -3.907636,2.27199 -5.861453,3.40799 23.335901,-13.53924 -4.802191,2.74661 2.547044,-1.52859 2.396807,-1.39427 4.795831,-2.78474 7.190931,-4.18195 1.958791,-1.14268 -3.921337,2.27892 -5.882005,3.41837 2.410335,-1.38959 4.799109,-2.81727 7.231007,-4.16877 2.000689,-1.11186 -7.908239,4.61334 -5.937187,3.44975 2.384445,-1.40764 4.800368,-2.76176 7.177394,-4.18189 1.969823,-1.17686 -7.94118,4.60223 -5.955698,3.452 8.618985,-4.99318 10.027697,-5.8228 1.406928,-0.79256 4.207994,-2.54002 14.839297,-8.58565 2.583372,-1.56074 -0.60771,0.34833 1.207886,-0.71 1.801763,-1.08142 0.241266,-0.15089 0.469628,-0.3215 0.704443,-0.48225 0,0 7.194949,-2.77578 7.194949,-2.77578 z"
       inkscape:connector-curvature="0" />
    <path
       style="fill:#ff0000;stroke-width:0.78125"
       d="m 430.23209,573.05436 c -51.2137,-3.69601 -76.70215,-9.44452 -106.64063,-24.05111 -13.73593,-6.70157 -18.74266,-9.55782 -37.10937,-21.17028 -23.81445,-15.05681 -33.64435,-23.56729 -46.0186,-39.84176 -13.58334,-17.86465 -16.98954,-24.16497 -23.05548,-42.64493 -8.9216,-27.17975 -9.40995,-30.77629 -8.79576,-64.77694 0.47522,-26.30741 0.91627,-32.84319 3.67878,-54.51557 5.05292,-39.64092 23.36275,-105.74255 39.00006,-140.79693 7.64793,-17.14448 21.87201,-44.67923 30.5339,-59.10705 9.14625,-15.23462 26.3907,-39.92497 33.1988,-47.533576 14.72062,-16.451486 18.35585,-20.07401 25.52086,-25.431649 4.27962,-3.200093 7.92197,-5.818351 8.09411,-5.818351 1.79486,0 10.34181,7.137835 17.92145,14.966782 5.15625,5.325846 12.71484,12.427568 16.79688,15.781603 10.3546,8.50795 33.08227,30.424131 42.50272,40.985171 13.3454,14.96121 16.55638,18.82467 27.06383,32.56332 5.5867,7.30469 17.19991,22.24609 25.80713,33.20312 25.29294,32.19798 44.04608,61.3478 60.81541,94.53125 13.17408,26.06912 20.24562,43.75464 24.49066,61.2498 1.61878,6.67149 1.72461,8.86673 1.7176,35.6252 -0.008,29.71306 -0.67676,39.54727 -4.35793,64.0625 -2.71614,18.08851 -8.4484,40.96707 -14.77864,58.98438 -3.54736,10.09658 -11.64693,25.5775 -13.09195,25.023 -1.09723,-0.42106 -15.02976,7.7883 -14.99591,8.83591 0.009,0.28385 1.41543,1.50568 3.125,2.71519 1.70958,1.20951 3.10833,2.52564 3.10833,2.92474 0,2.34127 -18.28175,20.71449 -27.34375,27.48056 -9.6994,7.24197 -11.70424,7.6505 -36.88942,7.51699 -11.72254,-0.0621 -25.35668,-0.40476 -30.29808,-0.76137 z m -64.98104,-187.60221 5.54093,-4.88281 0.0326,-16.51556 c 0.0376,-19.05895 0.58285,-22.50663 7.50835,-47.47384 2.37262,-8.55355 4.968,-19.80355 5.76751,-25 0.79952,-5.19645 2.07284,-11.76592 2.82961,-14.59882 1.55638,-5.82617 1.24581,-7.43166 -1.65062,-8.53288 -2.52818,-0.96121 -11.43962,-0.96823 -15.59417,-0.0123 -1.71875,0.39549 -5.76172,1.06288 -8.98437,1.4831 -3.22266,0.42023 -10.07813,1.51554 -15.23438,2.43403 -5.15625,0.91847 -13.24219,2.33393 -17.96875,3.14546 -23.41526,4.02026 -21.98719,3.63808 -26.59606,7.11781 -2.3676,1.78756 -4.42965,3.11294 -4.58233,2.94529 -0.34462,-0.37841 -7.58234,-11.6896 -8.70622,-13.60619 -0.75833,-1.2932 -1.34844,-1.11506 -7.60662,2.29628 -3.73148,2.03403 -6.97942,4.0136 -7.21763,4.39903 -0.61062,0.988 1.4285,4.72205 7.02054,12.85607 2.65865,3.86718 8.45706,12.30468 12.88534,18.75 25.04325,36.45006 60.96358,80.07812 65.9308,80.07812 0.59653,0 3.57802,-2.19726 6.62553,-4.88281 z m 120.82305,-33.0629 c 5.21783,-5.63014 6.70263,-19.23806 6.8988,-63.22616 0.0824,-18.47656 -0.13755,-34.38477 -0.48878,-35.35156 -0.84746,-2.3328 -2.09061,-2.23446 -11.60129,0.91779 -4.43994,1.47158 -12.29137,3.57422 -17.44762,4.67253 -5.15625,1.09832 -10.95703,2.33905 -12.89062,2.75721 -1.9336,0.41815 -7.31365,1.35836 -11.95568,2.08934 l -8.44006,1.32908 -6.66145,5.02463 c -3.6638,2.76355 -6.53172,5.15437 -6.37315,5.31293 0.15856,0.15856 3.23151,-0.22551 6.82877,-0.85351 3.59727,-0.628 6.66796,-1.01433 6.82378,-0.85851 0.94441,0.94441 -1.36476,3.23841 -5.70058,5.66314 -2.74471,1.53493 -4.99038,3.23338 -4.99038,3.77434 0,0.54095 0.71631,1.6318 1.5918,2.42411 0.87549,0.79231 5.88526,6.87456 11.13281,13.51611 17.08126,21.61885 19.49828,24.60395 28.25416,34.89487 4.75272,5.58594 9.69358,11.62819 10.9797,13.42724 4.45129,6.22654 10.60475,8.19288 14.03979,4.48642 z M 389.64116,211.10827 c 4.28348,-2.83467 5.32011,-5.35183 5.79896,-14.08104 0.2276,-4.14898 1.12382,-10.25245 1.99162,-13.56325 1.90497,-7.2678 4.3577,-21.82104 5.03041,-29.84777 0.27008,-3.22265 0.86134,-8.67187 1.31391,-12.10937 1.06565,-8.0942 0.34404,-10.15497 -3.96192,-11.31445 -3.54209,-0.95379 -5.83605,-0.48936 -23.11587,4.67998 -5.59593,1.67406 -11.74828,3.27952 -13.67187,3.5677 -1.9236,0.28818 -8.03783,1.73751 -13.5872,3.22074 -9.66683,2.58374 -10.36426,2.91112 -16.63826,7.81022 -3.60168,2.8124 -6.4277,5.23425 -6.28004,5.38192 0.14765,0.14765 1.97995,-0.24662 4.07176,-0.87616 2.09182,-0.62954 3.9227,-1.02522 4.06864,-0.87929 0.14593,0.14594 -0.0951,1.29925 -0.53561,2.56293 -0.5341,1.53211 -2.21705,3.14459 -5.05145,4.83992 -2.33777,1.39828 -4.42663,2.82733 -4.64191,3.17565 -0.21528,0.34833 2.64003,3.23714 6.34512,6.41958 3.7051,3.18245 11.45729,10.00501 17.2271,15.16126 5.76979,5.15625 12.83254,11.41003 15.69497,13.89728 2.86244,2.48726 5.31811,5.03609 5.45703,5.66406 0.13893,0.62799 0.68839,1.14178 1.22103,1.14178 0.53263,0 2.001,1.09924 3.26303,2.44275 5.52751,5.88436 10.04323,6.64793 16.00055,2.70556 z"
       id="path44"
       inkscape:connector-curvature="0" />
    <path
       style="fill:#ff0000;stroke-width:1.10485435"
       d="m -26.59554,266.38813 c 0.979088,-11.19217 3.78866,-46.24288 5.086004,-63.45026 1.505315,-19.96582 5.059315,-57.84716 7.152307,-76.23495 0.933769,-8.20354 1.702547,-17.06336 1.708396,-19.68848 l 0.01064,-4.77294 8.6842333,4.62715 c 4.77632732,2.54494 13.3527592,8.05005 19.0587377,12.23359 15.298788,11.21685 28.335063,20.0726 35.466623,24.09304 3.470278,1.95639 7.838,5.29782 9.70605,7.42541 l 3.396455,3.86835 4.940538,-2.89535 c 3.399619,-1.99231 5.481486,-2.59262 6.674943,-1.92473 1.495529,0.83695 1.312713,1.47178 -1.327359,4.60933 -1.683971,2.00128 -3.142293,4.44619 -3.240715,5.43312 -0.09842,0.98693 -0.717242,4.77753 -1.375154,8.42355 -0.657912,3.64602 -1.744804,11.10379 -2.415316,16.57282 -0.67051,5.46902 -1.718481,13.17852 -2.328823,17.13221 l -1.109711,7.18853 -15.139524,9.29582 c -15.050559,9.2412 -45.5686292,31.59435 -70.899532,51.93078 l -4.718457,3.78813 z"
       id="path46"
       inkscape:connector-curvature="0" />
    <path
       style="fill:#ff0000;stroke-width:1.10485435"
       d="m 121.04443,202.90652 c -3.98484,-1.06973 -10.93281,-4.80938 -15.93473,-8.57665 l -4.3385,-3.26761 -8.10585,5.00235 c -4.458217,2.7513 -8.30929,4.79891 -8.557941,4.55026 -0.24865,-0.24865 0.217275,-3.43228 1.035389,-7.07474 0.818115,-3.64245 2.596516,-15.40334 3.952003,-26.13529 l 2.464521,-19.51265 6.591554,-2.58444 c 4.679254,-1.83466 7.713434,-3.9467 10.458604,-7.28007 l 3.86705,-4.69563 h 10.19963 c 11.94586,0 16.20916,2.01328 19.91768,9.40584 1.9341,3.85544 2.20971,6.60969 2.20971,22.08251 0,17.09319 -0.10383,17.90237 -3.14031,24.47397 -1.72716,3.73797 -4.5521,8.1489 -6.27763,9.80207 -3.3973,3.25481 -9.93726,4.99231 -14.34118,3.81008 z"
       id="path48"
       inkscape:connector-curvature="0" />
    <path
       style="fill:#ffffff;stroke-width:1.10485435"
       d="m 393.93668,321.45037 c -7.15056,-8.45038 -7.05996,-8.10162 -2.76315,-10.6368 3.40591,-2.00953 3.72777,-2.58168 2.81011,-4.99531 -2.05617,-5.40813 -4.6198,-21.45977 -6.19576,-38.79343 -0.88398,-9.72271 -1.90266,-19.01268 -2.26374,-20.64436 -0.59602,-2.69339 -0.31511,-3.01631 3.04938,-3.50532 2.03823,-0.29624 6.9949,-1.07426 11.01481,-1.72893 4.01992,-0.65468 9.17402,-1.19032 11.45356,-1.19032 3.94502,0 4.1128,0.14633 3.48386,3.03835 -0.36341,1.67109 -1.62057,8.50738 -2.79368,15.19175 -1.17311,6.68437 -4.48688,20.85413 -7.36392,31.48835 -2.87704,10.63422 -5.53102,23.16242 -5.89773,27.84045 l -0.66675,8.5055 z"
       id="path388"
       inkscape:connector-curvature="0"
       transform="translate(-42.675422,37.904056)" />
    <path
       style="fill:#ffffff;stroke-width:1.10485435"
       d="m 501.61533,267.27671 c -2.38072,-3.17688 -8.47258,-10.89632 -13.53745,-17.15431 -5.06488,-6.25799 -9.05275,-12.18727 -8.86193,-13.17617 0.25713,-1.33255 3.49312,-2.46002 12.50034,-4.35531 6.68437,-1.40652 12.65058,-2.39099 13.25825,-2.18773 0.60767,0.20327 -1.50537,1.69839 -4.69563,3.32248 -3.19027,1.62409 -5.79931,3.566 -5.79788,4.31535 0.001,0.74935 1.92563,5.83712 4.27599,11.30614 4.26342,9.92056 8.37194,22.52067 7.59624,23.29637 -0.22514,0.22513 -2.35721,-2.18993 -4.73793,-5.36682 z"
       id="path390"
       inkscape:connector-curvature="0"
       transform="translate(-42.675422,37.904056)" />
    <path
       style="fill:#ffffff;stroke-width:1.10485435"
       d="m 423.94267,140.37046 c -0.73386,-3.17924 -3.51696,-11.03411 -6.18467,-17.45527 -2.66771,-6.42115 -5.127,-12.54811 -5.46509,-13.61547 -0.54921,-1.73387 -1.35386,-1.53177 -7.55197,1.8968 -3.8155,2.11059 -7.09253,4.57121 -7.28229,5.46804 -0.18976,0.89682 1.17749,5.25429 3.03835,9.68325 1.86085,4.42896 3.38337,8.47799 3.38337,8.99784 0,0.90167 -9.2046,-6.42236 -17.87083,-14.21969 -5.8424,-5.25662 -4.86563,-7.59366 3.87857,-9.27996 3.74588,-0.72239 12.77692,-3.00649 20.06895,-5.07579 23.54036,-6.68017 22.24049,-7.252246 20.51879,9.03029 -1.60823,15.20936 -3.42173,27.06765 -4.42211,28.91553 -0.45892,0.84772 -1.32278,-0.93052 -2.11107,-4.34557 z"
       id="path392"
       inkscape:connector-curvature="0"
       transform="translate(-42.675422,37.904056)" />
  </g>
</svg>
